<?xml version="1.0" encoding="UTF-8" standalone="no"?>
<!DOCTYPE svg PUBLIC "-//W3C//DTD SVG 1.1//EN" "http://www.w3.org/Graphics/SVG/1.1/DTD/svg11.dtd">
<svg xmlns="http://www.w3.org/2000/svg" version="1.1" width="600.239" height="1125.239" xmlns:xlink="http://www.w3.org/1999/xlink" xlink="http://www.w3.org/1999/xlink" style="position:relative;overflow:hidden;" viewBox="291.346 -4.803 600.239 1125.239"><defs/><g><g width="483.333" height="1008.333" transform="scale(1,1) translate(353.667,57.5)"><g transform="scale(1,1) translate(0,0)" fill="none" stroke="#000000" stroke-opacity="1"><path d="M0,1008.333 L0,0 L483.333,0 L483.333,1008.333 L0,1008.333 z" stroke-width="8.333" stroke-dasharray="none"/></g><g fill="#9999FF" stroke="#9999FF" stroke-opacity="1" transform="scale(1,1) translate(0,0)"><path fill="none" stroke-width="1" stroke-dasharray="none" d="M-7.167,1004.167 L-36.979,1004.167 L-36.979,523.833 M-36.979,484.5 L-36.979,4.167 L-7.167,4.167 M4.167,-7.167 L4.167,-36.979 L222,-36.979 M261.333,-36.979 L479.167,-36.979 L479.167,-7.167 M490.5,4.167 L520.312,4.167 L520.312,484.5 M520.312,523.833 L520.312,1004.167 L490.5,1004.167 M479.167,1015.5 L479.167,1045.312 L261.333,1045.312 M222,1045.312 L4.167,1045.312 L4.167,1015.5"/><g><g stroke-dasharray="none"><path d="M-8.167,1003.167L-6.167,1003.167L-6.167,1005.167L-8.167,1005.167z" stroke-width="0" fill="none"/></g></g></g><g width="33.33332824707031" height="15.624998092651367" transform="rotate(270,-44.792,520.833) scale(1,1) translate(-44.792,520.833)"><text width="33.33332824707031" height="15.624998092651367" transform="scale(1,1) translate(0,0)" xml:space="preserve"><tspan xml:space="preserve" text-rendering="optimizeSpeed" style="font-family: Arial, Helvetica Neue, Helvetica, sans-serif;" font-size="13.88888888888889" font-weight="normal" font-style="normal" fill="#000" opacity="1" x="0" text-anchor="start" y="12.5" textLength="33.33332824707031">40' 0"</tspan></text></g><g width="33.33332824707031" height="15.624998092651367" transform="scale(1,1) translate(225,-44.792)"><text width="33.33332824707031" height="15.624998092651367" transform="scale(1,1) translate(0,0)" xml:space="preserve"><tspan xml:space="preserve" text-rendering="optimizeSpeed" style="font-family: Arial, Helvetica Neue, Helvetica, sans-serif;" font-size="13.88888888888889" font-weight="normal" font-style="normal" fill="#000" opacity="1" x="0" text-anchor="start" y="12.5" textLength="33.33332824707031">19' 0"</tspan></text></g><g width="33.33332824707031" height="15.624998092651367" transform="rotate(270,512.5,520.833) scale(1,1) translate(512.5,520.833)"><text width="33.33332824707031" height="15.624998092651367" transform="scale(1,1) translate(0,0)" xml:space="preserve"><tspan xml:space="preserve" text-rendering="optimizeSpeed" style="font-family: Arial, Helvetica Neue, Helvetica, sans-serif;" font-size="13.88888888888889" font-weight="normal" font-style="normal" fill="#000" opacity="1" x="0" text-anchor="start" y="12.5" textLength="33.33332824707031">40' 0"</tspan></text></g><g width="33.33332824707031" height="15.624998092651367" transform="rotate(360,225,1037.5) scale(1,1) translate(225,1037.5)"><text width="33.33332824707031" height="15.624998092651367" transform="scale(1,1) translate(0,0)" xml:space="preserve"><tspan xml:space="preserve" text-rendering="optimizeSpeed" style="font-family: Arial, Helvetica Neue, Helvetica, sans-serif;" font-size="13.88888888888889" font-weight="normal" font-style="normal" fill="#000" opacity="1" x="0" text-anchor="start" y="12.5" textLength="33.33332824707031">19' 0"</tspan></text></g></g><g width="81.333" height="75" transform="rotate(270,389,1020.167) scale(1,1) translate(348.333,982.667)"><g width="81.333" height="75"><g transform="scale(1.382443999228238,1.312175319066651) translate(0,0)"><g><g width="56.833" height="43.824" transform="scale(1,1) translate(0.5,12.833)"><g transform="scale(1,1) translate(0,0)" fill="#000000" stroke="#000000" stroke-opacity="1"><path d="M0,0 L0,0 L0.154,2.213 L0.398,4.305 L0.721,6.291 L1.113,8.185 L1.567,9.996 L2.077,11.732 L2.639,13.4 L3.247,15.005 L3.9,16.551 L4.593,18.041 L5.326,19.48 L6.096,20.869 L6.901,22.211 L7.739,23.508 L8.611,24.761 L9.514,25.972 L10.447,27.142 L11.411,28.272 L12.403,29.363 L13.425,30.415 L14.474,31.43 L15.552,32.408 L16.657,33.349 L17.789,34.253 L18.949,35.12 L20.136,35.951 L21.351,36.745 L22.593,37.502 L23.864,38.221 L25.162,38.903 L26.489,39.547 L27.845,40.152 L29.232,40.717 L30.648,41.24 L32.097,41.722 L33.578,42.16 L35.092,42.553 L36.642,42.898 L38.229,43.194 L39.855,43.439 L41.523,43.627 L43.234,43.757 L44.992,43.824 L46.802,43.823 L48.668,43.746 L50.595,43.587 L52.592,43.335 L54.667,42.978 L56.833,42.5 L56.833,42.5 L56.833,0.5" fill="none" stroke-width="1" stroke-dasharray="none"/><g><g stroke-dasharray="none"><path d="M-1,-1L1,-1L1,1L-1,1z" stroke-width="0" fill="none"/></g></g></g></g><g width="57" height="14" transform="scale(1,1) translate(0.667,0)"><g stroke="#BFBFBF" opacity="1" stroke-width="0" stroke-dasharray="none" width="57" height="14" transform="scale(1,1) translate(0,0)" fill="#FFFFFF" fill-opacity="1" stroke-opacity="1"><rect width="57" height="14"/></g></g></g></g></g><g fill="#0000FF" stroke="#9999FF" stroke-opacity="1" transform="scale(1,1) translate(0,0)" opacity="0"><path fill="none" stroke-width="0" stroke-dasharray="none" d="M23.74,-17.719 L23.74,-9.906 L15.927,-13.812 L23.74,-17.719 M57.594,-17.719 L57.594,-9.906 L65.406,-13.812 L57.594,-17.719 M99.052,20.573 L91.24,20.573 L95.146,12.76 L99.052,20.573 M99.052,54.427 L91.24,54.427 L95.146,62.24 L99.052,54.427"/><g><g stroke-dasharray="none"><path d="M23.74,-17.719L23.74,-17.719L23.74,-17.719L23.74,-17.719z" stroke-width="0" fill="none"/></g></g></g><g width="26.041664123535156" height="15.624998092651367" transform="scale(1,1) translate(27.646,-21.625)" opacity="0"><text width="26.041664123535156" height="15.624998092651367" transform="scale(1,1) translate(0,0)" xml:space="preserve"><tspan xml:space="preserve" text-rendering="optimizeSpeed" style="font-family: Arial, Helvetica Neue, Helvetica, sans-serif;" font-size="13.88888888888889" font-weight="normal" font-style="normal" fill="#000" opacity="1" x="0" text-anchor="start" y="12.5" textLength="26.041664123535156">3' 3"</tspan></text></g><g width="26.041664123535156" height="15.624998092651367" transform="rotate(90,102.958,24.479) scale(1,1) translate(102.958,24.479)" opacity="0"><text width="26.041664123535156" height="15.624998092651367" transform="scale(1,1) translate(0,0)" xml:space="preserve"><tspan xml:space="preserve" text-rendering="optimizeSpeed" style="font-family: Arial, Helvetica Neue, Helvetica, sans-serif;" font-size="13.88888888888889" font-weight="normal" font-style="normal" fill="#000" opacity="1" x="0" text-anchor="start" y="12.5" textLength="26.041664123535156">3' 0"</tspan></text></g></g><g width="0" height="175" transform="scale(1,1) translate(530.167,890.333)"><g transform="scale(1,1) translate(0,0)" fill="#000000" stroke="#000000" stroke-opacity="1"><path d="M0,0 L0,175" fill="none" stroke-width="8.333" stroke-dasharray="none"/><g><g stroke-dasharray="none"><path d="M-8.333,-8.333L8.333,-8.333L8.333,8.333L-8.333,8.333z" stroke-width="0" fill="none"/></g></g></g><g fill="#9999FF" stroke="#9999FF" stroke-opacity="1" transform="scale(1,1) translate(0,0)"><path fill="none" stroke-width="1" stroke-dasharray="none" d="M11.333,0 L41.146,0 L41.146,71.479 M41.146,103.521 L41.146,175 L11.333,175"/><g><g stroke-dasharray="none"><path d="M10.333,-1L12.333,-1L12.333,1L10.333,1z" stroke-width="0" fill="none"/></g></g></g><g width="26.041664123535156" height="15.624998092651367" transform="rotate(270,33.333,100.521) scale(1,1) translate(33.333,100.521)"><text width="26.041664123535156" height="15.624998092651367" transform="scale(1,1) translate(0,0)" xml:space="preserve"><tspan xml:space="preserve" text-rendering="optimizeSpeed" style="font-family: Arial, Helvetica Neue, Helvetica, sans-serif;" font-size="13.88888888888889" font-weight="normal" font-style="normal" fill="#000" opacity="1" x="0" text-anchor="start" y="12.5" textLength="26.041664123535156">7' 0"</tspan></text></g></g><g width="300" height="0" transform="scale(1,1) translate(534.333,890)"><g transform="scale(1,1) translate(0,0)" fill="#000000" stroke="#000000" stroke-opacity="1"><path d="M0,0 L300,0" fill="none" stroke-width="8.333" stroke-dasharray="none"/><g><g stroke-dasharray="none"><path d="M-8.333,-8.333L8.333,-8.333L8.333,8.333L-8.333,8.333z" stroke-width="0" fill="none"/></g></g></g><g fill="#9999FF" stroke="#9999FF" stroke-opacity="1" transform="scale(1,1) translate(0,0)"><path fill="none" stroke-width="1" stroke-dasharray="none" d="M0,-11.333 L0,-41.146 L130.333,-41.146 M169.667,-41.146 L300,-41.146 L300,-11.333"/><g><g stroke-dasharray="none"><path d="M-1,-12.333L1,-12.333L1,-10.333L-1,-10.333z" stroke-width="0" fill="none"/></g></g></g><g width="33.33332824707031" height="15.624998092651367" transform="scale(1,1) translate(133.333,-48.958)"><text width="33.33332824707031" height="15.624998092651367" transform="scale(1,1) translate(0,0)" xml:space="preserve"><tspan xml:space="preserve" text-rendering="optimizeSpeed" style="font-family: Arial, Helvetica Neue, Helvetica, sans-serif;" font-size="13.88888888888889" font-weight="normal" font-style="normal" fill="#000" opacity="1" x="0" text-anchor="start" y="12.5" textLength="33.33332824707031">12' 0"</tspan></text></g></g><g width="100" height="15" transform="scale(1,1) translate(669.24,882.333)"><g stroke="#BFBFBF" opacity="1" stroke-width="0" stroke-dasharray="none" width="100" height="15" transform="scale(1,1) translate(0,0)" fill="#FFFFFF" fill-opacity="1" stroke-opacity="1"><rect width="100" height="15"/></g><g fill="#0000FF" stroke="#9999FF" stroke-opacity="1" transform="scale(1,1) translate(0,0)" opacity="0"><path fill="none" stroke-width="0" stroke-dasharray="none" d="M33.073,-16.719 L33.073,-8.906 L25.26,-12.812 L33.073,-16.719 M66.927,-16.719 L66.927,-8.906 L74.74,-12.812 L66.927,-16.719 M116.719,-9.427 L108.906,-9.427 L112.812,-17.24 L116.719,-9.427 M116.719,24.427 L108.906,24.427 L112.812,32.24 L116.719,24.427"/><g><g stroke-dasharray="none"><path d="M33.073,-16.719L33.073,-16.719L33.073,-16.719L33.073,-16.719z" stroke-width="0" fill="none"/></g></g></g><g width="26.041664123535156" height="15.624998092651367" transform="scale(1,1) translate(36.979,-20.625)" opacity="0"><text width="26.041664123535156" height="15.624998092651367" transform="scale(1,1) translate(0,0)" xml:space="preserve"><tspan xml:space="preserve" text-rendering="optimizeSpeed" style="font-family: Arial, Helvetica Neue, Helvetica, sans-serif;" font-size="13.88888888888889" font-weight="normal" font-style="normal" fill="#000" opacity="1" x="0" text-anchor="start" y="12.5" textLength="26.041664123535156">4' 0"</tspan></text></g><g width="26.041664123535156" height="15.624998092651367" transform="rotate(270,105,20.521) scale(1,1) translate(105,20.521)" opacity="0"><text width="26.041664123535156" height="15.624998092651367" transform="scale(1,1) translate(0,0)" xml:space="preserve"><tspan xml:space="preserve" text-rendering="optimizeSpeed" style="font-family: Arial, Helvetica Neue, Helvetica, sans-serif;" font-size="13.88888888888889" font-weight="normal" font-style="normal" fill="#000" opacity="1" x="0" text-anchor="start" y="12.5" textLength="26.041664123535156">0' 7"</tspan></text></g></g><g width="75" height="13" transform="scale(1,1) translate(463.167,49.667)"><g width="75" height="13"><g transform="scale(0.9740256844976793,0.9629635298478926) translate(0,0)"><g><g width="75" height="12.5" transform="scale(1,1) translate(0.5,0.5)"><g stroke="#000000" opacity="1" stroke-width="1" stroke-dasharray="none" width="75" height="12.5" transform="scale(1,1) translate(0,0)" fill="#FFFFFF" fill-opacity="1" stroke-opacity="1"><rect width="75" height="12.5"/></g></g><g width="75" height="0" transform="scale(1,1) translate(0.5,6.667)"><g transform="scale(1,1) translate(0,0)" fill="#000000" stroke="#000000" stroke-opacity="1"><path d="M0,0 L75,0" fill="none" stroke-width="1" stroke-dasharray="none"/><g><g stroke-dasharray="none"><path d="M-1,-1L1,-1L1,1L-1,1z" stroke-width="0" fill="none"/></g></g></g></g></g></g></g><g fill="#0000FF" stroke="#9999FF" stroke-opacity="1" transform="scale(1,1) translate(0,0)" opacity="0"><path fill="none" stroke-width="0" stroke-dasharray="none" d="M20.573,-17.719 L20.573,-9.906 L12.76,-13.812 L20.573,-17.719 M54.427,-17.719 L54.427,-9.906 L62.24,-13.812 L54.427,-17.719 M92.719,-10.427 L84.906,-10.427 L88.812,-18.24 L92.719,-10.427 M92.719,23.427 L84.906,23.427 L88.812,31.24 L92.719,23.427"/><g><g stroke-dasharray="none"><path d="M20.573,-17.719L20.573,-17.719L20.573,-17.719L20.573,-17.719z" stroke-width="0" fill="none"/></g></g></g><g width="26.041664123535156" height="15.624998092651367" transform="scale(1,1) translate(24.479,-21.625)" opacity="0"><text width="26.041664123535156" height="15.624998092651367" transform="scale(1,1) translate(0,0)" xml:space="preserve"><tspan xml:space="preserve" text-rendering="optimizeSpeed" style="font-family: Arial, Helvetica Neue, Helvetica, sans-serif;" font-size="13.88888888888889" font-weight="normal" font-style="normal" fill="#000" opacity="1" x="0" text-anchor="start" y="12.5" textLength="26.041664123535156">3' 0"</tspan></text></g><g width="26.041664123535156" height="15.624998092651367" transform="rotate(270,81,19.521) scale(1,1) translate(81,19.521)" opacity="0"><text width="26.041664123535156" height="15.624998092651367" transform="scale(1,1) translate(0,0)" xml:space="preserve"><tspan xml:space="preserve" text-rendering="optimizeSpeed" style="font-family: Arial, Helvetica Neue, Helvetica, sans-serif;" font-size="13.88888888888889" font-weight="normal" font-style="normal" fill="#000" opacity="1" x="0" text-anchor="start" y="12.5" textLength="26.041664123535156">0' 6"</tspan></text></g></g><g width="75" height="13" transform="scale(1,1) translate(704.833,49.667)"><g width="75" height="13"><g transform="scale(0.9740256844976793,0.9629635298478926) translate(0,0)"><g><g width="75" height="12.5" transform="scale(1,1) translate(0.5,0.5)"><g stroke="#000000" opacity="1" stroke-width="1" stroke-dasharray="none" width="75" height="12.5" transform="scale(1,1) translate(0,0)" fill="#FFFFFF" fill-opacity="1" stroke-opacity="1"><rect width="75" height="12.5"/></g></g><g width="75" height="0" transform="scale(1,1) translate(0.5,6.667)"><g transform="scale(1,1) translate(0,0)" fill="#000000" stroke="#000000" stroke-opacity="1"><path d="M0,0 L75,0" fill="none" stroke-width="1" stroke-dasharray="none"/><g><g stroke-dasharray="none"><path d="M-1,-1L1,-1L1,1L-1,1z" stroke-width="0" fill="none"/></g></g></g></g></g></g></g><g fill="#0000FF" stroke="#9999FF" stroke-opacity="1" transform="scale(1,1) translate(0,0)" opacity="0"><path fill="none" stroke-width="0" stroke-dasharray="none" d="M20.573,-17.719 L20.573,-9.906 L12.76,-13.812 L20.573,-17.719 M54.427,-17.719 L54.427,-9.906 L62.24,-13.812 L54.427,-17.719 M92.719,-10.427 L84.906,-10.427 L88.812,-18.24 L92.719,-10.427 M92.719,23.427 L84.906,23.427 L88.812,31.24 L92.719,23.427"/><g><g stroke-dasharray="none"><path d="M20.573,-17.719L20.573,-17.719L20.573,-17.719L20.573,-17.719z" stroke-width="0" fill="none"/></g></g></g><g width="26.041664123535156" height="15.624998092651367" transform="scale(1,1) translate(24.479,-21.625)" opacity="0"><text width="26.041664123535156" height="15.624998092651367" transform="scale(1,1) translate(0,0)" xml:space="preserve"><tspan xml:space="preserve" text-rendering="optimizeSpeed" style="font-family: Arial, Helvetica Neue, Helvetica, sans-serif;" font-size="13.88888888888889" font-weight="normal" font-style="normal" fill="#000" opacity="1" x="0" text-anchor="start" y="12.5" textLength="26.041664123535156">3' 0"</tspan></text></g><g width="26.041664123535156" height="15.624998092651367" transform="rotate(270,81,19.521) scale(1,1) translate(81,19.521)" opacity="0"><text width="26.041664123535156" height="15.624998092651367" transform="scale(1,1) translate(0,0)" xml:space="preserve"><tspan xml:space="preserve" text-rendering="optimizeSpeed" style="font-family: Arial, Helvetica Neue, Helvetica, sans-serif;" font-size="13.88888888888889" font-weight="normal" font-style="normal" fill="#000" opacity="1" x="0" text-anchor="start" y="12.5" textLength="26.041664123535156">0' 6"</tspan></text></g></g><g width="63" height="63" transform="scale(1,1) translate(766.833,997)"><g width="63" height="63"><g transform="matrix(0.298 0 0 -0.294 0 63)"><g><g width="210.167" height="183.333" transform="scale(1,1) translate(0.5,0.5)"><g transform="scale(1,1) translate(0,0)" stroke="#000000" fill="#E0E0E0" fill-opacity="1" stroke-opacity="1"><path d="M0,0 L0,183.333 L210.167,183.333 L210.167,0 L0,0 z" stroke-width="1" stroke-dasharray="none"/></g></g><g width="208.333" height="14.167" transform="scale(1,1) translate(0.5,184.667)"><g transform="scale(1,1) translate(0,0)" stroke="#000000" fill="#E0E0E0" fill-opacity="1" stroke-opacity="1"><path d="M208.333,0 L208.333,14.167 L0,14.167 L0,0 L208.333,0 z" stroke-width="1" stroke-dasharray="none"/></g></g><g width="0" height="14.667" transform="scale(1,1) translate(208.667,198)"><g transform="scale(1,1) translate(0,0)" fill="#000000" stroke="#000000" stroke-opacity="1"><path d="M0,0 L0,14.667" fill="none" stroke-width="1" stroke-dasharray="none"/><g><g stroke-dasharray="none"><path d="M-1,-1L1,-1L1,1L-1,1z" stroke-width="0" fill="none"/></g></g></g></g><g width="19.5" height="0" transform="scale(1,1) translate(189.333,212.5)"><g transform="scale(1,1) translate(0,0)" fill="#000000" stroke="#000000" stroke-opacity="1"><path d="M0,0 L19.5,0" fill="none" stroke-width="1" stroke-dasharray="none"/><g><g stroke-dasharray="none"><path d="M-1,-1L1,-1L1,1L-1,1z" stroke-width="0" fill="none"/></g></g></g></g></g></g></g><g fill="#0000FF" stroke="#9999FF" stroke-opacity="1" transform="scale(1,1) translate(0,0)" opacity="0"><path fill="none" stroke-width="0" stroke-dasharray="none" d="M14.573,-17.719 L14.573,-9.906 L6.76,-13.812 L14.573,-17.719 M48.427,-17.719 L48.427,-9.906 L56.24,-13.812 L48.427,-17.719 M80.719,14.573 L72.906,14.573 L76.812,6.76 L80.719,14.573 M80.719,48.427 L72.906,48.427 L76.812,56.24 L80.719,48.427"/><g><g stroke-dasharray="none"><path d="M14.573,-17.719L14.573,-17.719L14.573,-17.719L14.573,-17.719z" stroke-width="0" fill="none"/></g></g></g><g width="26.041664123535156" height="15.624998092651367" transform="scale(1,1) translate(18.479,-21.625)" opacity="0"><text width="26.041664123535156" height="15.624998092651367" transform="scale(1,1) translate(0,0)" xml:space="preserve"><tspan xml:space="preserve" text-rendering="optimizeSpeed" style="font-family: Arial, Helvetica Neue, Helvetica, sans-serif;" font-size="13.88888888888889" font-weight="normal" font-style="normal" fill="#000" opacity="1" x="0" text-anchor="start" y="12.5" textLength="26.041664123535156">2' 6"</tspan></text></g><g width="26.041664123535156" height="15.624998092651367" transform="rotate(270,69,44.521) scale(1,1) translate(69,44.521)" opacity="0"><text width="26.041664123535156" height="15.624998092651367" transform="scale(1,1) translate(0,0)" xml:space="preserve"><tspan xml:space="preserve" text-rendering="optimizeSpeed" style="font-family: Arial, Helvetica Neue, Helvetica, sans-serif;" font-size="13.88888888888889" font-weight="normal" font-style="normal" fill="#000" opacity="1" x="0" text-anchor="start" y="12.5" textLength="26.041664123535156">2' 6"</tspan></text></g></g><g width="63" height="46" transform="scale(1,1) translate(536.833,1014.667)"><g width="63" height="46"><g transform="matrix(0.339 0 0 -0.338 0 46)"><g><g width="184.833" height="135" transform="scale(1,1) translate(0.5,0.5)"><g transform="scale(1,1) translate(0,0)" stroke="#000000" fill="#BFBFBF" fill-opacity="1" stroke-opacity="1"><path d="M0,0 L0,135 L184.833,135 L184.833,0 L0,0 z" stroke-width="1" stroke-dasharray="none"/></g></g><g width="153.5" height="94.167" transform="scale(1,1) translate(14.5,22.5)"><g transform="scale(1,1) translate(0,0)" stroke="#000000" fill="#BFBFBF" fill-opacity="1" stroke-opacity="1"><path d="M20.953,0 L20.012,0 L19.07,0 L18.128,0 L16.951,0.701 L15.538,0.701 L14.597,1.168 L13.655,1.168 L13.184,1.636 L12.007,2.103 L11.065,2.57 L10.123,3.038 L9.182,3.505 L8.475,4.206 L7.534,4.673 L7.063,5.141 L6.121,5.608 L5.65,6.543 L4.473,7.244 L4.002,8.178 L3.531,8.646 L3.061,9.58 L2.59,10.048 L2.119,11.216 L1.648,12.151 L1.177,12.618 L1.177,13.786 L0.471,14.721 L0,15.656 L0,16.59 L0,17.758 L0,18.693 L0,19.628 L0,19.628 L0,74.539 L0,75.474 L0,76.408 L0,77.577 L0,78.511 L0.471,79.446 L1.177,80.614 L1.177,81.549 L1.648,82.016 L2.119,82.951 L2.59,84.119 L3.061,84.586 L3.531,85.521 L4.002,85.988 L4.473,87.157 L5.65,87.624 L6.121,88.559 L7.063,89.026 L7.534,89.493 L8.475,89.961 L9.182,90.662 L10.123,91.129 L11.065,91.596 L12.007,92.064 L13.184,92.531 L13.655,92.998 L14.597,92.998 L15.538,93.466 L16.951,93.466 L18.128,94.167 L19.07,94.167 L20.012,94.167 L20.953,94.167 L20.953,94.167 L132.547,94.167 L133.488,94.167 L134.43,94.167 L135.607,94.167 L136.549,93.466 L137.491,93.466 L138.433,92.998 L139.61,92.998 L140.551,92.531 L141.493,92.064 L142.435,91.596 L143.612,91.129 L144.083,90.662 L145.025,89.961 L145.966,89.493 L146.437,89.026 L147.614,88.559 L148.085,87.624 L148.556,87.157 L149.498,85.988 L149.969,85.521 L150.439,84.586 L150.91,84.119 L151.617,82.951 L152.087,82.016 L152.087,81.549 L152.558,80.614 L153.029,79.446 L153.029,78.511 L153.5,77.577 L153.5,76.408 L153.5,75.474 L153.5,74.539 L153.5,74.539 L153.5,19.628 L153.5,18.693 L153.5,17.758 L153.5,16.59 L153.029,15.656 L153.029,14.721 L152.558,13.786 L152.087,12.618 L152.087,12.151 L151.617,11.216 L150.91,10.048 L150.439,9.58 L149.969,8.646 L149.498,8.178 L148.556,7.244 L148.085,6.543 L147.614,5.608 L146.437,5.141 L145.966,4.673 L145.025,4.206 L144.083,3.505 L143.612,3.038 L142.435,2.57 L141.493,2.103 L140.551,1.636 L139.61,1.168 L138.433,1.168 L137.491,0.701 L136.549,0.701 L135.607,0 L134.43,0 L133.488,0 L132.547,0 L132.547,0 L20.953,0 z" stroke-width="1" stroke-dasharray="none"/></g></g><g width="153.5" height="94.167" transform="scale(1,1) translate(14.5,22.5)"><g transform="scale(1,1) translate(0,0)" stroke="#000000" fill="#BFBFBF" fill-opacity="1" stroke-opacity="1"><path d="M20.953,0 L20.012,0 L19.07,0 L18.128,0 L16.951,0.701 L15.538,0.701 L14.597,1.168 L13.655,1.168 L13.184,1.636 L12.007,2.103 L11.065,2.57 L10.123,3.038 L9.182,3.505 L8.475,4.206 L7.534,4.673 L7.063,5.141 L6.121,5.608 L5.65,6.543 L4.473,7.244 L4.002,8.178 L3.531,8.646 L3.061,9.58 L2.59,10.048 L2.119,11.216 L1.648,12.151 L1.177,12.618 L1.177,13.786 L0.471,14.721 L0,15.656 L0,16.59 L0,17.758 L0,18.693 L0,19.628 L0,19.628 L0,74.539 L0,75.474 L0,76.408 L0,77.577 L0,78.511 L0.471,79.446 L1.177,80.614 L1.177,81.549 L1.648,82.016 L2.119,82.951 L2.59,84.119 L3.061,84.586 L3.531,85.521 L4.002,85.988 L4.473,87.157 L5.65,87.624 L6.121,88.559 L7.063,89.026 L7.534,89.493 L8.475,89.961 L9.182,90.662 L10.123,91.129 L11.065,91.596 L12.007,92.064 L13.184,92.531 L13.655,92.998 L14.597,92.998 L15.538,93.466 L16.951,93.466 L18.128,94.167 L19.07,94.167 L20.012,94.167 L20.953,94.167 L20.953,94.167 L132.547,94.167 L133.488,94.167 L134.43,94.167 L135.607,94.167 L136.549,93.466 L137.491,93.466 L138.433,92.998 L139.61,92.998 L140.551,92.531 L141.493,92.064 L142.435,91.596 L143.612,91.129 L144.083,90.662 L145.025,89.961 L145.966,89.493 L146.437,89.026 L147.614,88.559 L148.085,87.624 L148.556,87.157 L149.498,85.988 L149.969,85.521 L150.439,84.586 L150.91,84.119 L151.617,82.951 L152.087,82.016 L152.087,81.549 L152.558,80.614 L153.029,79.446 L153.029,78.511 L153.5,77.577 L153.5,76.408 L153.5,75.474 L153.5,74.539 L153.5,74.539 L153.5,19.628 L153.5,18.693 L153.5,17.758 L153.5,16.59 L153.029,15.656 L153.029,14.721 L152.558,13.786 L152.087,12.618 L152.087,12.151 L151.617,11.216 L150.91,10.048 L150.439,9.58 L149.969,8.646 L149.498,8.178 L148.556,7.244 L148.085,6.543 L147.614,5.608 L146.437,5.141 L145.966,4.673 L145.025,4.206 L144.083,3.505 L143.612,3.038 L142.435,2.57 L141.493,2.103 L140.551,1.636 L139.61,1.168 L138.433,1.168 L137.491,0.701 L136.549,0.701 L135.607,0 L134.43,0 L133.488,0 L132.547,0 L132.547,0 L20.953,0 z" stroke-width="1" stroke-dasharray="none"/></g></g><g width="19.5" height="19" transform="scale(1,1) translate(81,60.833)"><g width="19.5" height="19" transform="scale(1,1) translate(0,0)" stroke="#000000" stroke-width="1" stroke-dasharray="none" fill="#BFBFBF" fill-opacity="1" stroke-opacity="1"><ellipse rx="9.75" ry="9.5" cx="9.75" cy="9.5"/></g></g><g width="81" height="12.5" transform="scale(1,1) translate(51.333,8)"><g transform="scale(1,1) translate(0,0)" stroke="#000000" fill="#BFBFBF" fill-opacity="1" stroke-opacity="1"><path d="M0,0 L0,12.5 L81,12.5 L81,0 L0,0 z" stroke-width="1" stroke-dasharray="none"/></g></g><g width="12.5" height="12.5" transform="scale(1,1) translate(55.333,8)"><g width="12.5" height="12.5" transform="scale(1,1) translate(0,0)" stroke="#000000" stroke-width="1" stroke-dasharray="none" fill="#BFBFBF" fill-opacity="1" stroke-opacity="1"><ellipse rx="6.25" ry="6.25" cx="6.25" cy="6.25"/></g></g><g width="12.5" height="12.5" transform="scale(1,1) translate(119.333,8.5)"><g width="12.5" height="12.5" transform="scale(1,1) translate(0,0)" stroke="#000000" stroke-width="1" stroke-dasharray="none" fill="#BFBFBF" fill-opacity="1" stroke-opacity="1"><ellipse rx="6.25" ry="6.25" cx="6.25" cy="6.25"/></g></g><g width="12.5" height="12.5" transform="scale(1,1) translate(86,7)"><g width="12.5" height="12.5" transform="scale(1,1) translate(0,0)" stroke="#000000" stroke-width="1" stroke-dasharray="none" fill="#BFBFBF" fill-opacity="1" stroke-opacity="1"><ellipse rx="6.25" ry="6.25" cx="6.25" cy="6.25"/></g></g><g width="51.333" height="42.167" transform="scale(1,1) translate(46.167,7.5)"><g transform="scale(1,1) translate(0,0)" stroke="#000000" fill="#BFBFBF" fill-opacity="1" stroke-opacity="1"><path d="M7.433,42.167 L51.333,5.991 L44.83,0 L0,36.176 L7.433,42.167 z" stroke-width="1" stroke-dasharray="none"/></g></g></g></g></g><g fill="#0000FF" stroke="#9999FF" stroke-opacity="1" transform="scale(1,1) translate(0,0)" opacity="0"><path fill="none" stroke-width="0" stroke-dasharray="none" d="M14.573,-17.719 L14.573,-9.906 L6.76,-13.812 L14.573,-17.719 M48.427,-17.719 L48.427,-9.906 L56.24,-13.812 L48.427,-17.719 M80.719,2.427 L72.906,2.427 L76.812,-5.385 L80.719,2.427 M80.719,43.573 L72.906,43.573 L76.812,51.385 L80.719,43.573"/><g><g stroke-dasharray="none"><path d="M14.573,-17.719L14.573,-17.719L14.573,-17.719L14.573,-17.719z" stroke-width="0" fill="none"/></g></g></g><g width="26.041664123535156" height="15.624998092651367" transform="scale(1,1) translate(18.479,-21.625)" opacity="0"><text width="26.041664123535156" height="15.624998092651367" transform="scale(1,1) translate(0,0)" xml:space="preserve"><tspan xml:space="preserve" text-rendering="optimizeSpeed" style="font-family: Arial, Helvetica Neue, Helvetica, sans-serif;" font-size="13.88888888888889" font-weight="normal" font-style="normal" fill="#000" opacity="1" x="0" text-anchor="start" y="12.5" textLength="26.041664123535156">2' 6"</tspan></text></g><g width="33.33332824707031" height="15.624998092651367" transform="rotate(270,69,39.667) scale(1,1) translate(69,39.667)" opacity="0"><text width="33.33332824707031" height="15.624998092651367" transform="scale(1,1) translate(0,0)" xml:space="preserve"><tspan xml:space="preserve" text-rendering="optimizeSpeed" style="font-family: Arial, Helvetica Neue, Helvetica, sans-serif;" font-size="13.88888888888889" font-weight="normal" font-style="normal" fill="#000" opacity="1" x="0" text-anchor="start" y="12.5" textLength="33.33332824707031">1' 10"</tspan></text></g></g><g width="100" height="50" transform="scale(1,1) translate(631.167,1009.333)"><g stroke="#000000" opacity="1" stroke-width="0.3333333333333333" stroke-dasharray="none" width="100" height="50" transform="scale(1,1) translate(0,0)" fill="#BFBFBF" fill-opacity="1" stroke-opacity="1"><rect width="100" height="50"/></g><g fill="#0000FF" stroke="#9999FF" stroke-opacity="1" transform="scale(1,1) translate(0,0)" opacity="0"><path fill="none" stroke-width="0" stroke-dasharray="none" d="M33.073,-17.052 L33.073,-9.24 L25.26,-13.146 L33.073,-17.052 M66.927,-17.052 L66.927,-9.24 L74.74,-13.146 L66.927,-17.052 M117.052,8.073 L109.24,8.073 L113.146,0.26 L117.052,8.073 M117.052,41.927 L109.24,41.927 L113.146,49.74 L117.052,41.927"/><g><g stroke-dasharray="none"><path d="M33.073,-17.052L33.073,-17.052L33.073,-17.052L33.073,-17.052z" stroke-width="0" fill="none"/></g></g></g><g width="26.041664123535156" height="15.624998092651367" transform="scale(1,1) translate(36.979,-20.958)" opacity="0"><text width="26.041664123535156" height="15.624998092651367" transform="scale(1,1) translate(0,0)" xml:space="preserve"><tspan xml:space="preserve" text-rendering="optimizeSpeed" style="font-family: Arial, Helvetica Neue, Helvetica, sans-serif;" font-size="13.88888888888889" font-weight="normal" font-style="normal" fill="#000" opacity="1" x="0" text-anchor="start" y="12.5" textLength="26.041664123535156">4' 0"</tspan></text></g><g width="26.041664123535156" height="15.624998092651367" transform="rotate(270,105.333,38.021) scale(1,1) translate(105.333,38.021)" opacity="0"><text width="26.041664123535156" height="15.624998092651367" transform="scale(1,1) translate(0,0)" xml:space="preserve"><tspan xml:space="preserve" text-rendering="optimizeSpeed" style="font-family: Arial, Helvetica Neue, Helvetica, sans-serif;" font-size="13.88888888888889" font-weight="normal" font-style="normal" fill="#000" opacity="1" x="0" text-anchor="start" y="12.5" textLength="26.041664123535156">2' 0"</tspan></text></g></g><g width="125" height="63" transform="rotate(270,387.667,506.833) scale(1,1) translate(325.167,475.333)"><g width="125" height="63"><g transform="scale(0.9920634920634921,1.017031331125478) translate(0,0)"><g><g width="8.167" height="4.167" transform="scale(1,1) translate(15.167,58.667)"><g transform="scale(1,1) translate(0,0)" stroke="#000000" fill="#BFBFBF" fill-opacity="1" stroke-opacity="1"><path d="M0,0 L8.167,0 L8.167,2.778 L0,2.778 L0,0 z" stroke-width="1" stroke-dasharray="none"/></g></g><g width="26.667" height="4.167" transform="scale(1,1) translate(5.833,57)"><g transform="scale(1,1) translate(0,0)" stroke="#000000" fill="#BFBFBF" fill-opacity="1" stroke-opacity="1"><path d="M0,0 L26.667,0 L26.667,4.167 L0,4.167 L0,0 z" stroke-width="1" stroke-dasharray="none"/></g></g><g width="8.167" height="4.167" transform="scale(1,1) translate(101.167,58.667)"><g transform="scale(1,1) translate(0,0)" stroke="#000000" fill="#BFBFBF" fill-opacity="1" stroke-opacity="1"><path d="M0,0 L8.167,0 L8.167,2.778 L0,2.778 L0,0 z" stroke-width="1" stroke-dasharray="none"/></g></g><g width="26.667" height="4.167" transform="scale(1,1) translate(91.833,57)"><g transform="scale(1,1) translate(0,0)" stroke="#000000" fill="#BFBFBF" fill-opacity="1" stroke-opacity="1"><path d="M0,0 L26.667,0 L26.667,4.167 L0,4.167 L0,0 z" stroke-width="1" stroke-dasharray="none"/></g></g><g width="125" height="57.833" transform="scale(1,1) translate(0.5,0.5)"><g transform="scale(1,1) translate(0,0)" stroke="#000000" fill="#BFBFBF" fill-opacity="1" stroke-opacity="1"><path d="M1.333,0 L123.5,0 L124,0 L124.5,0 L124.667,0.474 L125,0.948 L125,56.727 L124.667,57.201 L124.5,57.517 L124,57.833 L123.5,57.833 L1.333,57.833 L0.833,57.833 L0.333,57.517 L0.167,57.201 L0,56.727 L0,0.948 L0.167,0.474 L0.333,0 L0.833,0 L1.333,0 z" stroke-width="1" stroke-dasharray="none"/></g></g></g></g></g><g fill="#0000FF" stroke="#9999FF" stroke-opacity="1" transform="scale(1,1) translate(0,0)" opacity="0"><path fill="none" stroke-width="0" stroke-dasharray="none" d="M45.573,-17.719 L45.573,-9.906 L37.76,-13.812 L45.573,-17.719 M79.427,-17.719 L79.427,-9.906 L87.24,-13.812 L79.427,-17.719 M142.719,14.573 L134.906,14.573 L138.812,6.76 L142.719,14.573 M142.719,48.427 L134.906,48.427 L138.812,56.24 L142.719,48.427"/><g><g stroke-dasharray="none"><path d="M45.573,-17.719L45.573,-17.719L45.573,-17.719L45.573,-17.719z" stroke-width="0" fill="none"/></g></g></g><g width="26.041664123535156" height="15.624998092651367" transform="scale(1,1) translate(49.479,-21.625)" opacity="0"><text width="26.041664123535156" height="15.624998092651367" transform="scale(1,1) translate(0,0)" xml:space="preserve"><tspan xml:space="preserve" text-rendering="optimizeSpeed" style="font-family: Arial, Helvetica Neue, Helvetica, sans-serif;" font-size="13.88888888888889" font-weight="normal" font-style="normal" fill="#000" opacity="1" x="0" text-anchor="start" y="12.5" textLength="26.041664123535156">5' 0"</tspan></text></g><g width="26.041664123535156" height="15.624998092651367" transform="rotate(90,146.625,18.479) scale(1,1) translate(146.625,18.479)" opacity="0"><text width="26.041664123535156" height="15.624998092651367" transform="scale(1,1) translate(0,0)" xml:space="preserve"><tspan xml:space="preserve" text-rendering="optimizeSpeed" style="font-family: Arial, Helvetica Neue, Helvetica, sans-serif;" font-size="13.88888888888889" font-weight="normal" font-style="normal" fill="#000" opacity="1" x="0" text-anchor="start" y="12.5" textLength="26.041664123535156">2' 6"</tspan></text></g></g><g width="125" height="63" transform="rotate(270,388.333,188.833) scale(1,1) translate(325.833,157.333)"><g width="125" height="63"><g transform="scale(0.9920634920634921,1.017031331125478) translate(0,0)"><g><g width="8.167" height="4.167" transform="scale(1,1) translate(15.167,58.667)"><g transform="scale(1,1) translate(0,0)" stroke="#000000" fill="#BFBFBF" fill-opacity="1" stroke-opacity="1"><path d="M0,0 L8.167,0 L8.167,2.778 L0,2.778 L0,0 z" stroke-width="1" stroke-dasharray="none"/></g></g><g width="26.667" height="4.167" transform="scale(1,1) translate(5.833,57)"><g transform="scale(1,1) translate(0,0)" stroke="#000000" fill="#BFBFBF" fill-opacity="1" stroke-opacity="1"><path d="M0,0 L26.667,0 L26.667,4.167 L0,4.167 L0,0 z" stroke-width="1" stroke-dasharray="none"/></g></g><g width="8.167" height="4.167" transform="scale(1,1) translate(101.167,58.667)"><g transform="scale(1,1) translate(0,0)" stroke="#000000" fill="#BFBFBF" fill-opacity="1" stroke-opacity="1"><path d="M0,0 L8.167,0 L8.167,2.778 L0,2.778 L0,0 z" stroke-width="1" stroke-dasharray="none"/></g></g><g width="26.667" height="4.167" transform="scale(1,1) translate(91.833,57)"><g transform="scale(1,1) translate(0,0)" stroke="#000000" fill="#BFBFBF" fill-opacity="1" stroke-opacity="1"><path d="M0,0 L26.667,0 L26.667,4.167 L0,4.167 L0,0 z" stroke-width="1" stroke-dasharray="none"/></g></g><g width="125" height="57.833" transform="scale(1,1) translate(0.5,0.5)"><g transform="scale(1,1) translate(0,0)" stroke="#000000" fill="#BFBFBF" fill-opacity="1" stroke-opacity="1"><path d="M1.333,0 L123.5,0 L124,0 L124.5,0 L124.667,0.474 L125,0.948 L125,56.727 L124.667,57.201 L124.5,57.517 L124,57.833 L123.5,57.833 L1.333,57.833 L0.833,57.833 L0.333,57.517 L0.167,57.201 L0,56.727 L0,0.948 L0.167,0.474 L0.333,0 L0.833,0 L1.333,0 z" stroke-width="1" stroke-dasharray="none"/></g></g></g></g></g><g fill="#0000FF" stroke="#9999FF" stroke-opacity="1" transform="scale(1,1) translate(0,0)" opacity="0"><path fill="none" stroke-width="0" stroke-dasharray="none" d="M45.573,-17.719 L45.573,-9.906 L37.76,-13.812 L45.573,-17.719 M79.427,-17.719 L79.427,-9.906 L87.24,-13.812 L79.427,-17.719 M142.719,14.573 L134.906,14.573 L138.812,6.76 L142.719,14.573 M142.719,48.427 L134.906,48.427 L138.812,56.24 L142.719,48.427"/><g><g stroke-dasharray="none"><path d="M45.573,-17.719L45.573,-17.719L45.573,-17.719L45.573,-17.719z" stroke-width="0" fill="none"/></g></g></g><g width="26.041664123535156" height="15.624998092651367" transform="scale(1,1) translate(49.479,-21.625)" opacity="0"><text width="26.041664123535156" height="15.624998092651367" transform="scale(1,1) translate(0,0)" xml:space="preserve"><tspan xml:space="preserve" text-rendering="optimizeSpeed" style="font-family: Arial, Helvetica Neue, Helvetica, sans-serif;" font-size="13.88888888888889" font-weight="normal" font-style="normal" fill="#000" opacity="1" x="0" text-anchor="start" y="12.5" textLength="26.041664123535156">5' 0"</tspan></text></g><g width="26.041664123535156" height="15.624998092651367" transform="rotate(90,146.625,18.479) scale(1,1) translate(146.625,18.479)" opacity="0"><text width="26.041664123535156" height="15.624998092651367" transform="scale(1,1) translate(0,0)" xml:space="preserve"><tspan xml:space="preserve" text-rendering="optimizeSpeed" style="font-family: Arial, Helvetica Neue, Helvetica, sans-serif;" font-size="13.88888888888889" font-weight="normal" font-style="normal" fill="#000" opacity="1" x="0" text-anchor="start" y="12.5" textLength="26.041664123535156">2' 6"</tspan></text></g></g><g width="125" height="63" transform="rotate(180,723.667,92.5) scale(1,1) translate(661.167,61)"><g width="125" height="63"><g transform="matrix(-0.992 0 0 -1.017 125 63)"><g><g width="8.167" height="4.167" transform="scale(1,1) translate(15.167,58.667)"><g transform="scale(1,1) translate(0,0)" stroke="#000000" fill="#BFBFBF" fill-opacity="1" stroke-opacity="1"><path d="M0,0 L8.167,0 L8.167,2.778 L0,2.778 L0,0 z" stroke-width="1" stroke-dasharray="none"/></g></g><g width="26.667" height="4.167" transform="scale(1,1) translate(5.833,57)"><g transform="scale(1,1) translate(0,0)" stroke="#000000" fill="#BFBFBF" fill-opacity="1" stroke-opacity="1"><path d="M0,0 L26.667,0 L26.667,4.167 L0,4.167 L0,0 z" stroke-width="1" stroke-dasharray="none"/></g></g><g width="8.167" height="4.167" transform="scale(1,1) translate(101.167,58.667)"><g transform="scale(1,1) translate(0,0)" stroke="#000000" fill="#BFBFBF" fill-opacity="1" stroke-opacity="1"><path d="M0,0 L8.167,0 L8.167,2.778 L0,2.778 L0,0 z" stroke-width="1" stroke-dasharray="none"/></g></g><g width="26.667" height="4.167" transform="scale(1,1) translate(91.833,57)"><g transform="scale(1,1) translate(0,0)" stroke="#000000" fill="#BFBFBF" fill-opacity="1" stroke-opacity="1"><path d="M0,0 L26.667,0 L26.667,4.167 L0,4.167 L0,0 z" stroke-width="1" stroke-dasharray="none"/></g></g><g width="125" height="57.833" transform="scale(1,1) translate(0.5,0.5)"><g transform="scale(1,1) translate(0,0)" stroke="#000000" fill="#BFBFBF" fill-opacity="1" stroke-opacity="1"><path d="M1.333,0 L123.5,0 L124,0 L124.5,0 L124.667,0.474 L125,0.948 L125,56.727 L124.667,57.201 L124.5,57.517 L124,57.833 L123.5,57.833 L1.333,57.833 L0.833,57.833 L0.333,57.517 L0.167,57.201 L0,56.727 L0,0.948 L0.167,0.474 L0.333,0 L0.833,0 L1.333,0 z" stroke-width="1" stroke-dasharray="none"/></g></g></g></g></g><g fill="#0000FF" stroke="#9999FF" stroke-opacity="1" transform="scale(1,1) translate(0,0)" opacity="0"><path fill="none" stroke-width="0" stroke-dasharray="none" d="M45.573,-17.719 L45.573,-9.906 L37.76,-13.812 L45.573,-17.719 M79.427,-17.719 L79.427,-9.906 L87.24,-13.812 L79.427,-17.719 M142.719,14.573 L134.906,14.573 L138.812,6.76 L142.719,14.573 M142.719,48.427 L134.906,48.427 L138.812,56.24 L142.719,48.427"/><g><g stroke-dasharray="none"><path d="M45.573,-17.719L45.573,-17.719L45.573,-17.719L45.573,-17.719z" stroke-width="0" fill="none"/></g></g></g><g width="26.041664123535156" height="15.624998092651367" transform="rotate(180,75.521,-6) scale(1,1) translate(75.521,-6)" opacity="0"><text width="26.041664123535156" height="15.624998092651367" transform="scale(1,1) translate(0,0)" xml:space="preserve"><tspan xml:space="preserve" text-rendering="optimizeSpeed" style="font-family: Arial, Helvetica Neue, Helvetica, sans-serif;" font-size="13.88888888888889" font-weight="normal" font-style="normal" fill="#000" opacity="1" x="0" text-anchor="start" y="12.5" textLength="26.041664123535156">5' 0"</tspan></text></g><g width="26.041664123535156" height="15.624998092651367" transform="rotate(90,146.625,18.479) scale(1,1) translate(146.625,18.479)" opacity="0"><text width="26.041664123535156" height="15.624998092651367" transform="scale(1,1) translate(0,0)" xml:space="preserve"><tspan xml:space="preserve" text-rendering="optimizeSpeed" style="font-family: Arial, Helvetica Neue, Helvetica, sans-serif;" font-size="13.88888888888889" font-weight="normal" font-style="normal" fill="#000" opacity="1" x="0" text-anchor="start" y="12.5" textLength="26.041664123535156">2' 6"</tspan></text></g></g><g width="123" height="250" transform="scale(1,1) translate(608.333,525)"><g width="123" height="250"><g transform="scale(1.6772806670036677,1.6538107599312928) translate(0,0)"><g><g width="38.167" height="41.833" transform="scale(1,1) translate(19.167,109.333)"><g width="38.167" height="41.833" transform="scale(1,1) translate(0,0)"><g width="37.167" height="10.167" transform="scale(1,1) translate(0,30.667)"><g transform="rotate(180,18.583,5.083) scale(1,1) translate(0,0)" stroke="#000000" fill="#D8D8D8" fill-opacity="1" stroke-opacity="1"><path d="M3.83,1.307 L3.121,1.452 L2.412,1.598 L1.844,2.033 L1.277,2.469 L0.709,3.05 L0.426,3.776 L0.142,4.648 L0,5.374 L0,6.1 L0.142,6.971 L0.426,7.698 L0.709,8.279 L1.277,8.86 L1.844,9.44 L2.412,9.731 L3.121,10.021 L3.83,10.167 L4.823,10.167 L5.674,10.021 L6.667,10.021 L7.518,9.876 L8.511,9.731 L9.363,9.586 L10.214,9.44 L11.207,9.295 L12.058,9.15 L13.051,9.005 L13.902,8.86 L14.895,8.86 L15.746,8.714 L16.739,8.569 L17.59,8.569 L18.583,8.569 L19.576,8.569 L20.427,8.569 L21.42,8.714 L22.272,8.86 L23.265,8.86 L24.116,9.005 L25.109,9.15 L25.96,9.295 L26.953,9.44 L27.946,9.586 L28.797,9.731 L29.79,9.876 L30.641,10.021 L31.634,10.021 L32.485,10.167 L33.478,10.167 L34.188,10.021 L34.897,9.731 L35.464,9.44 L36.032,8.86 L36.599,8.279 L36.883,7.698 L37.167,6.971 L37.167,6.1 L37.167,5.374 L37.167,4.648 L36.883,3.776 L36.599,3.05 L36.174,2.469 L35.606,2.033 L35.039,1.598 L34.33,1.452 L33.62,1.307 L32.627,1.307 L31.776,1.307 L30.783,1.162 L29.79,1.162 L28.797,1.017 L27.946,0.871 L26.953,0.871 L25.96,0.726 L25.109,0.726 L24.116,0.581 L23.123,0.436 L22.272,0.29 L21.137,0.29 L20.286,0.29 L19.293,0 L18.3,0 L17.448,0 L16.597,0.29 L15.604,0.29 L14.753,0.29 L13.902,0.436 L12.909,0.581 L12.058,0.726 L11.065,0.726 L10.214,0.871 L9.221,0.871 L8.37,1.017 L7.377,1.162 L6.667,1.162 L5.674,1.307 L4.823,1.307 L3.83,1.307 z" stroke-width="1" stroke-dasharray="none"/></g></g><g width="34.333" height="30" transform="scale(1,1) translate(1.167,0)"><g transform="rotate(180,17.167,15) scale(1,1) translate(0,0)" stroke="#000000" fill="#D8D8D8" fill-opacity="1" stroke-opacity="1"><path d="M8.648,0.062 L8.648,0.062 L25.491,0.062 L25.491,0.062 L25.491,0.062 L25.584,0.049 L25.675,0.038 L25.767,0.028 L25.857,0.02 L25.947,0.013 L26.036,0.007 L26.125,0.004 L26.213,0.001 L26.3,0 L26.387,0 L26.473,0.002 L26.558,0.006 L26.643,0.01 L26.727,0.017 L26.81,0.024 L26.893,0.034 L26.975,0.044 L27.056,0.056 L27.137,0.07 L27.217,0.085 L27.297,0.101 L27.375,0.119 L27.454,0.138 L27.531,0.159 L27.608,0.182 L27.684,0.205 L27.76,0.23 L27.835,0.257 L27.909,0.285 L27.982,0.315 L28.055,0.346 L28.128,0.378 L28.199,0.412 L28.27,0.447 L28.34,0.484 L28.41,0.523 L28.479,0.562 L28.548,0.603 L28.615,0.646 L28.682,0.69 L28.749,0.736 L28.814,0.783 L28.88,0.831 L28.944,0.881 L29.008,0.932 L29.071,0.985 L29.133,1.04 L29.195,1.095 L29.256,1.153 L29.317,1.211 L29.377,1.271 L29.436,1.333 L29.495,1.396 L29.553,1.46 L29.61,1.526 L29.666,1.594 L29.722,1.662 L29.778,1.733 L29.832,1.805 L29.886,1.878 L29.94,1.952 L29.992,2.029 L30.044,2.106 L30.096,2.185 L30.147,2.266 L30.197,2.348 L30.246,2.431 L30.295,2.516 L30.343,2.602 L30.39,2.69 L30.437,2.779 L30.483,2.87 L30.529,2.962 L30.574,3.055 L30.618,3.15 L30.662,3.247 L30.704,3.345 L30.747,3.444 L30.788,3.545 L30.829,3.648 L30.87,3.751 L30.909,3.857 L30.948,3.963 L30.986,4.071 L31.024,4.181 L31.061,4.292 L31.098,4.404 L31.133,4.518 L31.168,4.634 L31.203,4.751 L31.237,4.869 L31.27,4.989 L31.302,5.11 L31.334,5.233 L31.365,5.357 L31.396,5.483 L31.425,5.61 L31.455,5.738 L31.483,5.868 L31.483,5.868 L31.483,5.868 L34.398,23.449 L34.398,23.449 L34.398,23.449 L34.373,23.588 L34.346,23.726 L34.318,23.862 L34.289,23.997 L34.258,24.13 L34.227,24.262 L34.194,24.392 L34.16,24.52 L34.125,24.647 L34.088,24.773 L34.051,24.897 L34.012,25.019 L33.973,25.14 L33.932,25.259 L33.889,25.377 L33.846,25.493 L33.801,25.607 L33.756,25.721 L33.709,25.832 L33.661,25.942 L33.612,26.05 L33.561,26.157 L33.509,26.263 L33.457,26.366 L33.403,26.469 L33.348,26.569 L33.291,26.668 L33.234,26.766 L33.175,26.862 L33.115,26.957 L33.054,27.049 L32.992,27.141 L32.929,27.231 L32.864,27.319 L32.798,27.406 L32.731,27.491 L32.663,27.575 L32.594,27.657 L32.523,27.737 L32.452,27.816 L32.379,27.894 L32.305,27.97 L32.23,28.044 L32.153,28.117 L32.076,28.188 L31.997,28.258 L31.917,28.326 L31.836,28.393 L31.754,28.458 L31.671,28.521 L31.586,28.583 L31.5,28.644 L31.413,28.703 L31.325,28.76 L31.236,28.816 L31.145,28.87 L31.054,28.923 L30.961,28.974 L30.867,29.024 L30.771,29.072 L30.675,29.118 L30.578,29.163 L30.479,29.206 L30.379,29.248 L30.278,29.289 L30.175,29.327 L30.072,29.365 L29.967,29.4 L29.862,29.435 L29.755,29.467 L29.646,29.498 L29.537,29.528 L29.426,29.556 L29.315,29.582 L29.202,29.607 L29.088,29.63 L28.973,29.652 L28.856,29.672 L28.738,29.691 L28.62,29.708 L28.5,29.723 L28.379,29.737 L28.256,29.75 L28.133,29.761 L28.008,29.77 L27.882,29.778 L27.755,29.784 L27.627,29.789 L27.498,29.792 L27.367,29.794 L27.235,29.794 L27.102,29.793 L26.968,29.79 L26.833,29.785 L26.697,29.779 L26.559,29.771 L26.42,29.762 L26.28,29.751 L26.139,29.739 L26.139,29.739 L26.139,29.739 L8.324,29.739 L8.324,29.739 L8.324,29.739 L8.142,29.754 L7.962,29.768 L7.784,29.779 L7.608,29.79 L7.434,29.798 L7.262,29.806 L7.093,29.811 L6.925,29.815 L6.759,29.818 L6.595,29.819 L6.433,29.818 L6.273,29.816 L6.115,29.812 L5.959,29.806 L5.805,29.8 L5.654,29.791 L5.504,29.781 L5.356,29.769 L5.21,29.756 L5.066,29.741 L4.925,29.725 L4.785,29.707 L4.647,29.687 L4.511,29.666 L4.378,29.644 L4.246,29.619 L4.116,29.594 L3.988,29.566 L3.863,29.537 L3.739,29.507 L3.617,29.475 L3.498,29.441 L3.38,29.406 L3.264,29.369 L3.151,29.331 L3.039,29.291 L2.93,29.249 L2.822,29.206 L2.717,29.162 L2.613,29.115 L2.511,29.068 L2.412,29.018 L2.314,28.967 L2.219,28.915 L2.125,28.861 L2.034,28.805 L1.944,28.748 L1.857,28.689 L1.772,28.629 L1.688,28.567 L1.607,28.503 L1.527,28.438 L1.45,28.372 L1.375,28.304 L1.301,28.234 L1.23,28.162 L1.161,28.09 L1.093,28.015 L1.028,27.939 L0.965,27.861 L0.903,27.782 L0.844,27.701 L0.787,27.619 L0.731,27.535 L0.678,27.45 L0.627,27.363 L0.578,27.274 L0.531,27.184 L0.485,27.092 L0.442,26.999 L0.401,26.904 L0.362,26.808 L0.325,26.71 L0.29,26.61 L0.256,26.509 L0.225,26.406 L0.196,26.302 L0.169,26.196 L0.144,26.089 L0.121,25.98 L0.1,25.869 L0.081,25.757 L0.064,25.643 L0.049,25.528 L0.036,25.411 L0.025,25.292 L0.016,25.172 L0.009,25.051 L0.004,24.928 L0.001,24.803 L0,24.677 L0.001,24.549 L0.004,24.42 L0.009,24.289 L0.016,24.156 L0.026,24.022 L0.037,23.886 L0.05,23.749 L0.065,23.61 L0.065,23.61 L0.065,23.61 L2.98,6.352 L2.98,6.352 L2.98,6.352 L2.973,6.213 L2.968,6.075 L2.963,5.939 L2.96,5.804 L2.959,5.671 L2.958,5.54 L2.959,5.41 L2.962,5.281 L2.965,5.154 L2.97,5.029 L2.976,4.905 L2.984,4.783 L2.993,4.662 L3.003,4.543 L3.014,4.425 L3.027,4.309 L3.041,4.195 L3.057,4.082 L3.073,3.97 L3.091,3.86 L3.111,3.752 L3.131,3.645 L3.153,3.54 L3.176,3.436 L3.201,3.334 L3.227,3.233 L3.254,3.134 L3.282,3.037 L3.312,2.941 L3.343,2.846 L3.376,2.753 L3.409,2.662 L3.444,2.572 L3.481,2.484 L3.518,2.397 L3.557,2.312 L3.597,2.228 L3.639,2.146 L3.682,2.066 L3.726,1.987 L3.772,1.909 L3.818,1.833 L3.866,1.759 L3.916,1.686 L3.967,1.615 L4.019,1.545 L4.072,1.477 L4.126,1.41 L4.182,1.345 L4.24,1.282 L4.298,1.22 L4.358,1.159 L4.419,1.1 L4.482,1.043 L4.546,0.987 L4.611,0.933 L4.677,0.88 L4.745,0.829 L4.814,0.779 L4.884,0.731 L4.956,0.685 L5.029,0.64 L5.103,0.596 L5.179,0.555 L5.256,0.514 L5.334,0.475 L5.413,0.438 L5.494,0.402 L5.576,0.368 L5.66,0.336 L5.744,0.304 L5.83,0.275 L5.918,0.247 L6.006,0.221 L6.096,0.196 L6.188,0.172 L6.28,0.15 L6.374,0.13 L6.469,0.111 L6.566,0.094 L6.664,0.079 L6.763,0.065 L6.863,0.052 L6.965,0.041 L7.068,0.032 L7.172,0.024 L7.278,0.017 L7.385,0.013 L7.493,0.009 L7.603,0.008 L7.714,0.007 L7.826,0.009 L7.94,0.012 L8.054,0.016 L8.171,0.022 L8.288,0.03 L8.407,0.039 L8.527,0.049 L8.648,0.062 L8.648,0.062 z" stroke-width="1" stroke-dasharray="none"/></g></g><g width="7.667" height="6.5" transform="scale(1,1) translate(3.667,28.333)"><g transform="rotate(180,3.833,3.25) scale(1,1) translate(0,0)" stroke="#000000" fill="#D8D8D8" fill-opacity="1" stroke-opacity="1"><path d="M3.391,0 L3.391,0 L0,4.478 L0,4.478 L0,4.478 L0.011,4.551 L0.022,4.623 L0.034,4.694 L0.046,4.764 L0.058,4.832 L0.071,4.899 L0.085,4.965 L0.099,5.029 L0.113,5.093 L0.128,5.155 L0.143,5.216 L0.159,5.275 L0.175,5.333 L0.192,5.39 L0.209,5.446 L0.226,5.501 L0.244,5.554 L0.263,5.606 L0.282,5.656 L0.301,5.706 L0.321,5.754 L0.341,5.801 L0.362,5.847 L0.383,5.891 L0.404,5.934 L0.426,5.976 L0.449,6.017 L0.472,6.056 L0.495,6.094 L0.519,6.131 L0.543,6.167 L0.568,6.201 L0.593,6.234 L0.618,6.266 L0.644,6.296 L0.671,6.326 L0.698,6.354 L0.725,6.381 L0.753,6.406 L0.781,6.43 L0.81,6.453 L0.839,6.475 L0.869,6.496 L0.899,6.515 L0.929,6.533 L0.96,6.55 L0.992,6.565 L1.024,6.579 L1.056,6.592 L1.089,6.604 L1.122,6.614 L1.156,6.623 L1.19,6.631 L1.224,6.638 L1.259,6.643 L1.295,6.647 L1.331,6.65 L1.367,6.652 L1.404,6.652 L1.441,6.651 L1.479,6.649 L1.517,6.646 L1.555,6.641 L1.594,6.635 L1.634,6.628 L1.674,6.619 L1.714,6.61 L1.755,6.599 L1.796,6.586 L1.838,6.573 L1.88,6.558 L1.923,6.542 L1.966,6.525 L2.01,6.506 L2.054,6.486 L2.098,6.465 L2.143,6.443 L2.188,6.419 L2.234,6.395 L2.28,6.368 L2.327,6.341 L2.374,6.312 L2.422,6.283 L2.47,6.251 L2.518,6.219 L2.567,6.185 L2.616,6.151 L2.666,6.114 L2.716,6.077 L2.767,6.038 L2.818,5.998 L2.87,5.957 L2.922,5.915 L2.974,5.871 L3.027,5.826 L3.081,5.78 L3.135,5.732 L3.189,5.683 L3.244,5.633 L3.244,5.633 L3.244,5.633 L7.667,0.433 L7.667,0.433 L7.667,0.433 L3.391,0 L3.391,0 z" stroke-width="1" stroke-dasharray="none"/></g></g><g width="7.667" height="6.5" transform="scale(1,1) translate(25.167,28.333)"><g transform="rotate(180,3.833,3.25) scale(1,1) translate(0,0)" stroke="#000000" fill="#D8D8D8" fill-opacity="1" stroke-opacity="1"><path d="M3.833,0 L3.833,0 L7.667,4.622 L7.667,4.622 L7.667,4.622 L3.981,5.778 L3.981,5.778 L3.981,5.778 L0,0.433 L0,0.433 L0,0.433 L3.833,0 L3.833,0 z" stroke-width="1" stroke-dasharray="none"/></g></g><g width="4.167" height="5" transform="scale(1,1) translate(18.5,27.833)"><g transform="rotate(180,2.083,2.5) scale(1,1) translate(0,0)" stroke="#000000" fill="#D8D8D8" fill-opacity="1" stroke-opacity="1"><path d="M4.167,3.889 L4.167,3.889 L3.629,0 L3.629,0 L3.629,0 L0,0 L0,0 L0,0 L0.941,4.167 L0.941,4.167 L0.941,4.167 L4.167,3.889 L4.167,3.889 z" stroke-width="1" stroke-dasharray="none"/></g></g><g width="4.167" height="5" transform="scale(1,1) translate(13.333,27.833)"><g transform="rotate(180,2.083,2.5) scale(1,1) translate(0,0)" stroke="#000000" fill="#D8D8D8" fill-opacity="1" stroke-opacity="1"><path d="M0,3.611 L0,3.611 L0.269,0 L0.269,0 L0.269,0 L4.167,0 L4.167,0 L4.167,0 L2.823,3.889 L2.823,3.889 L2.823,3.889 L2.781,3.946 L2.741,4.003 L2.7,4.058 L2.66,4.112 L2.619,4.164 L2.58,4.216 L2.54,4.266 L2.501,4.315 L2.462,4.362 L2.423,4.409 L2.384,4.454 L2.346,4.498 L2.308,4.541 L2.27,4.583 L2.232,4.623 L2.195,4.662 L2.158,4.7 L2.121,4.736 L2.085,4.772 L2.049,4.806 L2.013,4.839 L1.977,4.87 L1.941,4.901 L1.906,4.93 L1.871,4.958 L1.837,4.985 L1.802,5.01 L1.768,5.035 L1.734,5.058 L1.7,5.08 L1.667,5.1 L1.634,5.12 L1.601,5.138 L1.568,5.155 L1.536,5.17 L1.504,5.185 L1.472,5.198 L1.44,5.21 L1.409,5.221 L1.378,5.23 L1.347,5.238 L1.316,5.245 L1.286,5.251 L1.256,5.256 L1.226,5.259 L1.197,5.261 L1.167,5.262 L1.138,5.262 L1.11,5.26 L1.081,5.257 L1.053,5.253 L1.025,5.248 L0.997,5.242 L0.97,5.234 L0.942,5.225 L0.915,5.215 L0.889,5.203 L0.862,5.191 L0.836,5.177 L0.81,5.162 L0.784,5.145 L0.759,5.128 L0.734,5.109 L0.709,5.089 L0.684,5.068 L0.66,5.045 L0.636,5.021 L0.612,4.996 L0.588,4.97 L0.565,4.943 L0.542,4.914 L0.519,4.884 L0.497,4.853 L0.474,4.821 L0.452,4.787 L0.43,4.752 L0.409,4.716 L0.387,4.679 L0.366,4.64 L0.346,4.601 L0.325,4.56 L0.305,4.517 L0.285,4.474 L0.265,4.429 L0.246,4.383 L0.226,4.336 L0.207,4.288 L0.189,4.238 L0.17,4.187 L0.152,4.135 L0.134,4.082 L0.117,4.027 L0.099,3.972 L0.082,3.915 L0.065,3.856 L0.048,3.797 L0.032,3.736 L0.016,3.674 L0,3.611 L0,3.611 z" stroke-width="1" stroke-dasharray="none"/></g></g><g width="36.5" height="6.333" transform="scale(1,1) translate(0.333,30.167)"><g transform="rotate(180,18.25,3.167) scale(1,1) translate(0,0)" stroke="#000000" fill="#D8D8D8" fill-opacity="1" stroke-opacity="1"><path d="M3.761,0.814 L3.065,0.905 L2.368,0.995 L1.811,1.267 L1.254,1.538 L0.697,1.9 L0.418,2.352 L0.139,2.895 L0,3.348 L0,3.8 L0.139,4.343 L0.418,4.795 L0.697,5.157 L1.254,5.519 L1.811,5.881 L2.368,6.062 L3.065,6.243 L3.761,6.333 L4.737,6.333 L5.573,6.243 L6.548,6.243 L7.384,6.152 L8.359,6.062 L9.195,5.971 L10.031,5.881 L11.006,5.79 L11.842,5.7 L12.817,5.61 L13.653,5.519 L14.628,5.519 L15.464,5.429 L16.439,5.338 L17.275,5.338 L18.25,5.338 L19.225,5.338 L20.061,5.338 L21.036,5.429 L21.872,5.519 L22.847,5.519 L23.683,5.61 L24.658,5.7 L25.494,5.79 L26.469,5.881 L27.445,5.971 L28.281,6.062 L29.256,6.152 L30.092,6.243 L31.067,6.243 L31.903,6.333 L32.878,6.333 L33.574,6.243 L34.271,6.062 L34.828,5.881 L35.385,5.519 L35.943,5.157 L36.221,4.795 L36.5,4.343 L36.5,3.8 L36.5,3.348 L36.5,2.895 L36.221,2.352 L35.943,1.9 L35.525,1.538 L34.968,1.267 L34.41,0.995 L33.714,0.905 L33.017,0.814 L32.042,0.814 L31.206,0.814 L30.231,0.724 L29.256,0.724 L28.281,0.633 L27.445,0.543 L26.469,0.543 L25.494,0.452 L24.658,0.452 L23.683,0.362 L22.708,0.271 L21.872,0.181 L20.758,0.181 L19.922,0.181 L18.947,0 L17.971,0 L17.135,0 L16.3,0.181 L15.324,0.181 L14.489,0.181 L13.653,0.271 L12.677,0.362 L11.842,0.452 L10.866,0.452 L10.031,0.543 L9.055,0.543 L8.219,0.633 L7.244,0.724 L6.548,0.724 L5.573,0.814 L4.737,0.814 L3.761,0.814 z" stroke-width="1" stroke-dasharray="none"/></g></g></g></g><g width="38.167" height="41.167" transform="scale(1,1) translate(17.333,0)"><g width="38.167" height="41.167" transform="scale(1,1) translate(0,0)"><g width="37.167" height="10.167" transform="scale(1,1) translate(0,0)"><g transform="scale(1,1) translate(0,0)" stroke="#000000" fill="#D8D8D8" fill-opacity="1" stroke-opacity="1"><path d="M3.83,1.307 L3.121,1.452 L2.412,1.598 L1.844,2.033 L1.277,2.469 L0.709,3.05 L0.426,3.776 L0.142,4.648 L0,5.374 L0,6.1 L0.142,6.971 L0.426,7.698 L0.709,8.279 L1.277,8.86 L1.844,9.44 L2.412,9.731 L3.121,10.021 L3.83,10.167 L4.823,10.167 L5.674,10.021 L6.667,10.021 L7.518,9.876 L8.511,9.731 L9.363,9.586 L10.214,9.44 L11.207,9.295 L12.058,9.15 L13.051,9.005 L13.902,8.86 L14.895,8.86 L15.746,8.714 L16.739,8.569 L17.59,8.569 L18.583,8.569 L19.576,8.569 L20.427,8.569 L21.42,8.714 L22.272,8.86 L23.265,8.86 L24.116,9.005 L25.109,9.15 L25.96,9.295 L26.953,9.44 L27.946,9.586 L28.797,9.731 L29.79,9.876 L30.641,10.021 L31.634,10.021 L32.485,10.167 L33.478,10.167 L34.188,10.021 L34.897,9.731 L35.464,9.44 L36.032,8.86 L36.599,8.279 L36.883,7.698 L37.167,6.971 L37.167,6.1 L37.167,5.374 L37.167,4.648 L36.883,3.776 L36.599,3.05 L36.174,2.469 L35.606,2.033 L35.039,1.598 L34.33,1.452 L33.62,1.307 L32.627,1.307 L31.776,1.307 L30.783,1.162 L29.79,1.162 L28.797,1.017 L27.946,0.871 L26.953,0.871 L25.96,0.726 L25.109,0.726 L24.116,0.581 L23.123,0.436 L22.272,0.29 L21.137,0.29 L20.286,0.29 L19.293,0 L18.3,0 L17.448,0 L16.597,0.29 L15.604,0.29 L14.753,0.29 L13.902,0.436 L12.909,0.581 L12.058,0.726 L11.065,0.726 L10.214,0.871 L9.221,0.871 L8.37,1.017 L7.377,1.162 L6.667,1.162 L5.674,1.307 L4.823,1.307 L3.83,1.307 z" stroke-width="1" stroke-dasharray="none"/></g></g><g width="34.167" height="29.667" transform="scale(1,1) translate(1.5,10.5)"><g transform="scale(1,1) translate(0,0)" stroke="#000000" fill="#D8D8D8" fill-opacity="1" stroke-opacity="1"><path d="M8.493,0.062 L8.493,0.062 L25.334,0.062 L25.334,0.062 L25.334,0.062 L25.426,0.049 L25.518,0.038 L25.609,0.028 L25.7,0.02 L25.79,0.013 L25.879,0.008 L25.968,0.004 L26.055,0.001 L26.143,0 L26.229,0 L26.315,0.002 L26.401,0.006 L26.485,0.01 L26.569,0.017 L26.653,0.024 L26.735,0.033 L26.817,0.044 L26.899,0.056 L26.98,0.07 L27.06,0.085 L27.139,0.101 L27.218,0.119 L27.296,0.138 L27.373,0.159 L27.45,0.181 L27.526,0.205 L27.602,0.23 L27.677,0.257 L27.751,0.285 L27.825,0.314 L27.898,0.345 L27.97,0.378 L28.041,0.412 L28.112,0.447 L28.183,0.484 L28.252,0.522 L28.321,0.562 L28.39,0.603 L28.457,0.645 L28.524,0.689 L28.591,0.735 L28.657,0.782 L28.722,0.83 L28.786,0.88 L28.85,0.932 L28.913,0.984 L28.976,1.039 L29.037,1.094 L29.098,1.152 L29.159,1.21 L29.219,1.27 L29.278,1.332 L29.337,1.395 L29.395,1.459 L29.452,1.525 L29.508,1.593 L29.564,1.661 L29.62,1.732 L29.674,1.803 L29.728,1.877 L29.782,1.951 L29.834,2.027 L29.886,2.105 L29.938,2.184 L29.988,2.264 L30.039,2.346 L30.088,2.43 L30.137,2.514 L30.185,2.601 L30.232,2.689 L30.279,2.778 L30.325,2.868 L30.371,2.96 L30.416,3.054 L30.46,3.149 L30.503,3.246 L30.546,3.343 L30.589,3.443 L30.63,3.544 L30.671,3.646 L30.711,3.75 L30.751,3.855 L30.79,3.962 L30.828,4.07 L30.866,4.179 L30.903,4.29 L30.939,4.403 L30.975,4.517 L31.01,4.632 L31.045,4.749 L31.078,4.867 L31.112,4.987 L31.144,5.108 L31.176,5.231 L31.207,5.355 L31.237,5.481 L31.267,5.608 L31.297,5.736 L31.325,5.866 L31.325,5.866 L31.325,5.866 L34.24,23.279 L34.24,23.279 L34.24,23.279 L34.214,23.415 L34.188,23.55 L34.16,23.683 L34.131,23.815 L34.102,23.945 L34.07,24.073 L34.038,24.201 L34.005,24.327 L33.97,24.451 L33.934,24.574 L33.898,24.696 L33.86,24.816 L33.82,24.934 L33.78,25.051 L33.739,25.167 L33.696,25.282 L33.652,25.394 L33.607,25.506 L33.561,25.616 L33.514,25.724 L33.466,25.831 L33.416,25.937 L33.365,26.041 L33.314,26.144 L33.261,26.245 L33.206,26.345 L33.151,26.443 L33.095,26.54 L33.037,26.636 L32.978,26.73 L32.918,26.823 L32.857,26.914 L32.795,27.003 L32.732,27.092 L32.667,27.179 L32.602,27.264 L32.535,27.348 L32.467,27.43 L32.398,27.511 L32.327,27.591 L32.256,27.669 L32.183,27.746 L32.11,27.821 L32.035,27.895 L31.959,27.967 L31.882,28.038 L31.803,28.108 L31.724,28.176 L31.643,28.242 L31.561,28.308 L31.479,28.371 L31.394,28.433 L31.309,28.494 L31.223,28.554 L31.135,28.612 L31.047,28.668 L30.957,28.723 L30.866,28.777 L30.774,28.829 L30.68,28.879 L30.586,28.929 L30.49,28.976 L30.394,29.023 L30.296,29.068 L30.197,29.111 L30.096,29.153 L29.995,29.194 L29.892,29.233 L29.789,29.271 L29.684,29.307 L29.578,29.342 L29.471,29.375 L29.363,29.407 L29.253,29.437 L29.143,29.466 L29.031,29.494 L28.918,29.52 L28.804,29.545 L28.689,29.568 L28.573,29.59 L28.455,29.61 L28.336,29.629 L28.217,29.646 L28.096,29.662 L27.974,29.677 L27.85,29.69 L27.726,29.701 L27.6,29.712 L27.474,29.72 L27.346,29.728 L27.217,29.734 L27.087,29.738 L26.955,29.741 L26.823,29.743 L26.689,29.743 L26.555,29.741 L26.419,29.738 L26.282,29.734 L26.143,29.729 L26.143,29.729 L26.143,29.729 L8.169,29.729 L8.169,29.729 L8.169,29.729 L7.99,29.737 L7.812,29.743 L7.636,29.749 L7.463,29.753 L7.291,29.755 L7.121,29.756 L6.954,29.755 L6.788,29.753 L6.624,29.75 L6.463,29.745 L6.303,29.738 L6.145,29.73 L5.989,29.721 L5.836,29.71 L5.684,29.698 L5.534,29.684 L5.387,29.669 L5.241,29.652 L5.097,29.634 L4.956,29.614 L4.816,29.593 L4.678,29.571 L4.542,29.547 L4.409,29.521 L4.277,29.494 L4.147,29.466 L4.019,29.436 L3.894,29.405 L3.77,29.372 L3.648,29.338 L3.528,29.302 L3.411,29.265 L3.295,29.226 L3.181,29.186 L3.069,29.145 L2.96,29.102 L2.852,29.057 L2.746,29.011 L2.642,28.964 L2.541,28.915 L2.441,28.865 L2.343,28.813 L2.247,28.759 L2.154,28.705 L2.062,28.648 L1.972,28.591 L1.884,28.532 L1.799,28.471 L1.715,28.409 L1.633,28.346 L1.553,28.281 L1.475,28.214 L1.4,28.146 L1.326,28.077 L1.254,28.006 L1.184,27.934 L1.116,27.86 L1.051,27.785 L0.987,27.708 L0.925,27.63 L0.865,27.55 L0.807,27.469 L0.752,27.387 L0.698,27.303 L0.646,27.217 L0.596,27.13 L0.548,27.042 L0.503,26.952 L0.459,26.861 L0.417,26.768 L0.377,26.674 L0.339,26.578 L0.303,26.481 L0.27,26.382 L0.238,26.282 L0.208,26.18 L0.18,26.077 L0.154,25.973 L0.13,25.867 L0.109,25.76 L0.089,25.651 L0.071,25.54 L0.055,25.428 L0.041,25.315 L0.029,25.2 L0.019,25.084 L0.012,24.967 L0.006,24.847 L0.002,24.727 L0,24.605 L0,24.481 L0.002,24.356 L0.006,24.23 L0.013,24.102 L0.021,23.973 L0.031,23.842 L0.043,23.709 L0.057,23.576 L0.073,23.44 L0.073,23.44 L0.073,23.44 L2.988,6.35 L2.988,6.35 L2.988,6.35 L2.98,6.213 L2.974,6.078 L2.969,5.945 L2.965,5.813 L2.963,5.682 L2.962,5.553 L2.962,5.426 L2.964,5.299 L2.966,5.175 L2.97,5.052 L2.976,4.93 L2.982,4.81 L2.99,4.691 L3,4.574 L3.01,4.459 L3.022,4.344 L3.035,4.232 L3.049,4.12 L3.065,4.011 L3.082,3.903 L3.1,3.796 L3.12,3.691 L3.141,3.587 L3.163,3.485 L3.186,3.384 L3.211,3.285 L3.237,3.187 L3.264,3.091 L3.293,2.996 L3.322,2.902 L3.354,2.811 L3.386,2.72 L3.42,2.631 L3.455,2.544 L3.491,2.458 L3.529,2.374 L3.567,2.291 L3.608,2.21 L3.649,2.13 L3.692,2.051 L3.736,1.974 L3.781,1.899 L3.828,1.825 L3.875,1.752 L3.925,1.681 L3.975,1.612 L4.027,1.544 L4.08,1.478 L4.134,1.413 L4.19,1.349 L4.247,1.287 L4.305,1.226 L4.364,1.167 L4.425,1.11 L4.487,1.054 L4.551,0.999 L4.615,0.946 L4.681,0.895 L4.748,0.844 L4.817,0.796 L4.887,0.749 L4.958,0.703 L5.03,0.659 L5.104,0.616 L5.179,0.575 L5.255,0.535 L5.332,0.497 L5.411,0.46 L5.491,0.425 L5.573,0.392 L5.655,0.359 L5.739,0.329 L5.825,0.299 L5.911,0.272 L5.999,0.245 L6.088,0.221 L6.178,0.197 L6.27,0.175 L6.363,0.155 L6.457,0.136 L6.553,0.119 L6.65,0.103 L6.748,0.089 L6.847,0.076 L6.948,0.065 L7.05,0.055 L7.153,0.046 L7.258,0.039 L7.364,0.034 L7.471,0.03 L7.579,0.028 L7.689,0.027 L7.8,0.027 L7.912,0.029 L8.026,0.033 L8.141,0.038 L8.257,0.044 L8.375,0.052 L8.493,0.062 L8.493,0.062 z" stroke-width="1" stroke-dasharray="none"/></g></g><g width="7.667" height="6.5" transform="scale(1,1) translate(25.333,6)"><g transform="scale(1,1) translate(0,0)" stroke="#000000" fill="#D8D8D8" fill-opacity="1" stroke-opacity="1"><path d="M3.391,0 L3.391,0 L0,4.478 L0,4.478 L0,4.478 L0.009,4.557 L0.018,4.635 L0.028,4.711 L0.038,4.787 L0.048,4.86 L0.059,4.933 L0.071,5.004 L0.083,5.073 L0.096,5.142 L0.109,5.208 L0.123,5.274 L0.137,5.338 L0.151,5.401 L0.166,5.462 L0.182,5.522 L0.198,5.581 L0.214,5.638 L0.231,5.694 L0.249,5.748 L0.267,5.801 L0.286,5.853 L0.305,5.903 L0.324,5.952 L0.344,5.999 L0.364,6.046 L0.385,6.09 L0.407,6.134 L0.429,6.176 L0.451,6.216 L0.474,6.256 L0.498,6.294 L0.522,6.33 L0.546,6.365 L0.571,6.399 L0.596,6.431 L0.622,6.462 L0.649,6.492 L0.675,6.52 L0.703,6.547 L0.731,6.573 L0.759,6.597 L0.788,6.619 L0.817,6.641 L0.847,6.661 L0.877,6.679 L0.908,6.696 L0.939,6.712 L0.971,6.727 L1.003,6.74 L1.036,6.751 L1.069,6.762 L1.103,6.771 L1.137,6.778 L1.172,6.784 L1.207,6.789 L1.243,6.792 L1.279,6.794 L1.316,6.795 L1.353,6.794 L1.391,6.792 L1.429,6.789 L1.468,6.784 L1.507,6.778 L1.546,6.77 L1.587,6.761 L1.627,6.75 L1.668,6.739 L1.71,6.726 L1.752,6.711 L1.795,6.695 L1.838,6.678 L1.881,6.659 L1.925,6.639 L1.97,6.618 L2.015,6.595 L2.06,6.571 L2.107,6.545 L2.153,6.518 L2.2,6.49 L2.248,6.46 L2.296,6.429 L2.344,6.396 L2.393,6.363 L2.443,6.327 L2.492,6.291 L2.543,6.253 L2.594,6.213 L2.645,6.173 L2.697,6.131 L2.75,6.087 L2.803,6.042 L2.856,5.996 L2.91,5.948 L2.964,5.899 L3.019,5.849 L3.075,5.797 L3.13,5.744 L3.187,5.689 L3.244,5.633 L3.244,5.633 L3.244,5.633 L7.667,0.433 L7.667,0.433 L7.667,0.433 L3.391,0 L3.391,0 z" stroke-width="1" stroke-dasharray="none"/></g></g><g width="7.667" height="6.5" transform="scale(1,1) translate(4,6)"><g transform="scale(1,1) translate(0,0)" stroke="#000000" fill="#D8D8D8" fill-opacity="1" stroke-opacity="1"><path d="M3.833,0 L3.833,0 L7.667,5.262 L7.667,5.262 L7.667,5.262 L3.981,6.5 L3.981,6.5 L3.981,6.5 L0,0.464 L0,0.464 L0,0.464 L3.833,0 L3.833,0 z" stroke-width="1" stroke-dasharray="none"/></g></g><g width="4.167" height="5" transform="scale(1,1) translate(14.5,7.5)"><g transform="scale(1,1) translate(0,0)" stroke="#000000" fill="#D8D8D8" fill-opacity="1" stroke-opacity="1"><path d="M4.167,4 L4.167,4 L3.629,0 L3.629,0 L3.629,0 L0,0 L0,0 L0,0 L0.941,4.286 L0.941,4.286 L0.941,4.286 L0.978,4.329 L1.014,4.372 L1.051,4.413 L1.087,4.454 L1.123,4.493 L1.16,4.532 L1.196,4.57 L1.232,4.607 L1.268,4.643 L1.304,4.678 L1.34,4.711 L1.376,4.745 L1.411,4.777 L1.447,4.808 L1.482,4.838 L1.518,4.867 L1.553,4.896 L1.588,4.923 L1.624,4.949 L1.659,4.975 L1.694,4.999 L1.729,5.023 L1.763,5.046 L1.798,5.067 L1.833,5.088 L1.867,5.108 L1.902,5.127 L1.936,5.145 L1.971,5.161 L2.005,5.178 L2.039,5.193 L2.073,5.207 L2.107,5.22 L2.141,5.232 L2.175,5.243 L2.209,5.254 L2.242,5.263 L2.276,5.272 L2.31,5.279 L2.343,5.286 L2.376,5.291 L2.41,5.296 L2.443,5.3 L2.476,5.303 L2.509,5.304 L2.542,5.305 L2.575,5.305 L2.607,5.304 L2.64,5.302 L2.673,5.299 L2.705,5.296 L2.738,5.291 L2.77,5.285 L2.802,5.278 L2.834,5.271 L2.866,5.262 L2.898,5.253 L2.93,5.242 L2.962,5.231 L2.994,5.219 L3.026,5.205 L3.057,5.191 L3.089,5.176 L3.12,5.16 L3.151,5.143 L3.183,5.125 L3.214,5.106 L3.245,5.086 L3.276,5.065 L3.307,5.043 L3.338,5.02 L3.368,4.997 L3.399,4.972 L3.43,4.947 L3.46,4.92 L3.49,4.893 L3.521,4.864 L3.551,4.835 L3.581,4.805 L3.611,4.773 L3.641,4.741 L3.671,4.708 L3.701,4.674 L3.731,4.639 L3.76,4.603 L3.79,4.566 L3.819,4.528 L3.849,4.489 L3.878,4.45 L3.907,4.409 L3.936,4.367 L3.966,4.325 L3.995,4.281 L4.023,4.237 L4.052,4.191 L4.081,4.145 L4.11,4.097 L4.138,4.049 L4.167,4 L4.167,4 z" stroke-width="1" stroke-dasharray="none"/></g></g><g width="4.167" height="5" transform="scale(1,1) translate(19.667,7.5)"><g transform="scale(1,1) translate(0,0)" stroke="#000000" fill="#D8D8D8" fill-opacity="1" stroke-opacity="1"><path d="M0,3.611 L0,3.611 L0.269,0 L0.269,0 L0.269,0 L4.167,0 L4.167,0 L4.167,0 L2.823,3.889 L2.823,3.889 L2.823,3.889 L2.781,3.946 L2.741,4.003 L2.7,4.058 L2.66,4.112 L2.619,4.164 L2.58,4.216 L2.54,4.266 L2.501,4.315 L2.462,4.362 L2.423,4.409 L2.384,4.454 L2.346,4.498 L2.308,4.541 L2.27,4.583 L2.232,4.623 L2.195,4.662 L2.158,4.7 L2.121,4.736 L2.085,4.772 L2.049,4.806 L2.013,4.839 L1.977,4.87 L1.941,4.901 L1.906,4.93 L1.871,4.958 L1.837,4.985 L1.802,5.01 L1.768,5.035 L1.734,5.058 L1.7,5.08 L1.667,5.1 L1.634,5.12 L1.601,5.138 L1.568,5.155 L1.536,5.17 L1.504,5.185 L1.472,5.198 L1.44,5.21 L1.409,5.221 L1.378,5.23 L1.347,5.238 L1.316,5.245 L1.286,5.251 L1.256,5.256 L1.226,5.259 L1.197,5.261 L1.167,5.262 L1.138,5.262 L1.11,5.26 L1.081,5.257 L1.053,5.253 L1.025,5.248 L0.997,5.242 L0.97,5.234 L0.942,5.225 L0.915,5.215 L0.889,5.203 L0.862,5.191 L0.836,5.177 L0.81,5.162 L0.784,5.145 L0.759,5.128 L0.734,5.109 L0.709,5.089 L0.684,5.068 L0.66,5.045 L0.636,5.021 L0.612,4.996 L0.588,4.97 L0.565,4.943 L0.542,4.914 L0.519,4.884 L0.497,4.853 L0.474,4.821 L0.452,4.787 L0.43,4.752 L0.409,4.716 L0.387,4.679 L0.366,4.64 L0.346,4.601 L0.325,4.56 L0.305,4.517 L0.285,4.474 L0.265,4.429 L0.246,4.383 L0.226,4.336 L0.207,4.288 L0.189,4.238 L0.17,4.187 L0.152,4.135 L0.134,4.082 L0.117,4.027 L0.099,3.972 L0.082,3.915 L0.065,3.856 L0.048,3.797 L0.032,3.736 L0.016,3.674 L0,3.611 L0,3.611 z" stroke-width="1" stroke-dasharray="none"/></g></g><g width="36.5" height="6.333" transform="scale(1,1) translate(0.333,3.833)"><g transform="scale(1,1) translate(0,0)" stroke="#000000" fill="#D8D8D8" fill-opacity="1" stroke-opacity="1"><path d="M3.761,0.814 L3.065,0.905 L2.368,0.995 L1.811,1.267 L1.254,1.538 L0.697,1.9 L0.418,2.352 L0.139,2.895 L0,3.348 L0,3.8 L0.139,4.343 L0.418,4.795 L0.697,5.157 L1.254,5.519 L1.811,5.881 L2.368,6.062 L3.065,6.243 L3.761,6.333 L4.737,6.333 L5.573,6.243 L6.548,6.243 L7.384,6.152 L8.359,6.062 L9.195,5.971 L10.031,5.881 L11.006,5.79 L11.842,5.7 L12.817,5.61 L13.653,5.519 L14.628,5.519 L15.464,5.429 L16.439,5.338 L17.275,5.338 L18.25,5.338 L19.225,5.338 L20.061,5.338 L21.036,5.429 L21.872,5.519 L22.847,5.519 L23.683,5.61 L24.658,5.7 L25.494,5.79 L26.469,5.881 L27.445,5.971 L28.281,6.062 L29.256,6.152 L30.092,6.243 L31.067,6.243 L31.903,6.333 L32.878,6.333 L33.574,6.243 L34.271,6.062 L34.828,5.881 L35.385,5.519 L35.943,5.157 L36.221,4.795 L36.5,4.343 L36.5,3.8 L36.5,3.348 L36.5,2.895 L36.221,2.352 L35.943,1.9 L35.525,1.538 L34.968,1.267 L34.41,0.995 L33.714,0.905 L33.017,0.814 L32.042,0.814 L31.206,0.814 L30.231,0.724 L29.256,0.724 L28.281,0.633 L27.445,0.543 L26.469,0.543 L25.494,0.452 L24.658,0.452 L23.683,0.362 L22.708,0.271 L21.872,0.181 L20.758,0.181 L19.922,0.181 L18.947,0 L17.971,0 L17.135,0 L16.3,0.181 L15.324,0.181 L14.489,0.181 L13.653,0.271 L12.677,0.362 L11.842,0.452 L10.866,0.452 L10.031,0.543 L9.055,0.543 L8.219,0.633 L7.244,0.724 L6.548,0.724 L5.573,0.814 L4.737,0.814 L3.761,0.814 z" stroke-width="1" stroke-dasharray="none"/></g></g></g></g><g width="72.333" height="104.5" transform="scale(1,1) translate(0.5,23)"><g stroke="#000000" opacity="1" stroke-width="1" stroke-dasharray="none" width="72.333" height="104.5" transform="scale(1,1) translate(0,0)" fill="#F2F2F2" fill-opacity="1" stroke-opacity="1"><rect width="72.333" height="104.5"/></g></g></g></g></g><g fill="#0000FF" stroke="#9999FF" stroke-opacity="1" transform="scale(1,1) translate(0,0)" opacity="0"><path fill="none" stroke-width="0" stroke-dasharray="none" d="M41.448,-17.719 L41.448,-9.906 L33.635,-13.812 L41.448,-17.719 M81.552,-17.719 L81.552,-9.906 L89.365,-13.812 L81.552,-17.719 M140.719,104.427 L132.906,104.427 L136.812,96.615 L140.719,104.427 M140.719,145.573 L132.906,145.573 L136.812,153.385 L140.719,145.573"/><g><g stroke-dasharray="none"><path d="M41.448,-17.719L41.448,-17.719L41.448,-17.719L41.448,-17.719z" stroke-width="0" fill="none"/></g></g></g><g width="32.29166030883789" height="15.624998092651367" transform="scale(1,1) translate(45.354,-21.625)" opacity="0"><text width="32.29166030883789" height="15.624998092651367" transform="scale(1,1) translate(0,0)" xml:space="preserve"><tspan xml:space="preserve" text-rendering="optimizeSpeed" style="font-family: Arial, Helvetica Neue, Helvetica, sans-serif;" font-size="13.88888888888889" font-weight="normal" font-style="normal" fill="#000" opacity="1" x="0" text-anchor="start" y="12.5" textLength="32.29166030883789">4' 11"</tspan></text></g><g width="33.33332824707031" height="15.624998092651367" transform="rotate(270,129,141.667) scale(1,1) translate(129,141.667)" opacity="0"><text width="33.33332824707031" height="15.624998092651367" transform="scale(1,1) translate(0,0)" xml:space="preserve"><tspan xml:space="preserve" text-rendering="optimizeSpeed" style="font-family: Arial, Helvetica Neue, Helvetica, sans-serif;" font-size="13.88888888888889" font-weight="normal" font-style="normal" fill="#000" opacity="1" x="0" text-anchor="start" y="12.5" textLength="33.33332824707031">10' 0"</tspan></text></g></g></g></svg>