<?xml version="1.0" standalone="no"?><!DOCTYPE svg PUBLIC "-//W3C//DTD SVG 1.1//EN" "http://www.w3.org/Graphics/SVG/1.1/DTD/svg11.dtd"><svg xmlns="http://www.w3.org/2000/svg" version="1.1" width="724.129" height="618.328" xmlns:xlink="http://www.w3.org/1999/xlink" xlink="http://www.w3.org/1999/xlink" style="position:relative;overflow:hidden;" viewBox="184.436 117.775 724.129 618.328"><defs/><g><g width="608.333" height="512.422" transform="scale(1,1) translate(245.833,179.167)"><g transform="scale(1,1) translate(0,0)" fill="none" stroke="#000000" stroke-opacity="1"><path d="M0,512.422 L0,0 L508.333,0 L508.333,145.5 L608.333,145.5 L608.333,312.517 L0,512.422 z" stroke-width="8.333" stroke-dasharray="none"/></g><g fill="#9999FF" stroke="#9999FF" stroke-opacity="1" transform="scale(1,1) translate(0,0)"><path fill="none" stroke-width="1" stroke-dasharray="none" d="M-7.167,506.667 L-36.979,506.667 L-36.979,275.083 M-36.979,235.75 L-36.979,4.167 L-7.167,4.167 M4.167,-7.167 L4.167,-36.979 L234.5,-36.979 M273.833,-36.979 L504.167,-36.979 L504.167,-7.167 M515.5,4.167 L545.312,4.167 L545.312,57.25 M545.312,96.583 L545.312,149.667 L515.5,149.667 M504.167,138.333 L504.167,108.521 L538.146,108.521 M570.187,108.521 L604.167,108.521 L604.167,138.333 M615.5,149.667 L645.312,149.667 L645.312,213.563 M645.312,245.604 L645.312,309.5 L615.5,309.5 M607.705,320.267 L617.012,348.589 L335.696,441.033 M298.328,453.312 L17.012,545.756 L7.705,517.434"/><g><g stroke-dasharray="none"><path d="M-8.167,505.667L-6.167,505.667L-6.167,507.667L-8.167,507.667z" stroke-width="0" fill="none"/></g></g></g><g width="33.33332824707031" height="15.624998092651367" transform="rotate(270,-44.792,272.083) scale(1,1) translate(-44.792,272.083)"><text width="33.33332824707031" height="15.624998092651367" transform="scale(1,1) translate(0,0)" xml:space="preserve"><tspan xml:space="preserve" text-rendering="optimizeSpeed" style="font-family: Arial, Helvetica Neue, Helvetica, sans-serif;" font-size="13.88888888888889" font-weight="normal" font-style="normal" fill="#000" opacity="1" x="0" text-anchor="start" y="12.5" textLength="33.33332824707031">20' 1"</tspan></text></g><g width="33.33332824707031" height="15.624998092651367" transform="rotate(360,237.5,-44.792) scale(1,1) translate(237.5,-44.792)"><text width="33.33332824707031" height="15.624998092651367" transform="scale(1,1) translate(0,0)" xml:space="preserve"><tspan xml:space="preserve" text-rendering="optimizeSpeed" style="font-family: Arial, Helvetica Neue, Helvetica, sans-serif;" font-size="13.88888888888889" font-weight="normal" font-style="normal" fill="#000" opacity="1" x="0" text-anchor="start" y="12.5" textLength="33.33332824707031">20' 0"</tspan></text></g><g width="33.33332824707031" height="15.624998092651367" transform="rotate(270,537.5,93.583) scale(1,1) translate(537.5,93.583)"><text width="33.33332824707031" height="15.624998092651367" transform="scale(1,1) translate(0,0)" xml:space="preserve"><tspan xml:space="preserve" text-rendering="optimizeSpeed" style="font-family: Arial, Helvetica Neue, Helvetica, sans-serif;" font-size="13.88888888888889" font-weight="normal" font-style="normal" fill="#000" opacity="1" x="0" text-anchor="start" y="12.5" textLength="33.33332824707031">5' 10"</tspan></text></g><g width="26.041664123535156" height="15.624998092651367" transform="scale(1,1) translate(541.146,100.708)"><text width="26.041664123535156" height="15.624998092651367" transform="scale(1,1) translate(0,0)" xml:space="preserve"><tspan xml:space="preserve" text-rendering="optimizeSpeed" style="font-family: Arial, Helvetica Neue, Helvetica, sans-serif;" font-size="13.88888888888889" font-weight="normal" font-style="normal" fill="#000" opacity="1" x="0" text-anchor="start" y="12.5" textLength="26.041664123535156">4' 0"</tspan></text></g><g width="26.041664123535156" height="15.624998092651367" transform="rotate(90,653.125,216.563) scale(1,1) translate(653.125,216.563)"><text width="26.041664123535156" height="15.624998092651367" transform="scale(1,1) translate(0,0)" xml:space="preserve"><tspan xml:space="preserve" text-rendering="optimizeSpeed" style="font-family: Arial, Helvetica Neue, Helvetica, sans-serif;" font-size="13.88888888888889" font-weight="normal" font-style="normal" fill="#000" opacity="1" x="0" text-anchor="start" y="12.5" textLength="26.041664123535156">6' 5"</tspan></text></g><g width="33.33332824707031" height="15.624998092651367" transform="rotate(341.809,298.739,444.954) scale(1,1) translate(298.739,444.954)"><text width="33.33332824707031" height="15.624998092651367" transform="scale(1,1) translate(0,0)" xml:space="preserve"><tspan xml:space="preserve" text-rendering="optimizeSpeed" style="font-family: Arial, Helvetica Neue, Helvetica, sans-serif;" font-size="13.88888888888889" font-weight="normal" font-style="normal" fill="#000" opacity="1" x="0" text-anchor="start" y="12.5" textLength="33.33332824707031">25' 3"</tspan></text></g></g><g width="500" height="64.667" transform="scale(1,1) translate(250,185.333)"><g stroke="#000000" opacity="1" stroke-width="1" stroke-dasharray="none" width="500" height="64.667" transform="scale(1,1) translate(0,0)" fill="#F2F2F2" fill-opacity="1" stroke-opacity="1"><rect width="500" height="64.667"/></g><g fill="#0000FF" stroke="#9999FF" stroke-opacity="1" transform="scale(1,1) translate(0,0)" opacity="0"><path fill="none" stroke-width="0" stroke-dasharray="none" d="M229.427,-17.719 L229.427,-9.906 L221.615,-13.812 L229.427,-17.719 M270.573,-17.719 L270.573,-9.906 L278.385,-13.812 L270.573,-17.719 M517.719,15.406 L509.906,15.406 L513.812,7.594 L517.719,15.406 M517.719,49.26 L509.906,49.26 L513.812,57.073 L517.719,49.26"/><g><g stroke-dasharray="none"><path d="M229.427,-17.719L229.427,-17.719L229.427,-17.719L229.427,-17.719z" stroke-width="0" fill="none"/></g></g></g><g width="33.33332824707031" height="15.624998092651367" transform="scale(1,1) translate(233.333,-21.625)" opacity="0"><text width="33.33332824707031" height="15.624998092651367" transform="scale(1,1) translate(0,0)" xml:space="preserve"><tspan xml:space="preserve" text-rendering="optimizeSpeed" style="font-family: Arial, Helvetica Neue, Helvetica, sans-serif;" font-size="13.88888888888889" font-weight="normal" font-style="normal" fill="#000" opacity="1" x="0" text-anchor="start" y="12.5" textLength="33.33332824707031">20' 0"</tspan></text></g><g width="26.041664123535156" height="15.624998092651367" transform="rotate(270,506,45.354) scale(1,1) translate(506,45.354)" opacity="0"><text width="26.041664123535156" height="15.624998092651367" transform="scale(1,1) translate(0,0)" xml:space="preserve"><tspan xml:space="preserve" text-rendering="optimizeSpeed" style="font-family: Arial, Helvetica Neue, Helvetica, sans-serif;" font-size="13.88888888888889" font-weight="normal" font-style="normal" fill="#000" opacity="1" x="0" text-anchor="start" y="12.5" textLength="26.041664123535156">2' 7"</tspan></text></g></g><g width="83.333" height="92" transform="rotate(270,292.667,292.333) scale(1,1) translate(251,246.333)"><g width="83.333" height="92"><g transform="scale(0.19223345626895955,1.0018111436556112) translate(0,0)"><g><g width="23.167" height="90.667" transform="scale(1,1) translate(0.583,0.583)"><g transform="scale(1,1) translate(0,0)" stroke="#000000" fill="#F2F2F2" fill-opacity="1" stroke-opacity="1"><path d="M23.167,90.667 L23.167,0 L0,0 L0,90.667 L23.167,90.667 z" stroke-width="1.1666666666666665" stroke-dasharray="none"/></g></g><g width="22" height="90.667" transform="scale(1,1) translate(23.917,0.583)"><g transform="scale(1,1) translate(0,0)" stroke="#000000" fill="#F2F2F2" fill-opacity="1" stroke-opacity="1"><path d="M22,90.667 L22,0 L0,0 L0,90.667 L22,90.667 z" stroke-width="1.1666666666666665" stroke-dasharray="none"/></g></g><g width="23.167" height="90.667" transform="scale(1,1) translate(46.083,0.583)"><g transform="scale(1,1) translate(0,0)" stroke="#000000" fill="#F2F2F2" fill-opacity="1" stroke-opacity="1"><path d="M23.167,90.667 L23.167,0 L0,0 L0,90.667 L23.167,90.667 z" stroke-width="1.1666666666666665" stroke-dasharray="none"/></g></g><g width="23.167" height="90.667" transform="scale(1,1) translate(69.25,0.583)"><g transform="scale(1,1) translate(0,0)" stroke="#000000" fill="#F2F2F2" fill-opacity="1" stroke-opacity="1"><path d="M23.167,90.667 L23.167,0 L0,0 L0,90.667 L23.167,90.667 z" stroke-width="1.1666666666666665" stroke-dasharray="none"/></g></g><g width="23.167" height="90.667" transform="scale(1,1) translate(91.417,0.583)"><g transform="scale(1,1) translate(0,0)" stroke="#000000" fill="#F2F2F2" fill-opacity="1" stroke-opacity="1"><path d="M23.167,90.667 L23.167,0 L0,0 L0,90.667 L23.167,90.667 z" stroke-width="1.1666666666666665" stroke-dasharray="none"/></g></g><g width="22" height="90.667" transform="scale(1,1) translate(114.75,0.583)"><g transform="scale(1,1) translate(0,0)" stroke="#000000" fill="#F2F2F2" fill-opacity="1" stroke-opacity="1"><path d="M22,90.667 L22,0 L0,0 L0,90.667 L22,90.667 z" stroke-width="1.1666666666666665" stroke-dasharray="none"/></g></g><g width="23.333" height="90.667" transform="scale(1,1) translate(136.75,0.583)"><g transform="scale(1,1) translate(0,0)" stroke="#000000" fill="#F2F2F2" fill-opacity="1" stroke-opacity="1"><path d="M23.333,90.667 L23.333,0 L0,0 L0,90.667 L23.333,90.667 z" stroke-width="1.1666666666666665" stroke-dasharray="none"/></g></g><g width="23.167" height="90.667" transform="scale(1,1) translate(160.25,0.583)"><g transform="scale(1,1) translate(0,0)" stroke="#000000" fill="#F2F2F2" fill-opacity="1" stroke-opacity="1"><path d="M23.167,90.667 L23.167,0 L0,0 L0,90.667 L23.167,90.667 z" stroke-width="1.1666666666666665" stroke-dasharray="none"/></g></g><g width="23.167" height="90.667" transform="scale(1,1) translate(182.417,0.583)"><g transform="scale(1,1) translate(0,0)" stroke="#000000" fill="#F2F2F2" fill-opacity="1" stroke-opacity="1"><path d="M23.167,90.667 L23.167,0 L0,0 L0,90.667 L23.167,90.667 z" stroke-width="1.1666666666666665" stroke-dasharray="none"/></g></g><g width="22" height="90.667" transform="scale(1,1) translate(205.583,0.583)"><g transform="scale(1,1) translate(0,0)" stroke="#000000" fill="#F2F2F2" fill-opacity="1" stroke-opacity="1"><path d="M22,90.667 L22,0 L0,0 L0,90.667 L22,90.667 z" stroke-width="1.1666666666666665" stroke-dasharray="none"/></g></g><g width="23.167" height="90.667" transform="scale(1,1) translate(227.75,0.583)"><g transform="scale(1,1) translate(0,0)" stroke="#000000" fill="#F2F2F2" fill-opacity="1" stroke-opacity="1"><path d="M23.167,90.667 L23.167,0 L0,0 L0,90.667 L23.167,90.667 z" stroke-width="1.1666666666666665" stroke-dasharray="none"/></g></g><g width="23.333" height="90.667" transform="scale(1,1) translate(250.917,0.583)"><g transform="scale(1,1) translate(0,0)" stroke="#000000" fill="#F2F2F2" fill-opacity="1" stroke-opacity="1"><path d="M23.333,90.667 L23.333,0 L0,0 L0,90.667 L23.333,90.667 z" stroke-width="1.1666666666666665" stroke-dasharray="none"/></g></g><g width="23.333" height="90.667" transform="scale(1,1) translate(273.083,0.583)"><g transform="scale(1,1) translate(0,0)" stroke="#000000" fill="#F2F2F2" fill-opacity="1" stroke-opacity="1"><path d="M23.333,90.667 L23.333,0 L0,0 L0,90.667 L23.333,90.667 z" stroke-width="1.1666666666666665" stroke-dasharray="none"/></g></g><g width="22" height="90.667" transform="scale(1,1) translate(296.583,0.583)"><g transform="scale(1,1) translate(0,0)" stroke="#000000" fill="#F2F2F2" fill-opacity="1" stroke-opacity="1"><path d="M22,90.667 L22,0 L0,0 L0,90.667 L22,90.667 z" stroke-width="1.1666666666666665" stroke-dasharray="none"/></g></g><g width="23.167" height="90.667" transform="scale(1,1) translate(318.583,0.583)"><g transform="scale(1,1) translate(0,0)" stroke="#000000" fill="#F2F2F2" fill-opacity="1" stroke-opacity="1"><path d="M23.167,90.667 L23.167,0 L0,0 L0,90.667 L23.167,90.667 z" stroke-width="1.1666666666666665" stroke-dasharray="none"/></g></g><g width="23.167" height="90.667" transform="scale(1,1) translate(341.917,0.583)"><g transform="scale(1,1) translate(0,0)" stroke="#000000" fill="#F2F2F2" fill-opacity="1" stroke-opacity="1"><path d="M23.167,90.667 L23.167,0 L0,0 L0,90.667 L23.167,90.667 z" stroke-width="1.1666666666666665" stroke-dasharray="none"/></g></g><g width="23.167" height="90.667" transform="scale(1,1) translate(364.083,0.583)"><g transform="scale(1,1) translate(0,0)" stroke="#000000" fill="#F2F2F2" fill-opacity="1" stroke-opacity="1"><path d="M22.008,90.667 L23.167,0 L0,0 L0,90.667 L22.008,90.667 z" stroke-width="1.1666666666666665" stroke-dasharray="none"/></g></g><g width="23.167" height="90.667" transform="scale(1,1) translate(386.083,0.583)"><g transform="scale(1,1) translate(0,0)" stroke="#000000" fill="#F2F2F2" fill-opacity="1" stroke-opacity="1"><path d="M23.167,90.667 L23.167,0 L0,0 L0,90.667 L23.167,90.667 z" stroke-width="1.1666666666666665" stroke-dasharray="none"/></g></g><g width="23.333" height="90.667" transform="scale(1,1) translate(409.417,0.583)"><g transform="scale(1,1) translate(0,0)" stroke="#000000" fill="#F2F2F2" fill-opacity="1" stroke-opacity="1"><path d="M23.333,90.667 L23.333,0 L0,0 L0,90.667 L23.333,90.667 z" stroke-width="1.1666666666666665" stroke-dasharray="none"/></g></g><g width="432.167" height="6" transform="scale(1,1) translate(0.75,4.917)"><g stroke="#000000" opacity="1" stroke-width="1.1666666666666665" stroke-dasharray="none" width="432.167" height="6" transform="scale(1,1) translate(0,0)" fill="#F2F2F2" fill-opacity="1" stroke-opacity="1"><rect width="432.167" height="6"/></g></g><g width="432.167" height="6" transform="scale(1,1) translate(0.583,80.75)"><g stroke="#000000" opacity="1" stroke-width="1.1666666666666665" stroke-dasharray="none" width="432.167" height="6" transform="scale(1,1) translate(0,0)" fill="#F2F2F2" fill-opacity="1" stroke-opacity="1"><rect width="432.167" height="6"/></g></g></g></g></g><g fill="#0000FF" stroke="#9999FF" stroke-opacity="1" transform="scale(1,1) translate(0,0)" opacity="0"><path fill="none" stroke-width="0" stroke-dasharray="none" d="M24.74,-17.719 L24.74,-9.906 L16.927,-13.812 L24.74,-17.719 M58.594,-17.719 L58.594,-9.906 L66.406,-13.812 L58.594,-17.719 M101.052,29.073 L93.24,29.073 L97.146,21.26 L101.052,29.073 M101.052,62.927 L93.24,62.927 L97.146,70.74 L101.052,62.927"/><g><g stroke-dasharray="none"><path d="M24.74,-17.719L24.74,-17.719L24.74,-17.719L24.74,-17.719z" stroke-width="0" fill="none"/></g></g></g><g width="26.041664123535156" height="15.624998092651367" transform="scale(1,1) translate(28.646,-21.625)" opacity="0"><text width="26.041664123535156" height="15.624998092651367" transform="scale(1,1) translate(0,0)" xml:space="preserve"><tspan xml:space="preserve" text-rendering="optimizeSpeed" style="font-family: Arial, Helvetica Neue, Helvetica, sans-serif;" font-size="13.88888888888889" font-weight="normal" font-style="normal" fill="#000" opacity="1" x="0" text-anchor="start" y="12.5" textLength="26.041664123535156">3' 4"</tspan></text></g><g width="26.041664123535156" height="15.624998092651367" transform="rotate(90,104.958,32.979) scale(1,1) translate(104.958,32.979)" opacity="0"><text width="26.041664123535156" height="15.624998092651367" transform="scale(1,1) translate(0,0)" xml:space="preserve"><tspan xml:space="preserve" text-rendering="optimizeSpeed" style="font-family: Arial, Helvetica Neue, Helvetica, sans-serif;" font-size="13.88888888888889" font-weight="normal" font-style="normal" fill="#000" opacity="1" x="0" text-anchor="start" y="12.5" textLength="26.041664123535156">3' 8"</tspan></text></g></g><g width="75" height="13" transform="scale(1,1) translate(320.833,172.667)"><g width="75" height="13"><g transform="scale(0.9740256844976793,0.9629635298478926) translate(0,0)"><g><g width="75" height="12.5" transform="scale(1,1) translate(0.5,0.5)"><g stroke="#000000" opacity="1" stroke-width="1" stroke-dasharray="none" width="75" height="12.5" transform="scale(1,1) translate(0,0)" fill="#FFFFFF" fill-opacity="1" stroke-opacity="1"><rect width="75" height="12.5"/></g></g><g width="75" height="0" transform="scale(1,1) translate(0.5,6.667)"><g transform="scale(1,1) translate(0,0)" fill="#000000" stroke="#000000" stroke-opacity="1"><path d="M0,0 L75,0" fill="none" stroke-width="1" stroke-dasharray="none"/><g><g stroke-dasharray="none"><path d="M-1,-1L1,-1L1,1L-1,1z" stroke-width="0" fill="none"/></g></g></g></g></g></g></g><g fill="#0000FF" stroke="#9999FF" stroke-opacity="1" transform="scale(1,1) translate(0,0)" opacity="0"><path fill="none" stroke-width="0" stroke-dasharray="none" d="M20.573,-17.719 L20.573,-9.906 L12.76,-13.812 L20.573,-17.719 M54.427,-17.719 L54.427,-9.906 L62.24,-13.812 L54.427,-17.719 M92.719,-10.427 L84.906,-10.427 L88.812,-18.24 L92.719,-10.427 M92.719,23.427 L84.906,23.427 L88.812,31.24 L92.719,23.427"/><g><g stroke-dasharray="none"><path d="M20.573,-17.719L20.573,-17.719L20.573,-17.719L20.573,-17.719z" stroke-width="0" fill="none"/></g></g></g><g width="26.041664123535156" height="15.624998092651367" transform="scale(1,1) translate(24.479,-21.625)" opacity="0"><text width="26.041664123535156" height="15.624998092651367" transform="scale(1,1) translate(0,0)" xml:space="preserve"><tspan xml:space="preserve" text-rendering="optimizeSpeed" style="font-family: Arial, Helvetica Neue, Helvetica, sans-serif;" font-size="13.88888888888889" font-weight="normal" font-style="normal" fill="#000" opacity="1" x="0" text-anchor="start" y="12.5" textLength="26.041664123535156">3' 0"</tspan></text></g><g width="26.041664123535156" height="15.624998092651367" transform="rotate(270,81,19.521) scale(1,1) translate(81,19.521)" opacity="0"><text width="26.041664123535156" height="15.624998092651367" transform="scale(1,1) translate(0,0)" xml:space="preserve"><tspan xml:space="preserve" text-rendering="optimizeSpeed" style="font-family: Arial, Helvetica Neue, Helvetica, sans-serif;" font-size="13.88888888888889" font-weight="normal" font-style="normal" fill="#000" opacity="1" x="0" text-anchor="start" y="12.5" textLength="26.041664123535156">0' 6"</tspan></text></g></g><g width="75" height="13" transform="scale(1,1) translate(612.5,172.667)"><g width="75" height="13"><g transform="scale(0.9740256844976793,0.9629635298478926) translate(0,0)"><g><g width="75" height="12.5" transform="scale(1,1) translate(0.5,0.5)"><g stroke="#000000" opacity="1" stroke-width="1" stroke-dasharray="none" width="75" height="12.5" transform="scale(1,1) translate(0,0)" fill="#FFFFFF" fill-opacity="1" stroke-opacity="1"><rect width="75" height="12.5"/></g></g><g width="75" height="0" transform="scale(1,1) translate(0.5,6.667)"><g transform="scale(1,1) translate(0,0)" fill="#000000" stroke="#000000" stroke-opacity="1"><path d="M0,0 L75,0" fill="none" stroke-width="1" stroke-dasharray="none"/><g><g stroke-dasharray="none"><path d="M-1,-1L1,-1L1,1L-1,1z" stroke-width="0" fill="none"/></g></g></g></g></g></g></g><g fill="#0000FF" stroke="#9999FF" stroke-opacity="1" transform="scale(1,1) translate(0,0)" opacity="0"><path fill="none" stroke-width="0" stroke-dasharray="none" d="M20.573,-17.719 L20.573,-9.906 L12.76,-13.812 L20.573,-17.719 M54.427,-17.719 L54.427,-9.906 L62.24,-13.812 L54.427,-17.719 M92.719,-10.427 L84.906,-10.427 L88.812,-18.24 L92.719,-10.427 M92.719,23.427 L84.906,23.427 L88.812,31.24 L92.719,23.427"/><g><g stroke-dasharray="none"><path d="M20.573,-17.719L20.573,-17.719L20.573,-17.719L20.573,-17.719z" stroke-width="0" fill="none"/></g></g></g><g width="26.041664123535156" height="15.624998092651367" transform="scale(1,1) translate(24.479,-21.625)" opacity="0"><text width="26.041664123535156" height="15.624998092651367" transform="scale(1,1) translate(0,0)" xml:space="preserve"><tspan xml:space="preserve" text-rendering="optimizeSpeed" style="font-family: Arial, Helvetica Neue, Helvetica, sans-serif;" font-size="13.88888888888889" font-weight="normal" font-style="normal" fill="#000" opacity="1" x="0" text-anchor="start" y="12.5" textLength="26.041664123535156">3' 0"</tspan></text></g><g width="26.041664123535156" height="15.624998092651367" transform="rotate(270,81,19.521) scale(1,1) translate(81,19.521)" opacity="0"><text width="26.041664123535156" height="15.624998092651367" transform="scale(1,1) translate(0,0)" xml:space="preserve"><tspan xml:space="preserve" text-rendering="optimizeSpeed" style="font-family: Arial, Helvetica Neue, Helvetica, sans-serif;" font-size="13.88888888888889" font-weight="normal" font-style="normal" fill="#000" opacity="1" x="0" text-anchor="start" y="12.5" textLength="26.041664123535156">0' 6"</tspan></text></g></g><g width="139" height="92" transform="rotate(270,800,251.5) scale(1,1) translate(730.5,205.5)"><g width="139" height="92"><g transform="scale(0.32064540505662453,1.0018111436556112) translate(0,0)"><g><g width="23.167" height="90.667" transform="scale(1,1) translate(0.583,0.583)"><g transform="scale(1,1) translate(0,0)" stroke="#000000" fill="#F2F2F2" fill-opacity="1" stroke-opacity="1"><path d="M23.167,90.667 L23.167,0 L0,0 L0,90.667 L23.167,90.667 z" stroke-width="1.1666666666666665" stroke-dasharray="none"/></g></g><g width="22" height="90.667" transform="scale(1,1) translate(23.917,0.583)"><g transform="scale(1,1) translate(0,0)" stroke="#000000" fill="#F2F2F2" fill-opacity="1" stroke-opacity="1"><path d="M22,90.667 L22,0 L0,0 L0,90.667 L22,90.667 z" stroke-width="1.1666666666666665" stroke-dasharray="none"/></g></g><g width="23.167" height="90.667" transform="scale(1,1) translate(46.083,0.583)"><g transform="scale(1,1) translate(0,0)" stroke="#000000" fill="#F2F2F2" fill-opacity="1" stroke-opacity="1"><path d="M23.167,90.667 L23.167,0 L0,0 L0,90.667 L23.167,90.667 z" stroke-width="1.1666666666666665" stroke-dasharray="none"/></g></g><g width="23.167" height="90.667" transform="scale(1,1) translate(69.25,0.583)"><g transform="scale(1,1) translate(0,0)" stroke="#000000" fill="#F2F2F2" fill-opacity="1" stroke-opacity="1"><path d="M23.167,90.667 L23.167,0 L0,0 L0,90.667 L23.167,90.667 z" stroke-width="1.1666666666666665" stroke-dasharray="none"/></g></g><g width="23.167" height="90.667" transform="scale(1,1) translate(91.417,0.583)"><g transform="scale(1,1) translate(0,0)" stroke="#000000" fill="#F2F2F2" fill-opacity="1" stroke-opacity="1"><path d="M23.167,90.667 L23.167,0 L0,0 L0,90.667 L23.167,90.667 z" stroke-width="1.1666666666666665" stroke-dasharray="none"/></g></g><g width="22" height="90.667" transform="scale(1,1) translate(114.75,0.583)"><g transform="scale(1,1) translate(0,0)" stroke="#000000" fill="#F2F2F2" fill-opacity="1" stroke-opacity="1"><path d="M22,90.667 L22,0 L0,0 L0,90.667 L22,90.667 z" stroke-width="1.1666666666666665" stroke-dasharray="none"/></g></g><g width="23.333" height="90.667" transform="scale(1,1) translate(136.75,0.583)"><g transform="scale(1,1) translate(0,0)" stroke="#000000" fill="#F2F2F2" fill-opacity="1" stroke-opacity="1"><path d="M23.333,90.667 L23.333,0 L0,0 L0,90.667 L23.333,90.667 z" stroke-width="1.1666666666666665" stroke-dasharray="none"/></g></g><g width="23.167" height="90.667" transform="scale(1,1) translate(160.25,0.583)"><g transform="scale(1,1) translate(0,0)" stroke="#000000" fill="#F2F2F2" fill-opacity="1" stroke-opacity="1"><path d="M23.167,90.667 L23.167,0 L0,0 L0,90.667 L23.167,90.667 z" stroke-width="1.1666666666666665" stroke-dasharray="none"/></g></g><g width="23.167" height="90.667" transform="scale(1,1) translate(182.417,0.583)"><g transform="scale(1,1) translate(0,0)" stroke="#000000" fill="#F2F2F2" fill-opacity="1" stroke-opacity="1"><path d="M23.167,90.667 L23.167,0 L0,0 L0,90.667 L23.167,90.667 z" stroke-width="1.1666666666666665" stroke-dasharray="none"/></g></g><g width="22" height="90.667" transform="scale(1,1) translate(205.583,0.583)"><g transform="scale(1,1) translate(0,0)" stroke="#000000" fill="#F2F2F2" fill-opacity="1" stroke-opacity="1"><path d="M22,90.667 L22,0 L0,0 L0,90.667 L22,90.667 z" stroke-width="1.1666666666666665" stroke-dasharray="none"/></g></g><g width="23.167" height="90.667" transform="scale(1,1) translate(227.75,0.583)"><g transform="scale(1,1) translate(0,0)" stroke="#000000" fill="#F2F2F2" fill-opacity="1" stroke-opacity="1"><path d="M23.167,90.667 L23.167,0 L0,0 L0,90.667 L23.167,90.667 z" stroke-width="1.1666666666666665" stroke-dasharray="none"/></g></g><g width="23.333" height="90.667" transform="scale(1,1) translate(250.917,0.583)"><g transform="scale(1,1) translate(0,0)" stroke="#000000" fill="#F2F2F2" fill-opacity="1" stroke-opacity="1"><path d="M23.333,90.667 L23.333,0 L0,0 L0,90.667 L23.333,90.667 z" stroke-width="1.1666666666666665" stroke-dasharray="none"/></g></g><g width="23.333" height="90.667" transform="scale(1,1) translate(273.083,0.583)"><g transform="scale(1,1) translate(0,0)" stroke="#000000" fill="#F2F2F2" fill-opacity="1" stroke-opacity="1"><path d="M23.333,90.667 L23.333,0 L0,0 L0,90.667 L23.333,90.667 z" stroke-width="1.1666666666666665" stroke-dasharray="none"/></g></g><g width="22" height="90.667" transform="scale(1,1) translate(296.583,0.583)"><g transform="scale(1,1) translate(0,0)" stroke="#000000" fill="#F2F2F2" fill-opacity="1" stroke-opacity="1"><path d="M22,90.667 L22,0 L0,0 L0,90.667 L22,90.667 z" stroke-width="1.1666666666666665" stroke-dasharray="none"/></g></g><g width="23.167" height="90.667" transform="scale(1,1) translate(318.583,0.583)"><g transform="scale(1,1) translate(0,0)" stroke="#000000" fill="#F2F2F2" fill-opacity="1" stroke-opacity="1"><path d="M23.167,90.667 L23.167,0 L0,0 L0,90.667 L23.167,90.667 z" stroke-width="1.1666666666666665" stroke-dasharray="none"/></g></g><g width="23.167" height="90.667" transform="scale(1,1) translate(341.917,0.583)"><g transform="scale(1,1) translate(0,0)" stroke="#000000" fill="#F2F2F2" fill-opacity="1" stroke-opacity="1"><path d="M23.167,90.667 L23.167,0 L0,0 L0,90.667 L23.167,90.667 z" stroke-width="1.1666666666666665" stroke-dasharray="none"/></g></g><g width="23.167" height="90.667" transform="scale(1,1) translate(364.083,0.583)"><g transform="scale(1,1) translate(0,0)" stroke="#000000" fill="#F2F2F2" fill-opacity="1" stroke-opacity="1"><path d="M22.008,90.667 L23.167,0 L0,0 L0,90.667 L22.008,90.667 z" stroke-width="1.1666666666666665" stroke-dasharray="none"/></g></g><g width="23.167" height="90.667" transform="scale(1,1) translate(386.083,0.583)"><g transform="scale(1,1) translate(0,0)" stroke="#000000" fill="#F2F2F2" fill-opacity="1" stroke-opacity="1"><path d="M23.167,90.667 L23.167,0 L0,0 L0,90.667 L23.167,90.667 z" stroke-width="1.1666666666666665" stroke-dasharray="none"/></g></g><g width="23.333" height="90.667" transform="scale(1,1) translate(409.417,0.583)"><g transform="scale(1,1) translate(0,0)" stroke="#000000" fill="#F2F2F2" fill-opacity="1" stroke-opacity="1"><path d="M23.333,90.667 L23.333,0 L0,0 L0,90.667 L23.333,90.667 z" stroke-width="1.1666666666666665" stroke-dasharray="none"/></g></g><g width="432.167" height="6" transform="scale(1,1) translate(0.75,4.917)"><g stroke="#000000" opacity="1" stroke-width="1.1666666666666665" stroke-dasharray="none" width="432.167" height="6" transform="scale(1,1) translate(0,0)" fill="#F2F2F2" fill-opacity="1" stroke-opacity="1"><rect width="432.167" height="6"/></g></g><g width="432.167" height="6" transform="scale(1,1) translate(0.583,80.75)"><g stroke="#000000" opacity="1" stroke-width="1.1666666666666665" stroke-dasharray="none" width="432.167" height="6" transform="scale(1,1) translate(0,0)" fill="#F2F2F2" fill-opacity="1" stroke-opacity="1"><rect width="432.167" height="6"/></g></g></g></g></g><g fill="#0000FF" stroke="#9999FF" stroke-opacity="1" transform="scale(1,1) translate(0,0)" opacity="0"><path fill="none" stroke-width="0" stroke-dasharray="none" d="M52.573,-17.719 L52.573,-9.906 L44.76,-13.812 L52.573,-17.719 M86.427,-17.719 L86.427,-9.906 L94.24,-13.812 L86.427,-17.719 M156.719,29.073 L148.906,29.073 L152.812,21.26 L156.719,29.073 M156.719,62.927 L148.906,62.927 L152.812,70.74 L156.719,62.927"/><g><g stroke-dasharray="none"><path d="M52.573,-17.719L52.573,-17.719L52.573,-17.719L52.573,-17.719z" stroke-width="0" fill="none"/></g></g></g><g width="26.041664123535156" height="15.624998092651367" transform="scale(1,1) translate(56.479,-21.625)" opacity="0"><text width="26.041664123535156" height="15.624998092651367" transform="scale(1,1) translate(0,0)" xml:space="preserve"><tspan xml:space="preserve" text-rendering="optimizeSpeed" style="font-family: Arial, Helvetica Neue, Helvetica, sans-serif;" font-size="13.88888888888889" font-weight="normal" font-style="normal" fill="#000" opacity="1" x="0" text-anchor="start" y="12.5" textLength="26.041664123535156">5' 7"</tspan></text></g><g width="26.041664123535156" height="15.624998092651367" transform="rotate(90,160.625,32.979) scale(1,1) translate(160.625,32.979)" opacity="0"><text width="26.041664123535156" height="15.624998092651367" transform="scale(1,1) translate(0,0)" xml:space="preserve"><tspan xml:space="preserve" text-rendering="optimizeSpeed" style="font-family: Arial, Helvetica Neue, Helvetica, sans-serif;" font-size="13.88888888888889" font-weight="normal" font-style="normal" fill="#000" opacity="1" x="0" text-anchor="start" y="12.5" textLength="26.041664123535156">3' 8"</tspan></text></g></g></g></svg>