<?xml version="1.0" encoding="utf-8"?>
<!-- Generator: Adobe Illustrator 18.1.1, SVG Export Plug-In . SVG Version: 6.00 Build 0)  -->
<!DOCTYPE svg PUBLIC "-//W3C//DTD SVG 1.1//EN" "http://www.w3.org/Graphics/SVG/1.1/DTD/svg11.dtd">
<svg version="1.1" id="Layer_1" xmlns="http://www.w3.org/2000/svg" xmlns:xlink="http://www.w3.org/1999/xlink" x="0px" y="0px"
	 viewBox="0 0 655 468" enable-background="new 0 0 655 468" xml:space="preserve">
<g>
	<path fill="#BDD639" d="M101.4,266.6l-0.4-0.1c-5.2-0.8-12.8-4.4-12.8-10.9v-0.6l10.4-8.5l-94.6,0v214.2h71.5V278.7h26.1V266.6z"/>
	<path fill="#BDD639" d="M134.5,293.4h-0.7c-5.8,0-9.2-6.9-10-11.6l-0.1-0.4H78.1v179.2h68.1V281.5h-2.1L134.5,293.4z"/>
	<path fill="#BDD639" d="M371.2,293.5h-6l-9.6,11.6H355c-5.8,0-9.2-6.9-10-11.6l-0.1-0.4h-14.2v32.7h8.1v2.8H328v-26.3h-38.1v158.3
		H391v-180l-19.8,0V293.5z"/>
	<path fill="#BDD639" d="M166.6,314.3H166c-5.8,0-9.2-6.9-10-11.6l-0.1-0.4H149v158.3h68.6V302.3h-41.3L166.6,314.3z"/>
	<path fill="#BDD639" d="M101.7,185.7V185c0-5.8,6.9-9.2,11.6-10l0.4-0.1v-7.8L99.5,153H85.8V128h2.8v22.3h12.1l15,15h9.8l0.1-0.4
		c0.8-4.7,4.1-11.6,10-11.6h0.6l7.6,9.2V7.1H88.5v84h-2.8v-84H10.3v186.1h100.6L101.7,185.7z"/>
	<path fill="#BDD639" d="M269.2,314.4h-0.7c-5.8,0-9.2-7-10-11.7l-0.1-0.4h-38.2v158.3h66.9V302.3h-8.4L269.2,314.4z"/>
	<path fill="#BDD639" d="M199.9,180.8h0.7c5.8,0,9.2,6.9,10,11.6l0.1,0.4h40.2l9.6-12h0.7c5.8,0,9.2,6.9,10,11.6l0.1,0.4h43.2V7.1
		H146.5v185.7h43.8L199.9,180.8z"/>
	<path fill="#BDD639" d="M416.3,209.9h13.6l0.1-0.4c0.8-4.7,4.1-11.6,10-11.6h0.7l8.6,10.4V7.1h-65.8v166.5h32.9V209.9z"/>
	<path fill="#BDD639" d="M326.9,171.2c5.8,0,9.2,6.9,10,11.6l0.1,0.4h43.6V7.1H317v174l9.3-9.9H326.9z"/>
	<path fill="#BDD639" d="M469,280.7h-8.8l-9.6,12h-0.7c-5.8,0-9.2-6.9-10-11.6l-0.1-0.4l-46.1,0v180h104.4V356.5L469,325.2V280.7z"
		/>
	<path fill="#BDD639" d="M612.4,420.3v-53.8h-93.3l-0.1,0.4c-0.8,4.7-4.1,11.6-10,11.6h-0.7l-7.5-9.2v91.4h130.6v-27.3h-8.3
		L612.4,420.3z"/>
	<path fill="#BDD639" d="M500.9,246.6v66.3l5.4,5.7l0.3-0.2c2.1-1.3,5.7-2.8,9.3-2.8c2.9,0,5.3,0.9,7.2,2.6l0.6,0.6l-3.6,14.7
		l9.2,9.8h104.2v19.1H651v-4.1h0.2V246.6H500.9z"/>
</g>
<g>
	<line fill="none" stroke="#030303" stroke-width="3" stroke-miterlimit="10" x1="652.3" y1="357.8" x2="652.3" y2="410.6"/>
	<line fill="none" stroke="#030303" stroke-width="2" stroke-miterlimit="10" x1="632.7" y1="409.4" x2="652.3" y2="409.4"/>
	<line fill="none" stroke="#030303" stroke-width="2" stroke-miterlimit="10" x1="632.7" y1="405.2" x2="652.3" y2="405.2"/>
	<line fill="none" stroke="#030303" stroke-width="2" stroke-miterlimit="10" x1="632.7" y1="401" x2="652.3" y2="401"/>
	<line fill="none" stroke="#030303" stroke-width="2" stroke-miterlimit="10" x1="632.7" y1="396.9" x2="652.3" y2="396.9"/>
	<line fill="none" stroke="#030303" stroke-width="2" stroke-miterlimit="10" x1="632.7" y1="392.7" x2="652.3" y2="392.7"/>
	<line fill="none" stroke="#030303" stroke-width="2" stroke-miterlimit="10" x1="632.7" y1="388.5" x2="646.7" y2="388.5"/>
	<line fill="none" stroke="#030303" stroke-width="2" stroke-miterlimit="10" x1="632.3" y1="380.6" x2="652.5" y2="392"/>
	<line fill="none" stroke="#030303" stroke-width="3" stroke-miterlimit="10" x1="632.2" y1="363.8" x2="652.2" y2="363.8"/>
	<line fill="none" stroke="#030303" stroke-width="3" stroke-miterlimit="10" x1="632.9" y1="462" x2="632.9" y2="432"/>
	<path fill="none" stroke="#030303" stroke-width="3" stroke-miterlimit="10" d="M499.5,365.4l9.6,11.6c6.1,0,8.8-9.1,8.8-12
		c0,0,95.9,0,95.9,0v54.7l10,12.2H651"/>
	<path fill="none" stroke="#030303" stroke-width="3" stroke-miterlimit="10" d="M632.1,412.3v-67.6H528.7l-10.1-10.8l3.6-14.6
		c-5.4-4.8-14-0.7-16.1,1.2l-6.6-7v-68"/>
	<path fill="none" stroke="#030303" stroke-width="3" stroke-miterlimit="10" d="M632.1,407.8c0,2.8-2.7,12-8.8,12l-9.6-11.6"/>
	<path fill="none" stroke="#030303" stroke-width="3" stroke-miterlimit="10" d="M537.4,344.8c3.1,0,13.2,3,13.2,9.7L537.7,365"/>
	<polyline fill="none" stroke="#030303" stroke-width="3" stroke-miterlimit="10" points="381.9,5.3 381.9,184.6 335.7,184.6 
		335.7,211.3 337.8,211.3 	"/>
	<polyline fill="none" stroke="#030303" stroke-width="3" stroke-miterlimit="10" points="382.4,175 414.9,175 414.9,175.4 
		414.9,211.3 	"/>
	<line fill="none" stroke="#030303" stroke-width="3" stroke-miterlimit="10" x1="218.9" y1="300.9" x2="218.9" y2="461.5"/>
	<line fill="none" stroke="#030303" stroke-width="3" stroke-miterlimit="10" x1="288.5" y1="300.9" x2="288.5" y2="461.9"/>
	<line fill="none" stroke="#030303" stroke-width="3" stroke-miterlimit="10" x1="392.4" y1="279.2" x2="392.4" y2="463.1"/>
	<line fill="none" stroke="#030303" stroke-width="3" stroke-miterlimit="10" x1="358.8" y1="211.3" x2="358.8" y2="184.6"/>
	<line fill="none" stroke="#030303" stroke-width="3" stroke-miterlimit="10" x1="9.2" y1="245.1" x2="147.6" y2="245.1"/>
	<line fill="none" stroke="#030303" stroke-width="3" stroke-miterlimit="10" x1="117.5" y1="214.6" x2="64.6" y2="214.6"/>
	<line fill="none" stroke="#030303" stroke-width="2" stroke-miterlimit="10" x1="65.9" y1="195" x2="65.9" y2="214.6"/>
	<line fill="none" stroke="#030303" stroke-width="2" stroke-miterlimit="10" x1="70" y1="195" x2="70" y2="214.6"/>
	<line fill="none" stroke="#030303" stroke-width="2" stroke-miterlimit="10" x1="74.2" y1="195" x2="74.2" y2="214.6"/>
	<line fill="none" stroke="#030303" stroke-width="2" stroke-miterlimit="10" x1="78.4" y1="195" x2="78.4" y2="214.6"/>
	<line fill="none" stroke="#030303" stroke-width="2" stroke-miterlimit="10" x1="82.5" y1="195" x2="82.5" y2="214.6"/>
	<line fill="none" stroke="#030303" stroke-width="2" stroke-miterlimit="10" x1="86.7" y1="195" x2="86.7" y2="209"/>
	<line fill="none" stroke="#030303" stroke-width="2" stroke-miterlimit="10" x1="90.9" y1="195" x2="90.9" y2="201.2"/>
	<line fill="none" stroke="#030303" stroke-width="2" stroke-miterlimit="10" x1="94.6" y1="194.6" x2="83.2" y2="214.8"/>
	<line fill="none" stroke="#030303" stroke-width="3" stroke-miterlimit="10" x1="87.1" y1="91.6" x2="87.1" y2="5.7"/>
	<line fill="none" stroke="#030303" stroke-width="3" stroke-miterlimit="10" x1="287.3" y1="245.6" x2="287.3" y2="276.5"/>
	<polygon fill="none" stroke="#030303" stroke-width="5" stroke-miterlimit="10" points="9,244 9,5.7 450.5,5.7 450.5,245.3 
		652.5,245.3 652.5,462 2.5,462 2.5,244 	"/>
	<polyline fill="none" stroke="#030303" stroke-width="3" stroke-miterlimit="10" points="231.8,244.6 231.8,222.1 186.4,222.1 
		186.4,245.1 408.4,245.1 	"/>
	<path fill="none" stroke="#030303" stroke-width="3" stroke-miterlimit="10" d="M499.5,462.3V356l-29.2-31.3v-45.4h-10.8l-9.6,12
		c-6.1,0-8.8-9.1-8.8-12l-71.3-0.1v12.9h-5.3l-9.6,11.6c-6.1,0-8.8-9.1-8.8-12c0,0-16.8,0-16.8,0v35.4h10"/>
	<path fill="none" stroke="#030303" stroke-width="3" stroke-miterlimit="10" d="M329.4,300.9h-51.3l-9.6,12.1
		c-6.1,0-8.8-9.3-8.8-12.1h-84.2l-9.6,12c-6.1,0-8.8-9.1-8.8-12c0,0-9.6,0-9.6,0"/>
	<path fill="none" stroke="#030303" stroke-width="3" stroke-miterlimit="10" d="M147.6,461v-181h-4.2l-9.6,12
		c-6.1,0-8.8-9.1-8.8-12c0,0-48.4,0-48.4,0v181.4"/>
	<path fill="none" stroke="#030303" stroke-width="3" stroke-miterlimit="10" d="M9.2,194.6h108.4c0,0,0,32.1,0,32.1
		c-2.8,0-12,2.7-12,8.8l11.6,9.6"/>
	<path fill="none" stroke="#030303" stroke-width="3" stroke-miterlimit="10" d="M115.1,166.7c0,0,0,9.6,0,9.6c-2.8,0-12,2.7-12,8.8
		l11.6,9.6"/>
	<path fill="none" stroke="#030303" stroke-width="3" stroke-miterlimit="10" d="M190.9,194.2h-45.9V4.9l170.5,0.4v188.9
		c0,0-45.9,0-45.9,0c0-2.8-2.7-12-8.8-12l-9.6,12h-42.1c0-2.8-2.7-12-8.8-12L190.9,194.2z"/>
	<path fill="none" stroke="#030303" stroke-width="3" stroke-miterlimit="10" d="M381.9,210.9l-9.6-11.6c-6.1,0-8.8,9.1-8.8,12
		c0,0-9.6,0-9.6,0h0c0-2.8-2.7-12-8.8-12l-9.6,11.6"/>
	<path fill="none" stroke="#030303" stroke-width="3" stroke-miterlimit="10" d="M186.3,245l-12.8,10c0,6.7,10.1,9.7,13.2,9.7
		l23.4,0"/>
	<path fill="none" stroke="#030303" stroke-width="3" stroke-miterlimit="10" d="M102.8,280.1c0,0,0-14.8,0-14.8
		c-3.1,0-13.2-3-13.2-9.7l12.9-10.6"/>
	<path fill="none" stroke="#030303" stroke-width="3" stroke-miterlimit="10" d="M325.2,245.6V269l-6.3,7.5h-4.7l-9.6-12
		c-6.1,0-8.8,9.1-8.8,12c0,0-11.6,0-11.6,0c0-2.8-2.7-12-8.8-12l-9.6,12c0,0-33.8,0-33.8,0c0-2.8-2.7-12-8.8-12l-9.6,12h-3.8v-31"/>
	<g>
		<path fill="none" stroke="#030303" stroke-width="3" stroke-miterlimit="10" d="M381.9,179.4v31.9c0,0,12.7,0,12.7,0
			c0-2.8,2.7-12,8.8-12l9.6,12c0,0,18.2,0,18.2,0c0-2.8,2.7-12,8.8-12l9.6,11.6"/>
	</g>
	<path fill="none" stroke="#030303" stroke-width="3" stroke-miterlimit="10" d="M87.1,127.5v24.2h12.9l15,15c0,0,11.7,0,11.7,0
		c0-2.8,2.7-12,8.8-12l9.6,11.6"/>
	<path fill="none" stroke="#030303" stroke-width="3" stroke-miterlimit="10" d="M335.7,184.6c0-2.8-2.7-12-8.8-12l-11.2,12"/>
</g>
</svg>
