<?xml version="1.0" encoding="utf-8"?>
<!-- Generator: Adobe Illustrator 18.1.1, SVG Export Plug-In . SVG Version: 6.00 Build 0)  -->
<!DOCTYPE svg PUBLIC "-//W3C//DTD SVG 1.1//EN" "http://www.w3.org/Graphics/SVG/1.1/DTD/svg11.dtd">
<svg version="1.1" id="Layer_1" xmlns="http://www.w3.org/2000/svg" xmlns:xlink="http://www.w3.org/1999/xlink" x="0px" y="0px"
	 viewBox="0 0 162 162" enable-background="new 0 0 162 162" xml:space="preserve">
<path d="M98.4,101.7h34.8v12.4H98.4V101.7z M137.9,68.9c0,12.4-9.6,20.8-22,20.8s-22-8.5-22-20.8s9.6-20.8,22-20.8
	S137.9,56.5,137.9,68.9z M125.5,68.9c0-5.6-3.8-10.1-9.7-10.1c-5.9,0-9.7,4.5-9.7,10.1s3.8,10.1,9.7,10.1
	C121.7,78.9,125.5,74.5,125.5,68.9z M33.8,13.3c-0.2,0.2-0.5,0.2-0.8,0.2h0.8C33.8,13.5,33.8,13.4,33.8,13.3z M41.8,69
	c-0.1-0.1-0.1-0.1-0.2,0c0,0.1,0.1,0.2,0.1,0.2c-1.9,3.3-3.1,7.3-3.1,11.8c0,0.4,0,0.8,0.1,1.1c-0.1-0.1-0.1-0.1-0.2-0.1
	c-0.4,0-1-0.1-1.3-0.6c-0.3,0.4,0.3,0.7,0.4,1.1c0.3,0,0.6-0.3,0.8,0c-0.2,0.2-0.5,0.3-0.3,0.4c0.3,0.3,0.6-0.1,0.7-0.3
	c0,0.2,0,0.4,0,0.7c-0.2-0.1-0.5,0.3-0.1,0.4c0,0.1,0.1,0.1,0.1,0.1c0.3,3.3,1.3,6.2,2.8,8.8c-0.2,0-0.3,0-0.5,0
	c-0.1,0.3,0,0.6,0.3,0.6c0.1-0.2,0.2-0.2,0.4-0.2c3.6,6,9.9,9.7,17.5,9.7c6.8,0,12.8-4.2,15.6-9.6l12.1,5.8
	c-4.8,8.2-13.1,16.3-27.6,16.3c-19.8,0-35.1-13.8-35.2-34.1c0.3,0,0.8,0.2,0.6-0.3c-0.1,0-0.4-0.1-0.6,0c0-1.9,0.2-3.7,0.4-5.4
	c0.2,0,0.5,0,0.3-0.3c-0.1,0-0.2,0-0.3,0c0.8-5.1,2.6-9.6,5.2-13.5c0,0,0,0,0,0c0.3,0.3,0.6-0.1,0.4-0.3c0,0-0.1,0-0.1,0
	c0.2-0.3,0.4-0.5,0.6-0.8c0.1,0.1,0.4,0.1,0.5,0.2c0.1,0.4,0.6-0.1,0.1-0.1c0-0.2,0-0.5-0.2-0.5c1.2-1.6,2.5-3,4-4.3
	c0.3,0.1,0.6,0,0.4-0.3c6.2-5.4,14.6-8.5,23.9-8.5c14.6,0,23,7.9,27.6,16.2l-12.1,5.9c-2.8-5.4-8.7-9.6-15.6-9.6
	C51.6,59.3,45.3,63.1,41.8,69z M36.7,56.5c0.3,0,1,0.2,0.7-0.3c0-0.1-0.2-0.2-0.2-0.3C37.1,56.1,36.7,56.3,36.7,56.5z M36.5,60
	c0.3-0.1,0.7-0.5,0.5-0.5C36.8,59.4,36.1,60.1,36.5,60z M35.7,83.4c0.4-0.1,1.1,0.4,1-0.3c0-0.2-0.2-0.6-0.6-0.5
	C36,82.9,35.8,83.2,35.7,83.4z M35.3,64c0,0,0.1-0.1,0.1-0.3c0.1-0.2-0.4-0.1-0.5,0C34.8,63.9,35.1,64.4,35.3,64z M34.7,74.5
	c-0.2,0-0.6,0.2-0.6,0.4C34.4,75.1,35,75.1,34.7,74.5z M34.2,84.9c-0.2-0.2-0.9-0.1-0.5,0.3C33.9,85.4,34.6,85.3,34.2,84.9z
	 M34.9,79.8c0.3,0.2,0.4-0.1,0.3-0.3c-0.1-0.2-0.3-0.2-0.4-0.3C34.7,79.2,34.7,79.6,34.9,79.8z M34.8,66.2c-0.2,0.3-0.6,0.4-0.6,0.6
	c0,0.3,0.2,0.6,0.5,0.5C35.1,67.1,34.9,66.4,34.8,66.2z M34.2,59.1l0.5-0.5c-0.1-0.2-0.2-0.5-0.5-0.5C34.4,58.4,34,58.8,34.2,59.1z
	 M34,64.9c0.2,0.2,0.6-0.1,0.3-0.3C34.1,64.3,33.8,64.6,34,64.9z M32.3,60.1c0.3,0.1,1.2,0.2,0.8-0.5c0.1-0.1,0.1-0.2,0.1-0.3
	c0-0.6-0.6-0.3-0.9-0.3V60.1z M31.8,79c0.4,0,1.1,0.1,1.1-0.1c0-0.1-0.1-0.3-0.3-0.5C32.4,78.1,31.9,78.7,31.8,79z M30.9,79.1
	c0,0.3,0.3,0.5,0.4,0.2c0.1-0.1,0.1-0.3,0.3-0.4c-0.1,0-0.4-0.2-0.6-0.2C30.6,78.4,30.5,79,30.9,79.1z M30,69.6
	c0.3,0.3,0.6-0.1,0.4-0.4C30.2,69.2,29.9,69.5,30,69.6z M29.8,72.9c0.3,0,0.7,0,0.9-0.1c-0.1-0.1-0.2-0.2-0.2-0.2
	C30.2,72.7,29.8,72.4,29.8,72.9z M29.4,76.6c-0.2,0-0.3,0.7-0.3,1.1c0.5,0.3,0.3-0.4,0.3-0.6C29.5,76.9,29.8,76.5,29.4,76.6z
	 M29.2,78.2c-0.1-0.1-0.2-0.1-0.4-0.2c-0.1,0,0,0.4,0,0.5C29,78.5,29.6,78.5,29.2,78.2z M28.6,64.6l0.2,1c0.3-0.2,0.5-0.6,0.4-1
	H28.6z M28,65.2c0.5,0.4,0.3-0.4,0.3-0.6c0,0-0.1,0-0.1,0C27.8,64.7,27.9,65.1,28,65.2z M28.3,66.7c0.2-0.1,0.3-0.4,0.4-0.6
	c-0.2,0-0.5-0.1-0.8-0.2c-0.2-0.1-0.1,0.3-0.1,0.4C27.3,67,28.2,66.7,28.3,66.7z M27.3,76.5c0.1,0,0.4-0.2,0.4-0.2
	c0.2-0.3,0-0.5-0.3-0.4C27.4,76,27,76.4,27.3,76.5z M24.9,84.8c0.1-0.2-0.4-0.1-0.5,0c-0.2,0.2,0.1,0.7,0.3,0.2
	C24.8,85,24.8,85,24.9,84.8z M24.9,76.6l0.2,0.2C25.4,76.7,25,76.3,24.9,76.6z M25.9,81.3c-0.2-0.3-0.5,0-0.6,0.2c0,0,0.4,0.1,0.5,0
	C25.7,81.4,25.8,81.3,25.9,81.3z M26.4,70.4c0,0-0.2-0.1-0.2-0.2c-0.4-0.2-0.4,0.3-0.3,0.4C26,70.7,26.9,70.9,26.4,70.4z M27.1,82.1
	c-0.1,0-0.4-0.1-0.5,0.2c-0.6,0-0.1,0.3-0.1,0.6c0,0.2,0.5,0.6,0.4,0.1C27,82.6,27.1,82.2,27.1,82.1z M27.7,91.6
	c0.1-0.2-0.4-0.1-0.5,0c-0.2,0.2,0.1,0.7,0.3,0.2C27.6,91.8,27.7,91.7,27.7,91.6z M28,82.3c-0.1-0.3-0.4-0.4-0.7-0.3l0.2,0.5
	C27.7,82.4,28.1,82.6,28,82.3z M28.3,81.4c-0.1-0.1-0.7,0-0.3,0.4C28.1,81.8,28.7,81.7,28.3,81.4z M30,84.3
	c-0.3-0.4-1.1-0.1-1.3,0.1C29.1,84.7,29.6,84.6,30,84.3z M30.3,98.2c-0.2,0-1-0.3-0.7,0.3C29.8,98.4,30.6,98.7,30.3,98.2z
	 M31.4,83.1h-0.8c0.1-0.2,0.3-0.4,0.2-0.6c-0.2-0.3-0.3-0.8-0.7-0.6c-0.2-0.4,0.1-0.6,0.4-0.4c0-0.3,0.1-0.6-0.1-0.8
	c-0.6-0.4-0.3,0.4-0.3,0.6c-0.5,0.2-0.7-0.3-0.9-0.5c-0.3,0.4,0.1,0.9,0.4,1.1c-0.1,0.4-0.4,0.1-0.5,0.1c-0.3-0.2-0.7,0-0.7,0.3h0.9
	c0,0.3-0.5,0.4-0.3,0.7c0.4-0.3,0.8-0.5,1.1-0.5c0.4,0.1,0.4,0.5,0.3,0.8c-0.1,0.3,0.1,0.5,0.4,0.4c0.1,0,0.2-0.2,0.3-0.3
	C31.3,83.5,31.6,83.4,31.4,83.1z M31.9,81.7c0.3-0.4-0.4-0.6-0.7-0.8c0.2-0.4-0.2-0.5-0.4-0.4c-0.1-0.3,0-0.9-0.4-0.8
	c-0.3,0-0.7,0.2-0.6,0.4c0.2,0.3,0.6,0.3,0.9,0.4c0.2,0.3,0.4,0.5,0.4,0.8C31.3,81.6,31.6,82,31.9,81.7z M32.2,92.1
	c-0.1-0.3-0.6-0.4-0.6-0.1C31.6,92.4,32.3,92.4,32.2,92.1z M32.3,96.3c-0.2,0.2,0.2,0.5,0.3,0.3C32.6,96.5,32.7,95.8,32.3,96.3z
	 M33,83.2c-0.3,0-0.7,0.1-0.9,0.4c-0.1,0.2,0.1,0.6,0.3,0.3c0.1-0.4,0.6-0.3,0.8-0.1C33.4,83.6,33.1,83.2,33,83.2z M33.3,80.7
	c-0.3-0.2-0.4-0.5-0.6-0.7c-0.1,0.2-0.2,0.4-0.1,0.7C32.7,80.9,33.2,80.8,33.3,80.7z M33.6,77.5c-0.1-0.2-0.2-0.4-0.5-0.5
	c-0.2,0.2,0.1,0.6,0.3,0.8C33.5,78,33.7,77.7,33.6,77.5z M34.4,89.1C34.2,89,34,88.9,33.7,89c0.2,0.2,0.5,0.4,0.5,0.7
	c-0.2,0.1-1-0.2-0.6,0.3c0.2,0.2,0.4-0.1,0.6-0.3C34.6,89.7,34.6,89.3,34.4,89.1z M34.6,85.9c0.3,0,0.9,0.3,0.9-0.3
	c0-0.3,0-0.8,0-1.2h-0.7C34.7,84.9,34.6,85.4,34.6,85.9z M35.1,87c0,0-0.5-0.3-0.3,0.3C34.8,87.6,35.4,87.6,35.1,87z M35.8,92.5
	l-0.8-0.2c0,0.3,0.1,0.9,0.3,0.8C35.6,93,35.8,92.8,35.8,92.5z M36.3,98.3C36.4,98.3,36.3,98.3,36.3,98.3c-0.3,0-0.4,0.3-0.3,0.5
	C36.5,99.4,36.4,98.4,36.3,98.3z M36.5,88.7c-0.4-0.5-1.1-0.2-1.4,0.3c0.2,0.1,0.6,0,1,0C36.3,88.9,36.5,88.8,36.5,88.7z M36.4,87.3
	c-0.2-0.3-0.5,0.2-0.2,0.3c0.1,0.1,0.2,0.2,0.3,0.3C37.4,87.9,36.5,87.4,36.4,87.3z M36.2,86.6c0.3,0.1,0.6-0.2,0.5-0.4
	c-0.4,0-0.9-0.1-1.1,0C35.7,86.6,36.1,86.5,36.2,86.6z M38.1,100.1c0.2-0.2-0.1-0.6-0.3-0.5C37.7,99.8,37.7,100.7,38.1,100.1z
	 M38.1,100.5c-0.4,0-0.4,0.9,0,0.4C38.2,100.8,38.2,100.5,38.1,100.5z M38.3,87.6c0.1-0.1,0.4-0.4,0.4-0.4c0.2-0.3-0.2-0.6-0.5-0.6
	C38.2,86.9,38.2,87.4,38.3,87.6z M37.8,89c0.1,0.2,0.3,0.8,0.6,0.6C38.3,89.3,38.2,88.8,37.8,89z M37.3,90.4c0.3,0,1.1,0.1,1.4,0
	c0.2,0,0.5-0.2,0.7-0.4c-0.7,0.2-1.2,0-1.6-0.1C37.3,89.8,37.2,90.1,37.3,90.4z M37.1,83.2c0.3,0.2,0.1-0.4,0.1-0.6
	C36.9,82.6,36.9,83.1,37.1,83.2z M36.9,84.6c-0.1,0.3-0.5,0-0.1-0.2c0.2-0.1-0.2-0.7-0.5-0.8c-0.2,0.3-0.9,0.1-0.7,0.7
	c0.6-0.3,0.5,0.4,0.7,0.6c0.2,0.2,0.5,0.2,0.6,0.5c-0.2,0-0.4,0.1-0.5,0.2c0.2,0,0.3,0.1,0.5-0.1c0,0.3,0,0.7,0.3,0.8
	c0-0.3-0.1-0.6-0.3-0.8l0-0.2C37.7,85.3,36.8,84.9,36.9,84.6z M37.7,69.9c-0.1-0.2-0.4-0.1-0.6-0.1c-0.2,0-0.1,0.3,0,0.3
	C37.3,70.1,37.8,70.3,37.7,69.9z M37.8,57.5c0.2,0.2,0.6-0.1,0.3-0.3C37.9,56.9,37.6,57.2,37.8,57.5z M38.4,80c-0.1-0.1-0.3,0-0.4,0
	c-0.1,0.3-0.1,0.9,0.4,0.5C38.5,80.5,38.2,80.2,38.4,80z M39.8,70.4c-0.1-0.1-0.2-0.3-0.2-0.3c-0.4-0.3-0.5,0.2-0.4,0.3
	C39.4,70.6,40,70.6,39.8,70.4z M40.1,63.6c0.1,0,0.5,0,0.6,0c0.3-0.1,0.5-0.4,0.4-0.7c-0.2-0.4-0.4,0.2-0.6,0.1
	C40.1,63.1,39.9,63.3,40.1,63.6z M40.5,68.6c-0.2,0.2-0.2,0.9,0.3,1.1C41.1,69.4,41,68.8,40.5,68.6z M41.4,66.8
	c0.1-0.2,0-0.5-0.2-0.6c-0.3-0.2-0.5,0.4-0.4,0.6C40.9,67,41.3,67,41.4,66.8z M41.6,60.7c-0.2-0.2-0.6,0.1-0.3,0.3
	C41.5,61.3,41.9,61,41.6,60.7z M42.3,57.8c0.1-0.4-0.3-0.4-0.4-0.1C41.6,58.2,42.2,58,42.3,57.8z M42.7,67.3
	c-0.4-0.2-0.6,0.1-0.6,0.5c-0.3,0-0.3,0.7,0.1,0.4C42.5,68,42.6,67.6,42.7,67.3z M43.6,57.5c0.2-0.2,0.8-0.2,1.1-0.5
	c0.3-0.2,0-0.5-0.3-0.2c-0.1-0.3-0.6-0.6-0.3-0.1c-0.3,0.2-0.6,0.3-1,0.3c0.2-0.3-0.1-0.7-0.2-0.2c-0.1,0.3-0.1,0.7,0.3,0.6
	c0.4,0,0.4,0.3,0.3,0.6C43.8,58.1,43.9,57.7,43.6,57.5z M162,0v13.6v134.9V162h-13.6h-5.6c0-0.1,0-0.3-0.1-0.4l-0.2-0.4l-0.4,0.4
	c-0.1,0.2-0.2,0.2-0.2,0.3c0,0,0,0.1,0,0.1h-22.6c0,0,0,0,0,0c-0.3-0.3-0.9-0.3-1,0h-3.5c0-0.1,0.1-0.2,0.1-0.2c0-0.1,0-0.2,0.1-0.3
	l0.6-0.3l0,0.2c0,0.2-0.1,0.4,0.1,0.6l0.1,0.1h0.1c0.1,0,0.2,0,0.3-0.1c0.1,0,0.2-0.2,0.3-0.4c0.1-0.2,0-0.3,0-0.3
	c-0.1-0.2-0.3-0.2-0.6-0.1c0,0-0.1,0-0.1,0l0,0l0.1-0.1l-1.1,0c-0.1,0-0.1,0-0.2,0c-0.2,0-0.4,0-0.4,0l-0.1-0.1l-0.2,0.1l0.2-0.9
	l-0.7,0.8c-0.3,0.3-0.4,0.7-0.5,1l-0.1,0.1c0,0,0,0.1,0,0.1h-1.7l0-0.2l-0.4,0l-0.4,0c-0.2,0-0.5,0-0.8,0.1l-0.2,0.1h-1
	c-0.1-0.1-0.3-0.2-0.5-0.2c0,0,0,0,0,0l-0.2,0l-0.1,0.2c0,0,0,0,0,0h-0.4c0,0,0,0,0,0c-0.1-0.1-0.3-0.1-0.5,0H49.8
	c0.3,0,0.4-0.4,0.4-0.5l0.2-0.3l-0.3-0.1c-0.1,0-0.2-0.1-0.3-0.1c-0.3,0-0.4,0.2-0.5,0.2c-0.1,0.2-0.1,0.4,0.1,0.6
	c0.1,0.1,0.2,0.2,0.4,0.2H32.8c0-0.1,0-0.2,0-0.4c-0.1-0.2-0.2-0.3-0.4-0.3c-0.1,0-0.3,0.1-0.5,0.3c0,0.1-0.1,0.2-0.2,0.3l0,0.1
	h-7.8c0,0,0,0,0-0.1c0-0.3,0-0.7-0.2-0.9c-0.1-0.1-0.2-0.3-0.3-0.4c-0.4-0.5-0.9-1.1-1.1-2.1l0-0.1c0.4,0.2,0.8,0,0.8-0.3
	c0-0.3-0.2-0.4-0.4-0.5c0,0,0.1-0.1,0.1-0.1c0.1-0.2,0.1-0.4,0.1-0.6c-0.1-0.3-0.5-0.3-0.7-0.1c0,0-0.2,0.2-0.2,0.3
	c-0.1,0.2-0.1,0.4,0,0.5c0,0,0,0.1,0.1,0.1l-0.2,0.7c-0.4,1.2-0.1,2.6,0.5,3.5h-7.5c0-0.1,0-0.2,0-0.3c-0.1-0.3-0.6-0.5-0.9-0.3
	c-0.2,0.1-0.3,0.3-0.4,0.5c0,0,0,0,0,0h-0.1c-0.1-0.1-0.2-0.1-0.3-0.1l-0.1,0c-0.1,0-0.1,0.1-0.1,0.1h-2.4c-0.2-0.2-0.4-0.3-0.6-0.3
	h0c-0.2,0-0.3,0.2-0.4,0.3H0v-0.5l0,0c0.1,0.1,0.2,0.1,0.3,0.1c0.2,0,0.4-0.1,0.4-0.3c0.1-0.2,0-0.5-0.1-0.6
	c-0.1-0.1-0.4-0.1-0.6-0.1v-11c0.1,0,0.2-0.1,0.2-0.2c0.1-0.2,0-0.4-0.1-0.5c0,0-0.1-0.1-0.1-0.1c0,0,0,0,0-0.1v-0.2v-47.7
	c0.1-0.1,0.2-0.2,0-0.4c0,0,0,0,0,0V84.4c0.1-0.1,0.1-0.2,0-0.3V32.5c0.1,0.1,0.6,0.3,0.4-0.1c-0.1-0.2-0.1-0.5-0.4-0.6c0,0,0,0,0,0
	V27c0.2,0,0.4,0,0.3-0.3c-0.1,0-0.2,0-0.3,0V16.3c0.1,0,0.3-0.1,0.3-0.2C0.4,15.8,0.2,15.8,0,16v-1.4c0,0,0,0,0,0
	c0.1-0.1,0.1-0.2,0.1-0.3c0,0-0.1,0-0.1,0v-0.8V2.9c0.1,0,0.2,0,0.3,0L0.1,2.6C0.2,2.4,0.1,2.3,0,2.3V0h1.3c0,0.1,0,0.2,0.1,0.2
	c0.3,0.2,0.4,0,0.3-0.2h11.7c0,0.2-0.3,0.9,0.3,0.6V0h134.6H162z M158,138.1c-0.3,0.1-0.4,0.3-0.4,0.5c0,0.2,0.3,0.4,0.6,0.4
	c0.2,0.2,0.4,0.3,0.7,0.3c0.1,0,0.2,0,0.3,0l0.2-0.1v-1.3L159,138c-0.1,0-0.2,0.1-0.2,0.1c-0.2,0.1-0.3,0.1-0.4,0l-0.1-0.1
	L158,138.1z M157.2,131.6c-0.1,0-0.2,0-0.3,0.1c-0.1,0.1-0.4,0.2-0.4,0.5l-0.1,0.4h1.6l-0.2-0.4
	C157.8,131.9,157.5,131.6,157.2,131.6z M157.6,137.7l0-0.2c0-0.2-0.1-0.3-0.2-0.4c-0.3-0.3-0.8-0.3-0.9,0c-0.1,0.1-0.1,0.3,0,0.4
	c0.1,0.2,0.3,0.3,0.6,0.3c0.1,0,0.2,0,0.3,0L157.6,137.7z M157.5,149.7c0-0.2-0.1-0.6-0.4-0.6c-0.2,0-0.4,0.2-0.4,0.3
	c0,0.1-0.2,0.3-0.2,0.4c-0.1,0.1-0.2,0.3-0.2,0.3l-0.2,0.4l0.4,0c0,0,0.1,0,0.1,0c0.3,0,0.6-0.1,0.8-0.4
	C157.4,150.2,157.5,149.9,157.5,149.7z M155.5,131.3l0.1,0.2h0.2c0.1,0,0.2,0,0.2,0c0.1,0,0.3,0,0.4,0c0.2,0,0.4-0.1,0.5-0.2
	c0.1-0.1,0.1-0.3,0.1-0.5l-0.1-0.2h-0.2c-0.1,0-0.2,0-0.3,0c-0.4-0.1-0.7,0-0.8,0.2C155.4,130.9,155.4,131.1,155.5,131.3z
	 M153.9,132.1l-0.2,0.3l0,0l0,0.2c0,0.2,0,0.4,0.4,0.6l0.1,0.1c0.2,0.2,0.4,0.3,0.6,0.3c0.1,0,0.3,0,0.4-0.4v0
	c0.1,0.3,0.3,0.4,0.4,0.5c0.1,0.1,0.2,0.1,0.2,0.2l0.1,0.2l0.2,0c0.1,0,0.3,0.1,0.4,0.1c0.2,0,0.4-0.1,0.5-0.2
	c0.1-0.1,0.1-0.3,0.1-0.6c-0.2-0.6-0.7-0.7-1-0.7c-0.1,0-0.2,0-0.2,0c-0.3-0.1-0.5-0.1-0.7,0.1c0,0,0,0.1-0.1,0.1c0,0,0-0.1-0.1-0.1
	c-0.1-0.1-0.3-0.2-0.5-0.3c0.2-0.1,0.3-0.2,0.5-0.3c0.1,0,0.1-0.1,0.2-0.1l0.2-0.1l-0.1-0.2c-0.1-0.2-0.3-0.4-0.5-0.4
	c-0.2,0-0.4,0.1-0.5,0.2c-0.1,0.1-0.2,0.2-0.3,0.5C153.9,132,153.9,132.1,153.9,132.1z M155.8,140.5c-0.1-0.1-0.3-0.2-0.6-0.2
	l-0.3,0v1.3l0.2,0l0.1,0c0.1,0,0.3-0.1,0.3-0.2c0.1-0.1,0.1-0.2,0.1-0.3c0,0,0-0.1,0-0.1C155.9,140.9,155.9,140.7,155.8,140.5z
	 M153.4,134.5c0,0-0.1,0.1-0.1,0.2c0,0.1,0,0.3,0.1,0.4c0.1,0.1,0.2,0.2,0.4,0.2c0.3,0,0.6-0.2,0.7-0.6c0,0,0.1-0.5-0.2-0.7
	c-0.2-0.2-0.4-0.2-0.7,0C153.4,133.9,153.4,134.2,153.4,134.5C153.4,134.4,153.4,134.4,153.4,134.5z M152.9,132c0,0.1,0,0.1,0,0.2
	l0,0.2l0.2,0.1l0.1,0c0.2,0,0.4-0.1,0.6-0.3c0.1-0.1,0.1-0.3,0-0.4c0-0.1-0.2-0.2-0.3-0.4l-0.3-0.3l-0.2,0.2
	C152.8,131.5,152.8,131.8,152.9,132z M152.4,135.8l-0.2,0l-0.6,0.6l0.1,0.2c0.1,0.1,0.2,0.2,0.3,0.3c0.2,0.2,0.2,0.2,0.2,0.4
	l-0.2,0.4h0.4c0,0,0.1,0,0.2,0c0.1,0,0.2,0,0.2,0c0.4,0,0.5-0.2,0.6-0.4l0-0.2l-0.2-0.1c-0.2-0.1-0.2-0.2-0.3-0.5
	C152.9,136.2,152.8,135.9,152.4,135.8z M149.4,133.7c0,0.2,0.2,0.4,0.3,0.5c0.2,0.2,0.2,0.2,0.2,0.3l0,0.1l0.5,0.2l0-0.1
	c0.1-0.1,0.2-0.2,0.4-0.3c0,0,0,0,0,0c0,0.2,0.2,0.4,0.5,0.4c0,0,0,0,0,0l0.4,0l-0.1-0.3c0,0,0.2-0.2,0.3-0.3
	c0.2-0.2,0.4-0.4,0.5-0.7l0-0.3l-0.3,0c-0.1,0-0.2,0-0.3,0l0.2-0.1l-0.1-0.3c-0.2-0.4-0.7-0.7-1.1-0.6l-0.4,0.1l0.4,0.4
	c0.1,0.1,0.3,0.3,0.5,0.4c-0.2,0.1-0.2,0.2-0.3,0.3c-0.3-0.2-0.6-0.2-0.8,0c-0.1-0.1-0.2-0.2-0.4-0.2
	C149.7,133.3,149.5,133.3,149.4,133.7z M34.1,11c-0.3,0-1.2-0.3-0.9,0.4c0.4,0,1.4,0.2,1.2-0.2C34.4,11.1,34.2,11,34.1,11z
	 M34.2,10.6c-0.1-0.2-0.3-0.4-0.6-0.3c-0.6-0.8-0.2,0.5-1,0.2c0,0.5,0.5,0.2,0.7,0.1c0.2,0.5,0.3-0.1,0.4-0.1
	C33.9,10.6,34.1,10.6,34.2,10.6z M33.6,7.8c0.3-0.2,0.1-0.5,0.2-0.7c-0.2,0-0.4,0.2-0.5,0.4C33.1,7.6,33.3,7.9,33.6,7.8z M32.4,8.8
	c0.5,0,1,0.4,1.5,0c0.2,0.1,0.4,0.3,0.2-0.2c-0.5,0.1-0.9-0.5-1.4-0.6C32.6,8.4,32.4,8.6,32.4,8.8z M31.8,2.6
	c0.2,0.2,0.5,0.1,0.5-0.2c-0.1,0-0.5-0.6-0.6-0.8C31.7,1.8,31.6,2.4,31.8,2.6z M31.1,3.2c-0.3,0-0.2,0.5-0.2,0.7h-0.6
	c-0.1,0.3-0.1,0.9,0.3,0.7c0.6-0.3,0.4-0.8,0.9-1.1C31.8,3.4,31.5,3.2,31.1,3.2z M31.3,7.2c0.2-0.3-0.1-0.6-0.3-0.5v0.9
	C31.4,7.9,31.2,7.3,31.3,7.2z M27.8,7.7c0.1,0.4,0.4,0.1,0.4-0.1l0.2,0.2c0.1-0.3-0.3-0.4-0.4-0.7C27.9,7.2,27.7,7.5,27.8,7.7z
	 M28.2,5.2V4.1h-0.5L28.2,5.2z M27.5,8.7c0,0.1-0.1,0.5,0,0.5c0.5-0.2,0.8-0.4,1-0.7C28.2,8.2,27.9,9,27.5,8.7z M28.1,10.1
	c0,0-0.3,0.9,0.3,0.5c0,0,0.1-0.2,0.1-0.2C28.7,10,28.2,9.9,28.1,10.1z M28.4,13.3c0.1,0,0.1-0.5,0.3-0.7c0.3-0.2,0.4,0.1,0.6,0.3
	c0.1-0.2,0.2-0.6,0.5-0.9c0,0.4,0.3,0.6,0.6,0.5c0-0.3,0-1.1-0.5-1c0,0.2,0.1,0.4-0.1,0.6c-0.7,0.1-1.4,0.3-1.9,0.8
	C27.7,13.1,28.1,13.3,28.4,13.3z M31,9.8c0-0.2,0.1-0.6-0.1-0.5c-0.3,0.1-0.5,0.3-0.6,0.5L31,9.8z M30.1,1.8
	c0.1,0.7,0.1,1.4,0.4,2.1c0.3-0.5,0.1-1.3,0.5-1.6c-0.1,0-0.6-0.2-0.7-0.6H30.1z M30.2,7.1c-0.1-0.5,0-0.9,0.4-1
	C30.8,5.9,31,5.6,31,5.4h-0.9c0,0.3,0.5,0.3,0.5,0.7l-0.6,0C29.9,6.4,29.7,6.9,30.2,7.1z M29.4,7.7c0.3,0.1,0.7,0.3,0.7-0.1
	C29.9,7.6,29,7.5,29.4,7.7z M28.7,2c-0.2,0-0.8,0.2-0.4,0.5c0.4-0.2,0.8,0.1,1-0.1c0.2-0.1,0.2-0.4,0.2-0.6C29.2,1.7,29,2,28.7,2z
	 M27.3,1.3c0.4,0,0.6,0,0.9,0.2c0.2,0.1,0.1-0.3,0.1-0.5C28,1,27.2,0.7,27.3,1.3z M27.6,2.5C27.2,3,28,3,27.8,2.6
	C27.7,2.3,27.6,2,27.3,2C27,2,27.4,2.4,27.6,2.5z M26.6,7.9C26.7,8,26.9,8,26.9,7.8C27,7.9,27,8.2,27,8.4h0.7
	c0.3-0.5-0.4-0.2-0.5-0.5c0.5-0.1,0.2-0.4,0.1-0.4C26.8,7.5,26.4,7.7,26.6,7.9z M26.6,12.9c0.3,0.1,0.7,0,0.5-0.5
	c0.2,0,0.3-0.8-0.1-0.3c-0.4-0.2-0.2,0.2-0.3,0.4C26.4,12.6,26.3,12.9,26.6,12.9z M26.2,5.8c0,0-0.1-0.3-0.1-0.4
	C26,5.5,25.8,5.7,25.9,6C25.9,6.3,26.5,6.2,26.2,5.8z M25.5,3.5c0,0,1.2,0.3,0.6-0.2c-0.2-0.2-0.3-0.3-0.4-0.3
	C25.4,2.9,25.2,3.4,25.5,3.5z M24.8,9.1c-0.1,0.2,0,0.4,0.1,0.6c0.3,0.1,0.6,0,0.6-0.3c0-0.2,0.1-0.4,0.3-0.2c0.4-0.2,0.4-0.6,0.4-1
	C25.5,8.3,25.1,8.6,24.8,9.1z M23.5,6.6c0.3-0.4,0.9-0.1,1.2-0.5c-0.2-0.4-0.5,0.1-0.6-0.1c-0.4-0.6-0.7,0.1-0.8,0.3
	C23.2,6.5,23.2,6.9,23.5,6.6z M24.7,9.9c-0.2-0.1-0.3-0.2-0.5-0.2c0,0.3-0.3,1,0.3,0.9C24.5,10.3,24.5,10,24.7,9.9z M23.2,12.5
	c0.3-0.1,0.5,0.2,0.8,0.3c0.2,0.1,0.5,0,0.3-0.3c0,0-0.1-0.1-0.2-0.2c-0.3,0.2-0.4-0.2,0.1-0.2c0.2,0,0.5-0.3,0-0.5
	c-0.2-0.1-0.6,0.4-1,0.2V12.5z M22.7,13.3c0,0.1,0.6,0.2,0.7-0.1c0-0.1,0-0.3,0-0.3C23.2,12.6,22.8,12.9,22.7,13.3z M22.6,7.1
	c0.1-0.3-0.3-0.8-0.6-0.4C21.5,7.2,22.6,7.2,22.6,7.1z M21.4,9.9c0.2,0.2,0.3,0.5,0.6,0.6c0.5,0.3,0.3-0.4,0.4-0.5
	c0-0.2,0.2-0.4,0.2-0.5c-0.1-0.2-0.4-0.3-0.7-0.3C21.6,9.3,21.5,9.6,21.4,9.9z M20.3,9.2c0,0.1-0.1,0.8,0.3,0.4
	c0.1-0.1,0.2-0.3,0.1-0.5C20.6,8.9,19.8,8.8,20.3,9.2z M20,1.5c0.2,0.3,0.4,0.9,0.7,0.6C20.6,1.8,20.4,1.2,20,1.5z M19.7,10.8
	c-0.1-0.3-0.4-0.3-0.6-0.5C18.8,10.9,19.4,10.9,19.7,10.8c-0.1,0.2-0.2,0.7,0.1,0.6C20.1,11.3,20.1,10.9,19.7,10.8z M19.5,6
	c-0.1-0.3-0.5,0-0.8,0c0.1,0.2,0.2,0.6,0.4,0.5C19.4,6.3,19.6,6.2,19.5,6z M19.5,9c-0.1,0.2,0.1,0.3,0.2,0.3
	C19.7,9.2,19.8,8.5,19.5,9z M18.8,9.6c0.2,0.1,0.6,0.1,0.4-0.2c0,0-0.2-0.1-0.2-0.2C18.7,9.1,18.4,9.3,18.8,9.6z M18.8,1.1
	c0.4,0.4,0.3,1,0.1,1.2c0.2,0.4,0.4,0.4,0.5,0.1c0.1-0.1,0.3-0.5,0.4-0.7c0.1-0.2-0.3-0.1-0.6-0.1c0.2-0.2,0.2-0.6-0.1-0.8
	C18.8,0.6,18.6,1,18.8,1.1z M18.9,4.7c0.1-0.2-0.1-0.6-0.3-0.5C18.4,4.4,18.7,5.1,18.9,4.7z M17.4,6.4c0.2,0.3,0.9,0.5,1,0.2L18.1,6
	C17.9,6.1,17.6,6.2,17.4,6.4z M15.9,6.7c0.2,0,0.7,0.1,0.9,0.2c0.4,0.2,0.3-0.3,0.3-0.5c-0.1,0-0.3,0-0.5,0.1
	C16.3,6.6,15.9,6.2,15.9,6.7z M15.2,11.2c0,0,0.5,0.5,0.5,0.1C15.7,11.2,15.6,10.6,15.2,11.2z M12.7,3.1c0.1-0.1,0.4-0.2,0.6-0.1
	V2.7C13,2.5,12.4,2.5,12.7,3.1z M12.4,11.7c0.3,0,0.7,0.1,1-0.1c-0.1-0.1-0.4-0.4-0.5-0.4C12.5,11.1,12.1,11.2,12.4,11.7z
	 M13.3,71.7c0.3,0.1,0.2-0.3,0.3-0.5c0.1-0.2,0-0.5-0.2-0.5C13.4,71.1,13,71.5,13.3,71.7z M11.1,153.7l1,0.5l0.1-0.3
	c0,0,0.1-0.1,0.1-0.1c0.1-0.1,0.3-0.3,0.3-0.5c0-0.1,0-0.2-0.2-0.3l-0.1-0.1l-0.2,0.1c0,0-0.1,0-0.1,0l-0.2,0
	c-0.2,0-0.4,0.1-0.5,0.4L11.1,153.7c-0.1-0.1-0.2-0.2-0.4-0.2c-0.3,0-0.4,0.3-0.5,0.6c0,0,0,0.1,0,0.1c0,0,0,0-0.1,0.1
	c-0.1,0.1-0.2,0.3-0.1,0.5l0.1,0.2h1.4l-0.1-0.4c0-0.1,0-0.2-0.1-0.3C11.3,154.1,11.3,153.8,11.1,153.7z M8.3,138.6l0,0.3h1.2l0-0.3
	c0-0.2-0.1-0.6-0.7-0.8c0,0-0.1,0-0.1,0l-0.2,0L8.4,138c-0.1,0.2-0.1,0.4-0.1,0.5C8.3,138.6,8.3,138.6,8.3,138.6z M7.2,90.8v-0.3
	c-0.3-0.1-0.7,0.3-0.8-0.1c-0.1-0.2,0.1-0.9-0.5-0.6c0,0.1,0.1,0.5-0.2,0.5c0.1-0.4,0.1-0.9-0.4-0.7c0.3,0.2,0,0.7,0.3,1
	C6,91,6.7,91.1,7.2,90.8z M5.2,96c-0.2,0.3,0.1,0.6,0.3,0.6c0.4-0.1,0.3-0.4,0.3-0.7C5.9,95,5.3,96,5.2,96z M6.2,86.1
	c0,0,0.1-0.1,0.2-0.2c-0.2-0.3-0.6,0-0.6,0.2C5.8,86.4,6.1,86.1,6.2,86.1z M9.4,37.2H8c0.1,0.4,0.5,0.4,0.8,0.3
	c0.1,0.3,0,0.5-0.2,0.7c0.3,0,0.9,0.1,0.8-0.1C9.2,37.8,9.2,37.5,9.4,37.2z M11.7,73.1c-0.2,0.1,0.3,0.4,0.5,0.5
	C12.6,73.4,12.1,73,11.7,73.1z M12.2,148.9C12.2,148.9,12.1,148.9,12.2,148.9c0-0.6-0.7-0.7-0.9-0.4c-0.1,0.1-0.1,0.3,0,0.5
	c0,0,0,0.1,0,0.1c0,0.2,0,0.4,0.2,0.5c0.1,0.1,0.2,0.1,0.4,0.1c0.1,0,0.2,0,0.3-0.1C12.2,149.4,12.2,149.1,12.2,148.9z M11.3,77.1
	c0.2,0,1,0.3,0.7-0.3C11.8,76.9,11,76.6,11.3,77.1z M11.5,91.3c0.1,0.1,0.4,0.1,0.5,0.1v-0.7h-0.3C11.7,90.9,11.7,91.2,11.5,91.3z
	 M11,80.9c-0.1,0,0,0.4,0,0.5c0.1,0.1,0.7,0.1,0.3-0.3C11.3,81.1,11.3,81,11,80.9z M10.7,130.2c-0.1,0.1-0.1,0.3,0,0.5l0.1,0.2
	l0.3,0c0.1,0,0.1,0,0.2,0c0.2,0,0.4,0,0.5-0.1l0.2-0.2l-0.2-0.2c-0.2-0.2-0.3-0.2-0.4-0.3C11.1,129.9,10.8,130,10.7,130.2z
	 M10.8,72.8c0.2-0.7-0.5-0.3-0.7-0.4l0.2,0.7c-0.4,0-0.3,0.4,0,0.2C10.6,73.2,10.8,73,10.8,72.8z M10.3,92.5
	c-0.5,0.1,0.1,0.6-0.5,0.7l0,0.7C10.6,93.6,10.4,92.9,10.3,92.5z M10.7,71.1c-0.3,0.2-0.5,0.7-0.1,0.9
	C10.6,71.8,10.5,71.3,10.7,71.1c0.4,0,0.4-0.7-0.1-0.6C10.3,70.5,10.7,70.8,10.7,71.1z M10.9,34.4c0-0.4-0.4-0.2-0.5-0.2
	c-0.2,0-0.5-0.2-0.6-0.3c-0.2-0.1-0.1,0.3-0.1,0.5C10.1,34.5,10.5,34.6,10.9,34.4z M9.2,98.6c0.2,0,0.5,0.1,0.5-0.1
	C9.6,98.1,9.2,98.5,9.2,98.6z M7,41c0,0.1,0.7,0.4,0.5-0.1c0-0.1-0.2-0.5-0.2-0.6C7.1,40.5,7,40.7,7,41z M7.1,35.1
	c0.2,0.1,0.2-0.4,0.1-0.5C7,34.7,6.7,35,7.1,35.1z M7.9,75.7V75H7.6C7.6,75.2,7.3,76,7.9,75.7z M7.1,91.8c0.3,0.1,0.9,0.1,0.5-0.4
	C7.4,91.1,7.2,91.6,7.1,91.8z M7,96c-0.6-0.1,0.1,0.4,0.2,0.6c0.1,0.3,0.6,0.1,0.3-0.1C7.4,96.4,7.1,96.1,7,96z M5.8,96.7l0.4,0.2
	c0.2-0.2,0.5,0.2,0.7-0.2C6.8,96.6,6.1,96.4,5.8,96.7z M6.7,101.3c-0.3-0.2-0.5,0.3-0.4,0.6c0.2,0.3,0.5,0,0.5-0.2
	C6.8,101.6,6.9,101.4,6.7,101.3z M6.1,131.8h0.4c0.1,0,0.2,0,0.2,0c0.1,0,0.2,0,0.4,0c0.1,0,0.4,0,0.5-0.2c0.1-0.1,0.1-0.2,0.1-0.3
	c0-0.2-0.2-0.3-0.2-0.4L7,130.3L6.9,131c0,0,0,0.1-0.2,0.1c-0.2,0-0.4,0.1-0.5,0.3L6.1,131.8z M7.9,94v-0.7H7.6
	C7.6,93.5,7.3,94.3,7.9,94z M8.2,101.7c0.1,0.2,0.5,0,0.2-0.2c-0.2-0.2-0.4-0.3-0.6-0.6C7.5,101.2,8,101.5,8.2,101.7z M8.7,93.5
	c0-0.4-0.5-0.4-0.5,0C8.4,93.5,8.7,93.5,8.7,93.5z M9.2,92.2c0.1,0,0-0.6,0-0.8c-0.3,0-0.7-0.1-0.8,0.3C8.2,92,8.7,92.1,9.2,92.2z
	 M8.6,80c0.1,0.3,0.6-0.1,0.3-0.3C8.5,79.4,8.6,79.9,8.6,80z M7.9,38.9c-0.1,0.4-0.4,0.4-0.7,0.3c-0.1,0.5,0.1,1.1,0.7,1.2
	C8.1,40.4,8,40,8,39.9c0-0.1,0.1-0.1,0.1-0.2C8.1,39.5,8,39.3,8,39c0.3,0.2,0.8-0.1,0.6-0.4C8.5,38.6,8,38.8,7.9,38.9z M7.3,25.3
	C7.2,25.2,7,25,6.8,25.2c-0.2,0.3,0.1,0.4,0.3,0.3C7.1,25.5,7.3,25.3,7.3,25.3z M6.6,89.6c0,0.1,0.4,0.5,0.5,0.1
	C7.1,89.4,6.7,89.6,6.6,89.6z M6,142.3l0.1,0.1l0.1,0c0,0,0.1,0,0.1,0c0.1,0,0.3,0,0.4,0c0.1,0,0.4,0,0.5-0.3
	c0.1-0.3-0.3-0.4-0.5-0.5c-0.1,0-0.3-0.1-0.4-0.1c-0.3,0-0.4,0.1-0.5,0.2C5.8,141.9,5.8,142.1,6,142.3z M7.2,142.5
	c-0.3,0-0.5,0.2-0.6,0.3c-0.1,0.2-0.1,0.4,0,0.6c0.1,0.2,0.3,0.3,0.5,0.3c0.1,0,0.2,0,0.2-0.1c0.4-0.2,0.3-0.6,0.3-0.8l-0.1-0.2
	l-0.2,0C7.3,142.5,7.3,142.5,7.2,142.5z M6.3,144.2l0.4,0.3c0,0,0.1,0.1,0.1,0.2c0.1,0.2,0.2,0.4,0.6,0.5l0.2,0l0.1-0.2
	c0.2-0.3,0.1-0.6,0-0.7c-0.2-0.4-0.7-0.5-1-0.3L6.3,144.2z M7.8,134.1L7.8,134.1L7.8,134.1c0.1,0,0.2,0.1,0.3,0.1c0.1,0,0.1,0,0.2,0
	c0.3-0.1,0.4-0.3,0.4-0.5c0-0.2-0.3-0.4-0.6-0.3c-0.1-0.1-0.2-0.1-0.4-0.1c-0.2,0-0.4,0.1-0.5,0.3c0,0.1,0,0.3,0.2,0.4l0.1,0.1
	C7.6,134,7.7,134,7.8,134.1z M9.2,140.4c0,0.2,0.1,0.4,0.4,0.5c0,0,0.1,0.1,0.1,0.1c0.1,0.1,0.2,0.2,0.3,0.2c0.1,0,0.2,0,0.3,0
	c0.2,0,0.4-0.1,0.4-0.2c0.1-0.1,0.1-0.3,0-0.5l-0.1-0.2l-0.2,0.1c-0.1,0-0.3-0.1-0.3-0.1c-0.1-0.1-0.2-0.2-0.4-0.2
	C9.4,140,9.2,140.2,9.2,140.4z M12.5,69.8c0.2-0.1,0.3-0.4,0.2-0.6c-0.1-0.2-0.5-0.1-0.6,0.1C11.8,69.6,12.2,70,12.5,69.8z
	 M12.5,68.8c-0.1-0.4-0.5,0-0.5,0.1C12.2,68.9,12.6,69,12.5,68.8z M12.6,99c0.1,0,0.8-0.1,0.1-0.5C12.7,98.5,12.3,99,12.6,99z
	 M12.7,35.3c0-0.3,0.2-1-0.4-0.9c0,0.2,0.1,0.9,0,1.1c-0.2,0.2-0.5,0.4-0.9,0.5c-0.2,0.1,0,0.5,0.2,0.2c0.4-0.4,0.6,0.5,1.1,0.1
	C13.1,35.9,12.7,35.6,12.7,35.3z M12,2.1c0.2,0.3,0.4-0.3,0.5-0.5C12.1,1.4,11.8,1.8,12,2.1z M11.7,9.7c0.4-0.2,0.5,0.3,0.5,0.5
	c0.1-0.1,0.3-0.3,0.3-0.3c0.1-0.3-0.1-0.5-0.2-0.5C12,9.4,11.4,9.2,11.7,9.7z M11.4,31.9c-0.9-0.1-1.3-0.6-2-0.7
	c-0.2,0,0.2,0.6,0.4,1c-0.4,0-0.4,0.3-0.2,0.3c0.4,0.1,0.8-0.4,1.3-0.3c-0.1,0.2-0.5,0.3-0.4,0.4c0.3,0.3,0.6,0,0.6-0.3
	C11.1,32.1,11.2,31.9,11.4,31.9z M9.1,9.3c0,0.1,0.1,0.2,0.1,0.2C9.6,9.1,8.9,8.8,9.1,9.3z M10.1,5.1c-0.1,0-1.3-0.2-0.4,0.2
	C9.8,5.4,10.5,5.5,10.1,5.1z M9.7,27.2c0.2,0,0.7,0.1,0.6-0.1c-0.1-0.3-0.4-0.5-0.6-0.6V27.2z M11.1,6.1c0,0,0.1-0.2,0.2-0.2
	c0.3-0.5-0.4-0.4-0.5-0.1C10.8,6.1,10.9,6.4,11.1,6.1z M10.1,13.5c0,0.1,0.1,0.6-0.1,0.4c-0.2-0.1-0.4-0.1-0.3,0.2h0.7
	c0.1-0.1,0.3-0.4,0.3-0.6C10.8,13.4,10.3,13.5,10.1,13.5z M9.1,1.5C9.1,1.6,9.3,2,9.5,1.8c0.2-0.3,0.7,0.2,0.7-0.4
	C9.8,1.4,9.4,1.2,9.1,1C9,0.8,9,1.3,9.1,1.5z M8.9,33c0,0.1,0,0.5,0,0.7c0,0.3,0.7,0.4,0.7,0.2c0-0.2-0.2-0.4-0.2-0.5
	C9.5,33,9.2,32.9,8.9,33z M8.8,36.3c-0.2,0.2-0.2,1,0.3,0.5C9.2,36.5,8.9,36.2,8.8,36.3z M8.2,16c-0.2,0.2,0.1,0.7,0.3,0.2
	c0,0,0.1-0.1,0.1-0.3C8.8,15.9,8.3,16,8.2,16z M7.9,13.5c-0.3,0.1,0.2,0.6,0.5,0.5c0.5-0.2,0-0.6,0.1-1C8.3,13.1,8.3,13.4,7.9,13.5z
	 M6.8,13.2c0.3,0.2,0.7-0.2,1,0c-0.3-0.2-0.1-0.6-0.3-0.7C7.3,12.8,7,12.8,6.8,13.2z M6,15.9c0.2,0.3,0.5,0.4,0.7,0.3
	c0.2-0.1,0.5-0.3,0.5-0.7C6.8,15.6,6.3,16.2,6,15.9z M5.9,38.7c-0.2,0.2,0.2,0.6,0.5,0.4c0.2-0.1,0.3-0.4,0.2-0.6
	C6.4,38.4,6.1,38.5,5.9,38.7z M5.4,38.1c0.3,0.3,0.6-0.1,0.4-0.3C5.7,37.6,5.3,38,5.4,38.1z M5.1,75c-0.1,0.2,0.2,0.4,0.4,0.5
	c-0.1-0.3-0.3-0.5,0.2-0.6C5.9,74.1,5.2,74.9,5.1,75z M5.1,87.4c0.3,0.1,0.5-0.2,0.6-0.4C5.4,86.9,5.2,87.2,5.1,87.4z M4.4,88.8
	c-0.1-0.1-0.4-0.1-0.5-0.1c0,0.2-0.1,0.5,0.2,0.5C4.7,89.5,4.1,89,4.4,88.8z M2.8,86.7l0.8-0.1c0-0.3-0.3-0.4-0.7-0.5
	C2.8,86,3.1,86.5,2.8,86.7z M3.2,85c0.2-0.2,0.4-0.3,0.3-0.5c-0.3-0.1-0.5,0-0.7,0.3C2.8,84.9,3,85.3,3.2,85z M4.2,73.5
	c-0.1-0.3-0.6-0.4-0.6-0.1C3.6,73.8,4.3,73.8,4.2,73.5z M4.1,74.4c0,0,0.1-0.2,0.2-0.2c0.2-0.6-0.3-0.2-0.4-0.1
	C3.7,74.4,3.8,74.7,4.1,74.4z M4.4,77.3c0.5-0.3-0.2-0.4-0.3-0.5v0.8C4.4,77.8,4.5,77.5,4.4,77.3z M4.9,86.2l-0.8-0.2
	c0,0.3-0.2,1.5,0.2,1C4.6,86.8,4.7,86.5,4.9,86.2z M4.3,80.3c0,0.3,0.3,0,0.4,0c0,0,0.1-0.1,0.2-0.2C4.7,79.8,4.3,80.1,4.3,80.3z
	 M3.8,69.4c-0.3-0.4-0.7-0.4-1.1-0.4c0.1,0.4-0.1,0.9,0.2,1.2c0.5,0.7,1.2,1.2,1.5,2.6C4.8,71.7,4.4,70.2,3.8,69.4z M0.6,97
	c0.1,0.2,0.4,0.6,0.6,0.5c0.3,0,0.2-0.3,0.2-0.5H0.6z M0.8,82.2c0,0,0.1-0.1,0.1-0.2c0.1-0.2-0.1-0.4-0.3-0.3
	C0.3,81.9,0.6,82.3,0.8,82.2z M1.2,146.8l0.1,0.1c0.1,0.1,0.2,0.2,0.3,0.2c0.1,0,0.4-0.1,0.5-0.2c0.2-0.1,0.2-0.4,0.1-0.6
	C2.2,146.1,2,146,1.8,146c-0.1,0-0.3,0.1-0.5,0.3c0,0.1-0.1,0.2-0.2,0.3L1.2,146.8z M2.3,96.7c0.3-0.3-0.2-0.7-0.5-0.7
	c-0.2-0.2-0.4-0.3-0.3-0.6c-0.3,0.2-0.8-0.5-0.6,0c0.1,0.3,0.2,0.6,0.3,0.8c0.2,0,0.5,0,0.7-0.2C1.7,96.3,2,96.5,2.3,96.7z M1.1,92
	c0.6,0.3,0.3-0.5,0.3-0.8c-0.1,0-0.2,0.1-0.3,0.1C0.9,91.4,0.8,91.8,1.1,92z M2.4,72.4c0.1-0.3,0-0.7-0.5-0.5c0,0.3-0.1,0.7,0.1,1
	C2.1,72.8,2.3,72.5,2.4,72.4z M2.9,41.8C3.2,41.6,3,41.3,3.1,41c-0.3,0.2-0.7,0.4-0.8,0.8C2.5,41.8,2.7,41.9,2.9,41.8z M2.4,40.9
	c0.3,0,0.7,0.1,0.9,0c-0.3-0.2-0.3-0.7-0.7-0.8C2.6,40.3,2.6,40.7,2.4,40.9z M4.1,31.5l0,0.7c-0.1,0-0.3-0.3-0.3,0
	c0,0.2,0.2,0.2,0.3,0C4.2,31.9,4.2,31.7,4.1,31.5c0.1-0.3,0.4-0.5,0.2-0.8c-0.2-0.3-0.5,0.2-0.4,0.4C4,31.1,4,31.4,4.1,31.5z
	 M3.4,39.8c-0.1,0.1,0.2,0.3,0.4,0.5c-0.3,0.1-0.1,0.7,0.1,0.3c0-0.1,0.1-0.3,0.2-0.4C4.1,39.8,3.7,39.6,3.4,39.8z M2.9,30.8v0.7
	c0.3-0.1,0.5-0.3,0.8-0.4C3.6,30.8,3.2,30.8,2.9,30.8z M3.3,19.4c0.3-0.2,0.6-0.6,0.4-0.7C3.3,18.6,3.2,19.2,3.3,19.4z M3.2,27.8
	c-0.1-0.2-0.5-0.7-0.6-0.3C2.6,27.8,3.1,27.9,3.2,27.8z M4.1,4.8c0.6,0.4,0.3-0.4,0.3-0.6H3.9C3.9,4.4,3.8,4.7,4.1,4.8z M3.5,7.1
	C3.4,7.4,3.7,8,4,7.5C4.1,7.3,3.5,6.9,3.5,7.1z M3.4,14.2c0.2,0.2,0.6,0.3,0.6-0.1c-0.4,0.1-0.6-0.2-0.8-0.3C3.1,13.9,3,14,3,14
	C2.7,14.3,3.1,14.4,3.4,14.2z M2.2,10.1c0.1,0,1,0.2,0.4-0.3c-0.1,0-0.3-0.1-0.4-0.2C2,9.6,2.1,10,2.2,10.1z M1.9,28.2
	c0,0,0.1,0,0.2,0c0.3-0.1,0.1-0.5-0.1-0.5C1.9,27.7,1.9,28,1.9,28.2z M1.6,83l-0.1-0.1c-0.2,0.2-0.7,0-0.7,0.4
	c0.3-0.2,1.1,0,1.2,0.2C1.9,83.2,2,82.7,1.6,83z M1.5,39.9c0.1-0.4-0.2-0.6-0.5-0.5c0,0.1,0.3,0.5,0.3,0.6C1.4,40.4,1.8,40,1.5,39.9
	z M0.7,33.3c0.2-0.3,0.4-0.5,0.7-0.4c0-0.3,0.2-0.8-0.2-1C1.3,32.4,0.3,32.8,0.7,33.3z M0.7,35.2c0.1,0.1,0.3,0.1,0.5,0.2
	c0.3,0.2,0.3-0.2,0.2-0.4c-0.1-0.1-0.3-0.2-0.5-0.2C0.5,34.6,0.6,35,0.7,35.2z M0.1,46.4c0.1,0,0.4,0.2,0.5,0.2
	c0.4,0.1,0.7-0.1,0.9-0.3C2,46,1.3,45.7,1,45.7C0.5,45.7,0.3,46.1,0.1,46.4z M0.7,73.3c0.1-0.5-0.5-0.8-0.5-0.5
	C0.1,73.1,0.6,73.6,0.7,73.3z M1.4,150.2l0.6-0.9l-0.9,0.5l0,0c-0.2,0-0.3-0.1-0.5,0c-0.1,0-0.1,0.1-0.2,0.2l-0.1,0.2l0.1,0.2
	c0.1,0.2,0.3,0.3,0.4,0.3C1,150.6,1.3,150.4,1.4,150.2z M1.4,155.3c0.2,0,0.3-0.1,0.4-0.3l0.1-0.2l-0.5-0.5l-0.2,0.1
	c-0.2,0.1-0.3,0.3-0.2,0.5C1,155.1,1.2,155.3,1.4,155.3z M2.4,156.1l-0.1-0.2l-0.2,0c0,0-0.1,0-0.2,0c-0.1,0-0.2,0-0.3,0
	c-0.2,0-0.4,0.1-0.4,0.2c-0.1,0.2,0,0.5,0,0.5l0.1,0.2l0.2,0c0,0,0.1,0,0.2,0c0.1,0,0.2,0,0.3,0c0.2,0,0.4-0.1,0.4-0.2
	C2.6,156.4,2.5,156.1,2.4,156.1z M2.6,150.3l-0.1-0.2l-0.2,0c0,0-0.1,0-0.2,0c-0.1,0-0.2,0-0.3,0c-0.2,0-0.4,0.1-0.4,0.2
	c-0.1,0.2,0,0.5,0,0.5l0.1,0.2l0.2,0c0,0,0.1,0,0.2,0c0.1,0,0.2,0,0.3,0c0.2,0,0.4-0.1,0.4-0.2C2.8,150.6,2.6,150.4,2.6,150.3z
	 M2.8,139.1c-0.1-0.1-0.3-0.3-0.6-0.4l-0.1,0l-0.1,0.1c-0.2,0.2,0,0.7,0,0.7c0.1,0.3,0.4,0.5,0.7,0.5l0.3,0l0.1-0.2
	C3,139.6,3,139.3,2.8,139.1z M3.7,156.3c0.4,0,0.6-0.4,0.7-0.6l0.1-0.2l-0.2-0.1c-0.1-0.1-0.3-0.1-0.4-0.1c-0.3,0-0.5,0.1-0.6,0.4
	c-0.1,0.1-0.2,0.4,0.1,0.6C3.5,156.2,3.6,156.3,3.7,156.3z M4.8,159.3c-0.1-0.1-0.3-0.3-0.6-0.3c-0.1,0-0.3,0.1-0.4,0.2
	c-0.2,0.3,0,0.6,0.1,0.7l0.1,0.1c0.1,0.1,0.3,0.2,0.5,0.2c0.2,0,0.4-0.1,0.4-0.2C5,159.7,5,159.5,4.8,159.3z M5,136.3
	C5,136.3,5,136.4,5,136.3c0.2,0,0.5,0,0.6-0.4c0.1-0.2,0-0.4-0.1-0.6c-0.1-0.1-0.2-0.2-0.4-0.2c-0.1,0-0.4,0.1-0.5,0.5
	c-0.1,0.2,0,0.4,0.1,0.5c0,0.1,0.1,0.1,0.1,0.1c0,0-0.1,0-0.1,0c-0.2,0-0.4,0-0.5,0c-0.2,0-0.5,0-0.6,0.2c0,0.1-0.1,0.2,0,0.4
	c0.1,0.2,0.3,0.3,0.4,0.3l0.1,0c0.3,0,0.5-0.2,0.7-0.3c0.1,0,0.2-0.1,0.2-0.1L5,136.3z M5.4,154.1l0.2,0c0,0,0.1,0,0.2,0
	c0.1,0,0.2,0,0.3,0c0.2,0,0.4-0.1,0.4-0.2c0.1-0.2,0-0.5,0-0.5l-0.1-0.2l-0.2,0c0,0-0.1,0-0.2,0c-0.1,0-0.2,0-0.3,0
	c-0.2,0-0.4,0.1-0.4,0.2c-0.1,0.2,0,0.5,0,0.5L5.4,154.1z M7.2,157.1l-0.4-0.3l0-0.1l-0.3,0c0,0-0.1,0-0.2,0c-0.1,0-0.3,0-0.5,0
	c-0.2,0-0.4,0.1-0.5,0.2c-0.1,0.3,0.1,0.5,0.2,0.6l0.2,0.2l0.2-0.1c0.1-0.1,0.2,0,0.3,0c0.2,0.1,0.5,0.1,0.6-0.1L7.2,157.1z
	 M8.6,149.9c-0.1-0.3-0.3-0.4-0.7-0.4c-0.1,0-0.4,0-0.5,0.2l-0.1,0.2l0.1,0.1c0,0,0,0.1,0,0.1l-0.4,0.3l0.5,0.2c0.1,0,0.2,0,0.3,0
	c0.3,0,0.6-0.1,0.7-0.3C8.6,150.2,8.6,150,8.6,149.9z M10,143.6c0.2,0.1,0.4,0,0.5-0.2c0-0.2,0-0.5-0.2-0.6c-0.1,0-0.1-0.1-0.2-0.1
	l0-0.1l0,0.1c-0.2,0-0.5,0-0.7,0.1c-0.2,0.1-0.5,0.4-0.6,0.6l-0.2,0.3l0.4,0.1c0.1,0,0.2,0,0.3,0C9.5,143.9,9.8,143.8,10,143.6z
	 M12,157l1.2,0.8l-1.1-1.3c0-0.1,0-0.3-0.1-0.3c-0.1-0.1-0.3-0.2-0.4-0.2c-0.1-0.1-0.3-0.1-0.4-0.1c-0.4,0-0.6,0.4-0.7,0.6l0,0.1
	c-0.2,0-0.4,0.1-0.5,0.3c-0.1,0.1-0.1,0.3,0.1,0.5c0.1,0.1,0.3,0.2,0.5,0.3l0.1,0l0.3,0l0.1-0.2c0-0.1,0-0.2,0-0.4
	c0.2,0.2,0.3,0.2,0.4,0.2C11.7,157.2,11.9,157.1,12,157z M13.5,161.1l-0.1-0.4c0-0.1,0-0.2,0.1-0.3c0.1-0.2,0.2-0.6-0.2-0.8
	c-0.1,0-0.2-0.1-0.2-0.1c-0.4,0-0.4,0.4-0.4,0.6c0,0,0,0.1,0,0.1c-0.1,0.2,0,0.4,0.1,0.6c0.1,0.1,0.2,0.2,0.4,0.2L13.5,161.1z
	 M14.7,158.6l0.2-0.1l0-0.2c0-0.2-0.2-0.4-0.4-0.6c-0.1,0-0.2-0.1-0.2-0.2l-0.2-0.2l-0.2,0.1c-0.2,0.1-0.3,0.4-0.3,0.6
	c0.1,0.3,0.4,0.5,0.7,0.5C14.6,158.6,14.7,158.6,14.7,158.6z M14.5,154c-0.2,0-0.4,0.1-0.4,0.2c-0.1,0.2,0,0.5,0,0.5l0.1,0.2l0.2,0
	c0,0,0.1,0,0.2,0c0.1,0,0.2,0,0.3,0c0.2,0,0.4-0.1,0.4-0.2c0.1-0.2,0-0.5,0-0.5l-0.1-0.2l-0.2,0c0,0-0.1,0-0.2,0
	C14.7,154,14.6,154,14.5,154z M14.7,150.6c0.1,0.1,0.3,0.2,0.5,0.3l0.1,0l0.2,0l0.1-0.2c0.1-0.2,0-0.6-0.1-0.8
	c-0.1-0.1-0.3-0.1-0.4-0.1c-0.2,0-0.4,0.1-0.5,0.3C14.5,150.1,14.5,150.3,14.7,150.6z M16.1,159.4C16.1,159.4,16.2,159.4,16.1,159.4
	l0.5,0l-0.2-0.9c0.1-0.1,0.2-0.2,0.2-0.3c0-0.3-0.3-0.5-0.7-0.3c-0.1,0-0.1,0.1-0.2,0.1l-0.1,0l0,0c-0.2,0.2-0.3,0.3-0.4,0.5
	c0,0.1-0.1,0.4,0,0.6c0,0.1,0.1,0.1,0.3,0.2l0,0c0,0.1,0,0.2,0,0.4c0,0.1,0,0.3,0,0.4c-0.2,0.1-0.3,0.3-0.3,0.6c0,0,0,0,0,0
	l-0.3,0.5l0.4-0.2c0.1,0.2,0.3,0.3,0.5,0.3l0.1,0c0.2,0,0.3-0.1,0.3-0.2c0.1-0.2,0-0.4-0.1-0.5c0,0,0,0,0-0.1
	c0.2-0.2,0.3-0.5,0.3-0.7C16.3,159.6,16.2,159.5,16.1,159.4z M18,151.4c-0.2-0.4-0.8-0.3-0.9,0.1c-0.1,0.2,0,0.4,0.2,0.6
	c0.1,0.1,0.3,0.2,0.4,0.2c0.1,0,0.2-0.1,0.3-0.2C18.1,151.8,18,151.5,18,151.4z M19.1,156.8l-0.1-0.3c0,0,0-0.1,0-0.2
	c0-0.2,0.1-0.5-0.1-0.7c-0.1-0.2-0.4-0.2-0.6-0.1l-0.2,0.1v1.1L19.1,156.8z M21.5,156.6c0-0.2,0-0.3-0.1-0.5
	c-0.1-0.1-0.2-0.2-0.4-0.3l0-0.2l-0.4,0.1l-0.2,0l0.1,0.4c0,0.1,0,0.1,0.1,0.2c0,0,0,0,0,0c0,0,0,0,0,0l-0.2,0l0,0.2
	c0,0.2-0.1,0.4,0,0.6c0.1,0.1,0.2,0.1,0.3,0.1C21,157.2,21.4,156.7,21.5,156.6z M21.7,151.8c0.3,0,0.7-0.3,0.7-0.6
	c0-0.1,0-0.2-0.1-0.3l-0.1-0.1H22c-0.1,0-0.3,0.1-0.4,0.1l-0.1,0c-0.1,0-0.1,0.1-0.3,0.2l-0.2,0.2l0.1,0.2
	C21.3,151.7,21.5,151.8,21.7,151.8z M22.6,153.7l-0.2-0.1c-0.3-0.1-0.5-0.1-0.7,0.1c-0.1,0.1-0.1,0.2-0.1,0.3
	c-0.1,0.1-0.2,0.2-0.1,0.4c0,0.3,0.3,0.4,0.5,0.4c0,0,0.1,0,0.1,0l0.4,0.4V153.7z M24.6,158.5l-0.2-0.4l-0.3,0.3
	c-0.2,0.3-0.4,0.4-0.4,0.5c-0.1,0.2-0.1,0.5,0,0.7c0.1,0.2,0.3,0.2,0.5,0.2c0.1,0,0.2,0,0.4-0.1l0.2-0.1l0-0.2c0-0.1,0-0.1,0-0.2
	C24.7,159,24.7,158.7,24.6,158.5z M25.2,149.9c0.1,0.1,0.2,0.2,0.4,0.2c0.1,0,0.2,0,0.3-0.1c0.3-0.2,0.3-0.4,0.3-0.6
	c-0.1-0.2-0.3-0.4-0.5-0.4c-0.1,0-0.2,0-0.2,0.1c-0.1,0.1-0.2,0.3-0.3,0.3C25.1,149.6,25.1,149.8,25.2,149.9z M26.5,158.7
	c0-0.3-0.2-0.5-0.3-0.7c-0.3-0.3-0.7-0.2-0.7,0.1c-0.1,0.2,0,0.5,0.2,0.7c0.1,0.2,0.3,0.3,0.5,0.3C26.3,159.1,26.5,158.9,26.5,158.7
	z M29.9,153.4c-0.1-0.1-0.3-0.1-0.4-0.1c-0.2,0-0.4,0.1-0.5,0.3c-0.1,0.1-0.1,0.3,0.1,0.5c0.1,0.1,0.2,0.2,0.5,0.3l0.1,0l0.2,0
	l0.1-0.2C30.1,153.9,30,153.5,29.9,153.4z M30.1,150.5c0.2,0,0.4-0.2,0.5-0.3c0.1-0.1,0.1-0.1,0.2-0.2l0.3-0.1l-0.2-0.3
	c-0.2-0.3-0.6-0.4-0.9-0.3l-0.2,0.1v1.2L30.1,150.5z M31.7,158.3c-0.1-0.1-0.2-0.2-0.4-0.2c-0.2,0-0.4,0.1-0.6,0.4
	c-0.1,0.2-0.2,0.3-0.1,0.4l0,0.1l0.1,0.1c0.1,0.1,0.3,0.1,0.5,0.1c0.3,0,0.5-0.1,0.6-0.3C31.9,158.8,31.9,158.6,31.7,158.3z
	 M32.4,157.6c0.1-0.3-0.1-0.6-0.2-0.8c-0.1-0.1-0.2-0.2-0.3-0.2c-0.1,0-0.3,0.1-0.3,0.3c-0.1,0.3,0.1,0.6,0.2,0.8
	c0.1,0.1,0.2,0.2,0.3,0.2C32.2,157.9,32.3,157.9,32.4,157.6z M33,156.1c0.1,0,0.2,0,0.3,0l0.4,0.1v-0.7l0.4-0.1l-0.4-0.2v-0.7
	l-0.3,0c-0.2,0-0.4,0.2-0.5,0.4c0,0,0,0.1,0,0.1c0,0-0.1,0-0.1,0c-0.2,0-0.5,0-0.6,0.3c-0.1,0.2,0,0.3,0.2,0.5
	C32.5,156,32.7,156,33,156.1z M35.9,156.9l-0.3-0.1c-0.1,0-0.3-0.1-0.4-0.1c-0.2,0-0.4,0.1-0.5,0.2c-0.1-0.2-0.2-0.3-0.4-0.3
	c-0.1,0-0.1,0-0.2,0c-0.4,0-0.5,0.4-0.6,0.5c-0.1,0.1-0.1,0.2,0,0.4c-0.3-0.1-0.7,0-0.8,0.3c0,0.2,0,0.3,0.1,0.4
	c0.1,0.1,0.3,0.2,0.5,0.2c0.4,0,0.6-0.2,0.6-0.6c0,0,0-0.1,0-0.1c0.2,0.1,0.4,0.1,0.5,0.1c0.1,0,0.2-0.1,0.3-0.2c0,0,0,0,0,0
	c0,0.1,0.1,0.2,0.3,0.2l0.1,0c0.3-0.1,0.5-0.4,0.6-0.6L35.9,156.9z M50.1,152.9c0.1-0.1,0.1-0.3,0-0.4c-0.2-0.3-0.7-0.3-0.9-0.1
	c-0.1,0.1-0.1,0.2-0.1,0.4c0.1,0.5,0.3,0.5,0.5,0.5C49.8,153.3,50,153.1,50.1,152.9z M54.6,155.1l0.3-0.2l-0.2-0.2
	c-0.1-0.1-0.5-0.2-0.6-0.2c-0.1,0-0.3,0-0.4,0.2l-0.1,0.2l0.1,0.1c0,0.1,0,0.1,0.1,0.2c0.1,0.3,0.2,0.7,0.6,0.7l0.1,0
	c0.2,0,0.3-0.1,0.3-0.2C54.9,155.4,54.8,155.3,54.6,155.1C54.7,155.2,54.6,155.1,54.6,155.1z M57.2,156.5l0-0.3h-0.3
	c0,0-0.1,0-0.1,0c-0.2,0-0.5,0-0.6,0.1c0,0.1-0.1,0.2-0.1,0.4c0.1,0.4,0.4,0.4,0.4,0.4c0.2,0,0.3-0.1,0.4-0.2
	C57.1,156.8,57.2,156.7,57.2,156.5z M66,153.1c-0.2-0.2-0.3-0.2-0.4-0.2c-0.2,0-0.4,0.1-0.5,0.3c-0.1,0.2,0,0.4,0.1,0.6l0.1,0.1h0.1
	c0.2,0,0.5-0.2,0.6-0.4C66.2,153.4,66.1,153.2,66,153.1z M71.4,157.1c0-0.2,0-0.4-0.2-0.5c-0.1-0.1-0.2-0.1-0.5-0.1
	c-0.4,0-0.5,0.2-0.5,0.3c-0.1,0.3,0.2,0.5,0.3,0.6c0,0,0.1,0.1,0.2,0.1c0.1,0,0.1,0,0.2,0C71.1,157.5,71.3,157.3,71.4,157.1z
	 M72.4,154.7c0.1,0.1,0.2,0.2,0.3,0.2c0.1,0,0.3-0.1,0.4-0.4c0.1-0.2,0-0.3,0-0.4c-0.2-0.2-0.5-0.2-0.7,0
	C72.3,154.3,72.3,154.5,72.4,154.7z M73.8,159.1c0-0.1,0-0.2-0.1-0.3l-0.1-0.1h-0.1c-0.1,0-0.3,0.1-0.4,0.1l-0.1,0
	c-0.1,0-0.1,0.1-0.3,0.2l-0.2,0.2l0.1,0.2c0.1,0.2,0.3,0.3,0.5,0.3C73.5,159.7,73.8,159.4,73.8,159.1z M76.9,157
	c-0.1-0.2-0.4-0.3-0.7-0.1c-0.1,0.1-0.4,0.3-0.6,0.6l-0.2,0.4h1.4l0.1-0.2C77,157.6,77.1,157.2,76.9,157z M79.8,160.7
	c-0.1-0.3-0.5-0.5-0.8-0.6l-0.4-0.1l0,1.1l0.2,0.1c0.1,0,0.1,0.1,0.2,0.1c0.2,0.1,0.4,0.2,0.6,0.2l0.2,0l0.1-0.2
	C79.9,161,79.9,160.8,79.8,160.7z M79.2,152.8l0.2-0.1c0.2-0.1,0.3-0.3,0.2-0.5c0-0.2-0.3-0.4-0.5-0.4c-0.2,0-0.3,0.1-0.4,0.3
	l-0.1,0.2L79.2,152.8z M80,156.8c0-0.1-0.1-0.2-0.3-0.4l-0.2-0.2l-0.2,0.3c-0.2,0.2-0.1,0.4-0.1,0.7c0,0.1,0,0.1,0,0.1l0,0.2
	l0.2,0.1c0.1,0.1,0.2,0.1,0.3,0.1c0.2,0,0.3-0.1,0.4-0.2C80,157.2,80,157,80,156.8z M89.6,156.2l-0.1-0.2l-0.2,0c0,0-0.1,0-0.2,0
	c-0.1,0-0.2,0-0.3,0c-0.2,0-0.4,0.1-0.4,0.2c-0.1,0.2,0,0.5,0,0.5l0.1,0.2l0.2,0c0,0,0.1,0,0.2,0c0.1,0,0.2,0,0.3,0
	c0.2,0,0.4-0.1,0.4-0.2C89.7,156.5,89.6,156.3,89.6,156.2z M95.4,156.5c-0.1-0.1-0.3-0.1-0.4-0.1c-0.2,0-0.4,0.1-0.5,0.3
	c-0.1,0.1-0.1,0.3,0.1,0.5c0.1,0.1,0.2,0.2,0.5,0.3l0.1,0l0.2,0l0.1-0.2C95.6,157.1,95.5,156.6,95.4,156.5z M99.4,157.3
	c-0.1-0.1-0.3-0.3-0.6-0.2c-0.1-0.2-0.4-0.2-0.6-0.2c-0.4,0-0.8,0.2-0.8,0.5c0,0.4,0.3,0.6,0.5,0.7l0.1,0.1c0.1,0.1,0.3,0.2,0.4,0.2
	c0.2,0,0.3-0.1,0.4-0.3c0.1,0.1,0.4,0,0.5-0.2C99.5,157.6,99.5,157.4,99.4,157.3z M106.5,156.6c-0.1-0.3-0.6-0.5-0.8-0.3
	c-0.2,0.2-0.4,0.5-0.3,0.8c0,0.1,0.2,0.3,0.5,0.3c0,0,0.4,0,0.5-0.2C106.6,157.1,106.6,156.9,106.5,156.6z M107.8,154.4h-1.5v1.4
	l0.4-0.2c0.1,0,0.1-0.1,0.2-0.1c0.3-0.1,0.7-0.3,0.8-0.7L107.8,154.4z M109.2,157c0-0.3-0.3-0.5-0.8-0.3c-0.2,0.1-0.5,0.3-0.6,0.7
	l0,0.2l0.1,0.1c0,0,0,0,0,0c0,0-0.1,0.1-0.1,0.1c-0.1,0.1-0.1,0.3,0.1,0.5c0.1,0.1,0.3,0.2,0.5,0.3l0.1,0l0.2,0l0.1-0.2
	c0.1-0.2,0-0.6-0.1-0.8c0,0-0.1,0-0.1-0.1c0,0,0.1-0.1,0.1-0.1C109,157.5,109.2,157.3,109.2,157z M108,151.7c0,0.1,0.2,0.2,0.3,0.2
	c0.1,0,0.4-0.1,0.5-0.2c0.2-0.1,0.2-0.4,0.1-0.6c-0.1-0.2-0.2-0.3-0.4-0.3c-0.1,0-0.3,0.1-0.5,0.3c0,0.1-0.1,0.2-0.2,0.3l0,0.2
	L108,151.7z M110.2,153.4c-0.1-0.1-0.3-0.1-0.4-0.1c-0.2,0-0.4,0.1-0.5,0.3c-0.1,0.1-0.1,0.3,0.1,0.5c0.1,0.1,0.3,0.2,0.5,0.3l0.1,0
	l0.2,0l0.1-0.2C110.4,153.9,110.3,153.5,110.2,153.4z M113,160.6l-0.6-0.2c0,0-0.1,0-0.1-0.1c0-0.1,0-0.1,0-0.2l0.2-0.2l-0.2-0.2
	c-0.1-0.1-0.3-0.1-0.4-0.1c-0.3,0-0.5,0.1-0.5,0.3c0,0.1,0,0.2,0,0.3c-0.1,0.2,0,0.4,0,0.6c0.1,0.2,0.3,0.3,0.5,0.3l0.1,0
	c0.1,0,0.2-0.1,0.4-0.2L113,160.6z M115.6,159.2c0.2-0.1,0.3-0.3,0.3-0.6c0-0.1-0.1-0.4-0.5-0.5c-0.2-0.1-0.5,0-0.6,0.2
	c-0.1,0.2-0.1,0.4,0,0.6c0,0,0.1,0.1,0.1,0.2c-0.1,0.1-0.1,0.1-0.2,0.2c-0.1,0.2-0.1,0.4,0,0.6c0.1,0.1,0.3,0.2,0.4,0.2
	c0.1,0,0.3-0.1,0.4-0.2c0.2-0.1,0.2-0.4,0.1-0.6C115.7,159.3,115.7,159.3,115.6,159.2z M116.8,155.3c0.1-0.2-0.1-0.4-0.2-0.6
	c0,0-0.1-0.1-0.1-0.1l-0.2-0.3l-0.2,0.1c0,0,0-0.1,0-0.1l0.2-0.4H115l-0.1-0.1c0,0,0-0.1,0-0.2c0-0.2,0-0.3,0-0.4c0,0,0,0,0,0
	c0,0,0,0,0,0l0.1,0c0.2,0,0.4-0.2,0.4-0.4c0-0.3-0.2-0.6-0.5-0.7c0,0-0.1,0-0.2,0l-0.1,0l-0.1,0.1c-0.2,0.1-0.2,0.3-0.2,0.5
	c0,0,0,0.1,0,0.1c0,0,0,0,0,0c-0.2,0-0.3,0.1-0.4,0.2c-0.1,0.2-0.1,0.4,0,0.6c0.1,0.1,0.2,0.3,0.5,0.4l0.3,0.1c0,0,0,0,0,0
	c0,0.2-0.1,0.6,0.1,0.8c0.1,0.1,0.2,0.2,0.4,0.1c0.1,0.1,0.1,0.2,0.2,0.2l-0.1,0c-0.2,0-0.5,0-0.7,0.1l-0.1,0c0,0,0-0.1-0.1-0.1
	c-0.1-0.2-0.1-0.3-0.1-0.4l0.1-0.2l-0.2-0.1c-0.1-0.1-0.4-0.1-0.5-0.1c0,0,0,0,0,0c-0.1-0.2-0.2-0.3-0.4-0.3c-0.1,0-0.3,0.1-0.5,0.3
	c0,0.1-0.1,0.2-0.2,0.3l0,0l-0.4-0.1l0.1,0.4c0,0.1,0.1,0.3,0.2,0.4c0.2,0.3,0.2,0.4,0.1,0.6l-0.3,0.3c-0.2,0-0.3,0.1-0.3,0.3
	c0,0.1,0,0.3,0.3,0.5c0.1,0,0.1,0.1,0.2,0.2c0,0.1,0.1,0.1,0.1,0.2l0,0.2l0.1-0.1c0,0,0,0,0.1,0c0.1,0.1,0.2,0.1,0.3,0.1
	c0.3,0,0.5-0.3,0.6-0.8c0-0.2,0-0.3-0.1-0.4c0,0,0,0,0-0.1c0.1,0,0.3,0,0.4,0c0.4,0,0.5-0.3,0.6-0.4c0,0,0.1-0.2,0-0.3h0.1
	c0,0.1,0,0.2,0.1,0.3c0.1,0.2,0.5,0.3,0.8,0.2l0.2-0.1l0-1c0,0,0,0,0,0c0.1,0,0.1-0.1,0.2,0.1l0.1,0.2l0.2-0.1
	C116.7,155.5,116.7,155.3,116.8,155.3z M114.1,151.1c-0.1,0-0.2,0-0.4,0c-0.1,0-0.4,0-0.5,0.2c0,0.1-0.1,0.2,0,0.4
	c0.1,0.3,0.3,0.4,0.6,0.4c0.1,0,0.1,0,0.1,0l0.1,0c0.2,0,0.5,0,0.7-0.3c0,0,0-0.1,0-0.1c0,0,0,0,0,0l0.1,0.1h0.1c0.1,0,0.1,0,0.2,0
	c0.4-0.2,0.3-0.6,0.2-0.8c0-0.1-0.1-0.2-0.1-0.3l0-0.3l-0.3,0c-0.1,0-0.2,0-0.2,0.1c-0.1,0-0.1,0-0.2,0l-0.2-0.2l-0.2,0.2
	C114.2,150.6,114,150.8,114.1,151.1C114.1,151.1,114.1,151.1,114.1,151.1z M119,159.3c-0.1-0.2-0.4-0.3-0.7-0.1c0,0,0,0,0,0
	l-0.2,0.1c0-0.1,0-0.2-0.1-0.3c-0.1-0.2-0.4-0.2-0.7-0.2l-0.3,0.1l0.1,0.3c0,0,0.1,0.4,0.4,0.5c0,0,0,0-0.1,0.1
	c-0.1,0.1-0.1,0.3-0.1,0.5c0,0.2,0.4,0.5,0.6,0.5l0.2,0l0.1-0.1c0.1-0.1,0.1-0.3,0-0.4c0,0,0,0,0,0c0,0,0,0,0,0c0.1,0,0.2,0,0.3,0.1
	l0.3,0.3l0.2-0.4C119.1,159.8,119.1,159.5,119,159.3z M119.2,151.2c-0.2-0.2-0.8-0.1-0.9,0.2c0,0.1-0.1,0.3,0.2,0.6
	c0,0,0.1,0.1,0.2,0.1c-0.2,0-0.3,0-0.5,0c-0.1,0-0.1,0-0.2,0l-0.4,0l0.2,0.4c0,0-0.1,0.1-0.1,0.1c-0.1,0.1-0.5,0.3-0.3,0.8
	c0,0.2,0,0.3,0.1,0.5c0.1,0.2,0.2,0.3,0.4,0.3c0.1,0,0.3-0.1,0.4-0.2c0.3-0.3,0.4-0.6,0.4-0.9c0.1-0.2,0.1-0.4,0.2-0.5l0.2-0.2
	l-0.2-0.2c0,0-0.1-0.1-0.1-0.1c0.3,0.1,0.6-0.1,0.7-0.3C119.4,151.7,119.4,151.5,119.2,151.2z M120.6,156.6
	c-0.1-0.2-0.4-0.4-0.6-0.4c-0.2,0-0.3,0.1-0.4,0.3c-0.1,0.2,0.1,0.6,0.2,0.7c0.1,0.1,0.2,0.2,0.4,0.2c0.1,0,0.3-0.1,0.5-0.3
	C120.7,157,120.7,156.8,120.6,156.6z M119.6,152.1c0.1,0.2,0.3,0.2,0.3,0.2c0.2,0,0.3-0.1,0.4-0.4c0-0.1,0-0.2,0-0.3
	c-0.1-0.2-0.3-0.3-0.4-0.4l-0.2-0.1l-0.1,0.2C119.5,151.6,119.5,151.9,119.6,152.1z M121.4,150.8
	C121.4,150.7,121.4,150.7,121.4,150.8c0.1-0.3,0.1-0.6,0-0.8c-0.1-0.2-0.4-0.2-0.6-0.1l-0.2,0.1v1.1h0.6c0,0.1-0.1,0.2,0,0.3
	c0,0.1,0.1,0.2,0.4,0.2c0.1,0,0.2,0,0.3,0c0.3-0.1,0.5-0.3,0.4-0.6c0-0.2-0.2-0.4-0.5-0.4l-0.1,0L121.4,150.8
	C121.4,150.7,121.4,150.7,121.4,150.8z M122.4,157.7c0-0.3-0.1-0.5-0.3-0.6c-0.2-0.1-0.3-0.1-0.4-0.1l0.2-0.3l-0.1-0.1c0,0,0,0,0,0
	c0,0,0,0,0,0c0.1,0,0.3,0,0.4-0.2l0.1-0.1l0-0.1c-0.1-0.3-0.3-0.5-0.7-0.5c-0.2,0-0.5,0.1-0.6,0.3c-0.1,0.2-0.1,0.4,0,0.7
	c0.1,0.2,0.3,0.4,0.5,0.4l0.1,0c-0.1,0-0.1,0.1-0.2,0.1c-0.2,0.2-0.1,0.5-0.1,0.8c0,0.1,0,0.2,0,0.2l0,0.2l0.2,0l0.1,0
	c0.1,0,0.2-0.1,0.4-0.1C122.3,158.2,122.4,158,122.4,157.7z M123.8,155.3c-0.1-0.2-0.2-0.2-0.4-0.3c0-0.1,0-0.3-0.1-0.4
	c0,0-0.1-0.1-0.2-0.1l0.3,0l-0.5-0.5c0,0-0.1-0.1-0.2-0.2c-0.2-0.2-0.4-0.4-0.5-0.5l-0.2,0c-0.4,0-0.4,0.4-0.4,0.6
	c0,0.1,0,0.1,0,0.1c0,0.1-0.1,0.4,0.1,0.6c0.1,0.2,0.5,0.2,0.8,0c0,0,0.1-0.1,0.1-0.1l0.1,0.3c0.1,0.4,0,0.7-0.2,1.1
	c-0.1,0.1-0.1,0.2-0.2,0.4l-0.1,0.2l0.7,0.7l0.1-0.5c0.1-0.3,0.2-0.4,0.4-0.5c0.1-0.1,0.2-0.1,0.3-0.2
	C123.9,155.7,123.9,155.5,123.8,155.3z M122.9,154c0.1,0.2,0.2,0.3,0.4,0.3l0.2,0l0.1-0.1c0.1-0.1,0.1-0.2,0.1-0.3
	c0-0.2-0.2-0.6-0.4-0.6l-0.2,0l-0.1,0.1C122.8,153.5,122.8,153.7,122.9,154z M125.3,158.7c-0.1-0.2-0.3-0.5-0.6-0.5
	c-0.1,0-0.3,0-0.4,0.3l0.2,0.1l-0.3,0c0,0,0,0,0,0.1l0,0.2h0.1c0.1,0.2,0.4,0.3,0.6,0.3c0.1,0,0.3-0.1,0.3-0.2
	C125.3,159,125.3,158.9,125.3,158.7z M126.2,155.7c0-0.2,0.1-0.4,0.2-0.6c0,0,0-0.1,0-0.1c0.1,0.1,0.1,0.1,0.2,0.2
	c0.1,0.1,0.1,0.2,0.3,0.3l0.2,0.2l0.2-0.2c0.1-0.1,0.2-0.1,0.2-0.2c0.2-0.1,0.5-0.3,0.6-0.7l0.1-0.3l-0.4,0l-0.3,0
	c-0.3,0-0.6,0-0.8,0c0-0.2-0.1-0.5-0.2-0.7c-0.1-0.2-0.3-0.2-0.3-0.2c-0.3,0-0.5,0.4-0.5,0.5c0,0.1,0,0.2,0,0.2l-0.3,0l-0.8,0
	l0.5,0.5c0.2,0.2,0.2,0.7,0.2,1.2c0,0.1,0,0.3,0,0.4l0,0.3l0.3,0c0.2,0,0.4-0.1,0.5-0.2c0.1-0.1,0.1-0.3,0-0.4c0,0,0,0,0,0l0.3,0
	L126.2,155.7z M127.5,157c0,0,0-0.1,0-0.1c0.1,0,0.2,0,0.2-0.1c0.1-0.1,0.1-0.2,0.2-0.3c0.1,0,0.1,0,0.2,0c0.5,0,0.6-0.9,0.6-1
	l-0.3,0l0-0.3l-0.1,0c-0.3,0-0.9,0.1-0.8,0.5c0,0.1,0,0.2,0.1,0.3c-0.1,0-0.3,0-0.5,0.1c-0.1,0.1-0.2,0.1-0.3,0.1c0,0-0.1,0-0.1,0
	l-0.3,0.1l0.2,0.3c0,0,0,0.1,0,0.1c0,0.3,0.1,0.5,0.4,0.6c0,0.1,0,0.1-0.1,0.2c-0.1-0.1-0.2-0.2-0.5-0.2c0-0.1,0-0.2-0.1-0.3
	c-0.1-0.2-0.4-0.3-0.7-0.2c-0.2,0.1-0.4,0.3-0.4,0.6c0,0.1,0.1,0.3,0.2,0.3c0,0.1,0.1,0.2,0.1,0.2l0,0.1l0.1,0
	c0.2,0.2,0.5,0.2,0.8,0.1c0.1,0,0.1,0,0.2,0h0l0.2,0l0.1-0.2c0-0.1,0-0.1,0.1-0.2c0.1,0.2,0.3,0.5,0.5,0.6l0.1,0.1l0.2-0.1
	c0.2-0.1,0.2-0.4,0.2-0.6c0,0,0,0,0,0c0.1-0.1,0.2-0.3,0.1-0.4C127.9,157.2,127.7,157,127.5,157z M129.2,153.2
	C129.2,153.2,129.2,153.2,129.2,153.2l0.2-0.3l-0.2-0.2c-0.3-0.3-0.6-0.3-0.7-0.1c-0.2,0.3,0,0.9,0,0.9c0.1,0.2,0.3,0.4,0.6,0.4
	c0.1,0,0.2,0,0.3-0.1c0.2-0.1,0.2-0.2,0.2-0.3c0-0.2-0.2-0.3-0.3-0.4C129.3,153.2,129.2,153.2,129.2,153.2z M133.3,155.6
	C133.4,155.5,133.4,155.5,133.3,155.6c0.2-0.2,0.3-0.4,0.2-0.6l-0.1-0.2h-0.2c-0.1,0-0.2,0-0.3,0.1c-0.3,0.1-0.5,0.3-0.5,0.5
	c-0.1-0.1-0.2-0.2-0.4-0.2c-0.1,0-0.2,0-0.2,0c-0.1-0.1-0.2-0.1-0.3-0.1c-0.2,0-0.3,0.1-0.4,0.3l-0.1-0.2l-0.1,0.1
	c0-0.2,0-0.3,0-0.4c-0.1-0.2-0.2-0.3-0.4-0.3c-0.2,0-0.4,0.2-0.5,0.3c-0.1,0.2-0.1,0.4,0,0.6c0.1,0.2,0.2,0.3,0.4,0.3
	c0,0-0.1,0.1-0.1,0.1l0,0.1c-0.1,0.1-0.2,0.3-0.2,0.5c-0.1-0.3-0.3-0.5-0.8-0.5c0,0,0,0,0,0l-0.2,0l0,0.3c0,0.2-0.1,0.5,0.1,0.7
	c-0.2,0-0.3,0-0.5,0.1c-0.1,0-0.2,0-0.2,0.1l-0.3,0l0,0.3c0.1,0.5,0.3,0.5,0.5,0.5c0.1,0,0.2,0,0.3-0.1h0c0,0,0,0,0,0l0.1,0.2l0.2,0
	c0,0.1-0.1,0.2-0.1,0.2c-0.1,0.2,0,0.3,0,0.4c0.2,0.2,0.5,0.1,0.6,0.2l0.1,0.3l0.3-0.2c0.3-0.2,0.2-0.6,0.1-0.8c0-0.2,0-0.3-0.1-0.5
	c-0.1-0.1-0.2-0.2-0.3-0.2c0-0.1,0-0.2,0-0.2c0.1,0,0.2,0,0.2,0l0.4,0l-0.1-0.3c0-0.1,0-0.2-0.1-0.3c0.1,0.1,0.2,0.2,0.4,0.2l0,0
	c0.2,0,0.4-0.1,0.5-0.2c0.1-0.1,0.1-0.3,0.1-0.5h1l0.1-0.2c0-0.1,0.1-0.2,0.1-0.2C132.7,156,133.2,155.9,133.3,155.6z M129.8,151
	c0.1,0.5,0.2,0.5,0.2,0.6c0,0,0.1,0.1,0.1,0.1c0.1,0.1,0.3,0.3,0.5,0.3l0.2,0l0.1-0.1c0.2-0.2,0.2-0.5,0.1-0.6
	c-0.1-0.4-0.7-0.6-0.8-0.6l-0.5-0.1L129.8,151z M133,153.6L133,153.6l0-0.1c0,0,0,0,0-0.1c-0.1-0.2-0.4-0.2-0.5-0.2
	c-0.3,0-0.5,0.2-0.5,0.3c-0.1,0.2,0,0.4,0.2,0.6c0.1,0.1,0.3,0.2,0.4,0.2C132.9,154.3,133,153.9,133,153.6
	C133,153.6,133,153.6,133,153.6z M134.4,157l-0.2-0.2h-0.1c0,0-0.1,0-0.2,0c-0.1,0-0.2,0-0.2,0l-0.3,0v1.4l0.2,0c0.1,0,0.1,0,0.2,0
	c0.6,0,0.6-0.6,0.6-0.9c0-0.1,0-0.2,0-0.2L134.4,157z M135.4,152.1c0-0.1,0-0.3-0.3-0.4c-0.3-0.1-0.6,0-0.7,0.2c0,0.1-0.1,0.2,0,0.4
	c0.1,0.2,0.2,0.3,0.4,0.3C135,152.5,135.3,152.4,135.4,152.1z M137.3,159c-0.2-0.2-0.5-0.3-0.8-0.1l-0.2,0.1v1.1h0.9l0.1-0.2
	C137.4,159.6,137.5,159.2,137.3,159z M139.6,157.4c-0.1-0.2-0.3-0.3-0.5-0.3c-0.2,0-0.4,0.1-0.6,0.2c-0.4,0.2-0.4,0.5-0.3,0.6
	l0.1,0.2l0.2,0c0.1,0,0.2,0,0.2,0c0.2,0,0.3,0,0.5,0c0.1,0,0.4,0,0.5-0.2C139.7,157.8,139.8,157.6,139.6,157.4z M140.7,153
	c0.1-0.2,0-0.3-0.1-0.4c-0.3-0.3-0.5-0.2-0.7-0.1c0-0.1,0-0.2-0.1-0.3l-0.2-0.2l-0.2,0.2c0,0-0.1,0.1-0.1,0.1
	c-0.1,0.1-0.3,0.3-0.4,0.5c0,0.2,0,0.3,0.1,0.4c0.1,0.1,0.3,0.2,0.6,0.1c0,0,0.1,0,0.1,0l0.2,0c0,0,0,0,0.1,0.1l0.1,0.1h0.1
	C140.4,153.4,140.6,153.2,140.7,153z M139.4,150.4c0.1,0.2,0.3,0.4,0.5,0.4l0.2,0l0.1-0.2c0.1-0.4-0.1-0.6-0.2-0.7l-0.2-0.2
	l-0.2,0.2C139.4,150,139.4,150.2,139.4,150.4z M141.6,155c-0.3-0.3-0.7-0.2-0.9,0.2c-0.1,0.2,0,0.4,0.1,0.6c0.1,0.1,0.2,0.2,0.4,0.2
	c0.2,0,0.4-0.1,0.5-0.3C141.8,155.4,141.7,155.2,141.6,155z M142.1,153.6c0-0.4-0.3-0.4-0.3-0.4c-0.2,0-0.3,0.1-0.4,0.3c0,0,0,0,0,0
	c-0.1,0-0.2,0.1-0.3,0.3c-0.1,0.2,0,0.4,0.1,0.5c0,0,0,0,0,0.1l0.1,0.4l0.3-0.2C142,154.3,142.1,154,142.1,153.6z M142.8,159.7
	c0-0.3-0.2-0.5-0.5-0.5v0.3c0,0,0,0,0,0l0,0.4c0,0,0,0,0,0v0.3c0.1,0,0.3-0.1,0.4-0.2C142.7,159.9,142.8,159.8,142.8,159.7z
	 M146.9,149.8c0,0,0.1,0,0.1,0l0.1,0c0,0,0.1,0.1,0.1,0.1c0,0,0.1,0.1,0.1,0.1l0.2,0.1l0.2-0.1c0.2-0.1,0.2-0.4,0.2-0.6
	c0,0,0-0.1,0-0.1l0-0.6l-0.5,0.4c0,0-0.1,0-0.2,0c-0.1,0-0.1,0-0.2,0c-0.3,0-0.4,0.2-0.5,0.3c-0.1,0.2,0,0.3,0,0.4
	C146.6,149.8,146.8,149.8,146.9,149.8z M148.3,156.9c0,0,0-0.1,0-0.1l0-0.3l-0.4,0c-0.2,0-0.5,0-0.7,0.1l-0.2,0.2l0.2,0.2
	c0,0,0.1,0.1,0.1,0.1c0.1,0.1,0.3,0.3,0.5,0.4l0.1,0c0.1,0,0.2,0,0.3-0.1C148.3,157.3,148.3,157.1,148.3,156.9z M148.4,132.9
	c0.2-0.1,0.5-0.3,0.5-0.6c0-0.1,0-0.3-0.3-0.4c-0.1,0-0.1,0-0.2,0V13.6H34.1c0-0.3,0-0.6-0.5-0.6c-0.1,0-0.3-0.1-0.5,0
	c-0.2,0.1-0.5,0.4-0.4,0.7H13.6v55.1c0,0,0,0,0,0c-0.4,0-0.5,0.7-0.1,0.7c0,0,0.1,0,0.1-0.1v17.2c-0.2-0.3-0.7-0.6-0.7-0.3
	c0,0.5,0.5,0.4,0.7,0.4v45.7c-0.2,0-0.4,0.1-0.5,0.4c-0.1,0.2,0.1,0.5,0.4,0.7l0.1,0h0v11.6c-0.2-0.2-0.7-0.2-0.9-0.1l-0.2,0.1
	l0.1,0.2c0.1,0.3,0.6,0.6,0.9,0.6c0.1,0,0.1,0,0.2-0.1v2.8h10.6c0,0.1,0,0.2,0.1,0.3c0.1,0.1,0.3,0.2,0.5,0.1L25,149l0.2-0.2
	c0,0,0.1,0,0.1,0c0.2,0,0.5-0.1,0.6-0.4h18.8c0,0,0,0.1,0.1,0.1c0.1,0.1,0.2,0.2,0.3,0.2c0.1,0.1,0.2,0.1,0.4,0.1
	c0.2,0,0.4-0.2,0.4-0.4c0,0,0,0,0-0.1h5.1c-0.1,0-0.1,0.1-0.1,0.2c0,0.1-0.1,0.3,0.2,0.6c0.1,0.1,0.2,0.1,0.4,0.1
	c0.2,0,0.5-0.1,0.5-0.3c0-0.1,0.1-0.3-0.2-0.6h18.6c-0.1,0.1-0.2,0.2-0.2,0.4l0,0.1l0.1,0.1c0.1,0.1,0.2,0.1,0.3,0.1
	c0.1,0,0.1,0,0.2,0c0.1,0,0.1,0,0.2,0l0.3,0v-0.3c0-0.1,0-0.2,0-0.2c0-0.1-0.1-0.2-0.1-0.2h29.4c0.1,0.1,0.1,0.2,0.2,0.2l0.4,0.4
	l0-0.6c0,0,0,0,0-0.1h7c0,0,0,0.1,0,0.1c-0.2,0.1-0.4,0.4-0.3,0.6c0.1,0.2,0.2,0.3,0.4,0.3c0.3,0,0.6-0.3,0.7-0.6
	c0.1-0.2,0.1-0.4,0.1-0.5h0.4c0,0,0,0.1,0,0.1c0.1,0.2,0.4,0.4,0.7,0.3c0.1,0.1,0.1,0.1,0.3,0.1l0.2,0l0.1-0.1
	c0.1-0.1,0.1-0.3,0.1-0.4h4.9c0,0-0.1,0.1-0.1,0.1c-0.1,0.3,0.2,0.5,0.3,0.6c0,0,0.1,0.1,0.2,0.1c0.1,0,0.1,0,0.2,0
	c0.3,0,0.5-0.2,0.5-0.4c0-0.2,0-0.3-0.1-0.4h3.1c0,0.1,0.1,0.2,0.2,0.3l0.1,0.1h0.1c0.2,0,0.4-0.2,0.5-0.4h0.7c0,0.1,0,0.1,0.1,0.2
	l0.1,0.1h0.1c0.2,0,0.3-0.2,0.4-0.2c0,0,0,0,0-0.1h5.4l-0.3,0.4h2l0-0.3c0,0,0-0.1,0-0.1h1.3c0,0,0,0.1,0,0.1c0,0,0,0.1-0.1,0.1
	c0,0,0,0.1-0.1,0.1L130,149l0.2,0.1c0.1,0.1,0.2,0.1,0.3,0.1c0.2,0,0.4-0.2,0.6-0.4c0.1-0.1,0.1-0.3,0.1-0.4h2.3
	c0,0.1,0,0.2,0.1,0.2l0.1,0.2l0.2,0c0,0,0.1,0,0.1,0c0,0.1-0.1,0.3,0,0.4c0.1,0.2,0.4,0.2,0.5,0.2l0.2,0c0.1,0,0.2,0.1,0.2,0.2
	c0.1,0.2,0.3,0.3,0.5,0.4l0.4,0.1l0-0.4c0-0.1,0-0.1,0-0.2c0-0.2,0-0.3,0-0.4l0.1-0.3l-0.3-0.1c-0.2-0.1-0.4-0.1-0.7-0.1
	c-0.2,0-0.3,0-0.4-0.1l0.2-0.2l0,0h13.9V132.9z M151.5,156.6c0-0.2,0-0.3-0.1-0.4c-0.1-0.1-0.4-0.2-0.5-0.1l0.1-0.2l-0.6,0
	c-0.1,0-0.3,0-0.4,0c-0.3,0-0.6,0-0.8-0.2l-0.4-0.2v2.8l0.3,0c0.2,0,0.3-0.1,0.5-0.1c0,0,0,0,0.1,0c0,0,0,0,0,0
	c0,0.3,0.1,0.4,0.3,0.4c0.1,0,0.2-0.1,0.3-0.1c0.1-0.1,0.2-0.2,0.3-0.2c0.3-0.2,0.7-0.6,0.7-1.2l0,0
	C151.4,157,151.5,156.8,151.5,156.6z M153.6,148.7c0-0.4-0.3-0.6-0.4-0.8l-0.4-0.3l-0.2,0.4c0,0-0.1,0.1-0.1,0.1
	c-0.1,0.2-0.2,0.4-0.2,0.6l0,0.3h1.2L153.6,148.7z M153.9,138.5c0-0.2,0-0.4-0.2-0.6c-0.2-0.3-0.5-0.3-0.8-0.2
	c-0.1,0.1-0.2,0.2-0.3,0.4l-0.1-0.2l-0.3,0.1c-0.1,0-0.2,0-0.3,0c-0.2,0-0.3,0-0.5,0.1c-0.3,0.1-0.3,0.2-0.3,0.4
	c0,0.3,0.3,0.4,0.6,0.5c0.1,0,0.1,0,0.1,0c0.1,0.1,0.2,0.1,0.3,0.1c0.2,0,0.3-0.1,0.4-0.2c0,0,0,0,0-0.1c0.2,0.1,0.5,0.1,0.7,0
	c0.1,0,0.2-0.1,0.2-0.1h0.2L153.9,138.5z M154.6,143.6c0.3,0,0.5-0.2,0.6-0.4c0.1-0.2,0-0.3-0.1-0.4c-0.5-0.5-0.9-0.4-1-0.1
	c-0.1,0.2,0,0.6,0.1,0.8C154.3,143.5,154.4,143.6,154.6,143.6z M156.5,155l-0.2-0.4c0-0.1,0-0.1,0-0.1c0,0,0.1,0,0.2,0l0.7,0.3
	l-0.3-0.7c-0.1-0.3-0.4-0.5-0.5-0.6c-0.1-0.1-0.2-0.1-0.2-0.2l-0.2-0.4l-0.2,0.4c0,0.1-0.1,0.1-0.3,0.1c-0.1,0-0.2,0-0.3,0.1
	l-0.2,0.1l0,0.2c0,0.1,0,0.2,0.1,0.3c0.1,0,0.1,0.1,0.2,0.2c0.2,0.2,0.4,0.5,0.8,0.5L156.5,155z M157.8,160.7l-0.3-0.7
	c0-0.1-0.1-0.2-0.1-0.3c0-0.2-0.1-0.3-0.1-0.4c-0.1-0.3-0.3-0.3-0.4-0.3c-0.2,0-0.3,0.1-0.4,0.3c-0.1,0.2-0.1,0.4,0.1,0.6
	c0.1,0.2,0.3,0.4,0.6,0.5L157.8,160.7z M159,146.7l-0.1-0.2l-0.2,0c0,0-0.1,0-0.2,0c-0.1,0-0.2,0-0.3,0c-0.2,0-0.4,0.1-0.4,0.2
	c-0.1,0.2,0,0.5,0,0.5l0.1,0.2l0.2,0c0,0,0.1,0,0.2,0c0.1,0,0.2,0,0.3,0c0.2,0,0.4-0.1,0.4-0.2C159.2,147,159.1,146.7,159,146.7z
	 M159.5,140.3c-0.3-0.3-0.7-0.2-0.9,0.2c-0.1,0.2,0,0.4,0.1,0.6c0.1,0.1,0.2,0.2,0.4,0.2c0.2,0,0.4-0.1,0.5-0.3
	C159.7,140.7,159.7,140.5,159.5,140.3z M161.4,131.6c0-0.2-0.2-0.4-0.4-0.5c0,0,0,0,0,0l0,0c0.1-0.4-0.2-0.7-0.6-0.8l-0.1,0
	c-0.1,0-0.2,0-0.3,0.1c-0.1,0.2-0.1,0.4-0.1,0.5c0,0,0,0.1,0,0.1l0,0.3h0.4c0,0.1-0.1,0.2-0.1,0.3c-0.1,0.1-0.2,0.1-0.3,0.2
	c-0.2,0.1-0.2,0.3-0.3,0.5c-0.1,0-0.1,0-0.2,0c0-0.1,0-0.3-0.1-0.4c-0.1-0.3-0.5-0.3-0.7,0c-0.1,0.1-0.1,0.1-0.2,0.2l-0.2,0.1
	l0.1,0.2c0,0.1,0.1,0.2,0.1,0.2l-0.3,0.4l0.5-0.1c0.2,0.1,0.3,0.2,0.5,0.2c0.2,0,0.3-0.1,0.4-0.2c0.1-0.1,0.2-0.2,0.2-0.3
	c0.1,0,0.3-0.1,0.4-0.2c0,0,0,0,0,0c0.1,0.1,0.1,0.1,0.3,0.1l0.1,0l0.1,0C161.2,132.3,161.5,132,161.4,131.6z M162,139.6
	c-0.1,0.1-0.1,0.2-0.1,0.3c0,0.1,0,0.2,0.1,0.2V139.6z"/>
</svg>
