<?xml version="1.0" encoding="utf-8"?>
<!-- Generator: Adobe Illustrator 18.1.1, SVG Export Plug-In . SVG Version: 6.00 Build 0)  -->
<!DOCTYPE svg PUBLIC "-//W3C//DTD SVG 1.1//EN" "http://www.w3.org/Graphics/SVG/1.1/DTD/svg11.dtd">
<svg version="1.1" id="Layer_1" xmlns="http://www.w3.org/2000/svg" xmlns:xlink="http://www.w3.org/1999/xlink" x="0px" y="0px"
	 viewBox="0 0 133 133" enable-background="new 0 0 133 133" xml:space="preserve">
<path fill="#FFFFFF" d="M80.8,83.5h28.6v10.2H80.8V83.5z M113.2,56.5c0,10.2-7.9,17.1-18.1,17.1S77,66.7,77,56.5s7.9-17.1,18.1-17.1
	S113.2,46.4,113.2,56.5z M103,56.5c0-4.6-3.1-8.3-7.9-8.3c-4.8,0-7.9,3.7-7.9,8.3s3.1,8.3,7.9,8.3C99.9,64.8,103,61.1,103,56.5z
	 M27.8,10.9c-0.2,0.1-0.4,0.2-0.7,0.2h0.7C27.8,11,27.8,11,27.8,10.9z M34.3,56.7c-0.1-0.1-0.1-0.1-0.2,0c0,0.1,0.1,0.1,0.1,0.2
	c-1.6,2.7-2.5,6-2.5,9.6c0,0.3,0,0.6,0,0.9c-0.1-0.1-0.1-0.1-0.2-0.1c-0.4,0-0.8-0.1-1.1-0.5c-0.2,0.3,0.2,0.6,0.3,0.9
	c0.2,0,0.5-0.2,0.7,0c-0.1,0.1-0.4,0.3-0.3,0.4c0.2,0.2,0.5-0.1,0.6-0.3c0,0.2,0,0.4,0,0.5c-0.2,0-0.4,0.3-0.1,0.3
	c0,0,0.1,0.1,0.1,0.1c0.3,2.7,1.1,5.1,2.3,7.2c-0.1,0-0.3,0-0.4,0c-0.1,0.2,0,0.5,0.2,0.5c0.1-0.1,0.2-0.2,0.3-0.1
	c2.9,4.9,8.1,8,14.4,8c5.6,0,10.5-3.4,12.8-7.9l9.9,4.8C67.5,88,60.6,94.6,48.7,94.6c-16.2,0-28.8-11.4-28.9-28
	c0.2,0,0.7,0.2,0.5-0.2c-0.1,0-0.3-0.1-0.5,0c0-1.5,0.2-3,0.4-4.5c0.2,0,0.4,0,0.3-0.3c0,0-0.1,0-0.2,0c0.7-4.2,2.1-7.9,4.3-11.1
	c0,0,0,0,0,0c0.2,0.2,0.5,0,0.3-0.3c0,0-0.1,0-0.1,0c0.2-0.2,0.3-0.4,0.5-0.6c0.1,0.1,0.4,0.1,0.4,0.2c0.1,0.3,0.5-0.1,0.1-0.1
	c0-0.1,0-0.4-0.2-0.4c1-1.3,2.1-2.5,3.3-3.6c0.2,0.1,0.5,0,0.3-0.3c5.1-4.4,12-7,19.6-7c12,0,18.9,6.5,22.7,13.3l-9.9,4.9
	c-2.3-4.4-7.2-7.9-12.8-7.9C42.4,48.7,37.2,51.8,34.3,56.7z M30.1,46.4c0.2,0,0.8,0.2,0.6-0.3c0-0.1-0.2-0.2-0.2-0.2
	C30.4,46.1,30.2,46.2,30.1,46.4z M30,49.2c0.3-0.1,0.6-0.4,0.4-0.4C30.2,48.8,29.6,49.3,30,49.2z M29.3,68.5
	c0.3-0.1,0.9,0.3,0.8-0.2c0-0.2-0.2-0.5-0.5-0.4C29.6,68.1,29.4,68.3,29.3,68.5z M29,52.5c0,0,0.1-0.1,0.1-0.2c0-0.1-0.3-0.1-0.4,0
	C28.6,52.5,28.8,52.9,29,52.5z M28.5,61.2c-0.2,0-0.5,0.1-0.5,0.3C28.3,61.6,28.7,61.6,28.5,61.2z M28.1,69.7
	c-0.2-0.2-0.7-0.1-0.4,0.2C27.8,70.1,28.4,70,28.1,69.7z M28.7,65.5c0.2,0.2,0.3-0.1,0.2-0.2c-0.1-0.1-0.2-0.2-0.3-0.3
	C28.5,65,28.5,65.3,28.7,65.5z M28.6,54.4c-0.2,0.2-0.5,0.3-0.5,0.5c0,0.3,0.2,0.5,0.4,0.4C28.8,55.1,28.7,54.5,28.6,54.4z
	 M28.1,48.5l0.4-0.4c-0.1-0.2-0.2-0.4-0.4-0.4C28.2,47.9,27.9,48.3,28.1,48.5z M27.9,53.3c0.2,0.2,0.5-0.1,0.3-0.3
	C28,52.8,27.7,53.1,27.9,53.3z M26.5,49.3c0.3,0.1,0.9,0.2,0.6-0.4c0.1-0.1,0.1-0.2,0.1-0.2c0-0.5-0.5-0.2-0.7-0.2V49.3z M26.1,64.8
	c0.3,0,0.9,0.1,0.9-0.1c0-0.1-0.1-0.3-0.2-0.4C26.6,64.1,26.2,64.6,26.1,64.8z M25.4,64.9c0,0.2,0.2,0.4,0.4,0.2
	c0.1-0.1,0.1-0.2,0.2-0.3c-0.1,0-0.4-0.1-0.5-0.2C25.1,64.4,25.1,64.9,25.4,64.9z M24.6,57.2c0.2,0.2,0.5,0,0.3-0.3
	C24.8,56.8,24.5,57.1,24.6,57.2z M24.4,59.8c0.3,0,0.6,0,0.7,0c0,0-0.1-0.1-0.2-0.1C24.8,59.7,24.5,59.4,24.4,59.8z M24.2,62.9
	c-0.2,0-0.2,0.6-0.2,0.9c0.4,0.2,0.2-0.3,0.2-0.5C24.2,63.1,24.5,62.8,24.2,62.9z M24,64.2c-0.1-0.1-0.1-0.1-0.3-0.2
	c-0.1,0,0,0.3,0,0.4C23.8,64.5,24.3,64.5,24,64.2z M23.5,53.1l0.2,0.8c0.3-0.2,0.4-0.5,0.3-0.8H23.5z M23,53.5
	c0.4,0.4,0.2-0.3,0.2-0.5c0,0-0.1,0-0.1,0C22.9,53.1,22.9,53.4,23,53.5z M23.2,54.8c0.2-0.1,0.3-0.3,0.3-0.5c-0.2,0-0.4,0-0.6-0.1
	c-0.1-0.1-0.1,0.3-0.1,0.3C22.4,55,23.2,54.8,23.2,54.8z M22.4,62.8c0.1,0,0.3-0.2,0.4-0.2c0.2-0.3,0-0.4-0.2-0.3
	C22.5,62.4,22.1,62.8,22.4,62.8z M20.4,69.6c0-0.1-0.3-0.1-0.4,0c-0.2,0.1,0.1,0.6,0.3,0.2C20.3,69.8,20.4,69.8,20.4,69.6z
	 M20.4,62.9l0.2,0.2C20.8,63,20.5,62.7,20.4,62.9z M21.2,66.7c-0.1-0.3-0.4,0-0.5,0.1c0,0,0.3,0.1,0.4,0
	C21.1,66.9,21.2,66.8,21.2,66.7z M21.7,57.8c0,0-0.1-0.1-0.2-0.1c-0.3-0.2-0.4,0.2-0.2,0.3C21.3,58,22.1,58.2,21.7,57.8z M22.3,67.4
	c-0.1,0-0.3,0-0.4,0.1c-0.5,0-0.1,0.3-0.1,0.5c0,0.2,0.4,0.5,0.3,0C22.1,67.8,22.3,67.5,22.3,67.4z M22.7,75.2c0-0.1-0.3-0.1-0.4,0
	c-0.2,0.1,0.1,0.6,0.3,0.2C22.6,75.4,22.7,75.3,22.7,75.2z M23,67.6c-0.1-0.2-0.3-0.3-0.5-0.3l0.1,0.4C22.7,67.7,23,67.8,23,67.6z
	 M23.2,66.8c-0.1-0.1-0.6,0-0.2,0.3C23.1,67.2,23.6,67.1,23.2,66.8z M24.6,69.2c-0.3-0.3-0.9-0.1-1.1,0.1
	C23.9,69.5,24.3,69.4,24.6,69.2z M24.9,80.6c-0.2,0-0.8-0.2-0.6,0.2C24.5,80.8,25.1,81,24.9,80.6z M25.8,68.2h-0.7
	c0.1-0.2,0.3-0.4,0.2-0.5c-0.1-0.2-0.2-0.7-0.6-0.5c-0.1-0.3,0.1-0.5,0.4-0.4c0-0.2,0.1-0.5-0.1-0.7c-0.5-0.3-0.2,0.3-0.2,0.5
	c-0.4,0.2-0.6-0.2-0.8-0.4c-0.2,0.3,0.1,0.7,0.3,0.9c-0.1,0.3-0.3,0.1-0.4,0.1c-0.3-0.2-0.6,0-0.6,0.3h0.7c0,0.2-0.4,0.3-0.3,0.6
	c0.3-0.2,0.6-0.4,0.9-0.4c0.3,0.1,0.3,0.4,0.2,0.7c-0.1,0.2,0.1,0.4,0.3,0.3c0.1,0,0.2-0.1,0.3-0.2C25.7,68.6,25.9,68.5,25.8,68.2z
	 M26.2,67.1c0.3-0.3-0.3-0.5-0.5-0.7c0.2-0.4-0.1-0.4-0.4-0.3c-0.1-0.2,0-0.7-0.3-0.7c-0.2,0-0.6,0.2-0.5,0.4
	c0.2,0.3,0.5,0.2,0.8,0.3c0.1,0.2,0.3,0.4,0.3,0.7C25.7,67,26,67.3,26.2,67.1z M26.5,75.6c-0.1-0.2-0.5-0.3-0.5-0.1
	C26,75.9,26.5,75.9,26.5,75.6z M26.5,79c-0.1,0.2,0.1,0.4,0.2,0.2C26.8,79.2,26.8,78.7,26.5,79z M27.1,68.3c-0.3,0-0.6,0.1-0.7,0.4
	c-0.1,0.2,0.1,0.5,0.2,0.2c0.1-0.3,0.5-0.2,0.6-0.1C27.4,68.6,27.2,68.3,27.1,68.3z M27.4,66.2c-0.2-0.2-0.3-0.4-0.5-0.6
	c-0.1,0.2-0.2,0.4-0.1,0.6C26.8,66.4,27.3,66.4,27.4,66.2z M27.6,63.6c-0.1-0.2-0.2-0.3-0.4-0.4c-0.2,0.2,0.1,0.5,0.2,0.6
	C27.5,64,27.6,63.8,27.6,63.6z M28.3,73.2c-0.1-0.1-0.3-0.2-0.5-0.1c0.2,0.2,0.4,0.3,0.4,0.6c-0.1,0.1-0.8-0.2-0.5,0.2
	c0.2,0.2,0.4-0.1,0.5-0.2C28.4,73.6,28.4,73.3,28.3,73.2z M28.4,70.5c0.3,0,0.8,0.2,0.7-0.2c0-0.3,0-0.6,0-0.9h-0.5
	C28.5,69.7,28.4,70.1,28.4,70.5z M28.8,71.4c0,0-0.4-0.2-0.3,0.2C28.6,71.9,29.1,71.9,28.8,71.4z M29.4,75.9l-0.7-0.2
	c0,0.3,0.1,0.8,0.3,0.7C29.2,76.3,29.4,76.2,29.4,75.9z M29.8,80.7C29.9,80.7,29.8,80.7,29.8,80.7c-0.3,0-0.3,0.3-0.2,0.4
	C30,81.6,29.9,80.8,29.8,80.7z M30,72.8c-0.4-0.4-0.9-0.2-1.2,0.2c0.2,0.1,0.5,0,0.8,0C29.8,73,29.9,72.9,30,72.8z M29.9,71.7
	c-0.2-0.2-0.4,0.1-0.1,0.2c0.1,0,0.2,0.1,0.3,0.2C30.7,72.2,29.9,71.8,29.9,71.7z M29.8,71.1c0.3,0.1,0.5-0.1,0.4-0.3
	c-0.3,0-0.7,0-0.9,0C29.3,71.1,29.6,71,29.8,71.1z M31.3,82.2c0.1-0.2-0.1-0.5-0.2-0.4C30.9,81.9,30.9,82.6,31.3,82.2z M31.3,82.5
	c-0.3,0-0.3,0.8,0,0.4C31.3,82.7,31.3,82.5,31.3,82.5z M31.4,71.9c0.1-0.1,0.3-0.3,0.3-0.4c0.1-0.3-0.2-0.5-0.4-0.5
	C31.4,71.3,31.3,71.7,31.4,71.9z M31,73.1c0.1,0.2,0.3,0.7,0.5,0.5C31.4,73.4,31.3,72.9,31,73.1z M30.6,74.2c0.2,0,0.9,0,1.1,0
	c0.2,0,0.4-0.1,0.5-0.3c-0.6,0.2-1,0-1.3-0.1C30.6,73.7,30.5,74,30.6,74.2z M30.5,68.3c0.3,0.2,0.1-0.3,0.1-0.5
	C30.3,67.8,30.3,68.2,30.5,68.3z M30.3,69.5c-0.1,0.2-0.4,0-0.1-0.2c0.1-0.1-0.1-0.6-0.4-0.6c-0.2,0.2-0.8,0.1-0.6,0.5
	c0.5-0.2,0.5,0.4,0.6,0.5c0.2,0.2,0.4,0.2,0.5,0.4c-0.2,0-0.3,0-0.4,0.2c0.1,0,0.3,0,0.4-0.1c0,0.3,0,0.6,0.3,0.7
	c0-0.3-0.1-0.5-0.3-0.7l0-0.1C30.9,70.1,30.2,69.7,30.3,69.5z M30.9,57.4c-0.1-0.2-0.3-0.1-0.5-0.1c-0.2,0-0.1,0.2,0,0.2
	C30.6,57.6,31.1,57.7,30.9,57.4z M31,47.2c0.2,0.2,0.5-0.1,0.3-0.3C31.1,46.7,30.8,47,31,47.2z M31.5,65.7c0-0.1-0.3,0-0.4,0
	c-0.1,0.3-0.1,0.8,0.3,0.5C31.6,66.1,31.4,65.9,31.5,65.7z M32.7,57.8c-0.1-0.1-0.2-0.2-0.1-0.2c-0.4-0.2-0.4,0.2-0.3,0.3
	C32.3,58,32.8,58,32.7,57.8z M32.9,52.2c0.1,0,0.4,0,0.5,0c0.2-0.1,0.4-0.3,0.3-0.5c-0.2-0.3-0.3,0.1-0.5,0.1
	C32.9,51.8,32.8,52,32.9,52.2z M33.2,56.3c-0.1,0.1-0.2,0.8,0.2,0.9C33.8,57,33.7,56.5,33.2,56.3z M34,54.8c0.1-0.2,0-0.4-0.2-0.5
	c-0.2-0.1-0.4,0.3-0.3,0.5C33.6,55,33.9,55,34,54.8z M34.2,49.9c-0.2-0.2-0.5,0.1-0.3,0.3C34.1,50.4,34.4,50.1,34.2,49.9z
	 M34.7,47.5c0.1-0.3-0.3-0.3-0.4-0.1C34.2,47.7,34.7,47.7,34.7,47.5z M35,55.3c-0.3-0.1-0.5,0.1-0.5,0.4c-0.3,0-0.2,0.6,0.1,0.3
	C34.9,55.8,35,55.5,35,55.3z M35.8,47.2c0.2-0.2,0.6-0.1,0.9-0.4c0.2-0.2,0-0.4-0.3-0.2c0-0.3-0.5-0.5-0.3-0.1
	c-0.2,0.1-0.5,0.3-0.8,0.2c0.2-0.2,0-0.6-0.2-0.2c-0.1,0.2,0,0.6,0.2,0.5c0.3,0,0.3,0.3,0.2,0.5C36,47.7,36,47.4,35.8,47.2z M133,0
	v11.1v110.7V133h-11.1h-4.6c0-0.1,0-0.2-0.1-0.3l-0.1-0.3l-0.3,0.4c-0.1,0.1-0.1,0.1-0.2,0.2c0,0,0,0.1,0,0.1H98.1c0,0,0,0,0,0
	c-0.2-0.2-0.7-0.2-0.9,0h-2.9c0-0.1,0-0.2,0-0.2c0-0.1,0-0.2,0.1-0.2l0.5-0.3l0,0.1c0,0.1-0.1,0.3,0.1,0.5l0.1,0.1h0.1
	c0.1,0,0.2,0,0.3-0.1c0,0,0.2-0.1,0.3-0.3c0.1-0.1,0-0.2,0-0.3c-0.1-0.1-0.3-0.1-0.5-0.1c0,0-0.1,0-0.1,0l0,0l0.1-0.1l-0.9,0
	c-0.1,0-0.1,0-0.2,0c-0.2,0-0.3,0-0.4,0l-0.1-0.1l-0.1,0.1l0.2-0.7l-0.6,0.6c-0.2,0.2-0.3,0.5-0.5,0.8l0,0.1c0,0,0,0.1,0,0.1h-1.4
	l0-0.2l-0.3,0l-0.4,0c-0.2,0-0.4,0-0.6,0.1l-0.1,0.1h-0.8c-0.1-0.1-0.3-0.2-0.4-0.2c0,0,0,0,0,0l-0.2,0l0,0.2c0,0,0,0,0,0h-0.3
	c0,0,0,0,0,0c-0.1-0.1-0.3,0-0.4,0H40.9c0.2,0,0.3-0.3,0.3-0.4l0.2-0.2l-0.3-0.1c-0.1,0-0.2,0-0.3,0c-0.3,0-0.4,0.1-0.4,0.2
	c-0.1,0.1,0,0.3,0.1,0.5c0.1,0.1,0.2,0.2,0.3,0.2H26.9c0-0.1,0-0.2,0-0.3c-0.1-0.2-0.2-0.3-0.4-0.3c-0.1,0-0.3,0-0.4,0.3
	c0,0-0.1,0.1-0.1,0.2l0,0.1h-6.4c0,0,0,0,0-0.1c0-0.3,0-0.6-0.2-0.8c-0.1-0.1-0.2-0.2-0.3-0.3c-0.4-0.4-0.7-0.9-0.9-1.7l0-0.1
	c0.3,0.2,0.7,0,0.7-0.3c0-0.2-0.1-0.4-0.3-0.4c0,0,0.1-0.1,0.1-0.1c0.1-0.1,0.1-0.3,0-0.5c-0.1-0.2-0.4-0.2-0.6,0
	c0,0-0.1,0.1-0.2,0.2c-0.1,0.1-0.1,0.3,0,0.4c0,0,0,0,0.1,0.1l-0.2,0.6c-0.3,1,0,2.1,0.4,2.9H12c0-0.1,0-0.1,0-0.2
	c-0.1-0.3-0.5-0.4-0.7-0.2c-0.2,0.1-0.3,0.3-0.3,0.4c0,0,0,0,0,0h-0.1c-0.1,0-0.1-0.1-0.2-0.1l-0.1,0c-0.1,0-0.1,0.1-0.1,0.1H8.5
	c-0.1-0.1-0.3-0.2-0.5-0.2h0c-0.1,0-0.2,0.1-0.3,0.2H0v-0.4l0,0c0.1,0,0.2,0.1,0.3,0.1c0.2,0,0.3-0.1,0.4-0.3c0.1-0.2,0-0.4-0.1-0.5
	c-0.1-0.1-0.4-0.1-0.5-0.1v-9c0.1,0,0.1-0.1,0.2-0.2c0.1-0.2,0-0.3-0.1-0.4c0,0,0-0.1-0.1-0.1c0,0,0,0,0-0.1v-0.2V82.7
	c0.1,0,0.2-0.2,0-0.3c0,0,0,0,0,0V69.3c0.1-0.1,0.1-0.2,0-0.2V26.7c0.1,0.1,0.5,0.2,0.3-0.1c-0.1-0.2-0.1-0.4-0.3-0.5c0,0,0,0,0,0
	v-3.9c0.2,0,0.4,0,0.2-0.3c-0.1,0-0.1,0-0.2,0v-8.5c0.1,0,0.2-0.1,0.3-0.2C0.3,13,0.2,13,0,13.1V12c0,0,0,0,0,0
	c0.1-0.1,0.1-0.2,0.1-0.2c0,0-0.1,0-0.1,0v-0.7V2.4c0.1,0,0.2,0,0.2,0L0.1,2.1C0.2,2,0.1,1.9,0,1.9V0h1.1c0,0.1,0,0.1,0.1,0.2
	c0.3,0.2,0.3,0,0.3-0.2h9.6c0,0.2-0.2,0.7,0.2,0.5V0h110.5H133z M129.8,113.4c-0.3,0.1-0.3,0.3-0.3,0.4c0,0.2,0.2,0.3,0.5,0.3
	c0.2,0.2,0.3,0.3,0.6,0.3c0.1,0,0.1,0,0.2,0l0.2-0.1v-1l-0.3,0.1c-0.1,0-0.1,0-0.2,0.1c-0.1,0.1-0.3,0.1-0.4,0l-0.1-0.1L129.8,113.4
	z M129.1,108c-0.1,0-0.2,0-0.2,0.1c-0.1,0-0.3,0.2-0.3,0.4l-0.1,0.3h1.3l-0.1-0.3C129.5,108.3,129.3,108,129.1,108z M129.3,113
	l0-0.2c0-0.1-0.1-0.3-0.2-0.4c-0.2-0.3-0.6-0.2-0.7,0c-0.1,0.1,0,0.2,0,0.4c0.1,0.1,0.3,0.2,0.5,0.2c0.1,0,0.2,0,0.2,0L129.3,113z
	 M129.3,122.9c0-0.1-0.1-0.5-0.3-0.5c-0.2,0-0.3,0.2-0.3,0.3c0,0.1-0.1,0.2-0.2,0.4c-0.1,0.1-0.1,0.2-0.2,0.3l-0.2,0.3l0.3,0
	c0,0,0.1,0,0.1,0c0.2,0,0.5-0.1,0.7-0.3C129.3,123.3,129.3,123.1,129.3,122.9z M127.6,107.8l0.1,0.2h0.2c0.1,0,0.1,0,0.2,0
	c0.1,0,0.2,0,0.3,0c0.2,0,0.3-0.1,0.4-0.2c0.1-0.1,0.1-0.2,0.1-0.4l-0.1-0.2h-0.2c-0.1,0-0.1,0-0.2,0c-0.3,0-0.6,0-0.7,0.1
	C127.6,107.5,127.6,107.6,127.6,107.8z M126.3,108.5l-0.1,0.3l0,0l0,0.2c0,0.2,0,0.4,0.3,0.5l0,0c0.2,0.1,0.3,0.3,0.5,0.3
	c0.1,0,0.3,0,0.4-0.3v0c0.1,0.2,0.2,0.3,0.4,0.4c0.1,0,0.1,0.1,0.1,0.1l0,0.1l0.2,0c0.1,0,0.2,0,0.4,0c0.2,0,0.3-0.1,0.4-0.2
	c0.1-0.1,0.1-0.3,0.1-0.5c-0.1-0.5-0.6-0.6-0.8-0.6c-0.1,0-0.1,0-0.2,0c-0.2-0.1-0.4-0.1-0.5,0.1c0,0,0,0.1,0,0.1c0,0,0-0.1-0.1-0.1
	c-0.1-0.1-0.2-0.2-0.4-0.2c0.2-0.1,0.3-0.2,0.4-0.3c0,0,0.1-0.1,0.1-0.1l0.1-0.1l-0.1-0.2c-0.1-0.2-0.2-0.3-0.4-0.3
	c-0.2,0-0.3,0.1-0.4,0.1c-0.1,0.1-0.1,0.2-0.2,0.4C126.3,108.4,126.3,108.4,126.3,108.5z M127.9,115.4c-0.1-0.1-0.2-0.2-0.5-0.1
	l-0.2,0v1.1l0.2,0l0.1,0c0.1,0,0.2-0.1,0.3-0.1c0.1-0.1,0.1-0.2,0.1-0.3c0,0,0-0.1,0-0.1C128,115.7,128,115.5,127.9,115.4z
	 M125.9,110.4c0,0-0.1,0.1-0.1,0.2c0,0.1,0,0.2,0.1,0.3c0.1,0.1,0.2,0.1,0.3,0.1c0.2,0,0.5-0.2,0.6-0.5c0,0,0.1-0.4-0.1-0.6
	c-0.1-0.2-0.4-0.2-0.6,0C125.9,110,125.9,110.2,125.9,110.4C125.9,110.3,125.9,110.4,125.9,110.4z M125.5,108.4c0,0,0,0.1,0,0.1
	l0,0.2l0.2,0l0.1,0c0.2,0,0.4-0.1,0.5-0.2c0.1-0.1,0.1-0.2,0-0.4c0-0.1-0.1-0.2-0.3-0.3l-0.3-0.2l-0.2,0.2
	C125.5,108,125.5,108.2,125.5,108.4z M125.2,111.5l-0.1,0l-0.5,0.5l0.1,0.2c0.1,0.1,0.1,0.2,0.2,0.2c0.2,0.2,0.2,0.2,0.1,0.3
	l-0.1,0.3h0.4c0,0,0.1,0,0.1,0c0.1,0,0.1,0,0.2,0c0.3,0,0.4-0.2,0.5-0.3l0-0.2l-0.2-0.1c-0.1-0.1-0.2-0.2-0.2-0.4
	C125.5,111.8,125.5,111.6,125.2,111.5z M122.7,109.8c0,0.2,0.1,0.3,0.3,0.4c0.1,0.1,0.2,0.2,0.2,0.2l0,0l0.4,0.1l0,0
	c0-0.1,0.2-0.2,0.3-0.2c0,0,0,0,0,0c0,0.2,0.2,0.3,0.4,0.3c0,0,0,0,0,0l0.3,0l-0.1-0.3c0,0,0.2-0.2,0.2-0.3c0.2-0.2,0.3-0.3,0.4-0.6
	l0-0.2l-0.2,0c-0.1,0-0.1,0-0.2,0l0.2-0.1l-0.1-0.2c-0.1-0.3-0.6-0.6-0.9-0.5l-0.3,0.1l0.3,0.3c0.1,0.1,0.2,0.3,0.4,0.3
	c-0.1,0.1-0.2,0.2-0.2,0.2c-0.3-0.1-0.5-0.1-0.7,0c-0.1-0.1-0.2-0.2-0.3-0.2C122.9,109.4,122.7,109.4,122.7,109.8z M28,9.1
	c-0.2,0-1-0.3-0.7,0.3c0.3,0,1.1,0.2,1-0.2C28.2,9.1,28.1,9.1,28,9.1z M28.1,8.7c-0.1-0.1-0.3-0.4-0.5-0.3c-0.5-0.7-0.2,0.4-0.8,0.2
	c0,0.4,0.4,0.1,0.6,0.1c0.2,0.4,0.2-0.1,0.4-0.1C27.8,8.7,28,8.7,28.1,8.7z M27.6,6.4c0.2-0.1,0.1-0.4,0.1-0.6
	c-0.2,0-0.3,0.1-0.4,0.3C27.1,6.3,27.4,6.5,27.6,6.4z M26.6,7.2c0.4,0,0.8,0.3,1.2,0c0.1,0.1,0.3,0.2,0.2-0.1
	c-0.4,0.1-0.7-0.4-1.1-0.5C26.8,6.9,26.6,7.1,26.6,7.2z M26.1,2.1c0.2,0.2,0.4,0.1,0.4-0.2c-0.1,0-0.4-0.5-0.5-0.6
	C26,1.5,25.9,1.9,26.1,2.1z M25.6,2.6c-0.2,0-0.2,0.4-0.1,0.6h-0.5c-0.1,0.3-0.1,0.7,0.2,0.6c0.5-0.2,0.3-0.7,0.8-0.9
	C26.1,2.8,25.8,2.6,25.6,2.6z M25.7,5.9c0.2-0.3-0.1-0.5-0.3-0.4v0.8C25.8,6.5,25.6,6,25.7,5.9z M22.8,6.3c0.1,0.3,0.3,0.1,0.4-0.1
	l0.2,0.2C23.4,6.1,23.1,6,23,5.8C22.9,5.9,22.8,6.1,22.8,6.3z M23.1,4.3V3.3h-0.4L23.1,4.3z M22.6,7.2c0,0.1-0.1,0.4,0,0.4
	C23,7.4,23.3,7.3,23.4,7C23.1,6.7,22.9,7.4,22.6,7.2z M23,8.3c0,0-0.2,0.8,0.2,0.4c0,0,0.1-0.1,0.1-0.2C23.5,8.2,23.2,8.2,23,8.3z
	 M23.3,10.9c0.1,0,0-0.4,0.3-0.6c0.3-0.2,0.4,0.1,0.5,0.2c0.1-0.1,0.1-0.5,0.4-0.7c0,0.3,0.2,0.5,0.5,0.4c0-0.3,0-0.9-0.4-0.9
	c0,0.2,0,0.4,0,0.5c-0.6,0.1-1.2,0.3-1.6,0.7C22.8,10.7,23.1,10.9,23.3,10.9z M25.4,8.1c0-0.1,0.1-0.5-0.1-0.4
	c-0.3,0.1-0.4,0.3-0.5,0.4L25.4,8.1z M24.7,1.4c0.1,0.6,0.1,1.2,0.3,1.7c0.2-0.4,0-1.1,0.4-1.3c-0.1,0-0.5-0.2-0.5-0.5H24.7z
	 M24.8,5.8c-0.1-0.4,0-0.8,0.4-0.9c0.2-0.1,0.3-0.3,0.3-0.5h-0.7c0,0.3,0.4,0.3,0.4,0.5l-0.5,0C24.6,5.2,24.4,5.7,24.8,5.8z
	 M24.2,6.3c0.2,0.1,0.6,0.3,0.6-0.1C24.6,6.2,23.8,6.1,24.2,6.3z M23.6,1.6c-0.2,0-0.6,0.2-0.4,0.4c0.3-0.2,0.6,0.1,0.9-0.1
	c0.2-0.1,0.1-0.3,0.1-0.5C24,1.4,23.8,1.6,23.6,1.6z M22.4,1.1c0.3,0,0.5,0,0.8,0.1c0.2,0.1,0.1-0.3,0.1-0.4
	C23,0.8,22.3,0.6,22.4,1.1z M22.6,2.1c-0.3,0.4,0.3,0.4,0.2,0c-0.1-0.2-0.1-0.5-0.4-0.5C22.1,1.7,22.5,2,22.6,2.1z M21.9,6.5
	c0.1,0.1,0.2,0,0.2-0.1c0.1,0.1,0.1,0.3,0.1,0.4h0.5c0.2-0.4-0.4-0.2-0.4-0.4c0.4-0.1,0.2-0.4,0.1-0.4C22,6.1,21.7,6.4,21.9,6.5z
	 M21.9,10.6c0.2,0.1,0.6,0,0.4-0.4c0.1,0,0.3-0.7-0.1-0.2c-0.4-0.1-0.1,0.1-0.3,0.4C21.6,10.4,21.6,10.6,21.9,10.6z M21.5,4.8
	c0,0,0-0.3-0.1-0.4c-0.1,0.1-0.3,0.2-0.3,0.5C21.3,5.1,21.7,5.1,21.5,4.8z M20.9,2.9c0,0,1,0.2,0.5-0.1c-0.2-0.1-0.3-0.2-0.4-0.2
	C20.9,2.4,20.7,2.8,20.9,2.9z M20.3,7.5c-0.1,0.2,0,0.3,0.1,0.5c0.2,0,0.5,0,0.5-0.3c0-0.2,0.1-0.4,0.3-0.2c0.3-0.2,0.4-0.5,0.3-0.8
	C21,6.8,20.6,7.1,20.3,7.5z M19.3,5.4c0.3-0.3,0.7-0.1,1-0.4c-0.1-0.3-0.4,0-0.5-0.1c-0.3-0.5-0.6,0.1-0.7,0.3
	C19,5.3,19.1,5.7,19.3,5.4z M20.3,8.1C20.1,8,20,7.9,19.9,7.9c0,0.2-0.2,0.8,0.3,0.7C20.1,8.4,20.1,8.2,20.3,8.1z M19.1,10.3
	c0.3-0.1,0.4,0.1,0.7,0.2c0.2,0.1,0.4,0,0.2-0.2c0,0-0.1-0.1-0.2-0.2c-0.3,0.2-0.3-0.2,0.1-0.2c0.2,0,0.4-0.2,0-0.4
	c-0.2-0.1-0.5,0.3-0.8,0.2V10.3z M18.7,10.9c0,0.1,0.5,0.1,0.6-0.1c0,0,0-0.2,0-0.3C19,10.3,18.7,10.5,18.7,10.9z M18.6,5.8
	c0.1-0.2-0.2-0.6-0.5-0.3C17.7,5.9,18.6,5.9,18.6,5.8z M17.6,8.1c0.2,0.1,0.3,0.4,0.5,0.5c0.4,0.2,0.3-0.3,0.3-0.4
	c0-0.1,0.2-0.3,0.1-0.4c-0.1-0.2-0.4-0.3-0.6-0.2C17.7,7.6,17.7,7.9,17.6,8.1z M16.6,7.6c0,0.1-0.1,0.6,0.2,0.3
	C17,7.8,17,7.6,17,7.5C16.9,7.3,16.3,7.2,16.6,7.6z M16.5,1.3C16.6,1.5,16.8,2,17,1.8C16.9,1.5,16.7,1,16.5,1.3z M16.2,8.9
	c-0.1-0.2-0.4-0.3-0.5-0.4C15.5,8.9,15.9,8.9,16.2,8.9C16.1,9,16,9.5,16.3,9.4C16.5,9.3,16.5,8.9,16.2,8.9z M16,4.9
	c-0.1-0.2-0.4,0-0.6,0c0.1,0.1,0.2,0.5,0.3,0.4C15.9,5.2,16.1,5.1,16,4.9z M16,7.4c-0.1,0.1,0.1,0.2,0.1,0.3C16.2,7.6,16.3,7,16,7.4
	z M15.4,7.8c0.2,0.1,0.5,0.1,0.3-0.2c0,0-0.1-0.1-0.2-0.1C15.4,7.4,15.1,7.6,15.4,7.8z M15.4,0.9c0.3,0.3,0.3,0.9,0,1
	c0.1,0.3,0.3,0.3,0.4,0.1c0.1-0.1,0.3-0.4,0.3-0.6c0-0.1-0.3,0-0.5,0c0.1-0.2,0.2-0.5-0.1-0.6C15.4,0.5,15.3,0.8,15.4,0.9z
	 M15.6,3.9c0.1-0.2-0.1-0.5-0.2-0.4C15.1,3.6,15.4,4.2,15.6,3.9z M14.3,5.2c0.2,0.3,0.7,0.4,0.8,0.2L14.9,5
	C14.7,5,14.4,5.1,14.3,5.2z M13.1,5.5c0.2,0,0.6,0.1,0.7,0.1C14.1,5.8,14,5.4,14,5.2c-0.1,0-0.2,0-0.4,0.1
	C13.4,5.4,13.1,5.1,13.1,5.5z M12.5,9.2c0,0,0.4,0.4,0.4,0.1C12.9,9.2,12.8,8.7,12.5,9.2z M10.4,2.5c0.1-0.1,0.3-0.2,0.5-0.1V2.2
	C10.7,2.1,10.2,2.1,10.4,2.5z M10.2,9.6c0.2,0,0.6,0,0.8,0c-0.1-0.1-0.3-0.3-0.4-0.3C10.3,9.1,10,9.2,10.2,9.6z M10.9,58.9
	c0.2,0.1,0.2-0.2,0.2-0.4c0-0.2,0-0.4-0.2-0.4C11,58.4,10.7,58.7,10.9,58.9z M9.1,126.2l0.8,0.4l0.1-0.3c0,0,0.1-0.1,0.1-0.1
	c0.1-0.1,0.3-0.2,0.3-0.4c0-0.1,0-0.2-0.2-0.3l-0.1-0.1l-0.1,0.1c0,0-0.1,0-0.1,0l-0.1,0c-0.2,0-0.3,0.1-0.4,0.3L9.1,126.2
	C9,126.1,8.9,126,8.8,126c-0.3,0-0.4,0.3-0.4,0.5c0,0,0,0.1,0,0.1c0,0,0,0,0,0.1c-0.1,0.1-0.2,0.2-0.1,0.4l0.1,0.1h1.2l-0.1-0.3
	c0-0.1,0-0.2,0-0.2C9.3,126.5,9.3,126.3,9.1,126.2z M6.8,113.8l0,0.2h1l0-0.2c0-0.2-0.1-0.5-0.6-0.6c0,0-0.1,0-0.1,0l-0.2,0
	l-0.1,0.1C6.8,113.4,6.8,113.6,6.8,113.8C6.8,113.8,6.8,113.8,6.8,113.8z M5.9,74.5v-0.2c-0.3-0.1-0.6,0.3-0.7-0.1
	c0-0.2,0.1-0.8-0.4-0.5c0,0.1,0.1,0.4-0.2,0.4c0.1-0.3,0.1-0.8-0.3-0.5c0.2,0.2,0,0.5,0.2,0.8C4.9,74.7,5.5,74.8,5.9,74.5z
	 M4.2,78.8c-0.1,0.3,0.1,0.5,0.3,0.5c0.3-0.1,0.2-0.4,0.2-0.6C4.9,78,4.4,78.8,4.2,78.8z M5.1,70.7c0,0,0.1-0.1,0.2-0.1
	c-0.1-0.3-0.5,0-0.5,0.2C4.7,70.9,5,70.7,5.1,70.7z M7.7,30.6H6.6c0.1,0.3,0.4,0.3,0.7,0.2c0.1,0.2,0,0.4-0.1,0.5
	c0.2,0,0.8,0.1,0.6-0.1C7.6,31.1,7.6,30.8,7.7,30.6z M9.6,60.1c-0.2,0.1,0.3,0.3,0.4,0.4C10.3,60.3,9.9,60,9.6,60.1z M10,122.3
	C10,122.2,10,122.2,10,122.3c0-0.5-0.6-0.6-0.8-0.3c0,0.1-0.1,0.2,0,0.4c0,0,0,0,0,0.1c0,0.2,0,0.3,0.1,0.4c0.1,0.1,0.2,0.1,0.3,0.1
	c0.1,0,0.2,0,0.2-0.1C10,122.7,10,122.4,10,122.3z M9.3,63.3c0.2,0,0.8,0.2,0.6-0.2C9.7,63.1,9.1,62.9,9.3,63.3z M9.4,74.9
	C9.5,75,9.7,75,9.8,75v-0.5H9.6C9.6,74.6,9.6,74.8,9.4,74.9z M9.1,66.4c-0.1,0,0,0.3,0,0.4c0.1,0.1,0.6,0.1,0.3-0.2
	C9.3,66.5,9.2,66.5,9.1,66.4z M8.8,106.9c0,0.1-0.1,0.2,0,0.4l0.1,0.1l0.2,0c0,0,0.1,0,0.2,0c0.1,0,0.3,0,0.4-0.1l0.2-0.2l-0.2-0.2
	c-0.1-0.1-0.2-0.2-0.3-0.2C9.1,106.6,8.9,106.7,8.8,106.9z M8.9,59.8c0.2-0.5-0.4-0.3-0.6-0.3l0.2,0.6c-0.3,0-0.3,0.3,0,0.1
	C8.7,60.1,8.8,59.9,8.9,59.8z M8.5,75.9c-0.4,0.1,0.1,0.5-0.4,0.5l0,0.5C8.7,76.9,8.5,76.3,8.5,75.9z M8.8,58.3
	c-0.2,0.2-0.4,0.6-0.1,0.7C8.7,59,8.6,58.6,8.8,58.3c0.3,0,0.3-0.6,0-0.5C8.5,57.9,8.8,58.2,8.8,58.3z M9,28.3
	c0-0.3-0.3-0.2-0.4-0.2c-0.1,0-0.4-0.2-0.5-0.2c-0.2,0,0,0.3,0,0.4C8.3,28.4,8.7,28.4,9,28.3z M7.5,80.9c0.1,0,0.5,0.1,0.4-0.1
	C7.9,80.5,7.5,80.8,7.5,80.9z M5.8,33.7c0,0.1,0.6,0.3,0.4,0c0-0.1-0.2-0.4-0.2-0.5C5.9,33.3,5.7,33.4,5.8,33.7z M5.8,28.8
	c0.2,0,0.1-0.4,0.1-0.4C5.7,28.5,5.5,28.7,5.8,28.8z M6.5,62.1v-0.5H6.2C6.2,61.7,6,62.4,6.5,62.1z M5.8,75.4c0.2,0.1,0.7,0,0.4-0.3
	C6,74.8,5.9,75.2,5.8,75.4z M5.7,78.9c-0.5-0.1,0.1,0.3,0.1,0.5c0.1,0.3,0.5,0.1,0.3-0.1C6,79.1,5.9,78.9,5.7,78.9z M4.8,79.4
	l0.3,0.2c0.2-0.2,0.4,0.2,0.6-0.1C5.5,79.3,5,79.2,4.8,79.4z M5.5,83.2c-0.2-0.1-0.4,0.3-0.3,0.5c0.1,0.3,0.4,0,0.4-0.1
	C5.6,83.4,5.6,83.3,5.5,83.2z M5,108.2h0.3c0.1,0,0.1,0,0.2,0c0.1,0,0.2,0,0.3,0c0.1,0,0.3,0,0.4-0.1c0.1-0.1,0.1-0.2,0.1-0.3
	c0-0.1-0.1-0.3-0.2-0.3L5.8,107l-0.1,0.6c0,0,0,0-0.2,0.1c-0.1,0-0.3,0.1-0.4,0.3L5,108.2z M6.5,77.2v-0.5H6.2
	C6.2,76.8,6,77.4,6.5,77.2z M6.7,83.5c0.1,0.1,0.4,0,0.2-0.2c-0.2-0.1-0.3-0.3-0.5-0.5C6.2,83.1,6.6,83.3,6.7,83.5z M7.1,76.8
	c0-0.3-0.4-0.3-0.4,0C6.9,76.8,7.1,76.8,7.1,76.8z M7.5,75.7c0.1,0,0-0.5,0-0.7c-0.2,0-0.5-0.1-0.7,0.2C6.7,75.6,7.2,75.6,7.5,75.7z
	 M7.1,65.7c0.1,0.3,0.5-0.1,0.2-0.2C7,65.2,7.1,65.6,7.1,65.7z M6.5,31.9c-0.1,0.3-0.4,0.3-0.6,0.3c-0.1,0.4,0.1,0.9,0.5,1
	c0.2,0,0.1-0.3,0.1-0.4c0,0,0.1-0.1,0.1-0.1c0-0.2-0.1-0.3-0.1-0.6c0.2,0.1,0.6-0.1,0.5-0.4C7,31.7,6.5,31.8,6.5,31.9z M6,20.8
	c-0.1-0.1-0.3-0.2-0.5-0.1c-0.2,0.2,0.1,0.3,0.2,0.3C5.9,20.9,6,20.8,6,20.8z M5.4,73.5c0,0.1,0.3,0.4,0.4,0.1
	C5.8,73.4,5.5,73.5,5.4,73.5z M4.9,116.8L4.9,116.8l0.2,0.1c0,0,0,0,0.1,0c0.1,0,0.2,0,0.3,0c0.1,0,0.4,0,0.4-0.2
	c0.1-0.2-0.2-0.4-0.4-0.4c-0.1,0-0.2-0.1-0.4-0.1c-0.2,0-0.3,0.1-0.4,0.2C4.7,116.5,4.8,116.7,4.9,116.8z M5.9,117
	c-0.3,0-0.4,0.1-0.5,0.3c-0.1,0.1-0.1,0.3,0,0.5c0.1,0.1,0.2,0.2,0.4,0.2c0.1,0,0.1,0,0.2,0c0.3-0.2,0.3-0.5,0.3-0.7L6.3,117l-0.2,0
	C6,117,6,117,5.9,117z M5.1,118.4l0.3,0.2c0,0,0.1,0.1,0.1,0.1c0.1,0.1,0.2,0.3,0.5,0.4l0.1,0l0.1-0.1c0.2-0.3,0.1-0.5,0-0.6
	c-0.2-0.3-0.6-0.4-0.8-0.3L5.1,118.4z M6.4,110.1L6.4,110.1L6.4,110.1c0.1,0,0.2,0,0.2,0c0.1,0,0.1,0,0.2,0c0.3-0.1,0.3-0.3,0.3-0.4
	c0-0.2-0.3-0.3-0.5-0.3c-0.1-0.1-0.2-0.1-0.3-0.1c-0.2,0-0.4,0.1-0.4,0.2c0,0.1,0,0.2,0.2,0.4l0.1,0C6.2,110,6.3,110.1,6.4,110.1z
	 M7.5,115.3c0,0.1,0.1,0.3,0.3,0.4c0,0,0.1,0,0.1,0.1c0.1,0.1,0.1,0.1,0.3,0.2c0.1,0,0.1,0,0.2,0c0.2,0,0.3-0.1,0.4-0.2
	c0-0.1,0.1-0.2,0-0.4l-0.1-0.2l-0.2,0c-0.1,0-0.2,0-0.3-0.1C8.1,115,8,115,7.9,115C7.7,115,7.5,115.1,7.5,115.3z M10.2,57.3
	c0.2-0.1,0.3-0.3,0.2-0.5c-0.1-0.1-0.4-0.1-0.5,0.1C9.7,57.2,10,57.4,10.2,57.3z M10.3,56.5c-0.1-0.3-0.4,0-0.4,0.1
	C10,56.6,10.3,56.7,10.3,56.5z M10.4,81.3c0.1,0,0.7-0.1,0.1-0.4C10.5,80.9,10.1,81.3,10.4,81.3z M10.4,28.9c0-0.2,0.2-0.8-0.3-0.7
	c0,0.2,0.1,0.8,0,0.9c-0.1,0.2-0.4,0.3-0.8,0.4c-0.2,0.1,0,0.4,0.2,0.2c0.3-0.3,0.5,0.4,0.9,0.1C10.7,29.5,10.5,29.2,10.4,28.9z
	 M9.8,1.7C10,2,10.1,1.5,10.2,1.3C10,1.2,9.7,1.5,9.8,1.7z M9.6,8C10,7.8,10,8.2,10,8.4c0.1-0.1,0.2-0.2,0.2-0.3
	c0.1-0.2,0-0.4-0.1-0.4C9.9,7.7,9.4,7.6,9.6,8z M9.4,26.2c-0.7-0.1-1.1-0.5-1.7-0.6c-0.2,0,0.2,0.5,0.3,0.8c-0.3,0-0.4,0.2-0.1,0.3
	c0.4,0.1,0.6-0.3,1-0.3c-0.1,0.1-0.4,0.3-0.3,0.3c0.3,0.2,0.5,0,0.5-0.3C9.1,26.4,9.2,26.2,9.4,26.2z M7.5,7.7
	c0,0.1,0.1,0.2,0.1,0.2C7.9,7.5,7.3,7.2,7.5,7.7z M8.3,4.2C8.2,4.2,7.2,4,7.9,4.4C8,4.4,8.6,4.5,8.3,4.2z M7.9,22.3
	c0.2,0,0.6,0.1,0.5-0.1c-0.1-0.2-0.3-0.5-0.5-0.5V22.3z M9.2,5c0,0,0.1-0.1,0.1-0.2C9.5,4.5,9,4.5,8.9,4.8C8.9,5,8.9,5.2,9.2,5z
	 M8.3,11.1c0,0.1,0.1,0.5-0.1,0.4C8,11.3,7.9,11.4,8,11.6h0.6c0-0.1,0.2-0.3,0.3-0.5C8.8,11,8.5,11.1,8.3,11.1z M7.4,1.2
	c0,0.1,0.2,0.4,0.3,0.2C8,1.2,8.4,1.6,8.4,1.2C8,1.2,7.8,1,7.5,0.8C7.4,0.7,7.4,1.1,7.4,1.2z M7.3,27.1c0,0.1,0,0.4,0,0.5
	c0,0.3,0.5,0.3,0.5,0.2c0-0.1-0.2-0.3-0.1-0.4C7.8,27.1,7.5,27,7.3,27.1z M7.2,29.8c-0.2,0.2-0.1,0.8,0.2,0.4
	C7.6,30,7.3,29.7,7.2,29.8z M6.8,13.2c-0.2,0.1,0.1,0.6,0.3,0.2c0,0,0.1-0.1,0.1-0.2C7.2,13,6.8,13.1,6.8,13.2z M6.5,11.1
	c-0.2,0.1,0.2,0.5,0.4,0.4c0.4-0.1,0-0.5,0.1-0.9C6.8,10.7,6.8,11,6.5,11.1z M5.6,10.8c0.2,0.2,0.6-0.1,0.9,0
	c-0.2-0.1-0.1-0.5-0.3-0.6C6,10.5,5.7,10.5,5.6,10.8z M5,13.1c0.1,0.2,0.4,0.3,0.5,0.3c0.2-0.1,0.4-0.2,0.4-0.6
	C5.6,12.8,5.1,13.3,5,13.1z M4.9,31.8C4.7,32,5,32.2,5.2,32.1c0.2-0.1,0.3-0.3,0.2-0.5C5.3,31.5,5,31.6,4.9,31.8z M4.5,31.3
	c0.2,0.2,0.5,0,0.3-0.3C4.6,30.9,4.3,31.2,4.5,31.3z M4.2,61.6c-0.1,0.2,0.2,0.4,0.4,0.4c-0.1-0.2-0.2-0.4,0.1-0.5
	C4.9,60.8,4.2,61.5,4.2,61.6z M4.2,71.7c0.3,0.1,0.4-0.1,0.5-0.3C4.4,71.3,4.2,71.6,4.2,71.7z M3.6,72.9c-0.1-0.1-0.3-0.1-0.4-0.1
	c0,0.2-0.1,0.4,0.1,0.5C3.8,73.5,3.4,73,3.6,72.9z M2.3,71.1L3,71.1c0-0.2-0.2-0.3-0.5-0.4C2.3,70.6,2.5,71,2.3,71.1z M2.7,69.8
	c0.1-0.1,0.3-0.3,0.3-0.5c-0.2-0.1-0.4,0-0.5,0.2C2.3,69.7,2.4,70,2.7,69.8z M3.4,60.3c-0.1-0.2-0.5-0.3-0.5-0.1
	C2.9,60.6,3.5,60.6,3.4,60.3z M3.3,61.1c0,0,0.1-0.1,0.1-0.2c0.2-0.5-0.3-0.2-0.3-0.1C3,61.1,3.1,61.3,3.3,61.1z M3.6,63.5
	c0.4-0.3-0.2-0.3-0.2-0.4v0.6C3.6,63.9,3.7,63.6,3.6,63.5z M4,70.8l-0.7-0.1c0,0.3-0.2,1.2,0.2,0.8C3.8,71.3,3.9,71,4,70.8z
	 M3.5,65.9c0,0.2,0.2,0,0.3,0c0,0,0.1-0.1,0.2-0.1C3.9,65.5,3.5,65.8,3.5,65.9z M3.1,57c-0.2-0.3-0.6-0.4-0.9-0.3
	c0.1,0.3-0.1,0.8,0.1,1c0.4,0.6,1,1,1.2,2.1C3.9,58.8,3.6,57.6,3.1,57z M0.5,79.6c0.1,0.2,0.3,0.5,0.5,0.5c0.2,0,0.2-0.3,0.2-0.5
	H0.5z M0.7,67.5c0,0,0.1-0.1,0.1-0.2c0.1-0.2-0.1-0.3-0.3-0.2C0.2,67.3,0.5,67.6,0.7,67.5z M1,120.5L1,120.5
	c0.1,0.2,0.2,0.2,0.4,0.2c0.1,0,0.3,0,0.4-0.1c0.1-0.1,0.2-0.3,0.1-0.5c-0.1-0.2-0.2-0.3-0.4-0.3c-0.1,0-0.3,0-0.4,0.3
	c0,0-0.1,0.1-0.1,0.2L1,120.5z M1.9,79.4c0.2-0.2-0.2-0.6-0.4-0.6c-0.2-0.1-0.4-0.3-0.3-0.5c-0.3,0.2-0.6-0.4-0.5,0
	c0.1,0.2,0.2,0.5,0.2,0.7c0.2,0,0.4,0,0.6-0.1C1.4,79.1,1.6,79.2,1.9,79.4z M0.9,75.5c0.5,0.3,0.2-0.4,0.2-0.6c-0.1,0-0.1,0-0.2,0.1
	C0.7,75.1,0.7,75.4,0.9,75.5z M2,59.5c0.1-0.3,0-0.6-0.4-0.4c0,0.2,0,0.6,0,0.8C1.7,59.8,1.9,59.5,2,59.5z M2.4,34.3
	c0.2-0.1,0.1-0.4,0.1-0.6c-0.2,0.2-0.6,0.4-0.7,0.7C2,34.4,2.2,34.4,2.4,34.3z M2,33.5c0.2,0,0.6,0,0.7,0c-0.3-0.2-0.3-0.6-0.6-0.7
	C2.1,33.1,2.2,33.4,2,33.5z M3.3,25.8l0,0.5c-0.1,0-0.3-0.3-0.2,0c0,0.1,0.2,0.1,0.2,0C3.5,26.2,3.5,26,3.3,25.8
	c0.1-0.2,0.3-0.4,0.2-0.7c-0.1-0.3-0.4,0.2-0.3,0.3C3.2,25.6,3.3,25.8,3.3,25.8z M2.8,32.7c-0.1,0.1,0.2,0.2,0.3,0.4
	c-0.3,0-0.1,0.6,0.1,0.2c0-0.1,0.1-0.3,0.1-0.4C3.3,32.7,3,32.5,2.8,32.7z M2.4,25.3v0.6c0.2-0.1,0.4-0.3,0.7-0.3
	C3,25.3,2.6,25.3,2.4,25.3z M2.7,15.9c0.2-0.1,0.5-0.5,0.3-0.6C2.7,15.3,2.6,15.8,2.7,15.9z M2.6,22.8c-0.1-0.2-0.4-0.5-0.5-0.3
	C2.1,22.8,2.5,22.9,2.6,22.8z M3.3,4c0.5,0.3,0.2-0.3,0.2-0.5H3.2C3.2,3.6,3.2,3.8,3.3,4z M2.9,5.8C2.8,6,3.1,6.6,3.3,6.2
	C3.4,6,2.9,5.7,2.9,5.8z M2.8,11.7c0.2,0.2,0.5,0.2,0.5-0.1c-0.3,0.1-0.5-0.2-0.7-0.2c0,0-0.1,0.1-0.1,0.1
	C2.2,11.7,2.6,11.8,2.8,11.7z M1.8,8.3c0,0,0.8,0.1,0.3-0.2c0,0-0.2-0.1-0.4-0.2C1.6,7.9,1.7,8.2,1.8,8.3z M1.6,23.1
	c0,0,0.1,0,0.1,0c0.3-0.1,0-0.4-0.1-0.4C1.5,22.7,1.6,23,1.6,23.1z M1.3,68.1L1.2,68c-0.2,0.1-0.5,0-0.6,0.3c0.2-0.1,0.9,0,1,0.2
	C1.6,68.3,1.7,67.9,1.3,68.1z M1.2,32.7c0.1-0.3-0.1-0.5-0.4-0.4c0,0.1,0.2,0.4,0.3,0.5C1.1,33.2,1.4,32.8,1.2,32.7z M0.5,27.4
	c0.2-0.2,0.4-0.4,0.6-0.3c0-0.3,0.2-0.7-0.2-0.8C1.1,26.6,0.3,26.9,0.5,27.4z M0.6,28.9C0.6,29,0.8,29,1,29.1
	c0.3,0.1,0.2-0.2,0.2-0.3c-0.1-0.1-0.3-0.1-0.4-0.2C0.4,28.4,0.5,28.7,0.6,28.9z M0.1,38.1c0.1,0,0.3,0.1,0.4,0.2
	c0.3,0.1,0.6-0.1,0.8-0.3c0.3-0.3-0.3-0.5-0.5-0.5C0.4,37.5,0.2,37.8,0.1,38.1z M0.5,60.2c0.1-0.4-0.4-0.7-0.4-0.4
	C0.1,60,0.5,60.4,0.5,60.2z M1.1,123.3l0.5-0.8L0.9,123l0,0c-0.1,0-0.3-0.1-0.4,0c0,0-0.1,0.1-0.2,0.2l-0.1,0.1l0.1,0.1
	c0.1,0.1,0.2,0.2,0.4,0.2C0.8,123.7,1,123.4,1.1,123.3z M1.1,127.5c0.1,0,0.3-0.1,0.3-0.2l0.1-0.1l-0.4-0.4l-0.1,0.1
	c-0.2,0.1-0.2,0.2-0.2,0.4C0.8,127.3,1,127.5,1.1,127.5z M2,128.1L1.9,128l-0.2,0c0,0-0.1,0-0.1,0c-0.1,0-0.2,0-0.3,0
	c-0.2,0-0.3,0.1-0.3,0.2c-0.1,0.2,0,0.4,0,0.4l0.1,0.2l0.2,0c0,0,0.1,0,0.1,0c0.1,0,0.2,0,0.3,0c0.2,0,0.3-0.1,0.3-0.2
	C2.1,128.4,2,128.2,2,128.1z M2.1,123.4l-0.1-0.2l-0.2,0c0,0-0.1,0-0.1,0c-0.1,0-0.2,0-0.3,0c-0.2,0-0.3,0.1-0.3,0.2
	c-0.1,0.2,0,0.4,0,0.4l0.1,0.2l0.2,0c0,0,0.1,0,0.1,0c0.1,0,0.2,0,0.3,0c0.2,0,0.3-0.1,0.3-0.2C2.3,123.6,2.2,123.4,2.1,123.4z
	 M2.3,114.2c-0.1-0.1-0.2-0.3-0.5-0.3l-0.1,0L1.6,114c-0.1,0.2,0,0.6,0,0.6c0.1,0.2,0.3,0.4,0.5,0.4l0.2,0l0-0.1
	C2.4,114.6,2.4,114.4,2.3,114.2z M3,128.3c0.3,0,0.5-0.3,0.6-0.5l0.1-0.2l-0.1-0.1c-0.1-0.1-0.2-0.1-0.3-0.1c-0.2,0-0.4,0.1-0.5,0.3
	c0,0.1-0.2,0.3,0,0.5C2.8,128.3,2.9,128.3,3,128.3z M4,130.7c-0.1-0.1-0.3-0.3-0.5-0.3c-0.1,0-0.2,0.1-0.3,0.1
	c-0.2,0.3,0,0.5,0.1,0.6l0,0.1c0.1,0.1,0.3,0.2,0.4,0.2c0.2,0,0.3-0.1,0.4-0.2C4.1,131.1,4.1,130.9,4,130.7z M4.1,111.9
	C4.1,111.9,4.1,111.9,4.1,111.9c0.2,0,0.4,0,0.5-0.4c0.1-0.2,0-0.3-0.1-0.5c-0.1-0.1-0.2-0.2-0.3-0.2c-0.1,0-0.3,0-0.4,0.4
	c-0.1,0.2,0,0.3,0.1,0.5c0,0,0.1,0.1,0.1,0.1c0,0,0,0-0.1,0c-0.1,0-0.3,0-0.4,0c-0.2,0-0.4,0-0.5,0.2c0,0.1-0.1,0.2,0,0.3
	c0.1,0.2,0.2,0.3,0.4,0.3l0.1,0c0.2,0,0.4-0.1,0.6-0.2c0.1,0,0.1-0.1,0.2-0.1L4.1,111.9z M4.5,126.5l0.2,0c0,0,0.1,0,0.1,0
	c0.1,0,0.2,0,0.3,0c0.2,0,0.3-0.1,0.3-0.2c0.1-0.2,0-0.4,0-0.4l-0.1-0.2l-0.2,0c0,0-0.1,0-0.1,0c-0.1,0-0.2,0-0.3,0
	c-0.2,0-0.3,0.1-0.3,0.2c-0.1,0.2,0,0.4,0,0.4L4.5,126.5z M5.9,129l-0.3-0.3l0-0.1l-0.2,0c0,0-0.1,0-0.1,0c-0.1,0-0.3,0-0.4,0
	c-0.2,0-0.3,0.1-0.4,0.2c-0.1,0.2,0.1,0.4,0.2,0.5l0.1,0.1l0.2-0.1c0.1,0,0.2,0,0.3,0c0.2,0,0.4,0,0.5-0.1L5.9,129z M7.1,123
	c-0.1-0.2-0.3-0.4-0.6-0.4c-0.1,0-0.3,0-0.4,0.2L6,123l0.1,0.1c0,0,0,0.1,0,0.1l-0.3,0.2l0.4,0.1c0.1,0,0.1,0,0.2,0
	c0.2,0,0.5-0.1,0.6-0.3C7.1,123.3,7.1,123.2,7.1,123z M8.2,117.9c0.1,0.1,0.3,0,0.4-0.2c0-0.1,0-0.4-0.2-0.5c-0.1,0-0.1-0.1-0.2-0.1
	l0-0.1l0,0c-0.2,0-0.4,0-0.6,0.1c-0.2,0.1-0.4,0.3-0.5,0.5L7,118.1l0.3,0.1c0.1,0,0.2,0,0.3,0C7.8,118.1,8,118.1,8.2,117.9z
	 M9.8,128.9l1,0.7l-0.9-1c0-0.1,0-0.2-0.1-0.3c-0.1-0.1-0.2-0.2-0.3-0.2c-0.1-0.1-0.2-0.1-0.3-0.1c-0.3,0-0.5,0.3-0.6,0.5l0,0.1
	c-0.2,0-0.3,0.1-0.4,0.2c0,0.1-0.1,0.3,0.1,0.4c0.1,0.1,0.2,0.2,0.4,0.2l0.1,0l0.2,0l0.1-0.1c0-0.1,0-0.2,0-0.3
	c0.1,0.1,0.3,0.2,0.4,0.2C9.6,129.1,9.7,129,9.8,128.9z M11,132.3l-0.1-0.4c0-0.1,0-0.2,0.1-0.3c0.1-0.2,0.2-0.5-0.1-0.6
	c-0.1,0-0.1-0.1-0.2-0.1c-0.3,0-0.3,0.3-0.3,0.5c0,0,0,0.1,0,0.1c0,0.2,0,0.4,0.1,0.5c0.1,0.1,0.2,0.2,0.3,0.2L11,132.3z
	 M12.1,130.2l0.2-0.1l0-0.1c0-0.2-0.1-0.3-0.3-0.5c-0.1,0-0.1-0.1-0.2-0.1l-0.1-0.2l-0.2,0.1c-0.2,0.1-0.3,0.3-0.2,0.5
	c0.1,0.2,0.3,0.4,0.6,0.4C12,130.2,12.1,130.2,12.1,130.2z M11.9,126.4c-0.2,0-0.3,0.1-0.3,0.2c-0.1,0.2,0,0.4,0,0.4l0.1,0.2l0.2,0
	c0,0,0.1,0,0.1,0c0.1,0,0.2,0,0.3,0c0.2,0,0.3-0.1,0.3-0.2c0.1-0.2,0-0.4,0-0.4l-0.1-0.2l-0.2,0c0,0-0.1,0-0.1,0
	C12.1,126.5,12,126.4,11.9,126.4z M12.1,123.6c0.1,0.1,0.2,0.2,0.4,0.2l0.1,0l0.2,0l0.1-0.1c0.1-0.2,0-0.5-0.1-0.6
	c-0.1-0.1-0.3-0.1-0.3-0.1c-0.2,0-0.3,0.1-0.4,0.2C11.9,123.3,11.9,123.4,12.1,123.6z M13.2,130.8C13.2,130.8,13.3,130.8,13.2,130.8
	l0.4,0l-0.2-0.7c0.1-0.1,0.2-0.2,0.2-0.3c0-0.2-0.3-0.4-0.6-0.2c-0.1,0-0.1,0.1-0.2,0.1l0,0l0,0c-0.1,0.1-0.3,0.3-0.3,0.4
	c0,0.1-0.1,0.3,0,0.5c0,0.1,0.1,0.1,0.2,0.1l0,0c0,0.1,0,0.2,0,0.3c0,0.1,0,0.2,0,0.3c-0.2,0.1-0.3,0.3-0.3,0.5c0,0,0,0,0,0
	l-0.2,0.4l0.3-0.2c0.1,0.1,0.2,0.2,0.4,0.2l0.1,0c0.2,0,0.2-0.1,0.3-0.2c0.1-0.2,0-0.3-0.1-0.4c0,0,0,0,0,0c0.1-0.2,0.2-0.4,0.2-0.6
	C13.4,131.1,13.3,130.9,13.2,130.8z M14.8,124.3c-0.1-0.3-0.6-0.3-0.7,0.1c-0.1,0.2,0,0.3,0.1,0.5c0.1,0.1,0.2,0.1,0.3,0.1
	c0.1,0,0.2,0,0.3-0.1C14.9,124.6,14.8,124.3,14.8,124.3z M15.7,128.7l-0.1-0.3c0,0,0-0.1,0-0.1c0-0.2,0.1-0.4-0.1-0.6
	c-0.1-0.1-0.3-0.2-0.5-0.1l-0.1,0.1v0.9L15.7,128.7z M17.7,128.5c0-0.1,0-0.3-0.1-0.4c-0.1-0.1-0.2-0.2-0.3-0.3l0-0.2l-0.3,0.1
	l-0.1,0l0.1,0.4c0,0,0,0.1,0,0.1c0,0,0,0,0,0c0,0,0,0,0,0l-0.2,0l0,0.2c0,0.2-0.1,0.4,0,0.5c0.1,0.1,0.1,0.1,0.2,0.1
	C17.3,129.1,17.6,128.7,17.7,128.5z M17.8,124.6c0.3,0,0.5-0.2,0.6-0.5c0-0.1,0-0.2-0.1-0.3l-0.1-0.1H18c-0.1,0-0.2,0.1-0.3,0.1
	l-0.1,0c-0.1,0-0.1,0.1-0.2,0.2l-0.1,0.1l0.1,0.2C17.5,124.5,17.6,124.6,17.8,124.6z M18.5,126.2l-0.1-0.1c-0.2-0.1-0.4-0.1-0.5,0.1
	c0,0.1-0.1,0.2-0.1,0.3c-0.1,0.1-0.1,0.2-0.1,0.3c0,0.2,0.3,0.3,0.4,0.3c0,0,0,0,0.1,0l0.4,0.3V126.2z M20.2,130.1l-0.2-0.3
	l-0.2,0.3c-0.2,0.2-0.3,0.3-0.4,0.4c-0.1,0.2-0.1,0.4,0,0.6c0.1,0.1,0.2,0.2,0.4,0.2c0.1,0,0.2,0,0.3-0.1l0.1-0.1l0-0.1
	c0-0.1,0-0.1,0-0.2C20.3,130.6,20.3,130.3,20.2,130.1z M20.7,123.1c0.1,0.1,0.2,0.2,0.3,0.2c0.1,0,0.2,0,0.3-0.1
	c0.2-0.1,0.3-0.4,0.2-0.5c-0.1-0.2-0.2-0.3-0.4-0.3c-0.1,0-0.1,0-0.2,0c-0.1,0.1-0.2,0.3-0.2,0.3C20.6,122.8,20.6,123,20.7,123.1z
	 M21.7,130.3c0-0.2-0.1-0.4-0.3-0.6c-0.2-0.3-0.5-0.2-0.6,0.1c0,0.2,0,0.4,0.1,0.6c0.1,0.1,0.3,0.2,0.4,0.2
	C21.6,130.6,21.7,130.5,21.7,130.3z M24.5,125.9c-0.1-0.1-0.3-0.1-0.3-0.1c-0.2,0-0.3,0.1-0.4,0.2c0,0.1-0.1,0.3,0.1,0.4
	c0.1,0.1,0.2,0.2,0.4,0.2l0.1,0l0.2,0l0.1-0.1C24.7,126.4,24.6,126,24.5,125.9z M24.7,123.6c0.2,0,0.3-0.2,0.4-0.3
	c0.1-0.1,0.1-0.1,0.1-0.1l0.2-0.1l-0.1-0.2c-0.2-0.2-0.5-0.4-0.8-0.3l-0.2,0v1L24.7,123.6z M26,130c-0.1-0.1-0.2-0.1-0.3-0.1
	c-0.2,0-0.4,0.1-0.5,0.3c-0.1,0.1-0.1,0.2-0.1,0.3l0,0.1l0.1,0c0.1,0.1,0.3,0.1,0.4,0.1c0.2,0,0.4-0.1,0.5-0.2
	C26.2,130.4,26.2,130.2,26,130z M26.6,129.4c0.1-0.2-0.1-0.5-0.2-0.6c-0.1-0.1-0.2-0.2-0.3-0.2c-0.1,0-0.2,0.1-0.3,0.2
	c-0.1,0.2,0.1,0.5,0.2,0.6c0.1,0.1,0.2,0.2,0.3,0.2C26.4,129.7,26.5,129.6,26.6,129.4z M27.1,128.1c0.1,0,0.2,0,0.2,0l0.3,0.1v-0.5
	l0.3-0.1l-0.3-0.2v-0.6l-0.2,0c-0.2,0-0.4,0.1-0.4,0.3c0,0,0,0.1,0,0.1c0,0-0.1,0-0.1,0c-0.1,0-0.4,0-0.5,0.2
	c-0.1,0.1,0,0.3,0.1,0.4C26.7,128.1,26.9,128.1,27.1,128.1z M29.5,128.8l-0.2-0.1c-0.1,0-0.2-0.1-0.4-0.1c-0.2,0-0.3,0.1-0.4,0.1
	c-0.1-0.1-0.2-0.2-0.3-0.3c0,0-0.1,0-0.1,0c-0.3,0-0.4,0.3-0.5,0.4c0,0.1,0,0.2,0,0.3c-0.3-0.1-0.6,0-0.7,0.3c0,0.1,0,0.3,0.1,0.3
	c0.1,0.1,0.2,0.2,0.4,0.2c0.3,0,0.5-0.2,0.5-0.5c0,0,0-0.1,0-0.1c0.1,0.1,0.3,0.1,0.4,0.1c0.1,0,0.2-0.1,0.2-0.2c0,0,0,0,0,0
	c0,0.1,0.1,0.2,0.3,0.2l0.1,0c0.2-0.1,0.4-0.3,0.5-0.5L29.5,128.8z M41.1,125.5c0.1-0.1,0.1-0.2,0-0.4c-0.1-0.2-0.6-0.3-0.8-0.1
	c-0.1,0.1-0.1,0.2-0.1,0.3c0.1,0.4,0.3,0.4,0.4,0.4C40.9,125.9,41.1,125.7,41.1,125.5z M44.8,127.3l0.2-0.2l-0.2-0.2
	c-0.1-0.1-0.4-0.1-0.5-0.1c-0.1,0-0.2,0-0.3,0.1l-0.1,0.1l0,0.1c0,0.1,0,0.1,0.1,0.2c0.1,0.3,0.2,0.6,0.5,0.6l0.1,0
	c0.1,0,0.2-0.1,0.3-0.2C45.1,127.6,45,127.5,44.8,127.3C44.9,127.4,44.9,127.4,44.8,127.3z M47,128.5l0-0.2h-0.2c0,0-0.1,0-0.1,0
	c-0.2,0-0.4,0-0.5,0.1c0,0-0.1,0.1,0,0.3c0.1,0.3,0.3,0.3,0.4,0.3c0.2,0,0.3-0.1,0.3-0.2C46.9,128.7,47,128.6,47,128.5z M54.2,125.7
	c-0.1-0.1-0.3-0.2-0.3-0.2c-0.2,0-0.3,0.1-0.4,0.3c-0.1,0.2,0,0.4,0.1,0.5l0.1,0.1h0.1c0.2,0,0.4-0.2,0.5-0.3
	C54.3,125.9,54.3,125.8,54.2,125.7z M58.6,129c0-0.2,0-0.3-0.1-0.4c-0.1,0-0.2-0.1-0.4-0.1c-0.3,0-0.4,0.1-0.4,0.2
	c-0.1,0.2,0.2,0.4,0.2,0.5c0,0,0.1,0.1,0.2,0.1c0,0,0.1,0,0.2,0C58.4,129.3,58.6,129.1,58.6,129z M59.4,127c0.1,0.1,0.2,0.2,0.3,0.2
	c0.1,0,0.3-0.1,0.3-0.3c0-0.1,0-0.3,0-0.4c-0.1-0.2-0.4-0.2-0.6,0C59.3,126.7,59.4,126.9,59.4,127z M60.6,130.6c0-0.1,0-0.2-0.1-0.3
	l-0.1-0.1h-0.1c-0.1,0-0.2,0.1-0.3,0.1l-0.1,0c-0.1,0-0.1,0.1-0.2,0.2l-0.1,0.1l0.1,0.2c0.1,0.1,0.2,0.2,0.4,0.2
	C60.3,131.1,60.6,130.9,60.6,130.6z M63.2,128.9c-0.1-0.2-0.3-0.2-0.6-0.1c-0.1,0-0.4,0.2-0.5,0.5l-0.2,0.3h1.2l0.1-0.1
	C63.2,129.3,63.3,129.1,63.2,128.9z M65.5,131.9c-0.1-0.3-0.4-0.4-0.7-0.5l-0.3-0.1l0,0.9l0.1,0.1c0,0,0.1,0.1,0.1,0.1
	c0.1,0.1,0.3,0.2,0.5,0.2l0.1,0l0.1-0.1C65.6,132.2,65.6,132,65.5,131.9z M65,125.5l0.1-0.1c0.2-0.1,0.2-0.2,0.2-0.4
	c0-0.2-0.2-0.3-0.4-0.3c-0.1,0-0.3,0.1-0.3,0.2l-0.1,0.1L65,125.5z M65.6,128.8c0-0.1-0.1-0.2-0.2-0.3l-0.2-0.2l-0.2,0.2
	c-0.1,0.1-0.1,0.4-0.1,0.6c0,0,0,0.1,0,0.1l0,0.1l0.1,0.1c0.1,0,0.2,0.1,0.2,0.1c0.1,0,0.2-0.1,0.3-0.2
	C65.7,129.1,65.7,128.9,65.6,128.8z M73.5,128.3l-0.1-0.2l-0.2,0c0,0-0.1,0-0.1,0c-0.1,0-0.2,0-0.3,0c-0.2,0-0.3,0.1-0.3,0.2
	c-0.1,0.2,0,0.4,0,0.4l0.1,0.2l0.2,0c0,0,0.1,0,0.1,0c0.1,0,0.2,0,0.3,0c0.2,0,0.3-0.1,0.3-0.2C73.7,128.5,73.6,128.3,73.5,128.3z
	 M78.3,128.5c-0.1-0.1-0.3-0.1-0.3-0.1c-0.2,0-0.3,0.1-0.4,0.2c0,0.1-0.1,0.3,0.1,0.4c0.1,0.1,0.2,0.2,0.4,0.2l0.1,0l0.2,0l0.1-0.1
	C78.5,128.9,78.4,128.6,78.3,128.5z M81.6,129.1c-0.1-0.1-0.2-0.2-0.5-0.2c-0.1-0.1-0.3-0.2-0.5-0.2c-0.3,0-0.6,0.1-0.6,0.4
	c0,0.3,0.2,0.5,0.4,0.6l0.1,0.1c0.1,0.1,0.2,0.2,0.3,0.2c0.2,0,0.3-0.1,0.3-0.2c0.1,0.1,0.3,0,0.5-0.2
	C81.7,129.4,81.7,129.2,81.6,129.1z M87.5,128.6c-0.1-0.3-0.5-0.4-0.6-0.2c-0.2,0.2-0.4,0.4-0.3,0.6c0,0.1,0.1,0.2,0.4,0.2
	c0,0,0.3,0,0.4-0.1C87.5,129,87.5,128.8,87.5,128.6z M88.5,126.7h-1.2v1.2l0.3-0.2c0.1,0,0.1-0.1,0.2-0.1c0.2-0.1,0.6-0.2,0.6-0.6
	L88.5,126.7z M89.6,128.9c0-0.3-0.3-0.4-0.6-0.2c-0.1,0.1-0.4,0.2-0.5,0.6l0,0.2l0.1,0.1c0,0,0,0,0,0c0,0,0,0.1-0.1,0.1
	c0,0.1-0.1,0.3,0.1,0.4c0.1,0.1,0.2,0.2,0.4,0.2l0.1,0l0.2,0l0.1-0.1c0.1-0.2,0-0.5-0.1-0.6c0,0,0,0-0.1-0.1c0,0,0.1-0.1,0.1-0.1
	C89.5,129.3,89.6,129.1,89.6,128.9z M88.7,124.5c0,0.1,0.1,0.1,0.3,0.1c0.1,0,0.3,0,0.4-0.1c0.1-0.1,0.2-0.3,0.1-0.5
	c-0.1-0.2-0.2-0.3-0.4-0.3c-0.1,0-0.3,0-0.4,0.3c0,0-0.1,0.1-0.1,0.2L88.7,124.5L88.7,124.5z M90.5,125.9c-0.1-0.1-0.3-0.1-0.3-0.1
	c-0.2,0-0.3,0.1-0.4,0.2c0,0.1-0.1,0.3,0.1,0.4c0.1,0.1,0.2,0.2,0.4,0.2l0.1,0l0.2,0l0.1-0.1C90.7,126.4,90.6,126,90.5,125.9z
	 M92.7,131.9l-0.5-0.2c0,0-0.1,0-0.1-0.1c0-0.1,0-0.1,0-0.1l0.1-0.2l-0.2-0.1c-0.1-0.1-0.2-0.1-0.3-0.1c-0.2,0-0.4,0.1-0.4,0.2
	c0,0.1,0,0.2,0,0.3c-0.1,0.2,0,0.3,0,0.5c0.1,0.2,0.2,0.3,0.4,0.3l0.1,0c0.1,0,0.2-0.1,0.3-0.1L92.7,131.9z M94.9,130.7
	c0.1-0.1,0.2-0.3,0.2-0.5c0-0.1-0.1-0.3-0.4-0.4c-0.2,0-0.4,0-0.5,0.2c-0.1,0.1-0.1,0.3,0,0.5c0,0,0.1,0.1,0.1,0.2
	c-0.1,0-0.1,0.1-0.1,0.2c-0.1,0.2-0.1,0.4,0,0.5c0.1,0.1,0.2,0.2,0.4,0.2c0.1,0,0.2,0,0.3-0.1c0.1-0.1,0.2-0.3,0.1-0.5
	C95,130.8,95,130.8,94.9,130.7z M95.9,127.5c0-0.2-0.1-0.4-0.2-0.5c0,0-0.1-0.1-0.1-0.1l-0.1-0.2l-0.1,0.1c0,0,0,0,0-0.1l0.1-0.3
	h-1.1l-0.1-0.1c0,0,0-0.1,0-0.1c0-0.1,0-0.2,0-0.3c0,0,0,0,0,0c0,0,0,0,0,0l0.1,0c0.2,0,0.3-0.1,0.4-0.3c0-0.2-0.1-0.5-0.4-0.6
	c0,0-0.1,0-0.2,0l-0.1,0l-0.1,0.1c-0.1,0.1-0.2,0.3-0.1,0.5c0,0,0,0.1,0,0.1c0,0,0,0,0,0c-0.1,0-0.2,0.1-0.3,0.2
	c-0.1,0.1-0.1,0.3,0,0.5c0.1,0.1,0.2,0.3,0.4,0.3l0.3,0.1c0,0,0,0,0,0c0,0.2-0.1,0.5,0.1,0.6c0.1,0.1,0.2,0.1,0.3,0.1
	c0,0.1,0.1,0.1,0.2,0.2l-0.1,0c-0.2,0-0.4,0-0.6,0.1l0,0c0,0,0-0.1,0-0.1c-0.1-0.1-0.1-0.3-0.1-0.4l0-0.2l-0.2-0.1
	c-0.1-0.1-0.3-0.1-0.4-0.1c0,0,0,0,0,0c-0.1-0.2-0.2-0.3-0.4-0.3c-0.1,0-0.3,0-0.4,0.3c0,0-0.1,0.1-0.1,0.3l0,0l-0.3-0.1l0.1,0.4
	c0,0.1,0.1,0.2,0.2,0.3c0.2,0.3,0.2,0.4,0.1,0.5l-0.2,0.3c-0.1,0-0.3,0.1-0.3,0.2c0,0.1,0,0.3,0.3,0.4c0,0,0.1,0.1,0.1,0.2
	c0,0.1,0.1,0.1,0.1,0.2l0,0.2l0.1-0.1c0,0,0,0,0,0c0.1,0.1,0.1,0.1,0.2,0.1c0.2,0,0.4-0.2,0.5-0.6c0-0.1,0-0.3-0.1-0.4c0,0,0,0,0,0
	c0.1,0,0.2,0,0.3,0c0.3,0,0.4-0.2,0.5-0.4c0,0,0-0.1,0-0.3h0.1c0,0.1,0,0.2,0.1,0.2c0.1,0.2,0.4,0.2,0.7,0.1l0.1-0.1l0-0.9
	c0,0,0,0,0,0c0.1,0,0.1-0.1,0.1,0l0.1,0.2l0.2-0.1C95.8,127.6,95.8,127.5,95.9,127.5z M93.7,124c-0.1,0-0.2,0-0.3,0
	c-0.1,0-0.3,0-0.4,0.2c0,0.1-0.1,0.2,0,0.3c0.1,0.2,0.3,0.3,0.5,0.3c0,0,0.1,0,0.1,0l0.1,0c0.2,0,0.4,0,0.6-0.2c0,0,0,0,0-0.1
	c0,0,0,0,0,0l0.1,0.1h0.1c0.1,0,0.1,0,0.2,0c0.3-0.2,0.2-0.5,0.2-0.7c0-0.1-0.1-0.2-0.1-0.2l0-0.3l-0.3,0c-0.1,0-0.1,0-0.2,0
	c0,0-0.1,0-0.2,0l-0.2-0.1l-0.2,0.1C93.8,123.6,93.6,123.8,93.7,124C93.7,124,93.7,124,93.7,124z M97.7,130.8
	c-0.1-0.2-0.3-0.2-0.6-0.1c0,0,0,0,0,0l-0.2,0c0-0.1,0-0.2-0.1-0.3c-0.1-0.1-0.3-0.2-0.5-0.1l-0.2,0.1l0.1,0.2c0,0,0.1,0.3,0.3,0.4
	c0,0,0,0,0,0.1c-0.1,0.1-0.1,0.2-0.1,0.4c0,0.2,0.3,0.4,0.5,0.4l0.2,0l0.1-0.1c0.1-0.1,0.1-0.2,0-0.4c0,0,0,0,0,0c0,0,0,0,0,0
	c0.1,0,0.2,0,0.2,0.1l0.2,0.2l0.1-0.3C97.8,131.2,97.8,131,97.7,130.8z M97.8,124.1c-0.2-0.2-0.6-0.1-0.7,0.2c0,0.1-0.1,0.3,0.2,0.5
	c0,0,0.1,0.1,0.1,0.1c-0.1,0-0.3,0-0.4,0c0,0-0.1,0-0.1,0l-0.4,0l0.2,0.3c0,0-0.1,0.1-0.1,0.1c-0.1,0.1-0.4,0.3-0.3,0.6
	c0,0.1,0,0.3,0,0.4c0.1,0.1,0.2,0.2,0.3,0.2c0.1,0,0.2,0,0.3-0.1c0.2-0.2,0.3-0.5,0.4-0.7c0-0.2,0.1-0.3,0.2-0.4l0.2-0.2l-0.2-0.2
	c0,0-0.1,0-0.1-0.1c0.2,0.1,0.5-0.1,0.6-0.2C98,124.5,98.1,124.4,97.8,124.1z M99,128.6c-0.1-0.2-0.3-0.3-0.5-0.3
	c-0.1,0-0.3,0.1-0.3,0.2c0,0.2,0,0.5,0.2,0.6c0.1,0.1,0.2,0.2,0.3,0.2c0.1,0,0.3,0,0.4-0.3C99.1,128.9,99.1,128.7,99,128.6z
	 M98.2,124.9c0.1,0.2,0.2,0.2,0.3,0.2c0.2,0,0.3-0.1,0.3-0.3c0-0.1,0-0.2,0-0.3c-0.1-0.1-0.2-0.3-0.3-0.3l-0.2,0l-0.1,0.1
	C98.1,124.4,98.1,124.7,98.2,124.9z M99.7,123.8C99.7,123.7,99.7,123.7,99.7,123.8c0-0.2,0.1-0.5,0-0.6c-0.1-0.1-0.3-0.2-0.5,0
	l-0.1,0.1v0.9h0.5c0,0.1,0,0.2,0,0.3c0,0,0.1,0.2,0.3,0.2c0.1,0,0.1,0,0.2,0c0.2-0.1,0.4-0.3,0.3-0.5c0-0.2-0.2-0.3-0.4-0.3l-0.1,0
	L99.7,123.8C99.7,123.7,99.7,123.7,99.7,123.8z M100.5,129.5c0-0.2-0.1-0.4-0.3-0.5c-0.1-0.1-0.3-0.1-0.4-0.1l0.1-0.2l-0.1-0.1
	c0,0,0,0,0,0c0,0,0,0,0,0c0.1,0,0.2,0,0.3-0.1l0.1-0.1l0-0.1c-0.1-0.2-0.3-0.4-0.6-0.4c-0.2,0-0.4,0.1-0.5,0.2
	c-0.1,0.2-0.1,0.4,0,0.6c0.1,0.1,0.3,0.3,0.4,0.3l0.1,0c-0.1,0-0.1,0.1-0.1,0.1c-0.1,0.2-0.1,0.4-0.1,0.6c0,0.1,0,0.1,0,0.2l0,0.2
	l0.2,0l0.1,0c0.1,0,0.2,0,0.3-0.1C100.4,129.9,100.5,129.7,100.5,129.5z M101.7,127.5c-0.1-0.1-0.2-0.2-0.3-0.2c0-0.1,0-0.2-0.1-0.3
	c0,0-0.1-0.1-0.1-0.1l0.2,0l-0.4-0.4c0,0-0.1-0.1-0.1-0.1c-0.2-0.2-0.3-0.3-0.4-0.4l-0.1,0c-0.3,0-0.3,0.3-0.3,0.5c0,0,0,0.1,0,0.1
	c0,0-0.1,0.3,0,0.5c0.1,0.2,0.4,0.1,0.6,0c0,0,0.1,0,0.1-0.1l0.1,0.3c0.1,0.3,0,0.6-0.2,0.9c-0.1,0.1-0.1,0.2-0.2,0.3l-0.1,0.1
	l0.6,0.6l0.1-0.4c0-0.2,0.2-0.3,0.3-0.4c0.1-0.1,0.2-0.1,0.2-0.2C101.7,127.9,101.7,127.7,101.7,127.5z M100.9,126.4
	c0.1,0.1,0.2,0.3,0.4,0.3l0.1,0l0.1-0.1c0.1-0.1,0.1-0.2,0.1-0.3c0-0.2-0.1-0.5-0.3-0.5l-0.1,0l-0.1,0.1
	C100.9,126,100.8,126.2,100.9,126.4z M102.8,130.3c0-0.2-0.2-0.4-0.5-0.4c-0.1,0-0.2,0-0.4,0.3l0.2,0.1l-0.2,0c0,0,0,0,0,0l0,0.2h0
	c0.1,0.2,0.3,0.3,0.5,0.3c0.1,0,0.2,0,0.3-0.1C102.9,130.6,102.9,130.4,102.8,130.3z M103.6,127.8c0-0.1,0.1-0.3,0.1-0.5
	c0,0,0,0,0-0.1c0.1,0.1,0.1,0.1,0.2,0.2c0.1,0.1,0.1,0.2,0.2,0.3l0.2,0.1l0.2-0.1c0.1,0,0.1-0.1,0.2-0.1c0.2-0.1,0.4-0.3,0.5-0.5
	l0-0.3l-0.3,0l-0.2,0c-0.3,0-0.5,0-0.7,0c0-0.2,0-0.4-0.1-0.6c-0.1-0.1-0.2-0.2-0.3-0.2c-0.3,0-0.4,0.3-0.4,0.4c0,0.1,0,0.1,0,0.2
	l-0.2,0l-0.7,0l0.4,0.4c0.2,0.2,0.2,0.6,0.1,1c0,0.1,0,0.2,0,0.3l0,0.3l0.3,0c0.1,0,0.3,0,0.4-0.2c0.1-0.1,0.1-0.2,0-0.3
	c0,0,0,0,0,0l0.2,0L103.6,127.8z M104.7,128.9C104.7,128.9,104.7,128.9,104.7,128.9c0.1-0.1,0.1-0.1,0.2-0.2
	c0.1-0.1,0.1-0.2,0.1-0.2c0.1,0,0.1,0,0.1,0c0.4,0,0.5-0.8,0.5-0.8l-0.2,0l0-0.2l-0.1,0c-0.3,0-0.7,0.1-0.7,0.4c0,0.1,0,0.1,0.1,0.2
	c-0.1,0-0.3,0-0.4,0.1c-0.1,0.1-0.2,0.1-0.2,0.1c0,0-0.1,0-0.1,0l-0.2,0.1l0.1,0.2c0,0,0,0.1,0,0.1c0,0.3,0.1,0.4,0.3,0.5
	c0,0,0,0.1,0,0.1c-0.1-0.1-0.2-0.2-0.4-0.2c0-0.1,0-0.2-0.1-0.3c-0.1-0.2-0.3-0.2-0.5-0.1c-0.2,0.1-0.3,0.3-0.3,0.5
	c0,0.1,0.1,0.2,0.2,0.3c0,0.1,0.1,0.1,0.1,0.2l0,0.1l0.1,0c0.1,0.1,0.4,0.1,0.6,0.1c0.1,0,0.1,0,0.2,0h0l0.1,0l0.1-0.1
	c0,0,0-0.1,0.1-0.1c0.1,0.2,0.2,0.4,0.4,0.5l0.1,0.1l0.1-0.1c0.2-0.1,0.2-0.3,0.2-0.5c0,0,0,0,0,0c0.1-0.1,0.1-0.2,0.1-0.4
	C105,129.1,104.9,128.9,104.7,128.9z M106.1,125.8C106.1,125.8,106.1,125.8,106.1,125.8l0.2-0.2l-0.2-0.2c-0.3-0.2-0.5-0.2-0.6-0.1
	c-0.2,0.2,0,0.7,0,0.8c0.1,0.2,0.2,0.4,0.5,0.4c0.1,0,0.1,0,0.2-0.1c0.2-0.1,0.2-0.2,0.2-0.3c0-0.2-0.1-0.3-0.2-0.3
	C106.2,125.8,106.1,125.8,106.1,125.8z M109.5,127.7C109.5,127.7,109.5,127.7,109.5,127.7c0.1-0.2,0.2-0.4,0.2-0.5l-0.1-0.1h-0.1
	c-0.1,0-0.1,0-0.3,0.1c-0.2,0.1-0.4,0.3-0.4,0.4c-0.1-0.1-0.2-0.2-0.3-0.2c-0.1,0-0.1,0-0.2,0c-0.1-0.1-0.1-0.1-0.2-0.1
	c-0.2,0-0.2,0.1-0.3,0.2l-0.1-0.2l-0.1,0.1c0-0.1,0-0.3,0-0.4c-0.1-0.1-0.2-0.2-0.3-0.2c-0.2,0-0.3,0.1-0.4,0.3
	c-0.1,0.1-0.1,0.3,0,0.5c0.1,0.1,0.2,0.2,0.3,0.3c0,0,0,0.1-0.1,0.1l0,0.1c-0.1,0.1-0.2,0.2-0.2,0.4c-0.1-0.2-0.3-0.4-0.6-0.4
	c0,0,0,0,0,0l-0.2,0l0,0.3c0,0.2,0,0.4,0,0.6c-0.1,0-0.3,0-0.4,0.1c-0.1,0-0.1,0-0.2,0l-0.2,0l0,0.2c0,0.4,0.3,0.4,0.4,0.4
	c0.1,0,0.2,0,0.2-0.1h0c0,0,0,0,0,0l0,0.2l0.2,0c0,0.1-0.1,0.1-0.1,0.2c0,0.1,0,0.3,0,0.4c0.1,0.2,0.4,0.1,0.5,0.2l0.1,0.2l0.2-0.2
	c0.2-0.1,0.2-0.5,0.1-0.7c0-0.1,0-0.3-0.1-0.4c-0.1-0.1-0.2-0.2-0.3-0.2c0-0.1,0-0.1,0-0.2c0.1,0,0.1,0,0.2,0l0.3,0l0-0.3
	c0-0.1,0-0.1,0-0.2c0.1,0.1,0.2,0.1,0.4,0.1l0,0c0.2,0,0.3-0.1,0.4-0.2c0.1-0.1,0.1-0.3,0.1-0.4h0.8l0.1-0.1c0-0.1,0.1-0.1,0.1-0.2
	C109,128.1,109.3,128,109.5,127.7z M106.6,123.9c0.1,0.4,0.1,0.4,0.2,0.5c0,0,0.1,0.1,0.1,0.1c0.1,0.1,0.2,0.2,0.4,0.2l0.2,0
	l0.1-0.1c0.2-0.2,0.1-0.4,0.1-0.5c-0.1-0.3-0.6-0.5-0.7-0.5l-0.4-0.1L106.6,123.9z M109.2,126.1L109.2,126.1L109.2,126.1
	c0-0.1,0-0.1-0.1-0.1c-0.1-0.2-0.3-0.2-0.4-0.2c-0.3,0-0.4,0.1-0.4,0.2c-0.1,0.1,0,0.3,0.2,0.5c0.1,0.1,0.2,0.2,0.3,0.2
	C109.1,126.7,109.2,126.4,109.2,126.1C109.2,126.1,109.2,126.1,109.2,126.1z M110.4,128.9l-0.2-0.2h-0.1c0,0-0.1,0-0.2,0
	c-0.1,0-0.1,0-0.2,0l-0.2,0v1.1l0.2,0c0,0,0.1,0,0.1,0c0.5,0,0.5-0.5,0.5-0.7c0-0.1,0-0.1,0-0.2L110.4,128.9z M111.2,124.9
	c0-0.1,0-0.3-0.2-0.4c-0.2-0.1-0.5,0-0.6,0.1c0,0.1-0.1,0.2,0,0.4c0.1,0.1,0.2,0.2,0.4,0.2C110.9,125.2,111.1,125.1,111.2,124.9z
	 M112.7,130.5c-0.1-0.2-0.4-0.2-0.7-0.1l-0.1,0.1v0.9h0.7l0.1-0.2C112.8,131,112.9,130.7,112.7,130.5z M114.6,129.2
	c-0.1-0.2-0.3-0.3-0.4-0.3c-0.2,0-0.3,0.1-0.5,0.2c-0.4,0.2-0.3,0.4-0.3,0.5l0.1,0.1l0.2,0c0.1,0,0.1,0,0.2,0c0.1,0,0.3,0,0.4,0
	c0.1,0,0.3,0,0.4-0.2C114.7,129.5,114.7,129.4,114.6,129.2z M115.5,125.6c0.1-0.1,0-0.3-0.1-0.4c-0.3-0.2-0.4-0.2-0.6-0.1
	c0-0.1,0-0.2-0.1-0.3l-0.2-0.2l-0.2,0.2c0,0-0.1,0.1-0.1,0.1c-0.1,0.1-0.3,0.2-0.3,0.4c0,0.1,0,0.2,0,0.3c0.1,0.1,0.3,0.1,0.5,0.1
	c0,0,0.1,0,0.1,0l0.2,0c0,0,0,0,0,0l0.1,0.1h0.1C115.2,126,115.4,125.8,115.5,125.6z M114.5,123.5c0.1,0.2,0.2,0.3,0.4,0.3l0.2,0
	l0.1-0.2c0.1-0.3-0.1-0.5-0.2-0.6l-0.2-0.2l-0.2,0.2C114.5,123.1,114.4,123.3,114.5,123.5z M116.2,127.3c-0.2-0.2-0.6-0.1-0.7,0.1
	c-0.1,0.2,0,0.3,0.1,0.5c0.1,0.1,0.2,0.1,0.3,0.1c0.2,0,0.3-0.1,0.4-0.3C116.4,127.6,116.3,127.4,116.2,127.3z M116.7,126.1
	c0-0.3-0.2-0.4-0.3-0.4c-0.1,0-0.2,0.1-0.3,0.3c0,0,0,0,0,0c-0.1,0-0.2,0.1-0.2,0.2c-0.1,0.2,0,0.3,0.1,0.4c0,0,0,0,0,0.1l0.1,0.3
	l0.3-0.2C116.6,126.7,116.7,126.4,116.7,126.1z M117.2,131.1c0-0.2-0.2-0.4-0.4-0.4v0.2c0,0,0,0,0,0l0,0.4c0,0,0,0,0,0v0.2
	c0.1,0,0.2-0.1,0.3-0.1C117.2,131.3,117.2,131.2,117.2,131.1z M120.6,123c0,0,0.1,0,0.1,0l0.1,0c0,0,0.1,0,0.1,0.1c0,0,0,0,0.1,0.1
	l0.1,0.1l0.2-0.1c0.2-0.1,0.2-0.3,0.2-0.5c0,0,0-0.1,0-0.1l0-0.5l-0.4,0.3c0,0-0.1,0-0.2,0c-0.1,0-0.1,0-0.1,0
	c-0.3,0-0.4,0.2-0.4,0.2c-0.1,0.1,0,0.3,0,0.3C120.4,123,120.5,123,120.6,123z M121.7,128.8C121.7,128.8,121.7,128.8,121.7,128.8
	l0-0.3l-0.4,0c-0.2,0-0.4,0-0.6,0.1l-0.2,0.2l0.2,0.2c0,0,0.1,0.1,0.1,0.1c0.1,0.1,0.2,0.3,0.4,0.3l0.1,0c0.1,0,0.2,0,0.2-0.1
	C121.8,129.2,121.8,129,121.7,128.8z M121.9,109.1c0.2-0.1,0.4-0.2,0.4-0.5c0-0.1,0-0.2-0.2-0.3c-0.1,0-0.1,0-0.2,0V11.1H28
	c0-0.2,0-0.5-0.4-0.5c-0.1,0-0.3-0.1-0.4,0c-0.2,0.1-0.4,0.3-0.4,0.5H11.1v45.2c0,0,0,0,0,0c-0.3,0-0.4,0.6-0.1,0.6
	c0,0,0.1,0,0.1-0.1V71c-0.1-0.2-0.6-0.5-0.6-0.2c0,0.4,0.4,0.4,0.6,0.3v37.5c-0.2,0-0.4,0.1-0.4,0.3c-0.1,0.2,0.1,0.4,0.3,0.5l0.1,0
	h0v9.5c-0.2-0.2-0.6-0.2-0.8-0.1l-0.2,0.1l0.1,0.2c0.1,0.3,0.5,0.5,0.7,0.5c0.1,0,0.1,0,0.1-0.1v2.3h8.7c0,0.1,0,0.2,0.1,0.3
	c0.1,0.1,0.2,0.2,0.4,0.1l0.2,0.1l0.1-0.1c0,0,0.1,0,0.1,0c0.1,0,0.4-0.1,0.5-0.3h15.5c0,0,0,0.1,0.1,0.1c0,0,0.2,0.1,0.2,0.2
	c0.1,0.1,0.2,0.1,0.3,0.1c0.2,0,0.3-0.1,0.3-0.3c0,0,0,0,0-0.1h4.2c0,0-0.1,0.1-0.1,0.1c0,0.1-0.1,0.3,0.2,0.5
	c0.1,0.1,0.2,0.1,0.3,0.1c0.2,0,0.4-0.1,0.4-0.3c0-0.1,0-0.3-0.2-0.5h15.3c-0.1,0.1-0.2,0.2-0.2,0.3l0,0.1l0.1,0.1
	c0.1,0.1,0.2,0.1,0.2,0.1c0,0,0.1,0,0.2,0c0.1,0,0.1,0,0.2,0l0.2,0v-0.2c0-0.1,0-0.1,0-0.2c0-0.1-0.1-0.1-0.1-0.2h24.1
	c0,0.1,0.1,0.1,0.1,0.2l0.4,0.4l0-0.5c0,0,0,0,0-0.1h5.8c0,0,0,0.1,0,0.1c-0.1,0.1-0.3,0.3-0.3,0.5c0.1,0.2,0.2,0.3,0.3,0.3
	c0.2,0,0.5-0.3,0.6-0.5c0.1-0.2,0.1-0.3,0.1-0.4h0.3c0,0,0,0,0,0.1c0.1,0.2,0.3,0.3,0.6,0.3c0.1,0.1,0.1,0.1,0.2,0.1l0.1,0l0.1-0.1
	c0.1-0.1,0.1-0.3,0.1-0.3h4c0,0-0.1,0.1-0.1,0.1c-0.1,0.2,0.2,0.4,0.2,0.5c0,0,0.1,0,0.2,0.1c0,0,0.1,0,0.2,0c0.2,0,0.4-0.2,0.4-0.3
	c0-0.1,0-0.2-0.1-0.3h2.5c0,0.1,0.1,0.2,0.1,0.2l0.1,0.1h0.1c0.2,0,0.4-0.2,0.4-0.3h0.5c0,0.1,0,0.1,0.1,0.2l0.1,0.1h0.1
	c0.2,0,0.3-0.1,0.3-0.2c0,0,0,0,0,0h4.4l-0.2,0.3h1.6l0-0.2c0,0,0-0.1,0-0.1h1c0,0,0,0.1,0,0.1c0,0,0,0.1-0.1,0.1c0,0,0,0.1-0.1,0.1
	l-0.1,0.2l0.2,0.1c0.1,0.1,0.2,0.1,0.2,0.1c0.2,0,0.4-0.1,0.5-0.4c0-0.1,0.1-0.2,0.1-0.3h1.9c0,0.1,0,0.1,0,0.2l0.1,0.1l0.2,0
	c0,0,0.1,0,0.1,0c0,0.1-0.1,0.2,0,0.4c0.1,0.2,0.3,0.2,0.4,0.2l0.1,0c0.1,0,0.1,0.1,0.2,0.2c0.1,0.1,0.2,0.3,0.4,0.4l0.3,0.1l0-0.3
	c0-0.1,0-0.1,0-0.2c0-0.1,0-0.3,0-0.4l0.1-0.2l-0.2-0.1c-0.2-0.1-0.4-0.1-0.6-0.1c-0.1,0-0.3,0-0.4,0l0.1-0.2l0,0h11.4V109.1z
	 M124.4,128.6c0-0.1,0-0.2-0.1-0.3c-0.1-0.1-0.3-0.1-0.4,0l0-0.2l-0.5,0c-0.1,0-0.2,0-0.3,0c-0.3,0-0.5,0-0.6-0.1l-0.3-0.2v2.3
	l0.3,0c0.2,0,0.3-0.1,0.4-0.1c0,0,0,0,0,0c0,0,0,0,0,0c0,0.2,0.1,0.3,0.3,0.3c0.1,0,0.2-0.1,0.2-0.1c0.1-0.1,0.1-0.1,0.2-0.2
	c0.3-0.2,0.6-0.5,0.6-0.9l0,0C124.3,128.9,124.4,128.8,124.4,128.6z M126.1,122.1c0-0.3-0.2-0.5-0.4-0.6l-0.3-0.3l-0.1,0.3
	c0,0,0,0.1-0.1,0.1c-0.1,0.1-0.2,0.3-0.2,0.5l0,0.2h1L126.1,122.1z M126.4,113.7c0-0.2,0-0.3-0.1-0.5c-0.2-0.2-0.4-0.3-0.7-0.1
	c-0.1,0-0.1,0.1-0.2,0.3l-0.1-0.2l-0.2,0.1c0,0-0.1,0-0.2,0c-0.1,0-0.3,0-0.4,0.1c-0.2,0.1-0.3,0.2-0.3,0.3c0,0.2,0.2,0.3,0.5,0.4
	c0,0,0.1,0,0.1,0c0.1,0,0.2,0.1,0.3,0.1c0.1,0,0.3-0.1,0.3-0.2c0,0,0,0,0-0.1c0.2,0.1,0.4,0.1,0.6,0c0.1,0,0.1,0,0.2,0h0.2
	L126.4,113.7z M126.9,117.9c0.2,0,0.4-0.2,0.5-0.3c0.1-0.1,0-0.3-0.1-0.4c-0.4-0.4-0.7-0.4-0.8-0.1c-0.1,0.2,0,0.5,0.1,0.6
	C126.7,117.8,126.8,117.9,126.9,117.9z M128.5,127.2l-0.2-0.3c0,0,0-0.1,0-0.1c0,0,0.1,0,0.1,0l0.6,0.3l-0.3-0.6
	c-0.1-0.2-0.3-0.4-0.4-0.5c-0.1-0.1-0.2-0.1-0.2-0.2l-0.2-0.3l-0.2,0.3c0,0-0.1,0.1-0.2,0.1c-0.1,0-0.1,0-0.2,0.1l-0.1,0.1l0,0.2
	c0,0.1,0,0.2,0.1,0.3c0.1,0,0.1,0.1,0.2,0.2c0.1,0.2,0.3,0.4,0.7,0.4L128.5,127.2z M129.6,131.9l-0.2-0.5c0,0,0-0.2-0.1-0.3
	c0-0.1-0.1-0.3-0.1-0.3c-0.1-0.3-0.3-0.3-0.4-0.3c-0.1,0-0.3,0.1-0.3,0.2c-0.1,0.1-0.1,0.3,0.1,0.5c0.1,0.2,0.3,0.3,0.5,0.4
	L129.6,131.9z M130.6,120.4l-0.1-0.2l-0.2,0c0,0-0.1,0-0.1,0c-0.1,0-0.2,0-0.3,0c-0.2,0-0.3,0.1-0.3,0.2c-0.1,0.2,0,0.4,0,0.4
	l0.1,0.2l0.2,0c0,0,0.1,0,0.1,0c0.1,0,0.2,0,0.3,0c0.2,0,0.3-0.1,0.3-0.2C130.7,120.7,130.6,120.5,130.6,120.4z M131,115.2
	c-0.2-0.2-0.6-0.1-0.7,0.1c-0.1,0.2,0,0.3,0.1,0.5c0.1,0.1,0.2,0.1,0.3,0.1c0.2,0,0.3-0.1,0.4-0.3
	C131.1,115.5,131.1,115.4,131,115.2z M132.5,108.1c0-0.2-0.1-0.3-0.3-0.4c0,0,0,0,0,0l0,0c0.1-0.3-0.2-0.6-0.5-0.7l-0.1,0
	c-0.1,0-0.2,0-0.2,0.1c-0.1,0.1-0.1,0.3-0.1,0.4c0,0,0,0.1,0,0.1l0,0.2h0.3c0,0.1-0.1,0.1-0.1,0.2c-0.1,0-0.2,0.1-0.3,0.1
	c-0.1,0.1-0.2,0.3-0.2,0.4c0,0-0.1,0-0.2,0c0-0.1,0-0.2,0-0.3c-0.1-0.2-0.4-0.2-0.5,0c0,0.1-0.1,0.1-0.2,0.2l-0.1,0.1l0.1,0.2
	c0,0.1,0.1,0.1,0.1,0.2l-0.3,0.3l0.4-0.1c0.1,0.1,0.3,0.2,0.4,0.2c0.1,0,0.3,0,0.4-0.1c0.1-0.1,0.2-0.2,0.2-0.3
	c0.1,0,0.2-0.1,0.3-0.2c0,0,0,0,0,0c0,0,0.1,0.1,0.2,0.1l0.1,0l0.1,0C132.4,108.6,132.6,108.3,132.5,108.1z M133,114.6
	c0,0.1-0.1,0.1-0.1,0.2c0,0.1,0,0.1,0.1,0.2V114.6z"/>
</svg>
