<?xml version="1.0" encoding="utf-8"?>
<!-- Generator: Adobe Illustrator 18.1.1, SVG Export Plug-In . SVG Version: 6.00 Build 0)  -->
<!DOCTYPE svg PUBLIC "-//W3C//DTD SVG 1.1//EN" "http://www.w3.org/Graphics/SVG/1.1/DTD/svg11.dtd">
<svg version="1.1" id="Layer_1" xmlns="http://www.w3.org/2000/svg" xmlns:xlink="http://www.w3.org/1999/xlink" x="0px" y="0px"
	 viewBox="0 0 125 40.2" enable-background="new 0 0 125 40.2" xml:space="preserve">
<path fill="#FFFFFF" d="M24.5,25.3h8.7v3.1h-8.7V25.3z M34.3,17.1c0,3.1-2.4,5.2-5.5,5.2s-5.5-2.1-5.5-5.2s2.4-5.2,5.5-5.2
	S34.3,14,34.3,17.1z M31.2,17.1c0-1.4-0.9-2.5-2.4-2.5c-1.5,0-2.4,1.1-2.4,2.5s0.9,2.5,2.4,2.5C30.2,19.6,31.2,18.5,31.2,17.1z
	 M8.4,3.3c-0.1,0-0.1,0.1-0.2,0.1L8.4,3.3C8.4,3.3,8.4,3.3,8.4,3.3z M10.4,17.1C10.4,17.1,10.3,17.1,10.4,17.1
	C10.3,17.2,10.3,17.2,10.4,17.1c-0.5,0.9-0.8,1.9-0.8,3c0,0.1,0,0.2,0,0.3c0,0,0,0-0.1,0c-0.1,0-0.3,0-0.3-0.2
	c-0.1,0.1,0.1,0.2,0.1,0.3c0.1,0,0.2-0.1,0.2,0c0,0-0.1,0.1-0.1,0.1c0.1,0.1,0.1,0,0.2-0.1c0,0.1,0,0.1,0,0.2c0,0-0.1,0.1,0,0.1
	c0,0,0,0,0,0c0.1,0.8,0.3,1.5,0.7,2.2c0,0-0.1,0-0.1,0c0,0.1,0,0.2,0.1,0.2c0,0,0.1,0,0.1,0c0.9,1.5,2.5,2.4,4.4,2.4
	c1.7,0,3.2-1,3.9-2.4l3,1.5c-1.2,2-3.2,4-6.9,4c-4.9,0-8.7-3.4-8.7-8.5c0.1,0,0.2,0.1,0.1-0.1c0,0-0.1,0-0.1,0c0-0.5,0-0.9,0.1-1.3
	c0.1,0,0.1,0,0.1-0.1c0,0,0,0-0.1,0c0.2-1.3,0.6-2.4,1.3-3.4c0,0,0,0,0,0c0.1,0.1,0.2,0,0.1-0.1c0,0,0,0,0,0c0-0.1,0.1-0.1,0.1-0.2
	c0,0,0.1,0,0.1,0.1c0,0.1,0.1,0,0,0c0,0,0-0.1-0.1-0.1c0.3-0.4,0.6-0.8,1-1.1c0.1,0,0.1,0,0.1-0.1c1.5-1.3,3.6-2.1,5.9-2.1
	c3.6,0,5.7,2,6.9,4l-3,1.5c-0.7-1.3-2.2-2.4-3.9-2.4C12.8,14.7,11.3,15.7,10.4,17.1z M9.1,14c0.1,0,0.2,0.1,0.2-0.1
	c0,0,0-0.1-0.1-0.1C9.2,13.9,9.1,14,9.1,14z M9.1,14.9c0.1,0,0.2-0.1,0.1-0.1C9.1,14.8,9,14.9,9.1,14.9z M8.9,20.7
	c0.1,0,0.3,0.1,0.2-0.1c0,0-0.1-0.1-0.1-0.1C8.9,20.6,8.9,20.7,8.9,20.7z M8.8,15.9C8.8,15.9,8.8,15.9,8.8,15.9
	C8.8,15.8,8.7,15.8,8.8,15.9C8.6,15.9,8.7,16,8.8,15.9z M8.6,18.5c-0.1,0-0.2,0-0.2,0.1C8.6,18.6,8.7,18.6,8.6,18.5z M8.5,21.1
	c-0.1-0.1-0.2,0-0.1,0.1C8.4,21.2,8.6,21.2,8.5,21.1z M8.7,19.8C8.7,19.9,8.8,19.8,8.7,19.8c0-0.1,0-0.1,0-0.2
	C8.6,19.7,8.6,19.8,8.7,19.8z M8.6,16.5c0,0.1-0.2,0.1-0.1,0.1c0,0.1,0,0.1,0.1,0.1C8.7,16.7,8.7,16.5,8.6,16.5z M8.5,14.7l0.1-0.1
	c0-0.1-0.1-0.1-0.1-0.1C8.5,14.5,8.4,14.6,8.5,14.7z M8.4,16.1C8.5,16.2,8.6,16.1,8.4,16.1C8.5,16,8.4,16.1,8.4,16.1z M8,14.9
	c0.1,0,0.3,0.1,0.2-0.1c0,0,0,0,0-0.1c0-0.1-0.2-0.1-0.2-0.1V14.9z M7.9,19.6c0.1,0,0.3,0,0.3,0c0,0,0-0.1-0.1-0.1
	C8,19.4,7.9,19.5,7.9,19.6z M7.7,19.6c0,0.1,0.1,0.1,0.1,0.1c0,0,0-0.1,0.1-0.1c0,0-0.1,0-0.1-0.1C7.6,19.5,7.6,19.6,7.7,19.6z
	 M7.5,17.3C7.5,17.4,7.6,17.3,7.5,17.3C7.5,17.2,7.4,17.3,7.5,17.3z M7.4,18.1c0.1,0,0.2,0,0.2,0c0,0,0,0-0.1,0
	C7.5,18.1,7.4,18,7.4,18.1z M7.3,19c-0.1,0-0.1,0.2-0.1,0.3c0.1,0.1,0.1-0.1,0.1-0.1C7.3,19.1,7.4,19,7.3,19z M7.3,19.4
	C7.2,19.4,7.2,19.4,7.3,19.4C7.1,19.4,7.2,19.5,7.3,19.4C7.2,19.5,7.3,19.5,7.3,19.4z M7.1,16.1l0.1,0.2c0.1-0.1,0.1-0.1,0.1-0.2
	H7.1z M7,16.2C7.1,16.3,7,16.1,7,16.1c0,0,0,0,0,0C6.9,16.1,6.9,16.2,7,16.2z M7,16.6c0.1,0,0.1-0.1,0.1-0.1c-0.1,0-0.1,0-0.2,0
	c0,0,0,0.1,0,0.1C6.8,16.7,7,16.6,7,16.6z M6.8,19c0,0,0.1-0.1,0.1-0.1c0-0.1,0-0.1-0.1-0.1C6.8,18.9,6.7,19,6.8,19z M6.2,21.1
	c0,0-0.1,0-0.1,0C6,21.1,6.1,21.2,6.2,21.1C6.2,21.1,6.2,21.1,6.2,21.1z M6.2,19L6.2,19C6.3,19.1,6.2,19,6.2,19z M6.4,20.2
	c0-0.1-0.1,0-0.2,0C6.3,20.2,6.4,20.2,6.4,20.2C6.4,20.2,6.4,20.2,6.4,20.2z M6.6,17.5C6.6,17.5,6.5,17.5,6.6,17.5
	c-0.1-0.1-0.2,0-0.1,0.1C6.5,17.6,6.7,17.6,6.6,17.5z M6.7,20.4c0,0-0.1,0-0.1,0c-0.1,0,0,0.1,0,0.1c0,0,0.1,0.1,0.1,0
	C6.7,20.5,6.7,20.4,6.7,20.4z M6.9,22.8c0,0-0.1,0-0.1,0C6.7,22.8,6.8,22.9,6.9,22.8C6.9,22.8,6.9,22.8,6.9,22.8z M7,20.4
	c0-0.1-0.1-0.1-0.2-0.1l0,0.1C6.9,20.5,7,20.5,7,20.4z M7,20.2C7,20.2,6.9,20.2,7,20.2C7,20.3,7.1,20.3,7,20.2z M7.4,20.9
	c-0.1-0.1-0.3,0-0.3,0C7.2,21,7.4,21,7.4,20.9z M7.5,24.4c-0.1,0-0.2-0.1-0.2,0.1C7.4,24.4,7.6,24.5,7.5,24.4z M7.8,20.6H7.6
	c0,0,0.1-0.1,0.1-0.1c0-0.1-0.1-0.2-0.2-0.2c0-0.1,0-0.2,0.1-0.1c0-0.1,0-0.2,0-0.2c-0.1-0.1-0.1,0.1-0.1,0.1
	c-0.1,0.1-0.2-0.1-0.2-0.1c-0.1,0.1,0,0.2,0.1,0.3c0,0.1-0.1,0-0.1,0c-0.1-0.1-0.2,0-0.2,0.1h0.2c0,0.1-0.1,0.1-0.1,0.2
	c0.1-0.1,0.2-0.1,0.3-0.1c0.1,0,0.1,0.1,0.1,0.2c0,0.1,0,0.1,0.1,0.1C7.7,20.8,7.7,20.7,7.8,20.6C7.8,20.7,7.8,20.7,7.8,20.6z
	 M7.9,20.3c0.1-0.1-0.1-0.1-0.2-0.2C7.8,20,7.7,20,7.6,20c0-0.1,0-0.2-0.1-0.2c-0.1,0-0.2,0.1-0.1,0.1C7.5,20,7.6,20,7.6,20
	c0,0.1,0.1,0.1,0.1,0.2C7.8,20.3,7.9,20.4,7.9,20.3z M8,22.9c0-0.1-0.1-0.1-0.1,0C7.9,23,8,23,8,22.9z M8,23.9C8,24,8.1,24,8,23.9
	C8.1,24,8.1,23.8,8,23.9z M8.2,20.7c-0.1,0-0.2,0-0.2,0.1c0,0,0,0.2,0.1,0.1c0-0.1,0.1-0.1,0.2,0C8.3,20.8,8.2,20.7,8.2,20.7z
	 M8.3,20c-0.1-0.1-0.1-0.1-0.2-0.2c0,0.1-0.1,0.1,0,0.2C8.1,20.1,8.3,20.1,8.3,20z M8.3,19.2c0,0-0.1-0.1-0.1-0.1
	C8.2,19.2,8.2,19.3,8.3,19.2C8.3,19.4,8.4,19.3,8.3,19.2z M8.5,22.1c0,0-0.1-0.1-0.2,0c0.1,0.1,0.1,0.1,0.1,0.2c0,0-0.2-0.1-0.1,0.1
	c0,0.1,0.1,0,0.1-0.1C8.6,22.3,8.6,22.2,8.5,22.1z M8.6,21.3c0.1,0,0.2,0.1,0.2-0.1c0-0.1,0-0.2,0-0.3H8.6
	C8.6,21.1,8.6,21.2,8.6,21.3z M8.7,21.6C8.7,21.6,8.6,21.6,8.7,21.6C8.7,21.8,8.8,21.8,8.7,21.6z M8.9,23l-0.2,0
	c0,0.1,0,0.2,0.1,0.2C8.8,23.1,8.9,23,8.9,23z M9,24.4C9,24.4,9,24.4,9,24.4c-0.1,0-0.1,0.1-0.1,0.1C9.1,24.7,9,24.5,9,24.4z
	 M9.1,22C9,21.9,8.8,22,8.7,22.1c0.1,0,0.2,0,0.2,0C9,22.1,9.1,22.1,9.1,22z M9,21.7C9,21.6,8.9,21.7,9,21.7c0,0.1,0,0.1,0,0.1
	C9.3,21.8,9.1,21.7,9,21.7z M9,21.5c0.1,0,0.1,0,0.1-0.1c-0.1,0-0.2,0-0.3,0C8.9,21.5,9,21.5,9,21.5z M9.5,24.9c0-0.1,0-0.1-0.1-0.1
	C9.4,24.8,9.4,25,9.5,24.9z M9.5,25c-0.1,0-0.1,0.2,0,0.1C9.5,25,9.5,25,9.5,25z M9.5,21.8c0,0,0.1-0.1,0.1-0.1c0-0.1,0-0.2-0.1-0.1
	C9.5,21.6,9.5,21.7,9.5,21.8z M9.4,22.1c0,0.1,0.1,0.2,0.1,0.2C9.5,22.2,9.5,22,9.4,22.1z M9.3,22.4c0.1,0,0.3,0,0.3,0
	c0.1,0,0.1,0,0.2-0.1c-0.2,0-0.3,0-0.4,0C9.3,22.3,9.2,22.4,9.3,22.4z M9.2,20.7c0.1,0,0-0.1,0-0.1C9.2,20.5,9.2,20.6,9.2,20.7z
	 M9.2,21C9.1,21.1,9,21,9.2,21c0-0.1-0.1-0.2-0.1-0.2c0,0.1-0.2,0-0.2,0.2C9,20.9,9,21,9,21.1c0.1,0.1,0.1,0.1,0.2,0.1
	c0,0-0.1,0-0.1,0.1c0,0,0.1,0,0.1,0c0,0.1,0,0.2,0.1,0.2c0-0.1,0-0.2-0.1-0.2l0,0C9.4,21.2,9.1,21.1,9.2,21z M9.4,17.4
	c0-0.1-0.1,0-0.1,0c0,0,0,0.1,0,0.1C9.3,17.4,9.4,17.5,9.4,17.4z M9.4,14.3C9.4,14.3,9.5,14.2,9.4,14.3C9.4,14.1,9.3,14.2,9.4,14.3z
	 M9.5,19.9c0,0-0.1,0-0.1,0c0,0.1,0,0.2,0.1,0.1C9.6,20,9.5,19.9,9.5,19.9z M9.9,17.5C9.9,17.5,9.8,17.4,9.9,17.5
	c-0.2-0.1-0.2,0-0.1,0C9.8,17.5,9.9,17.5,9.9,17.5z M10,15.8c0,0,0.1,0,0.2,0c0.1,0,0.1-0.1,0.1-0.2c-0.1-0.1-0.1,0-0.2,0
	C10,15.7,9.9,15.7,10,15.8z M10.1,17c0,0,0,0.2,0.1,0.3C10.2,17.2,10.2,17.1,10.1,17z M10.3,16.6c0-0.1,0-0.1-0.1-0.2
	c-0.1,0-0.1,0.1-0.1,0.2C10.2,16.6,10.3,16.7,10.3,16.6z M10.3,15.1C10.3,15,10.2,15.1,10.3,15.1C10.3,15.2,10.4,15.1,10.3,15.1z
	 M10.5,14.4c0-0.1-0.1-0.1-0.1,0C10.3,14.4,10.5,14.4,10.5,14.4z M10.6,16.7c-0.1,0-0.2,0-0.2,0.1c-0.1,0-0.1,0.2,0,0.1
	C10.6,16.9,10.6,16.8,10.6,16.7z M10.8,14.3c0.1-0.1,0.2,0,0.3-0.1c0.1-0.1,0-0.1-0.1-0.1c0-0.1-0.2-0.2-0.1,0
	c-0.1,0-0.1,0.1-0.2,0.1c0-0.1,0-0.2,0-0.1c0,0.1,0,0.2,0.1,0.2c0.1,0,0.1,0.1,0.1,0.1C10.9,14.4,10.9,14.3,10.8,14.3z M40.2,0v3.4
	v33.5v3.4h-3.4h-1.4c0,0,0-0.1,0-0.1l0-0.1l-0.1,0.1c0,0,0,0,0,0.1c0,0,0,0,0,0h-5.6c0,0,0,0,0,0c-0.1-0.1-0.2-0.1-0.3,0h-0.9
	c0,0,0,0,0-0.1c0,0,0-0.1,0-0.1l0.1-0.1l0,0c0,0,0,0.1,0,0.1l0,0h0c0,0,0.1,0,0.1,0c0,0,0.1,0,0.1-0.1c0,0,0-0.1,0-0.1
	c0,0-0.1,0-0.1,0c0,0,0,0,0,0l0,0l0,0l-0.3,0c0,0,0,0-0.1,0c0,0-0.1,0-0.1,0l0,0l0,0l0.1-0.2l-0.2,0.2c-0.1,0.1-0.1,0.2-0.1,0.2l0,0
	c0,0,0,0,0,0h-0.4l0,0l-0.1,0l-0.1,0c-0.1,0-0.1,0-0.2,0l0,0h-0.3c0,0-0.1-0.1-0.1-0.1c0,0,0,0,0,0l-0.1,0l0,0c0,0,0,0,0,0h-0.1
	c0,0,0,0,0,0c0,0-0.1,0-0.1,0H12.4c0.1,0,0.1-0.1,0.1-0.1l0.1-0.1l-0.1,0c0,0-0.1,0-0.1,0c-0.1,0-0.1,0-0.1,0.1c0,0,0,0.1,0,0.1
	c0,0,0.1,0.1,0.1,0.1H8.1c0,0,0-0.1,0-0.1c0-0.1-0.1-0.1-0.1-0.1c0,0-0.1,0-0.1,0.1c0,0,0,0,0,0.1l0,0H5.9c0,0,0,0,0,0
	c0-0.1,0-0.2,0-0.2c0,0-0.1-0.1-0.1-0.1c-0.1-0.1-0.2-0.3-0.3-0.5l0,0c0.1,0.1,0.2,0,0.2-0.1c0-0.1,0-0.1-0.1-0.1c0,0,0,0,0,0
	c0,0,0-0.1,0-0.1c0-0.1-0.1-0.1-0.2,0c0,0,0,0-0.1,0.1c0,0,0,0.1,0,0.1c0,0,0,0,0,0l-0.1,0.2c-0.1,0.3,0,0.7,0.1,0.9H3.6
	c0,0,0,0,0-0.1c0-0.1-0.1-0.1-0.2-0.1c0,0-0.1,0.1-0.1,0.1c0,0,0,0,0,0h0c0,0,0,0-0.1,0l0,0c0,0,0,0,0,0H2.6c0,0-0.1-0.1-0.1-0.1h0
	c0,0-0.1,0-0.1,0.1H0v-0.1l0,0c0,0,0.1,0,0.1,0c0,0,0.1,0,0.1-0.1c0,0,0-0.1,0-0.2c0,0-0.1,0-0.2,0v-2.7c0,0,0,0,0.1,0
	C0.1,37,0,37,0,37c0,0,0,0,0,0c0,0,0,0,0,0v0V25c0,0,0,0,0-0.1c0,0,0,0,0,0v-4c0,0,0,0,0-0.1V8.1c0,0,0.2,0.1,0.1,0
	c0,0,0-0.1-0.1-0.1c0,0,0,0,0,0V6.7c0.1,0,0.1,0,0.1-0.1c0,0,0,0-0.1,0V4.1c0,0,0.1,0,0.1-0.1c0-0.1,0-0.1-0.1,0V3.6c0,0,0,0,0,0
	c0,0,0-0.1,0-0.1c0,0,0,0,0,0V3.4V0.7c0,0,0.1,0,0.1,0L0,0.6c0-0.1,0-0.1,0-0.1V0h0.3c0,0,0,0,0,0.1c0.1,0.1,0.1,0,0.1-0.1h2.9
	c0,0.1-0.1,0.2,0.1,0.2V0h33.4H40.2z M39.3,34.3c-0.1,0-0.1,0.1-0.1,0.1c0,0.1,0.1,0.1,0.1,0.1c0,0,0.1,0.1,0.2,0.1c0,0,0,0,0.1,0
	l0,0v-0.3l-0.1,0c0,0,0,0-0.1,0C39.4,34.3,39.4,34.3,39.3,34.3L39.3,34.3L39.3,34.3z M39,32.7C39,32.7,39,32.7,39,32.7
	c-0.1,0-0.2,0.1-0.2,0.1l0,0.1h0.4l0-0.1C39.2,32.8,39.1,32.7,39,32.7z M39.1,34.2L39.1,34.2c0-0.1,0-0.1,0-0.2
	c-0.1-0.1-0.2-0.1-0.2,0c0,0,0,0.1,0,0.1c0,0,0.1,0.1,0.1,0.1C39,34.2,39.1,34.2,39.1,34.2L39.1,34.2z M39.1,37.2c0,0,0-0.1-0.1-0.1
	c-0.1,0-0.1,0.1-0.1,0.1c0,0,0,0.1-0.1,0.1c0,0,0,0.1,0,0.1l0,0.1l0.1,0c0,0,0,0,0,0c0.1,0,0.2,0,0.2-0.1
	C39.1,37.3,39.1,37.2,39.1,37.2z M38.6,32.6L38.6,32.6L38.6,32.6c0.1,0.1,0.1,0.1,0.1,0.1c0,0,0.1,0,0.1,0c0.1,0,0.1,0,0.1,0
	c0,0,0-0.1,0-0.1l0-0.1h-0.1c0,0,0,0-0.1,0c-0.1,0-0.2,0-0.2,0C38.6,32.5,38.6,32.6,38.6,32.6z M38.2,32.8L38.2,32.8L38.2,32.8
	L38.2,33c0,0.1,0,0.1,0.1,0.2l0,0c0,0,0.1,0.1,0.1,0.1c0,0,0.1,0,0.1-0.1v0c0,0.1,0.1,0.1,0.1,0.1c0,0,0,0,0,0l0,0l0.1,0
	c0,0,0.1,0,0.1,0c0.1,0,0.1,0,0.1-0.1c0,0,0-0.1,0-0.1c0-0.1-0.2-0.2-0.3-0.2c0,0,0,0-0.1,0c-0.1,0-0.1,0-0.2,0c0,0,0,0,0,0
	c0,0,0,0,0,0c0,0-0.1-0.1-0.1-0.1c0,0,0.1-0.1,0.1-0.1c0,0,0,0,0,0l0,0l0,0c0-0.1-0.1-0.1-0.1-0.1c0,0-0.1,0-0.1,0
	C38.3,32.7,38.3,32.7,38.2,32.8C38.2,32.8,38.2,32.8,38.2,32.8z M38.7,34.9c0,0-0.1-0.1-0.1,0l-0.1,0v0.3l0.1,0l0,0c0,0,0.1,0,0.1,0
	c0,0,0-0.1,0-0.1c0,0,0,0,0,0C38.7,35,38.7,35,38.7,34.9z M38.1,33.4C38.1,33.4,38.1,33.4,38.1,33.4c0,0.1,0,0.1,0,0.1
	c0,0,0.1,0,0.1,0c0.1,0,0.2-0.1,0.2-0.2c0,0,0-0.1,0-0.2c0,0-0.1-0.1-0.2,0C38.1,33.3,38.1,33.3,38.1,33.4
	C38.1,33.4,38.1,33.4,38.1,33.4z M38,32.8C38,32.8,38,32.8,38,32.8L38,32.8l0.1,0.1l0,0c0,0,0.1,0,0.1-0.1c0,0,0-0.1,0-0.1
	c0,0,0-0.1-0.1-0.1l-0.1-0.1l0,0.1C38,32.7,38,32.7,38,32.8z M37.9,33.7L37.9,33.7l-0.2,0.1l0,0c0,0,0,0,0.1,0.1
	c0.1,0,0.1,0.1,0,0.1l0,0.1h0.1c0,0,0,0,0,0c0,0,0,0,0.1,0c0.1,0,0.1,0,0.1-0.1l0-0.1l-0.1,0c0,0-0.1-0.1-0.1-0.1
	C38,33.8,38,33.8,37.9,33.7z M37.1,33.2c0,0.1,0,0.1,0.1,0.1c0,0,0.1,0.1,0,0.1l0,0l0.1,0l0,0c0,0,0.1-0.1,0.1-0.1c0,0,0,0,0,0
	c0,0.1,0,0.1,0.1,0.1c0,0,0,0,0,0l0.1,0l0-0.1c0,0,0-0.1,0.1-0.1c0,0,0.1-0.1,0.1-0.2l0-0.1l-0.1,0c0,0,0,0-0.1,0l0,0l0-0.1
	c0-0.1-0.2-0.2-0.3-0.1l-0.1,0l0.1,0.1c0,0,0.1,0.1,0.1,0.1c0,0-0.1,0-0.1,0.1c-0.1,0-0.2,0-0.2,0c0,0-0.1,0-0.1,0
	C37.2,33.1,37.1,33.1,37.1,33.2z M8.5,2.7c-0.1,0-0.3-0.1-0.2,0.1C8.4,2.8,8.6,2.9,8.5,2.7C8.5,2.8,8.5,2.7,8.5,2.7z M8.5,2.6
	c0,0-0.1-0.1-0.1-0.1C8.2,2.3,8.3,2.7,8.1,2.6c0,0.1,0.1,0,0.2,0c0.1,0.1,0.1,0,0.1,0C8.4,2.6,8.5,2.6,8.5,2.6z M8.3,1.9
	c0.1,0,0-0.1,0-0.2C8.3,1.7,8.3,1.8,8.3,1.9C8.2,1.9,8.3,2,8.3,1.9z M8.1,2.2c0.1,0,0.2,0.1,0.4,0c0,0,0.1,0.1,0.1,0
	C8.3,2.2,8.3,2,8.1,2C8.1,2.1,8.1,2.1,8.1,2.2z M7.9,0.6C8,0.7,8,0.7,8,0.6c0,0-0.1-0.2-0.1-0.2C7.9,0.5,7.9,0.6,7.9,0.6z M7.7,0.8
	c-0.1,0-0.1,0.1,0,0.2H7.5c0,0.1,0,0.2,0.1,0.2c0.2-0.1,0.1-0.2,0.2-0.3C7.9,0.9,7.8,0.8,7.7,0.8z M7.8,1.8c0.1-0.1,0-0.1-0.1-0.1
	v0.2C7.8,2,7.8,1.8,7.8,1.8z M6.9,1.9c0,0.1,0.1,0,0.1,0l0.1,0.1C7.1,1.9,7,1.8,7,1.8C6.9,1.8,6.9,1.9,6.9,1.9z M7,1.3V1H6.9L7,1.3z
	 M6.8,2.2c0,0,0,0.1,0,0.1C7,2.3,7,2.2,7.1,2.1C7,2,6.9,2.2,6.8,2.2z M7,2.5c0,0-0.1,0.2,0.1,0.1c0,0,0,0,0-0.1C7.1,2.5,7,2.5,7,2.5
	z M7.1,3.3c0,0,0-0.1,0.1-0.2c0.1-0.1,0.1,0,0.2,0.1c0,0,0-0.2,0.1-0.2c0,0.1,0.1,0.2,0.1,0.1c0-0.1,0-0.3-0.1-0.3
	c0,0.1,0,0.1,0,0.1C7.2,3,7.1,3.1,6.9,3.2C6.9,3.2,7,3.3,7.1,3.3z M7.7,2.4c0,0,0-0.1,0-0.1c-0.1,0-0.1,0.1-0.1,0.1L7.7,2.4z
	 M7.5,0.4c0,0.2,0,0.3,0.1,0.5c0.1-0.1,0-0.3,0.1-0.4C7.7,0.6,7.6,0.5,7.5,0.4L7.5,0.4z M7.5,1.8c0-0.1,0-0.2,0.1-0.3
	c0,0,0.1-0.1,0.1-0.2H7.5c0,0.1,0.1,0.1,0.1,0.2l-0.2,0C7.4,1.6,7.4,1.7,7.5,1.8z M7.3,1.9c0.1,0,0.2,0.1,0.2,0
	C7.4,1.9,7.2,1.9,7.3,1.9z M7.1,0.5c0,0-0.2,0.1-0.1,0.1c0.1,0,0.2,0,0.3,0c0.1,0,0-0.1,0-0.2C7.3,0.4,7.2,0.5,7.1,0.5z M6.8,0.3
	c0.1,0,0.2,0,0.2,0c0.1,0,0-0.1,0-0.1C7,0.2,6.8,0.2,6.8,0.3z M6.8,0.6C6.8,0.7,6.9,0.7,6.8,0.6c0-0.1,0-0.1-0.1-0.1
	C6.7,0.5,6.8,0.6,6.8,0.6z M6.6,2C6.6,2,6.7,2,6.6,2C6.7,2,6.7,2,6.7,2.1h0.2C6.9,1.9,6.8,2,6.7,2c0.1,0,0.1-0.1,0-0.1
	C6.7,1.9,6.6,1.9,6.6,2z M6.6,3.2c0.1,0,0.2,0,0.1-0.1c0,0,0.1-0.2,0-0.1C6.6,3,6.7,3.1,6.6,3.2C6.5,3.1,6.5,3.2,6.6,3.2z M6.5,1.4
	c0,0,0-0.1,0-0.1C6.5,1.4,6.4,1.4,6.5,1.4C6.4,1.6,6.6,1.5,6.5,1.4z M6.3,0.9c0,0,0.3,0.1,0.2,0c0,0-0.1-0.1-0.1-0.1
	C6.3,0.7,6.3,0.8,6.3,0.9z M6.1,2.3c0,0,0,0.1,0,0.1c0.1,0,0.1,0,0.2-0.1c0,0,0-0.1,0.1-0.1C6.5,2.2,6.5,2.1,6.5,2
	C6.3,2.1,6.2,2.1,6.1,2.3z M5.8,1.6c0.1-0.1,0.2,0,0.3-0.1c0-0.1-0.1,0-0.2,0C5.9,1.3,5.8,1.5,5.8,1.6C5.8,1.6,5.8,1.7,5.8,1.6z
	 M6.1,2.4c0,0-0.1-0.1-0.1,0C6,2.5,6,2.7,6.1,2.6C6.1,2.6,6.1,2.5,6.1,2.4z M5.8,3.1c0.1,0,0.1,0,0.2,0.1c0,0,0.1,0,0.1-0.1
	c0,0,0,0-0.1-0.1C5.9,3.1,5.9,3,6,3c0,0,0.1-0.1,0-0.1C5.9,2.9,5.9,3,5.8,2.9V3.1z M5.6,3.3c0,0,0.1,0,0.2,0c0,0,0-0.1,0-0.1
	C5.8,3.1,5.7,3.2,5.6,3.3z M5.6,1.8c0-0.1-0.1-0.2-0.2-0.1C5.3,1.8,5.6,1.8,5.6,1.8z M5.3,2.4c0.1,0,0.1,0.1,0.1,0.2
	c0.1,0.1,0.1-0.1,0.1-0.1c0,0,0-0.1,0-0.1c0-0.1-0.1-0.1-0.2-0.1C5.4,2.3,5.3,2.4,5.3,2.4z M5,2.3C5,2.3,5,2.5,5,2.3
	c0.1,0.1,0.1,0,0.1,0C5.1,2.2,4.9,2.2,5,2.3z M5,0.4C5,0.4,5.1,0.6,5.1,0.5C5.1,0.5,5.1,0.3,5,0.4z M4.9,2.7c0-0.1-0.1-0.1-0.2-0.1
	C4.7,2.7,4.8,2.7,4.9,2.7c0,0,0,0.2,0,0.1C5,2.8,5,2.7,4.9,2.7z M4.9,1.5c0-0.1-0.1,0-0.2,0c0,0,0.1,0.1,0.1,0.1
	C4.8,1.6,4.9,1.5,4.9,1.5z M4.8,2.2C4.8,2.3,4.9,2.3,4.8,2.2C4.9,2.3,4.9,2.1,4.8,2.2z M4.7,2.4c0,0,0.2,0,0.1-0.1
	C4.8,2.3,4.7,2.3,4.7,2.4C4.7,2.3,4.6,2.3,4.7,2.4z M4.7,0.3c0.1,0.1,0.1,0.3,0,0.3c0,0.1,0.1,0.1,0.1,0c0,0,0.1-0.1,0.1-0.2
	c0,0-0.1,0-0.1,0C4.8,0.3,4.8,0.3,4.7,0.3C4.7,0.2,4.6,0.2,4.7,0.3z M4.7,1.2c0-0.1,0-0.1-0.1-0.1C4.6,1.1,4.7,1.3,4.7,1.2z
	 M4.3,1.6c0.1,0.1,0.2,0.1,0.3,0.1L4.5,1.5C4.4,1.5,4.4,1.5,4.3,1.6z M4,1.7c0,0,0.2,0,0.2,0c0.1,0,0.1-0.1,0.1-0.1c0,0-0.1,0-0.1,0
	C4.1,1.6,4,1.5,4,1.7z M3.8,2.8c0,0,0.1,0.1,0.1,0C3.9,2.8,3.9,2.6,3.8,2.8z M3.2,0.8c0,0,0.1-0.1,0.2,0V0.7
	C3.2,0.6,3.1,0.6,3.2,0.8z M3.1,2.9c0.1,0,0.2,0,0.2,0c0,0-0.1-0.1-0.1-0.1C3.1,2.7,3,2.8,3.1,2.9z M3.3,17.8c0.1,0,0.1-0.1,0.1-0.1
	c0-0.1,0-0.1-0.1-0.1C3.3,17.7,3.2,17.8,3.3,17.8z M2.8,38.2L3,38.3l0-0.1c0,0,0,0,0,0c0,0,0.1-0.1,0.1-0.1c0,0,0-0.1,0-0.1l0,0l0,0
	c0,0,0,0,0,0l0,0C2.9,38,2.9,38,2.8,38.2L2.8,38.2C2.7,38.1,2.7,38.1,2.8,38.2c-0.2,0-0.2,0-0.2,0.1c0,0,0,0,0,0c0,0,0,0,0,0
	c0,0-0.1,0.1,0,0.1l0,0h0.4l0-0.1c0,0,0,0,0-0.1C2.8,38.3,2.8,38.2,2.8,38.2z M2.1,34.4L2.1,34.4l0.3,0.1l0-0.1c0,0,0-0.1-0.2-0.2
	c0,0,0,0,0,0l0,0l0,0C2.1,34.3,2.1,34.4,2.1,34.4C2.1,34.4,2.1,34.4,2.1,34.4z M1.8,22.6L1.8,22.6c-0.1-0.1-0.2,0-0.2-0.1
	c0-0.1,0-0.2-0.1-0.1c0,0,0,0.1-0.1,0.1c0-0.1,0-0.2-0.1-0.2c0.1,0.1,0,0.2,0.1,0.2C1.5,22.6,1.7,22.6,1.8,22.6z M1.3,23.8
	c0,0.1,0,0.2,0.1,0.1c0.1,0,0.1-0.1,0.1-0.2C1.5,23.6,1.3,23.8,1.3,23.8z M1.5,21.4C1.6,21.4,1.6,21.4,1.5,21.4c0-0.1-0.1,0-0.1,0
	C1.4,21.5,1.5,21.4,1.5,21.4z M2.3,9.3H2c0,0.1,0.1,0.1,0.2,0.1c0,0.1,0,0.1,0,0.2c0.1,0,0.2,0,0.2,0C2.3,9.4,2.3,9.3,2.3,9.3z
	 M2.9,18.2c-0.1,0,0.1,0.1,0.1,0.1C3.1,18.2,3,18.1,2.9,18.2z M3,37C3,37,3,37,3,37c0-0.2-0.2-0.2-0.2-0.1c0,0,0,0.1,0,0.1
	c0,0,0,0,0,0c0,0.1,0,0.1,0,0.1c0,0,0.1,0,0.1,0c0,0,0.1,0,0.1,0C3,37.1,3,37,3,37z M2.8,19.2c0.1,0,0.2,0.1,0.2-0.1
	C2.9,19.1,2.7,19,2.8,19.2z M2.8,22.7c0,0,0.1,0,0.1,0v-0.2H2.9C2.9,22.6,2.9,22.6,2.8,22.7z M2.7,20.1c0,0,0,0.1,0,0.1
	C2.8,20.2,2.9,20.2,2.7,20.1C2.8,20.1,2.8,20.1,2.7,20.1z M2.7,32.3c0,0,0,0.1,0,0.1l0,0l0.1,0c0,0,0,0,0,0c0,0,0.1,0,0.1,0L3,32.4
	l-0.1-0.1c0,0-0.1-0.1-0.1-0.1C2.8,32.3,2.7,32.3,2.7,32.3z M2.7,18.1C2.7,17.9,2.6,18,2.5,18l0.1,0.2c-0.1,0-0.1,0.1,0,0
	C2.6,18.2,2.7,18.1,2.7,18.1z M2.6,23c-0.1,0,0,0.1-0.1,0.2l0,0.2C2.6,23.3,2.6,23.1,2.6,23z M2.7,17.7c-0.1,0-0.1,0.2,0,0.2
	C2.6,17.8,2.6,17.7,2.7,17.7c0.1,0,0.1-0.2,0-0.2C2.6,17.5,2.7,17.6,2.7,17.7z M2.7,8.6c0-0.1-0.1,0-0.1-0.1c0,0-0.1-0.1-0.2-0.1
	c0,0,0,0.1,0,0.1C2.5,8.6,2.6,8.6,2.7,8.6z M2.3,24.5c0,0,0.1,0,0.1,0C2.4,24.4,2.3,24.5,2.3,24.5z M1.8,10.2c0,0,0.2,0.1,0.1,0
	c0,0-0.1-0.1-0.1-0.1C1.8,10.1,1.7,10.1,1.8,10.2z M1.8,8.7c0.1,0,0-0.1,0-0.1C1.7,8.6,1.7,8.7,1.8,8.7z M2,18.8v-0.2H1.9
	C1.9,18.7,1.8,18.9,2,18.8z M1.8,22.8c0.1,0,0.2,0,0.1-0.1C1.8,22.6,1.8,22.8,1.8,22.8z M1.7,23.9c-0.1,0,0,0.1,0,0.1
	c0,0.1,0.1,0,0.1,0C1.8,23.9,1.8,23.9,1.7,23.9z M1.5,24L1.5,24c0.1,0,0.2,0.1,0.3,0C1.7,24,1.5,24,1.5,24z M1.7,25.2
	c-0.1,0-0.1,0.1-0.1,0.1c0,0.1,0.1,0,0.1,0C1.7,25.2,1.7,25.2,1.7,25.2z M1.5,32.7L1.5,32.7c0.1,0,0.1,0,0.2,0c0,0,0.1,0,0.1,0
	c0,0,0.1,0,0.1,0c0,0,0-0.1,0-0.1c0,0,0-0.1-0.1-0.1l-0.1-0.2l0,0.2c0,0,0,0-0.1,0C1.6,32.6,1.5,32.6,1.5,32.7L1.5,32.7z M2,23.4
	v-0.2H1.9C1.9,23.2,1.8,23.4,2,23.4z M2,25.3C2.1,25.3,2.2,25.3,2,25.3c0-0.1,0-0.1-0.1-0.2C1.9,25.1,2,25.2,2,25.3z M2.2,23.2
	c0-0.1-0.1-0.1-0.1,0C2.1,23.2,2.2,23.2,2.2,23.2z M2.3,22.9c0,0,0-0.1,0-0.2c-0.1,0-0.2,0-0.2,0.1C2,22.9,2.2,22.9,2.3,22.9z
	 M2.1,19.9C2.2,20,2.3,19.9,2.1,19.9C2.1,19.7,2.1,19.8,2.1,19.9z M2,9.7c0,0.1-0.1,0.1-0.2,0.1c0,0.1,0,0.3,0.2,0.3
	C2,10,2,9.9,2,9.9c0,0,0,0,0,0C2,9.8,2,9.8,2,9.7c0.1,0.1,0.2,0,0.2-0.1C2.1,9.6,2,9.6,2,9.7z M1.8,6.3c0,0-0.1-0.1-0.1,0
	C1.6,6.3,1.7,6.4,1.8,6.3C1.8,6.3,1.8,6.3,1.8,6.3z M1.6,22.2c0,0,0.1,0.1,0.1,0C1.8,22.2,1.7,22.3,1.6,22.2z M1.5,35.3L1.5,35.3
	L1.5,35.3C1.5,35.4,1.6,35.4,1.5,35.3c0.1,0,0.2,0,0.2,0c0,0,0.1,0,0.1-0.1c0-0.1-0.1-0.1-0.1-0.1c0,0-0.1,0-0.1,0
	c-0.1,0-0.1,0-0.1,0.1C1.4,35.3,1.4,35.3,1.5,35.3z M1.8,35.4c-0.1,0-0.1,0-0.1,0.1c0,0,0,0.1,0,0.1c0,0,0.1,0.1,0.1,0.1
	c0,0,0,0,0.1,0c0.1,0,0.1-0.2,0.1-0.2l0-0.1L1.8,35.4C1.8,35.4,1.8,35.4,1.8,35.4z M1.6,35.8l0.1,0.1c0,0,0,0,0,0
	c0,0,0.1,0.1,0.1,0.1l0,0l0,0c0-0.1,0-0.1,0-0.2c-0.1-0.1-0.2-0.1-0.2-0.1L1.6,35.8z M1.9,33.3L1.9,33.3L1.9,33.3
	C2,33.3,2,33.3,1.9,33.3c0.1,0,0.1,0,0.1,0c0.1,0,0.1-0.1,0.1-0.1c0-0.1-0.1-0.1-0.2-0.1c0,0-0.1,0-0.1,0c-0.1,0-0.1,0-0.1,0.1
	C1.8,33.2,1.8,33.2,1.9,33.3L1.9,33.3C1.9,33.3,1.9,33.3,1.9,33.3z M2.3,34.9c0,0,0,0.1,0.1,0.1c0,0,0,0,0,0c0,0,0,0,0.1,0.1
	c0,0,0,0,0.1,0c0,0,0.1,0,0.1-0.1c0,0,0-0.1,0-0.1l0,0l-0.1,0c0,0-0.1,0-0.1,0c0,0-0.1,0-0.1,0C2.3,34.8,2.3,34.8,2.3,34.9z
	 M3.1,17.3c0,0,0.1-0.1,0-0.1c0,0-0.1,0-0.2,0C2.9,17.3,3,17.4,3.1,17.3z M3.1,17.1c0-0.1-0.1,0-0.1,0C3,17.1,3.1,17.1,3.1,17.1z
	 M3.1,24.6c0,0,0.2,0,0-0.1C3.2,24.5,3,24.6,3.1,24.6z M3.2,8.8c0-0.1,0-0.3-0.1-0.2C3.1,8.6,3.1,8.8,3.2,8.8C3,8.9,2.9,8.9,2.8,8.9
	c-0.1,0,0,0.1,0.1,0C3,8.9,3.1,9.1,3.2,9C3.3,8.9,3.2,8.8,3.2,8.8z M3,0.5c0,0.1,0.1-0.1,0.1-0.1C3,0.4,2.9,0.5,3,0.5z M2.9,2.4
	C3,2.4,3,2.5,3,2.5c0,0,0.1-0.1,0.1-0.1c0-0.1,0-0.1,0-0.1C3,2.3,2.8,2.3,2.9,2.4z M2.8,7.9c-0.2,0-0.3-0.1-0.5-0.2
	c-0.1,0,0,0.2,0.1,0.2c-0.1,0-0.1,0.1,0,0.1C2.5,8.1,2.6,8,2.7,8c0,0-0.1,0.1-0.1,0.1C2.7,8.2,2.8,8.1,2.8,7.9
	C2.8,8,2.8,7.9,2.8,7.9z M2.3,2.3C2.3,2.3,2.3,2.4,2.3,2.3C2.4,2.3,2.2,2.2,2.3,2.3z M2.5,1.3c0,0-0.3,0-0.1,0.1
	C2.4,1.3,2.6,1.4,2.5,1.3z M2.4,6.7c0.1,0,0.2,0,0.2,0c0-0.1-0.1-0.1-0.2-0.2V6.7z M2.8,1.5C2.8,1.5,2.8,1.5,2.8,1.5
	C2.9,1.4,2.7,1.4,2.8,1.5C2.7,1.5,2.7,1.6,2.8,1.5z M2.5,3.4c0,0,0,0.1,0,0.1c-0.1,0-0.1,0-0.1,0h0.2c0,0,0.1-0.1,0.1-0.1
	C2.7,3.3,2.6,3.4,2.5,3.4z M2.3,0.4c0,0,0.1,0.1,0.1,0.1c0.1-0.1,0.2,0.1,0.2-0.1c-0.1,0-0.2,0-0.3-0.1C2.2,0.2,2.2,0.3,2.3,0.4z
	 M2.2,8.2c0,0,0,0.1,0,0.2c0,0.1,0.2,0.1,0.2,0c0,0-0.1-0.1,0-0.1C2.3,8.2,2.3,8.2,2.2,8.2z M2.2,9c0,0,0,0.3,0.1,0.1
	C2.3,9.1,2.2,9,2.2,9z M2,4C2,4,2.1,4.2,2,4C2.1,4,2.2,4,2.2,4C2.2,3.9,2.1,4,2,4z M2,3.4C1.9,3.4,2,3.5,2.1,3.5c0.1,0,0-0.2,0-0.3
	C2.1,3.2,2.1,3.3,2,3.4z M1.7,3.3c0.1,0.1,0.2,0,0.3,0c-0.1,0,0-0.2-0.1-0.2C1.8,3.2,1.7,3.2,1.7,3.3z M1.5,4C1.5,4,1.6,4,1.7,4
	C1.7,4,1.8,4,1.8,3.9C1.7,3.9,1.6,4,1.5,4z M1.5,9.6c0,0.1,0,0.1,0.1,0.1c0,0,0.1-0.1,0-0.1C1.6,9.5,1.5,9.6,1.5,9.6z M1.3,9.5
	C1.4,9.5,1.5,9.5,1.3,9.5C1.4,9.4,1.3,9.4,1.3,9.5z M1.3,18.6c0,0.1,0,0.1,0.1,0.1c0-0.1-0.1-0.1,0-0.1C1.5,18.4,1.3,18.6,1.3,18.6z
	 M1.3,21.7c0.1,0,0.1,0,0.2-0.1C1.3,21.6,1.3,21.7,1.3,21.7z M1.1,22.1c0,0-0.1,0-0.1,0c0,0,0,0.1,0,0.1C1.2,22.2,1,22.1,1.1,22.1z
	 M0.7,21.5l0.2,0c0-0.1-0.1-0.1-0.2-0.1C0.7,21.4,0.8,21.5,0.7,21.5z M0.8,21.1c0,0,0.1-0.1,0.1-0.1C0.8,21,0.8,21,0.8,21.1
	C0.7,21.1,0.7,21.2,0.8,21.1z M1,18.3c0-0.1-0.1-0.1-0.1,0C0.9,18.3,1.1,18.3,1,18.3z M1,18.5C1,18.5,1,18.5,1,18.5
	C1.1,18.3,1,18.4,1,18.5C0.9,18.5,0.9,18.6,1,18.5z M1.1,19.2C1.2,19.1,1,19.1,1,19.1L1.1,19.2C1.1,19.3,1.1,19.3,1.1,19.2z
	 M1.2,21.4l-0.2,0c0,0.1,0,0.4,0.1,0.3C1.1,21.6,1.2,21.5,1.2,21.4z M1.1,20c0,0.1,0.1,0,0.1,0c0,0,0,0,0,0
	C1.2,19.8,1.1,19.9,1.1,20z M0.9,17.3c-0.1-0.1-0.2-0.1-0.3-0.1c0,0.1,0,0.2,0,0.3c0.1,0.2,0.3,0.3,0.4,0.6
	C1.2,17.8,1.1,17.4,0.9,17.3z M0.1,24.1c0,0.1,0.1,0.1,0.2,0.1c0.1,0,0.1-0.1,0.1-0.1H0.1z M0.2,20.4C0.2,20.4,0.2,20.4,0.2,20.4
	c0.1-0.1,0-0.1,0-0.1C0.1,20.4,0.1,20.4,0.2,20.4z M0.3,36.5L0.3,36.5c0,0,0.1,0.1,0.1,0.1c0,0,0.1,0,0.1,0c0,0,0.1-0.1,0-0.1
	c0-0.1-0.1-0.1-0.1-0.1c0,0-0.1,0-0.1,0.1C0.3,36.4,0.3,36.4,0.3,36.5L0.3,36.5z M0.6,24c0.1-0.1-0.1-0.2-0.1-0.2
	c-0.1,0-0.1-0.1-0.1-0.2c-0.1,0-0.2-0.1-0.2,0c0,0.1,0,0.1,0.1,0.2c0.1,0,0.1,0,0.2,0C0.4,23.9,0.5,24,0.6,24z M0.3,22.8
	c0.1,0.1,0.1-0.1,0.1-0.2c0,0,0,0-0.1,0C0.2,22.7,0.2,22.8,0.3,22.8z M0.6,18c0-0.1,0-0.2-0.1-0.1c0,0.1,0,0.2,0,0.2
	C0.5,18.1,0.6,18,0.6,18z M0.7,10.4c0.1,0,0-0.1,0-0.2c-0.1,0.1-0.2,0.1-0.2,0.2C0.6,10.4,0.7,10.4,0.7,10.4z M0.6,10.2
	c0.1,0,0.2,0,0.2,0c-0.1,0-0.1-0.2-0.2-0.2C0.6,10,0.7,10.1,0.6,10.2z M1,7.8L1,8c0,0-0.1-0.1-0.1,0C0.9,8,1,8,1,8
	C1.1,7.9,1.1,7.9,1,7.8c0-0.1,0.1-0.1,0.1-0.2c0-0.1-0.1,0-0.1,0.1C1,7.7,1,7.8,1,7.8z M0.9,9.9c0,0,0,0.1,0.1,0.1
	c-0.1,0,0,0.2,0,0.1c0,0,0-0.1,0-0.1C1,9.9,0.9,9.8,0.9,9.9z M0.7,7.7v0.2c0.1,0,0.1-0.1,0.2-0.1C0.9,7.6,0.8,7.6,0.7,7.7z M0.8,4.8
	c0.1,0,0.2-0.2,0.1-0.2C0.8,4.6,0.8,4.8,0.8,4.8z M0.8,6.9c0,0-0.1-0.2-0.1-0.1C0.6,6.9,0.8,6.9,0.8,6.9z M1,1.2
	c0.1,0.1,0.1-0.1,0.1-0.1H1C1,1.1,1,1.2,1,1.2z M0.9,1.8C0.9,1.8,0.9,2,1,1.9C1,1.8,0.9,1.7,0.9,1.8z M0.8,3.5c0,0.1,0.1,0.1,0.1,0
	C0.9,3.5,0.8,3.5,0.8,3.5C0.8,3.5,0.7,3.5,0.8,3.5C0.7,3.6,0.8,3.6,0.8,3.5z M0.5,2.5c0,0,0.2,0,0.1-0.1c0,0-0.1,0-0.1,0
	C0.5,2.4,0.5,2.5,0.5,2.5z M0.5,7C0.5,7,0.5,7,0.5,7c0.1,0,0.1-0.1,0-0.1C0.5,6.9,0.5,7,0.5,7z M0.4,20.6L0.4,20.6
	c-0.1,0-0.2,0-0.2,0.1c0.1,0,0.3,0,0.3,0C0.5,20.7,0.5,20.5,0.4,20.6z M0.4,9.9c0-0.1,0-0.2-0.1-0.1C0.2,9.8,0.3,9.9,0.4,9.9
	C0.3,10,0.4,9.9,0.4,9.9z M0.2,8.3c0.1-0.1,0.1-0.1,0.2-0.1c0-0.1,0.1-0.2,0-0.2C0.3,8.1,0.1,8.1,0.2,8.3z M0.2,8.7
	c0,0,0.1,0,0.1,0.1c0.1,0,0.1-0.1,0-0.1c0,0-0.1,0-0.1-0.1C0.1,8.6,0.1,8.7,0.2,8.7z M0,11.5c0,0,0.1,0,0.1,0.1c0.1,0,0.2,0,0.2-0.1
	c0.1-0.1-0.1-0.2-0.2-0.1C0.1,11.4,0.1,11.5,0,11.5z M0.2,18.2C0.2,18.1,0,18,0,18.1C0,18.2,0.1,18.3,0.2,18.2z M0.3,37.3l0.2-0.2
	l-0.2,0.1l0,0c0,0-0.1,0-0.1,0c0,0,0,0-0.1,0.1l0,0l0,0c0,0,0.1,0.1,0.1,0.1C0.2,37.4,0.3,37.4,0.3,37.3z M0.3,38.6
	C0.4,38.6,0.4,38.5,0.3,38.6l0.1-0.1l-0.1-0.1l0,0c0,0-0.1,0.1-0.1,0.1C0.2,38.5,0.3,38.6,0.3,38.6z M0.6,38.8L0.6,38.8L0.6,38.8
	c-0.1,0-0.1,0-0.1,0c0,0-0.1,0-0.1,0c-0.1,0-0.1,0-0.1,0c0,0.1,0,0.1,0,0.1l0,0.1l0.1,0c0,0,0,0,0,0c0,0,0.1,0,0.1,0
	c0.1,0,0.1,0,0.1,0C0.6,38.8,0.6,38.8,0.6,38.8z M0.6,37.3L0.6,37.3L0.6,37.3c-0.1,0-0.1,0-0.1,0c0,0-0.1,0-0.1,0
	c-0.1,0-0.1,0-0.1,0c0,0.1,0,0.1,0,0.1l0,0.1l0.1,0c0,0,0,0,0,0c0,0,0.1,0,0.1,0c0.1,0,0.1,0,0.1,0C0.7,37.4,0.7,37.4,0.6,37.3z
	 M0.7,34.6c0,0-0.1-0.1-0.2-0.1l0,0l0,0c0,0.1,0,0.2,0,0.2c0,0.1,0.1,0.1,0.2,0.1l0.1,0l0,0C0.7,34.7,0.7,34.6,0.7,34.6z M0.9,38.8
	c0.1,0,0.1-0.1,0.2-0.2l0,0l0,0c0,0-0.1,0-0.1,0c-0.1,0-0.1,0-0.2,0.1C0.8,38.7,0.8,38.7,0.9,38.8C0.9,38.8,0.9,38.8,0.9,38.8z
	 M1.2,39.6c0,0-0.1-0.1-0.1-0.1c0,0-0.1,0-0.1,0c-0.1,0.1,0,0.1,0,0.2l0,0c0,0,0.1,0,0.1,0c0.1,0,0.1,0,0.1-0.1
	C1.2,39.7,1.2,39.6,1.2,39.6z M1.2,33.9C1.2,33.9,1.3,33.9,1.2,33.9c0.1,0,0.1,0,0.2-0.1c0,0,0-0.1,0-0.1c0,0-0.1-0.1-0.1-0.1
	c0,0-0.1,0-0.1,0.1C1.1,33.7,1.1,33.8,1.2,33.9C1.2,33.8,1.2,33.8,1.2,33.9C1.2,33.8,1.2,33.8,1.2,33.9c-0.1,0-0.2,0-0.2,0
	c-0.1,0-0.1,0-0.2,0.1c0,0,0,0.1,0,0.1c0,0.1,0.1,0.1,0.1,0.1l0,0c0.1,0,0.1,0,0.2-0.1c0,0,0,0,0,0L1.2,33.9z M1.3,38.3L1.3,38.3
	C1.4,38.3,1.4,38.3,1.3,38.3c0.1,0,0.2,0,0.2,0c0.1,0,0.1,0,0.1,0c0-0.1,0-0.1,0-0.1l0-0.1l-0.1,0c0,0,0,0,0,0c0,0-0.1,0-0.1,0
	c-0.1,0-0.1,0-0.1,0C1.3,38.2,1.3,38.2,1.3,38.3L1.3,38.3z M1.8,39L1.8,39l-0.1-0.1l-0.1,0c0,0,0,0,0,0c0,0-0.1,0-0.1,0
	c-0.1,0-0.1,0-0.1,0.1c0,0.1,0,0.1,0,0.1l0,0l0,0c0,0,0,0,0.1,0C1.6,39.1,1.7,39.1,1.8,39L1.8,39z M2.1,37.2c0-0.1-0.1-0.1-0.2-0.1
	c0,0-0.1,0-0.1,0.1l0,0l0,0c0,0,0,0,0,0l-0.1,0.1l0.1,0c0,0,0,0,0.1,0c0.1,0,0.1,0,0.2-0.1C2.1,37.3,2.1,37.3,2.1,37.2z M2.5,35.7
	c0,0,0.1,0,0.1-0.1c0,0,0-0.1-0.1-0.1c0,0,0,0-0.1,0l0,0l0,0c-0.1,0-0.1,0-0.2,0c-0.1,0-0.1,0.1-0.1,0.1l0,0.1l0.1,0
	c0,0,0.1,0,0.1,0C2.4,35.7,2.4,35.7,2.5,35.7z M3,39l0.3,0.2L3,38.9c0,0,0-0.1,0-0.1c0,0-0.1-0.1-0.1-0.1c0,0-0.1,0-0.1,0
	c-0.1,0-0.2,0.1-0.2,0.1l0,0c-0.1,0-0.1,0-0.1,0.1c0,0,0,0.1,0,0.1c0,0,0.1,0.1,0.1,0.1l0,0l0.1,0l0,0c0,0,0-0.1,0-0.1
	c0,0,0.1,0,0.1,0C2.9,39.1,2.9,39,3,39z M3.3,40l0-0.1c0,0,0-0.1,0-0.1c0-0.1,0-0.1,0-0.2c0,0,0,0-0.1,0c-0.1,0-0.1,0.1-0.1,0.1
	c0,0,0,0,0,0c0,0.1,0,0.1,0,0.2c0,0,0.1,0.1,0.1,0.1L3.3,40z M3.7,39.4L3.7,39.4L3.7,39.4c0.1-0.1,0-0.2,0-0.2c0,0,0,0,0,0l0,0
	l-0.1,0c-0.1,0-0.1,0.1-0.1,0.1C3.4,39.4,3.5,39.4,3.7,39.4C3.6,39.4,3.6,39.4,3.7,39.4z M3.6,38.3c-0.1,0-0.1,0-0.1,0
	c0,0.1,0,0.1,0,0.1l0,0.1l0.1,0c0,0,0,0,0,0c0,0,0.1,0,0.1,0c0.1,0,0.1,0,0.1,0c0-0.1,0-0.1,0-0.1l0-0.1l-0.1,0
	C3.7,38.3,3.7,38.3,3.6,38.3C3.7,38.3,3.6,38.3,3.6,38.3z M3.7,37.4c0,0,0.1,0.1,0.1,0.1l0,0l0.1,0l0,0c0-0.1,0-0.2,0-0.2
	c0,0-0.1,0-0.1,0c-0.1,0-0.1,0-0.1,0.1C3.6,37.3,3.6,37.3,3.7,37.4z M4,39.6C4,39.6,4,39.6,4,39.6l0.1,0l-0.1-0.2
	c0,0,0.1-0.1,0.1-0.1c0-0.1-0.1-0.1-0.2-0.1c0,0,0,0,0,0l0,0l0,0c0,0-0.1,0.1-0.1,0.1c0,0,0,0.1,0,0.1c0,0,0,0,0.1,0l0,0
	c0,0,0,0.1,0,0.1c0,0,0,0.1,0,0.1c-0.1,0-0.1,0.1-0.1,0.1c0,0,0,0,0,0l-0.1,0.1L3.8,40c0,0,0.1,0.1,0.1,0.1l0,0C4,40.1,4,40,4,40
	c0,0,0-0.1,0-0.1c0,0,0,0,0,0c0,0,0.1-0.1,0.1-0.2C4,39.7,4,39.6,4,39.6z M4.5,37.6c0-0.1-0.2-0.1-0.2,0c0,0.1,0,0.1,0,0.1
	c0,0,0.1,0,0.1,0c0,0,0.1,0,0.1,0C4.5,37.7,4.5,37.6,4.5,37.6z M4.8,38.9L4.8,38.9c0-0.1,0-0.1,0-0.1c0-0.1,0-0.1,0-0.2
	c0,0-0.1,0-0.2,0l0,0v0.3L4.8,38.9z M5.3,38.9c0,0,0-0.1,0-0.1c0,0-0.1-0.1-0.1-0.1l0,0l-0.1,0l0,0l0,0.1c0,0,0,0,0,0c0,0,0,0,0,0
	c0,0,0,0,0,0l0,0l0,0c0,0,0,0.1,0,0.2c0,0,0,0,0.1,0C5.2,39.1,5.3,38.9,5.3,38.9z M5.4,37.7c0.1,0,0.2-0.1,0.2-0.1c0,0,0-0.1,0-0.1
	l0,0h0c0,0-0.1,0-0.1,0l0,0c0,0,0,0-0.1,0.1l0,0l0,0C5.3,37.7,5.3,37.7,5.4,37.7z M5.6,38.2L5.6,38.2c-0.1-0.1-0.2,0-0.2,0
	c0,0,0,0.1,0,0.1c0,0,0,0,0,0.1c0,0.1,0.1,0.1,0.1,0.1c0,0,0,0,0,0l0.1,0.1V38.2z M6.1,39.4L6.1,39.4l-0.1,0
	c-0.1,0.1-0.1,0.1-0.1,0.1c0,0.1,0,0.1,0,0.2c0,0,0.1,0.1,0.1,0.1c0,0,0.1,0,0.1,0l0,0l0,0c0,0,0,0,0-0.1
	C6.1,39.5,6.1,39.4,6.1,39.4z M6.3,37.2C6.3,37.3,6.3,37.3,6.3,37.2c0.1,0.1,0.1,0,0.2,0c0.1,0,0.1-0.1,0.1-0.2
	c0-0.1-0.1-0.1-0.1-0.1c0,0,0,0-0.1,0c0,0-0.1,0.1-0.1,0.1C6.2,37.2,6.2,37.2,6.3,37.2z M6.6,39.4c0-0.1,0-0.1-0.1-0.2
	c-0.1-0.1-0.2-0.1-0.2,0c0,0.1,0,0.1,0,0.2C6.4,39.5,6.4,39.5,6.6,39.4C6.5,39.5,6.6,39.5,6.6,39.4z M7.4,38.1c0,0-0.1,0-0.1,0
	c-0.1,0-0.1,0-0.1,0.1c0,0,0,0.1,0,0.1c0,0,0.1,0,0.1,0.1l0,0l0.1,0l0,0C7.5,38.2,7.4,38.1,7.4,38.1z M7.5,37.4c0.1,0,0.1,0,0.1-0.1
	c0,0,0,0,0,0l0.1,0l0-0.1c0-0.1-0.1-0.1-0.2-0.1l-0.1,0L7.5,37.4L7.5,37.4z M7.9,39.3C7.8,39.3,7.8,39.3,7.9,39.3
	c-0.2,0-0.2,0-0.2,0c0,0,0,0.1,0,0.1l0,0l0,0c0,0,0.1,0,0.1,0c0.1,0,0.1,0,0.1-0.1C7.9,39.5,7.9,39.4,7.9,39.3z M8,39.2
	C8.1,39.1,8,39,8,39c0,0-0.1,0-0.1,0c0,0-0.1,0-0.1,0.1c0,0.1,0,0.2,0.1,0.2C7.9,39.2,7.9,39.2,8,39.2C8,39.2,8,39.2,8,39.2z
	 M8.2,38.8C8.2,38.8,8.2,38.8,8.2,38.8l0.2,0v-0.2l0.1,0l-0.1-0.1v-0.2l-0.1,0c-0.1,0-0.1,0-0.1,0.1c0,0,0,0,0,0c0,0,0,0,0,0
	c0,0-0.1,0-0.1,0.1c0,0,0,0.1,0,0.1C8.1,38.8,8.1,38.8,8.2,38.8z M8.9,39L8.9,39c-0.1,0-0.1,0-0.2,0c-0.1,0-0.1,0-0.1,0
	c0,0,0-0.1-0.1-0.1c0,0,0,0,0,0c-0.1,0-0.1,0.1-0.2,0.1c0,0,0,0.1,0,0.1c-0.1,0-0.2,0-0.2,0.1c0,0,0,0.1,0,0.1c0,0,0.1,0.1,0.1,0.1
	c0.1,0,0.2-0.1,0.2-0.1c0,0,0,0,0,0c0,0,0.1,0,0.1,0c0,0,0.1,0,0.1-0.1c0,0,0,0,0,0c0,0,0,0,0.1,0l0,0C8.8,39.2,8.8,39.1,8.9,39
	L8.9,39z M12.5,38c0,0,0-0.1,0-0.1c0-0.1-0.2-0.1-0.2,0c0,0,0,0.1,0,0.1c0,0.1,0.1,0.1,0.1,0.1C12.4,38.1,12.4,38,12.5,38z
	 M13.6,38.5L13.6,38.5l0-0.1c0,0-0.1,0-0.1,0c0,0-0.1,0-0.1,0l0,0l0,0c0,0,0,0,0,0c0,0.1,0.1,0.2,0.2,0.2l0,0c0,0,0.1,0,0.1-0.1
	C13.6,38.6,13.6,38.6,13.6,38.5C13.6,38.5,13.6,38.5,13.6,38.5z M14.2,38.9L14.2,38.9L14.2,38.9C14.1,38.8,14.1,38.8,14.2,38.9
	c-0.2-0.1-0.2-0.1-0.2,0c0,0,0,0,0,0.1C14,39,14,39,14.1,39C14.1,39,14.1,39,14.2,38.9C14.2,39,14.2,38.9,14.2,38.9z M16.4,38
	c0,0-0.1,0-0.1,0c-0.1,0-0.1,0-0.1,0.1c0,0.1,0,0.1,0,0.2l0,0h0c0.1,0,0.1-0.1,0.1-0.1C16.4,38.1,16.4,38.1,16.4,38z M17.7,39
	c0,0,0-0.1,0-0.1c0,0-0.1,0-0.1,0c-0.1,0-0.1,0-0.1,0.1c0,0.1,0,0.1,0.1,0.1c0,0,0,0,0.1,0c0,0,0,0,0,0C17.7,39.1,17.7,39.1,17.7,39
	z M18,38.4C18,38.5,18,38.5,18,38.4c0.1,0.1,0.2,0,0.2,0c0,0,0-0.1,0-0.1c0-0.1-0.1-0.1-0.2,0C18,38.3,18,38.4,18,38.4z M18.3,39.5
	C18.3,39.5,18.3,39.5,18.3,39.5l-0.1-0.1h0c0,0-0.1,0-0.1,0l0,0c0,0,0,0-0.1,0.1l0,0l0,0c0,0,0.1,0.1,0.1,0.1
	C18.2,39.7,18.3,39.6,18.3,39.5z M19.1,39c0-0.1-0.1-0.1-0.2,0c0,0-0.1,0.1-0.1,0.1l0,0.1h0.4l0,0C19.1,39.1,19.1,39.1,19.1,39z
	 M19.8,39.9c0-0.1-0.1-0.1-0.2-0.2l-0.1,0l0,0.3l0,0c0,0,0,0,0,0c0,0,0.1,0.1,0.1,0.1l0,0l0,0C19.8,40,19.8,39.9,19.8,39.9z
	 M19.7,38L19.7,38c0.1,0,0.1-0.1,0.1-0.1c0-0.1-0.1-0.1-0.1-0.1c0,0-0.1,0-0.1,0.1l0,0L19.7,38z M19.9,39
	C19.9,38.9,19.8,38.9,19.9,39l-0.1-0.2l-0.1,0.1c0,0,0,0.1,0,0.2c0,0,0,0,0,0l0,0l0,0c0,0,0,0,0.1,0c0,0,0.1,0,0.1,0
	C19.9,39.1,19.9,39,19.9,39z M22.2,38.8L22.2,38.8L22.2,38.8c-0.1,0-0.1,0-0.1,0c0,0-0.1,0-0.1,0c-0.1,0-0.1,0-0.1,0
	c0,0.1,0,0.1,0,0.1l0,0.1l0.1,0c0,0,0,0,0,0c0,0,0.1,0,0.1,0c0.1,0,0.1,0,0.1,0C22.3,38.9,22.3,38.8,22.2,38.8z M23.7,38.9
	c0,0-0.1,0-0.1,0c-0.1,0-0.1,0-0.1,0.1c0,0,0,0.1,0,0.1c0,0,0.1,0,0.1,0.1l0,0l0.1,0l0,0C23.7,39,23.7,38.9,23.7,38.9z M24.7,39.1
	c0,0-0.1-0.1-0.1-0.1c0,0-0.1-0.1-0.2-0.1c-0.1,0-0.2,0-0.2,0.1c0,0.1,0.1,0.1,0.1,0.2l0,0c0,0,0.1,0,0.1,0c0,0,0.1,0,0.1-0.1
	c0,0,0.1,0,0.1-0.1C24.7,39.2,24.7,39.1,24.7,39.1z M26.5,38.9c0-0.1-0.1-0.1-0.2-0.1c-0.1,0.1-0.1,0.1-0.1,0.2c0,0,0,0.1,0.1,0.1
	c0,0,0.1,0,0.1,0C26.5,39,26.5,39,26.5,38.9z M26.8,38.3h-0.4v0.3l0.1-0.1c0,0,0,0,0.1,0C26.6,38.6,26.7,38.5,26.8,38.3L26.8,38.3z
	 M27.1,39c0-0.1-0.1-0.1-0.2-0.1c0,0-0.1,0.1-0.2,0.2l0,0l0,0c0,0,0,0,0,0c0,0,0,0,0,0c0,0,0,0.1,0,0.1c0,0,0.1,0.1,0.1,0.1l0,0
	l0.1,0l0,0c0-0.1,0-0.2,0-0.2c0,0,0,0,0,0c0,0,0,0,0,0C27.1,39.1,27.1,39.1,27.1,39z M26.8,37.7C26.8,37.7,26.9,37.7,26.8,37.7
	c0.1,0,0.2,0,0.2,0c0,0,0.1-0.1,0-0.1c0,0-0.1-0.1-0.1-0.1c0,0-0.1,0-0.1,0.1C26.8,37.5,26.8,37.6,26.8,37.7L26.8,37.7L26.8,37.7z
	 M27.4,38.1c0,0-0.1,0-0.1,0c-0.1,0-0.1,0-0.1,0.1c0,0,0,0.1,0,0.1c0,0,0.1,0.1,0.1,0.1l0,0l0.1,0l0,0
	C27.4,38.2,27.4,38.1,27.4,38.1z M28.1,39.9l-0.2-0.1c0,0,0,0,0,0c0,0,0,0,0,0l0-0.1l-0.1,0c0,0-0.1,0-0.1,0c-0.1,0-0.1,0-0.1,0.1
	c0,0,0,0,0,0.1c0,0,0,0.1,0,0.1c0,0.1,0.1,0.1,0.1,0.1l0,0c0,0,0.1,0,0.1,0L28.1,39.9z M28.7,39.5c0,0,0.1-0.1,0.1-0.1
	c0,0,0-0.1-0.1-0.1c-0.1,0-0.1,0-0.2,0.1c0,0,0,0.1,0,0.1c0,0,0,0,0,0.1c0,0,0,0,0,0.1c0,0.1,0,0.1,0,0.2c0,0,0.1,0.1,0.1,0.1
	c0,0,0.1,0,0.1,0C28.8,39.7,28.8,39.7,28.7,39.5C28.7,39.6,28.7,39.6,28.7,39.5z M29,38.6c0-0.1,0-0.1-0.1-0.1c0,0,0,0,0,0l0-0.1
	l0,0c0,0,0,0,0,0l0-0.1h-0.3l0,0c0,0,0,0,0,0c0,0,0-0.1,0-0.1c0,0,0,0,0,0c0,0,0,0,0,0l0,0c0.1,0,0.1,0,0.1-0.1c0-0.1,0-0.2-0.1-0.2
	c0,0,0,0,0,0l0,0l0,0c0,0-0.1,0.1,0,0.1c0,0,0,0,0,0c0,0,0,0,0,0c0,0-0.1,0-0.1,0.1c0,0,0,0.1,0,0.1c0,0,0.1,0.1,0.1,0.1l0.1,0
	c0,0,0,0,0,0c0,0.1,0,0.1,0,0.2c0,0,0.1,0,0.1,0c0,0,0,0,0.1,0.1l0,0c-0.1,0-0.1,0-0.2,0l0,0c0,0,0,0,0,0c0,0,0-0.1,0-0.1l0-0.1
	l-0.1,0c0,0-0.1,0-0.1,0c0,0,0,0,0,0c0,0-0.1-0.1-0.1-0.1c0,0-0.1,0-0.1,0.1c0,0,0,0,0,0.1l0,0l-0.1,0l0,0.1c0,0,0,0.1,0,0.1
	c0,0.1,0.1,0.1,0,0.2L28,38.9c0,0-0.1,0-0.1,0.1c0,0,0,0.1,0.1,0.1c0,0,0,0,0,0.1c0,0,0,0,0,0.1l0,0.1l0,0c0,0,0,0,0,0
	c0,0,0,0,0.1,0c0.1,0,0.1-0.1,0.2-0.2c0,0,0-0.1,0-0.1c0,0,0,0,0,0c0,0,0.1,0,0.1,0c0.1,0,0.1-0.1,0.1-0.1c0,0,0,0,0-0.1h0
	c0,0,0,0,0,0.1c0,0.1,0.1,0.1,0.2,0l0,0l0-0.3c0,0,0,0,0,0c0,0,0,0,0,0l0,0.1L29,38.6C29,38.6,29,38.6,29,38.6z M28.3,37.5
	C28.3,37.5,28.3,37.5,28.3,37.5c-0.1,0-0.2,0-0.2,0c0,0,0,0.1,0,0.1c0,0.1,0.1,0.1,0.1,0.1c0,0,0,0,0,0l0,0c0.1,0,0.1,0,0.2-0.1
	c0,0,0,0,0,0c0,0,0,0,0,0l0,0h0c0,0,0,0,0,0c0.1,0,0.1-0.2,0.1-0.2c0,0,0,0,0-0.1l0-0.1l-0.1,0c0,0,0,0-0.1,0c0,0,0,0-0.1,0l0,0l0,0
	C28.4,37.4,28.3,37.5,28.3,37.5C28.3,37.5,28.3,37.5,28.3,37.5z M29.6,39.6c0-0.1-0.1-0.1-0.2,0c0,0,0,0,0,0l-0.1,0c0,0,0-0.1,0-0.1
	c0,0-0.1-0.1-0.2,0l-0.1,0l0,0.1c0,0,0,0.1,0.1,0.1c0,0,0,0,0,0c0,0,0,0.1,0,0.1c0,0.1,0.1,0.1,0.2,0.1l0.1,0l0,0c0,0,0-0.1,0-0.1
	c0,0,0,0,0,0c0,0,0,0,0,0c0,0,0.1,0,0.1,0l0.1,0.1l0-0.1C29.6,39.7,29.6,39.6,29.6,39.6z M29.6,37.6c-0.1-0.1-0.2,0-0.2,0
	c0,0,0,0.1,0.1,0.1c0,0,0,0,0,0c0,0-0.1,0-0.1,0c0,0,0,0,0,0l-0.1,0l0.1,0.1c0,0,0,0,0,0c0,0-0.1,0.1-0.1,0.2c0,0,0,0.1,0,0.1
	c0,0,0.1,0.1,0.1,0.1c0,0,0.1,0,0.1,0c0.1-0.1,0.1-0.1,0.1-0.2c0-0.1,0-0.1,0.1-0.1l0.1-0.1l-0.1,0c0,0,0,0,0,0c0.1,0,0.1,0,0.2-0.1
	C29.7,37.7,29.7,37.6,29.6,37.6z M30,38.9c0-0.1-0.1-0.1-0.2-0.1c0,0-0.1,0-0.1,0.1c0,0.1,0,0.1,0,0.2c0,0,0.1,0.1,0.1,0.1
	c0,0,0.1,0,0.1-0.1C30,39,30,38.9,30,38.9z M29.7,37.8C29.7,37.8,29.8,37.8,29.7,37.8c0.1,0.1,0.2,0,0.2,0c0,0,0-0.1,0-0.1
	c0,0-0.1-0.1-0.1-0.1l0,0l0,0C29.7,37.6,29.7,37.7,29.7,37.8z M30.2,37.4C30.2,37.4,30.2,37.4,30.2,37.4c0-0.1,0-0.1,0-0.2
	c0,0-0.1,0-0.2,0l0,0v0.3L30.2,37.4c-0.1,0.1-0.1,0.1-0.1,0.2c0,0,0,0.1,0.1,0.1c0,0,0,0,0.1,0c0.1,0,0.1-0.1,0.1-0.1
	C30.3,37.5,30.3,37.4,30.2,37.4L30.2,37.4L30.2,37.4C30.2,37.4,30.2,37.4,30.2,37.4z M30.4,39.2c0-0.1,0-0.1-0.1-0.2
	c0,0-0.1,0-0.1,0l0-0.1l0,0c0,0,0,0,0,0c0,0,0,0,0,0c0,0,0.1,0,0.1,0l0,0l0,0c0-0.1-0.1-0.1-0.2-0.1c-0.1,0-0.1,0-0.2,0.1
	c0,0.1,0,0.1,0,0.2c0,0,0.1,0.1,0.1,0.1l0,0c0,0,0,0,0,0c0,0,0,0.1,0,0.2c0,0,0,0,0,0l0,0.1l0.1,0l0,0c0,0,0.1,0,0.1,0
	C30.4,39.3,30.4,39.2,30.4,39.2z M30.8,38.6c0,0-0.1-0.1-0.1-0.1c0,0,0-0.1,0-0.1c0,0,0,0,0,0l0.1,0l-0.1-0.1c0,0,0,0,0,0
	c-0.1-0.1-0.1-0.1-0.1-0.1l0,0c-0.1,0-0.1,0.1-0.1,0.2c0,0,0,0,0,0c0,0,0,0.1,0,0.1c0,0.1,0.1,0,0.2,0c0,0,0,0,0,0l0,0.1
	c0,0.1,0,0.2-0.1,0.3c0,0,0,0.1,0,0.1l0,0l0.2,0.2l0-0.1c0-0.1,0.1-0.1,0.1-0.1c0,0,0.1,0,0.1-0.1C30.8,38.7,30.8,38.6,30.8,38.6z
	 M30.5,38.2c0,0,0.1,0.1,0.1,0.1l0,0l0,0c0,0,0,0,0-0.1c0,0,0-0.1-0.1-0.2l0,0l0,0C30.5,38.1,30.5,38.2,30.5,38.2z M31.1,39.4
	c0-0.1-0.1-0.1-0.1-0.1c0,0-0.1,0-0.1,0.1l0,0l-0.1,0c0,0,0,0,0,0l0,0.1h0c0,0,0.1,0.1,0.1,0.1c0,0,0.1,0,0.1,0
	C31.1,39.5,31.1,39.5,31.1,39.4z M31.4,38.7c0,0,0-0.1,0-0.2c0,0,0,0,0,0c0,0,0,0,0,0.1c0,0,0,0.1,0.1,0.1l0,0l0,0c0,0,0,0,0.1,0
	c0.1,0,0.1-0.1,0.1-0.2l0-0.1l-0.1,0l-0.1,0c-0.1,0-0.2,0-0.2,0c0,0,0-0.1,0-0.2c0,0-0.1,0-0.1,0c-0.1,0-0.1,0.1-0.1,0.1
	c0,0,0,0,0,0.1l-0.1,0l-0.2,0l0.1,0.1c0.1,0.1,0,0.2,0,0.3c0,0,0,0.1,0,0.1l0,0.1l0.1,0c0,0,0.1,0,0.1-0.1
	C31.3,38.8,31.3,38.8,31.4,38.7C31.3,38.7,31.3,38.7,31.4,38.7L31.4,38.7L31.4,38.7z M31.7,39C31.7,39,31.7,39,31.7,39
	C31.7,39,31.7,39,31.7,39c0.1-0.1,0.1-0.1,0.1-0.1c0,0,0,0,0,0c0.1,0,0.2-0.2,0.2-0.2l-0.1,0l0-0.1l0,0c-0.1,0-0.2,0-0.2,0.1
	c0,0,0,0,0,0.1c0,0-0.1,0-0.1,0c0,0-0.1,0-0.1,0c0,0,0,0,0,0l-0.1,0l0,0.1c0,0,0,0,0,0c0,0.1,0,0.1,0.1,0.1c0,0,0,0,0,0
	c0,0-0.1-0.1-0.1-0.1c0,0,0-0.1,0-0.1c0,0-0.1-0.1-0.2,0c-0.1,0-0.1,0.1-0.1,0.1c0,0,0,0.1,0,0.1c0,0,0,0,0,0.1l0,0l0,0
	c0,0,0.1,0,0.2,0c0,0,0,0,0,0h0l0,0l0,0c0,0,0,0,0,0c0,0.1,0.1,0.1,0.1,0.2l0,0l0,0c0.1,0,0-0.1,0-0.1c0,0,0,0,0,0c0,0,0-0.1,0-0.1
	C31.8,39.1,31.7,39,31.7,39z M32.1,38.1C32.1,38.1,32.1,38.1,32.1,38.1L32.1,38.1l0-0.1c-0.1-0.1-0.1-0.1-0.2,0
	c-0.1,0.1,0,0.2,0,0.2c0,0.1,0.1,0.1,0.1,0.1c0,0,0,0,0.1,0c0,0,0.1-0.1,0.1-0.1C32.2,38.1,32.2,38.1,32.1,38.1
	C32.1,38.1,32.1,38,32.1,38.1z M33.1,38.6C33.1,38.6,33.1,38.6,33.1,38.6c0-0.1,0.1-0.1,0-0.2l0,0h0c0,0,0,0-0.1,0
	c-0.1,0-0.1,0.1-0.1,0.1c0,0,0,0-0.1,0c0,0,0,0-0.1,0c0,0,0,0-0.1,0c0,0-0.1,0-0.1,0.1l0-0.1l0,0c0,0,0-0.1,0-0.1c0,0,0-0.1-0.1-0.1
	c-0.1,0-0.1,0-0.1,0.1c0,0,0,0.1,0,0.1c0,0,0.1,0.1,0.1,0.1c0,0,0,0,0,0l0,0c0,0,0,0.1,0,0.1c0-0.1-0.1-0.1-0.2-0.1c0,0,0,0,0,0
	l-0.1,0l0,0.1c0,0,0,0.1,0,0.2c0,0-0.1,0-0.1,0c0,0,0,0-0.1,0l-0.1,0l0,0.1c0,0.1,0.1,0.1,0.1,0.1c0,0,0,0,0.1,0h0c0,0,0,0,0,0
	l0,0.1l0,0c0,0,0,0,0,0.1c0,0,0,0.1,0,0.1c0,0.1,0.1,0,0.1,0l0,0.1l0.1,0c0.1,0,0-0.1,0-0.2c0,0,0-0.1,0-0.1c0,0-0.1-0.1-0.1-0.1
	c0,0,0,0,0-0.1c0,0,0,0,0.1,0l0.1,0l0-0.1c0,0,0,0,0-0.1c0,0,0.1,0,0.1,0l0,0c0.1,0,0.1,0,0.1-0.1c0,0,0-0.1,0-0.1h0.3l0,0
	c0,0,0,0,0-0.1C33,38.8,33.1,38.7,33.1,38.6z M32.2,37.5c0,0.1,0,0.1,0.1,0.1c0,0,0,0,0,0c0,0,0.1,0.1,0.1,0.1l0,0l0,0
	c0.1-0.1,0-0.1,0-0.1C32.5,37.5,32.4,37.4,32.2,37.5l0-0.1L32.2,37.5z M33,38.2L33,38.2L33,38.2C33,38.1,33,38.1,33,38.2
	c0-0.1-0.1-0.1-0.2-0.1c-0.1,0-0.1,0-0.1,0.1c0,0,0,0.1,0,0.1c0,0,0.1,0.1,0.1,0.1C33,38.3,33,38.2,33,38.2C33,38.2,33,38.2,33,38.2
	z M33.4,39L33.4,39L33.4,39c-0.1-0.1-0.1,0-0.1,0c0,0,0,0-0.1,0l-0.1,0v0.3l0.1,0c0,0,0,0,0,0C33.4,39.3,33.4,39.2,33.4,39
	C33.4,39.1,33.4,39.1,33.4,39L33.4,39z M33.6,37.8c0,0,0-0.1-0.1-0.1c-0.1,0-0.2,0-0.2,0c0,0,0,0.1,0,0.1c0,0,0.1,0.1,0.1,0.1
	C33.5,37.9,33.6,37.9,33.6,37.8z M34.1,39.5c0-0.1-0.1-0.1-0.2,0l0,0v0.3h0.2l0,0C34.1,39.7,34.1,39.6,34.1,39.5z M34.7,39.1
	c0-0.1-0.1-0.1-0.1-0.1c-0.1,0-0.1,0-0.2,0.1c-0.1,0.1-0.1,0.1-0.1,0.2l0,0l0,0c0,0,0,0,0.1,0c0,0,0.1,0,0.1,0c0,0,0.1,0,0.1-0.1
	C34.7,39.2,34.7,39.2,34.7,39.1z M34.9,38c0,0,0-0.1,0-0.1c-0.1-0.1-0.1-0.1-0.2,0c0,0,0-0.1,0-0.1l-0.1-0.1l-0.1,0.1c0,0,0,0,0,0
	c0,0-0.1,0.1-0.1,0.1c0,0,0,0.1,0,0.1c0,0,0.1,0,0.1,0c0,0,0,0,0,0l0.1,0c0,0,0,0,0,0l0,0h0C34.9,38.1,34.9,38.1,34.9,38z
	 M34.6,37.4c0,0.1,0.1,0.1,0.1,0.1l0.1,0l0-0.1c0-0.1,0-0.2-0.1-0.2l0-0.1l-0.1,0C34.6,37.3,34.6,37.3,34.6,37.4z M35.2,38.5
	c-0.1-0.1-0.2,0-0.2,0c0,0,0,0.1,0,0.1c0,0,0.1,0,0.1,0c0.1,0,0.1,0,0.1-0.1C35.2,38.6,35.2,38.6,35.2,38.5z M35.3,38.2
	c0-0.1-0.1-0.1-0.1-0.1c0,0-0.1,0-0.1,0.1c0,0,0,0,0,0c0,0-0.1,0-0.1,0.1c0,0.1,0,0.1,0,0.1c0,0,0,0,0,0l0,0.1l0.1-0.1
	C35.3,38.3,35.3,38.3,35.3,38.2z M35.5,39.7c0-0.1-0.1-0.1-0.1-0.1v0.1c0,0,0,0,0,0l0,0.1c0,0,0,0,0,0v0.1
	C35.4,39.8,35.4,39.8,35.5,39.7C35.5,39.7,35.5,39.7,35.5,39.7z M36.5,37.2C36.5,37.2,36.5,37.2,36.5,37.2L36.5,37.2
	C36.5,37.2,36.6,37.2,36.5,37.2C36.6,37.2,36.6,37.2,36.5,37.2l0.1,0.1l0,0c0.1,0,0-0.1,0-0.2c0,0,0,0,0,0l0-0.1L36.6,37
	c0,0,0,0-0.1,0c0,0,0,0,0,0c-0.1,0-0.1,0-0.1,0.1c0,0,0,0.1,0,0.1C36.4,37.2,36.5,37.2,36.5,37.2z M36.8,39C36.8,39,36.8,39,36.8,39
	L36.8,39l-0.1-0.1c-0.1,0-0.1,0-0.2,0L36.5,39l0.1,0.1c0,0,0,0,0,0c0,0,0.1,0.1,0.1,0.1l0,0c0,0,0.1,0,0.1,0
	C36.9,39.1,36.8,39,36.8,39z M36.9,33c0,0,0.1-0.1,0.1-0.1c0,0,0-0.1-0.1-0.1c0,0,0,0,0,0V3.4H8.5c0-0.1,0-0.2-0.1-0.2
	c0,0-0.1,0-0.1,0c-0.1,0-0.1,0.1-0.1,0.2H3.4v13.7c0,0,0,0,0,0c-0.1,0-0.1,0.2,0,0.2c0,0,0,0,0,0v4.3c0-0.1-0.2-0.1-0.2-0.1
	c0,0.1,0.1,0.1,0.2,0.1v11.3c0,0-0.1,0-0.1,0.1c0,0.1,0,0.1,0.1,0.2l0,0h0V36c-0.1-0.1-0.2-0.1-0.2,0l-0.1,0l0,0.1
	c0,0.1,0.1,0.2,0.2,0.2c0,0,0,0,0,0v0.7H6c0,0,0,0.1,0,0.1c0,0,0.1,0,0.1,0l0,0l0,0c0,0,0,0,0,0c0,0,0.1,0,0.1-0.1h4.7c0,0,0,0,0,0
	c0,0,0,0,0.1,0.1c0,0,0.1,0,0.1,0c0.1,0,0.1,0,0.1-0.1c0,0,0,0,0,0h1.3c0,0,0,0,0,0c0,0,0,0.1,0.1,0.1c0,0,0.1,0,0.1,0
	c0.1,0,0.1,0,0.1-0.1c0,0,0-0.1,0-0.1h4.6c0,0-0.1,0.1-0.1,0.1l0,0l0,0c0,0,0.1,0,0.1,0c0,0,0,0,0,0c0,0,0,0,0,0l0.1,0V37
	c0,0,0,0,0-0.1c0,0,0,0,0-0.1h7.3c0,0,0,0,0,0.1l0.1,0.1l0-0.2c0,0,0,0,0,0h1.7c0,0,0,0,0,0c0,0-0.1,0.1-0.1,0.2
	c0,0,0.1,0.1,0.1,0.1c0.1,0,0.1-0.1,0.2-0.1c0-0.1,0-0.1,0-0.1h0.1c0,0,0,0,0,0c0,0.1,0.1,0.1,0.2,0.1c0,0,0,0,0.1,0l0,0l0,0
	c0,0,0-0.1,0-0.1h1.2c0,0,0,0,0,0c0,0.1,0,0.1,0.1,0.1c0,0,0,0,0.1,0c0,0,0,0,0,0c0.1,0,0.1-0.1,0.1-0.1c0,0,0-0.1,0-0.1h0.8
	c0,0,0,0,0,0.1l0,0h0c0.1,0,0.1,0,0.1-0.1h0.2c0,0,0,0,0,0l0,0h0c0,0,0.1,0,0.1-0.1c0,0,0,0,0,0h1.3L31.6,37h0.5l0-0.1c0,0,0,0,0,0
	h0.3c0,0,0,0,0,0c0,0,0,0,0,0c0,0,0,0,0,0l0,0.1l0,0c0,0,0,0,0.1,0c0.1,0,0.1,0,0.1-0.1c0,0,0-0.1,0-0.1h0.6c0,0,0,0,0,0.1l0,0
	l0.1,0c0,0,0,0,0,0c0,0,0,0.1,0,0.1c0,0.1,0.1,0.1,0.1,0.1l0,0c0,0,0,0,0.1,0.1c0,0,0.1,0.1,0.1,0.1l0.1,0l0-0.1c0,0,0,0,0-0.1
	c0,0,0-0.1,0-0.1l0-0.1l-0.1,0c0,0-0.1,0-0.2,0c0,0-0.1,0-0.1,0l0,0l0,0h3.4V33z M37.6,38.9C37.6,38.9,37.6,38.8,37.6,38.9
	c-0.1-0.1-0.1-0.1-0.2-0.1l0,0l-0.1,0c0,0-0.1,0-0.1,0c-0.1,0-0.1,0-0.2,0l-0.1-0.1v0.7l0.1,0c0,0,0.1,0,0.1,0c0,0,0,0,0,0
	c0,0,0,0,0,0c0,0.1,0,0.1,0.1,0.1c0,0,0.1,0,0.1,0c0,0,0,0,0.1-0.1c0.1-0.1,0.2-0.1,0.2-0.3l0,0C37.6,39,37.6,39,37.6,38.9z
	 M38.2,36.9c0-0.1-0.1-0.2-0.1-0.2L38,36.7l0,0.1c0,0,0,0,0,0c0,0-0.1,0.1-0.1,0.2l0,0.1L38.2,36.9L38.2,36.9z M38.2,34.4
	c0,0,0-0.1,0-0.1c-0.1-0.1-0.1-0.1-0.2,0c0,0,0,0-0.1,0.1l0-0.1l-0.1,0c0,0,0,0-0.1,0c0,0-0.1,0-0.1,0c-0.1,0-0.1,0.1-0.1,0.1
	c0,0.1,0.1,0.1,0.1,0.1c0,0,0,0,0,0c0,0,0.1,0,0.1,0c0,0,0.1,0,0.1-0.1c0,0,0,0,0,0c0,0,0.1,0,0.2,0C38.1,34.5,38.2,34.5,38.2,34.4
	L38.2,34.4L38.2,34.4z M38.4,35.7c0.1,0,0.1,0,0.1-0.1c0,0,0-0.1,0-0.1c-0.1-0.1-0.2-0.1-0.2,0C38.2,35.5,38.3,35.6,38.4,35.7
	C38.3,35.7,38.4,35.7,38.4,35.7z M38.9,38.5L38.9,38.5c-0.1-0.1-0.1-0.1-0.1-0.1c0,0,0,0,0,0l0.2,0.1l-0.1-0.2
	c0-0.1-0.1-0.1-0.1-0.1c0,0,0,0-0.1,0L38.7,38l-0.1,0.1c0,0,0,0-0.1,0c0,0,0,0-0.1,0l0,0l0,0c0,0,0,0.1,0,0.1c0,0,0,0,0.1,0.1
	c0,0.1,0.1,0.1,0.2,0.1L38.9,38.5z M39.2,39.9l-0.1-0.2c0,0,0,0,0-0.1c0,0,0-0.1,0-0.1c0-0.1-0.1-0.1-0.1-0.1c0,0-0.1,0-0.1,0.1
	c0,0,0,0.1,0,0.1c0,0,0.1,0.1,0.1,0.1L39.2,39.9z M39.5,36.4L39.5,36.4L39.5,36.4c-0.1,0-0.1,0-0.1,0c0,0-0.1,0-0.1,0
	c-0.1,0-0.1,0-0.1,0c0,0.1,0,0.1,0,0.1l0,0.1l0.1,0c0,0,0,0,0,0c0,0,0.1,0,0.1,0c0.1,0,0.1,0,0.1,0C39.5,36.5,39.5,36.4,39.5,36.4z
	 M39.6,34.9c-0.1-0.1-0.2,0-0.2,0c0,0,0,0.1,0,0.1c0,0,0.1,0,0.1,0c0.1,0,0.1,0,0.1-0.1C39.7,35,39.7,34.9,39.6,34.9z M40.1,32.7
	c0-0.1,0-0.1-0.1-0.1c0,0,0,0,0,0l0,0c0-0.1,0-0.2-0.1-0.2l0,0c0,0-0.1,0-0.1,0c0,0,0,0.1,0,0.1c0,0,0,0,0,0l0,0.1h0.1
	c0,0,0,0,0,0.1c0,0,0,0-0.1,0c0,0-0.1,0.1-0.1,0.1c0,0,0,0-0.1,0c0,0,0-0.1,0-0.1c0-0.1-0.1-0.1-0.2,0c0,0,0,0-0.1,0.1l0,0l0,0
	c0,0,0,0,0,0.1l-0.1,0.1l0.1,0c0,0,0.1,0,0.1,0c0,0,0.1,0,0.1,0c0,0,0-0.1,0-0.1c0,0,0.1,0,0.1-0.1c0,0,0,0,0,0c0,0,0,0,0.1,0l0,0
	l0,0C40.1,32.9,40.1,32.8,40.1,32.7z M40.2,34.7C40.2,34.7,40.2,34.7,40.2,34.7c0,0.1,0,0.1,0,0.1V34.7z M77.4,21.8
	c-0.7,4.1-4.1,6.8-8.6,6.8c-5,0-8.7-3.6-8.7-8.5c0-5,3.7-8.5,8.7-8.5c5,0,8.7,3.6,8.7,8.5c0,0.5,0,1-0.1,1.4c-0.1,0-0.1,0-0.1,0.1
	C77.3,21.6,77.3,21.7,77.4,21.8C77.4,21.8,77.4,21.8,77.4,21.8z M66.1,25.5C66.1,25.5,66.1,25.5,66.1,25.5c-0.1,0-0.2,0-0.2,0
	c0,0-0.1,0-0.1,0c-0.1,0-0.1,0.1-0.1,0.2c0,0,0,0,0,0.1c0,0,0.1,0,0.1,0c0.1,0,0.2,0,0.2-0.1C66.1,25.6,66.1,25.6,66.1,25.5z
	 M66.8,25.7L66.8,25.7c0-0.1,0-0.1,0-0.1c0-0.1-0.1-0.2-0.1-0.3c-0.1-0.1-0.2-0.1-0.2,0c-0.1,0.1,0,0.3,0,0.3c0,0.1,0.1,0.1,0.2,0.1
	C66.7,25.7,66.7,25.7,66.8,25.7L66.8,25.7z M72.8,26.4c0-0.1-0.1-0.1-0.1-0.1c0,0-0.1,0-0.1,0.1l0,0c0,0,0,0.1-0.1,0.1
	c0,0,0,0.1,0,0.1c0,0,0,0,0.1,0c0.1,0,0.2,0,0.2-0.1C72.8,26.5,72.8,26.5,72.8,26.4z M74,19.4L74,19.4C74,19.4,73.9,19.4,74,19.4
	c-0.1,0-0.1,0.1-0.1,0.1c-0.3-2.8-2.2-4.8-5-4.8c-3.1,0-5,2.3-5,5.4c0,3.1,2,5.4,5,5.4c2.9,0,4.8-2.1,5-4.8c0,0.1,0,0.1,0.1,0.2
	c0,0,0.1,0.1,0.1,0.1c0,0,0.1,0,0.1-0.1c0-0.1,0-0.2,0-0.3c-0.1-0.1-0.2-0.1-0.2,0c0,0,0,0,0,0c0-0.2,0-0.4,0-0.6c0-0.2,0-0.3,0-0.5
	c0,0,0,0.1,0,0.1c0,0.1,0.1,0.2,0.2,0.2c0,0,0,0,0,0l0,0l0,0C74.2,19.7,74.3,19.4,74,19.4z M75.5,21.3c0-0.1-0.2-0.1-0.2-0.1
	c0,0-0.1,0-0.1,0c0,0-0.1,0-0.1,0.1c-0.1,0-0.1,0.1-0.1,0.1l0,0.1h0.1c0,0,0.1,0,0.1,0c0.1,0,0.1,0,0.2,0c0.1,0,0.1,0,0.1,0
	C75.5,21.4,75.6,21.3,75.5,21.3z M75.9,18.3l-0.1,0.2c-0.1,0.1-0.1,0.1-0.2,0.1c0,0-0.1,0-0.1,0.1c-0.1,0-0.1,0.1-0.1,0.2
	c0,0.1-0.1,0.1-0.1,0.2l-0.1,0.1l0.1,0c0.3,0,0.5-0.4,0.6-0.7L75.9,18.3z M76.7,23.4c0-0.1-0.1-0.1-0.2-0.1c0,0,0,0,0,0
	c-0.1,0-0.1,0.1-0.1,0.2c0,0,0,0.1,0,0.1c0,0,0,0.1,0,0.1l0,0.2l0.1-0.2c0,0,0.1-0.1,0.1-0.1c0,0,0,0,0.1,0l0.1,0l0,0
	C76.7,23.6,76.7,23.5,76.7,23.4z M76.9,20.2c0,0,0-0.1-0.1-0.1l0,0l0,0c0,0-0.1,0-0.1,0.1c-0.1,0.1-0.2,0.1-0.2,0.2
	c0,0,0,0.1,0.1,0.1l0,0l0,0C76.7,20.5,76.8,20.3,76.9,20.2z M92.4,21.5h-8.1v3.8c0,0-0.1-0.1-0.1-0.1c-0.1,0-0.1,0-0.1,0
	c0,0,0,0.1,0,0.2c0,0,0,0,0,0.1l0,0h0.2v0.3c-0.1,0-0.2-0.1-0.4-0.1l-0.1,0l0,0.1c0.1,0.2,0.1,0.4,0.1,0.5c0,0,0,0.1,0,0.1
	c-0.1,0-0.2,0.1-0.2,0.2c0,0,0,0.1,0.1,0.1c0,0,0.1,0.1,0.1,0.1c0.1,0,0.1-0.1,0.2-0.2c0-0.1,0.1-0.1,0.1-0.2c0,0,0.1-0.1,0.1-0.1
	c0,0,0,0,0,0v1l0,0c-0.1,0-0.2,0.1-0.2,0.1c0,0,0,0,0,0l-0.1,0l0.1,0c0,0,0,0,0,0.1c0,0.1,0.1,0.1,0.2,0.1c0,0,0,0,0,0c0,0,0,0,0,0
	V28c0,0,0,0-0.1-0.1c0,0-0.1,0-0.2,0c-0.1,0-0.2,0-0.2,0.1c0,0,0,0.1,0,0.2l0,0h0c0,0,0,0,0.1,0c0,0,0,0,0,0c0,0,0,0,0.1,0
	c0.1,0,0.1,0,0.1-0.1v0.2h-1.7c0,0,0,0,0,0h-0.1c0,0-0.1-0.1-0.1-0.1c0,0-0.1,0-0.1,0.1h-1.6v-1.5c0.1,0,0.1,0,0.2,0
	c0.1,0,0.1,0,0.1,0c0,0,0,0,0-0.1c-0.1-0.1-0.2-0.3-0.3-0.4V11.8h11.8v3.1h-8.2v3.5h8.1V21.5z M83.2,24.8h0.5v-0.5l-0.1,0.1
	c-0.1,0.1-0.2,0.1-0.3,0.2l0,0V24.8z M82.8,26.9C82.8,26.9,82.8,27,82.8,26.9l0.1,0.1l0,0c0.2-0.4,0.4-0.6,0.6-0.9l0.1-0.1
	c0.1-0.1,0.1-0.2,0-0.3c0-0.1-0.1-0.1-0.2-0.1c0,0,0,0,0,0c0,0-0.1,0-0.1,0.1l0,0l0,0c0,0,0,0,0,0v0c0,0.2-0.1,0.4-0.3,0.6
	c-0.1,0.1-0.2,0.2-0.2,0.3C82.8,26.6,82.7,26.8,82.8,26.9z M82.1,26.6C82.1,26.6,82.1,26.6,82.1,26.6c0.1,0,0.1,0,0.2,0l0,0.1l0-0.1
	c0,0,0-0.1,0.1-0.1c0.1-0.1,0.1-0.2,0-0.3c0,0-0.1-0.1-0.1-0.1c-0.2,0-0.3,0.2-0.3,0.4l0,0L82.1,26.6C82,26.6,82,26.6,82.1,26.6z
	 M83,27.3l-0.1,0c0,0-0.1,0-0.2,0c-0.1,0-0.1,0-0.2,0c-0.1,0-0.1,0-0.2,0.1c0,0.1-0.1,0.1,0,0.2c0,0,0,0.1-0.1,0.1L82.1,28l0.2-0.1
	c0.1,0,0.1-0.1,0.2-0.1C82.7,27.7,82.8,27.6,83,27.3L83,27.3z M83.3,26.9c0,0,0.1,0,0.1-0.1c0-0.1,0.1-0.2,0-0.2
	c0-0.1-0.1-0.1-0.2,0c0,0,0,0.1-0.1,0.1c0,0.1,0,0.1,0,0.2C83.2,26.9,83.2,26.9,83.3,26.9z M83.7,27.1c0,0.1-0.1,0.1-0.1,0.2
	c-0.1,0.1-0.1,0.2-0.2,0.3l0,0l0,0c0,0,0.1,0,0.2,0c0,0,0.1,0,0.1,0c0,0,0.1,0,0.1,0c0,0,0,0,0,0l0,0l0,0c0-0.1,0-0.1,0.1-0.2
	c0.1-0.1,0.1-0.2,0.1-0.4c0-0.1-0.1-0.1-0.1-0.1C83.8,27,83.7,27,83.7,27.1z M52.4,11.8h-3.5v16.5h10.6v-3.1h-7V11.8z M109.3,14.9
	h-4.8v11.9c-0.1,0-0.1,0-0.2,0c0,0,0,0.1,0,0.2v0c0,0,0,0,0,0.1c0,0.1-0.1,0.1,0,0.2c0,0,0.1,0.1,0.1,0.1l0,0l0.1-0.3v1.2h-3.6v-0.6
	c0,0,0-0.1,0-0.1c0,0,0-0.1,0-0.1c0,0,0,0,0,0V14.9H96v-3.1h13.3V14.9z M101.6,26.5c0,0-0.1-0.1-0.1-0.1c0,0-0.1,0-0.1,0.1
	c0,0,0,0,0,0.1c0,0.1-0.1,0.1,0,0.1c0,0.1,0.1,0.1,0.1,0.1c0.1,0,0.2-0.1,0.2-0.2C101.7,26.6,101.7,26.6,101.6,26.5z M103.5,24.9
	c0,0-0.1,0-0.2-0.1c-0.1,0-0.2,0-0.2-0.1c0-0.1-0.1-0.1-0.1-0.1c0,0-0.1,0-0.1,0.1c0,0.1,0,0.1,0,0.2c0,0,0.1,0.2,0.2,0.2
	c0,0,0.1,0,0.1,0c0.1,0,0.1,0,0.1,0C103.5,25.1,103.5,25.1,103.5,24.9C103.6,25,103.5,24.9,103.5,24.9z M125,23.1
	c0,3-2.2,5.3-6.7,5.3c-3.2,0-5.5-1.1-7-2.6l1.9-2.7c1.2,1.2,3,2.2,5.3,2.2c1.9,0,2.9-0.9,2.9-1.8c0-2.9-9.6-0.9-9.6-7.1
	c0-2.7,2.4-5,6.3-5c2.6,0,4.8,0.8,6.5,2.3l-2,2.6c-1.3-1.2-3.1-1.8-4.8-1.8c-1.5,0-2.4,0.7-2.4,1.7C115.4,18.7,125,17,125,23.1z
	 M121.9,23.6h0.2l0,0c0,0,0-0.1,0-0.1c0-0.1,0-0.3,0-0.4c0,0-0.1-0.1-0.2-0.1l0,0V23.6z M119.4,27.4c-0.1-0.1-0.1-0.1-0.1-0.1
	c-0.1,0-0.1,0-0.1,0.1c0,0.1,0,0.1,0.1,0.2c0,0,0,0,0.1,0c0.1,0,0.2-0.1,0.2-0.1C119.4,27.5,119.4,27.4,119.4,27.4z M121.3,26.1
	c0-0.1-0.1-0.3-0.2-0.3c-0.1,0-0.1,0-0.1,0c0,0,0,0.1,0,0.2c0,0,0,0,0,0.1c0,0,0,0,0,0c-0.1-0.1-0.1-0.1-0.1-0.1
	c-0.1,0-0.1,0-0.1,0.1c0,0.1,0,0.1,0.1,0.2c0,0,0,0,0.1,0c0.1,0,0.2-0.1,0.2-0.1c0,0,0,0,0,0l0,0L121.3,26.1L121.3,26.1z
	 M121.8,26.5C121.8,26.5,121.7,26.5,121.8,26.5c-0.1,0-0.2,0-0.2,0.1c0,0.1-0.1,0.2-0.1,0.3l0,0l0,0c0,0,0.1,0,0.1,0
	C121.7,26.9,121.8,26.6,121.8,26.5C121.8,26.5,121.8,26.5,121.8,26.5z M122.2,25.9c0-0.1-0.1-0.2-0.1-0.2c0,0-0.1,0-0.1,0
	c-0.2,0-0.3-0.1-0.4,0c0,0,0,0.1,0,0.1c0,0.1,0,0.1,0,0.2c0,0,0,0,0,0.1l0,0.1l0.1,0c0.1,0,0.3,0,0.3,0.1l0,0l0,0
	C122.2,26.2,122.2,26,122.2,25.9z M124.1,21.9L124.1,21.9c-0.1,0-0.1,0-0.2,0c-0.1,0-0.1,0-0.2,0c0,0-0.1,0-0.2,0.1c0,0,0,0.1,0,0.2
	c0.1,0.1,0.2,0.2,0.4,0.3l0.1,0L124.1,21.9z M124.6,21.9c0,0,0.1-0.3,0-0.4c0,0,0,0-0.1,0c0,0-0.1,0-0.2,0.1c0,0,0,0.1,0,0.1
	c0,0,0,0.1,0,0.1c0,0.1,0,0.1,0,0.2C124.4,21.9,124.4,21.9,124.6,21.9C124.5,21.9,124.5,21.9,124.6,21.9z"/>
</svg>
